<svg width="512" height="512" viewBox="0 0 512 512" fill="none" xmlns="http://www.w3.org/2000/svg">
<path d="M441.895 160.703C442.192 164.859 442.192 169.016 442.192 173.172C442.192 299.937 345.682 446 169.29 446C114.947 446 64.4648 430.265 22 402.954C29.7211 403.844 37.1442 404.141 45.1624 404.141C90.0019 404.141 131.279 389 164.241 363.172C122.074 362.281 86.736 334.672 74.5606 296.672C80.5002 297.562 86.4389 298.156 92.6756 298.156C101.287 298.156 109.899 296.968 117.917 294.891C73.9674 285.984 41.0043 247.39 41.0043 200.781V199.594C53.7729 206.719 68.6219 211.172 84.3594 211.765C58.5243 194.546 41.5985 165.156 41.5985 131.906C41.5985 114.093 46.3489 97.7653 54.6642 83.5152C101.88 141.703 172.853 179.702 252.436 183.859C250.952 176.734 250.06 169.313 250.06 161.891C250.06 109.046 292.822 66 345.977 66C373.594 66 398.538 77.5781 416.058 96.2812C437.736 92.1252 458.522 84.1092 476.934 73.1251C469.806 95.3912 454.662 114.094 434.767 125.968C454.069 123.891 472.777 118.546 490 111.125C476.936 130.125 460.603 147.046 441.895 160.703Z" fill="currentColor"/>
</svg>
