<svg width="512" height="512" viewBox="0 0 512 512" fill="none" xmlns="http://www.w3.org/2000/svg">
<path d="M501.301 132.409C495.413 110.205 478.064 92.7182 456.035 86.7837C416.107 76 256 76 256 76C256 76 95.8943 76 55.9649 86.7837C33.9365 92.7191 16.5872 110.205 10.6987 132.409C0 172.655 0 256.625 0 256.625C0 256.625 0 340.594 10.6987 380.84C16.5872 403.044 33.9365 419.803 55.9649 425.737C95.8943 436.521 256 436.521 256 436.521C256 436.521 416.106 436.521 456.035 425.737C478.064 419.803 495.413 403.044 501.301 380.84C512 340.594 512 256.625 512 256.625C512 256.625 512 172.655 501.301 132.409ZM203.636 332.863V180.387L337.454 256.627L203.636 332.863Z" fill="currentColor"/>
</svg>
