<svg width="512" height="512" viewBox="0 0 512 512" fill="none" xmlns="http://www.w3.org/2000/svg">
<path d="M448 216.617C410.253 216.707 373.432 204.959 342.738 183.031V335.959C342.728 364.283 334.053 391.929 317.874 415.2C301.696 438.471 278.784 456.258 252.203 466.182C225.621 476.107 196.638 477.695 169.127 470.737C141.617 463.778 116.891 448.602 98.2552 427.24C79.6197 405.878 67.9632 379.347 64.8443 351.194C61.7253 323.042 67.2926 294.61 80.8017 269.701C94.3108 244.791 115.118 224.592 140.44 211.803C165.763 199.014 194.394 194.245 222.506 198.134V275.052C209.642 271.013 195.829 271.135 183.038 275.399C170.248 279.663 159.134 287.852 151.285 298.796C143.436 309.74 139.252 322.879 139.332 336.337C139.411 349.795 143.749 362.884 151.727 373.735C159.705 384.586 170.914 392.643 183.754 396.757C196.594 400.87 210.408 400.829 223.224 396.64C236.039 392.451 247.2 384.327 255.114 373.43C263.027 362.532 267.288 349.418 267.288 335.959V37H342.738C342.686 43.3589 343.219 49.7092 344.333 55.9705C346.955 69.948 352.406 83.2447 360.354 95.0474C368.301 106.85 378.578 116.911 390.555 124.614C407.594 135.858 427.572 141.851 448 141.847V216.617Z" fill="currentColor"/>
</svg>
