<svg width="1000" height="1000" viewBox="0 0 1000 1000" fill="none" xmlns="http://www.w3.org/2000/svg">
<path d="M630.68 875.14C636.186 879.708 642.698 882.902 649.68 884.46L648.81 888.39C641.208 886.685 634.118 883.203 628.12 878.23L630.68 875.14ZM611.48 851.06C612.994 857.955 615.99 864.439 620.26 870.06L623.46 867.63C619.548 862.476 616.799 856.537 615.4 850.22L611.48 851.06ZM977 256.86L1000 247.86V252.18L976.81 261.29C974.169 316.836 951.086 369.445 912 409L966.81 463.8C975.841 455.435 987.69 450.777 1000 450.75V454.75C988.758 454.791 977.936 459.031 969.66 466.64L1000 497V502.68L966.82 469.5C960.904 475.958 956.992 483.996 955.56 492.637C954.127 501.277 955.235 510.147 958.75 518.169C962.265 526.191 968.035 533.02 975.358 537.824C982.681 542.628 991.242 545.201 1000 545.23V549.23C990.45 549.195 981.116 546.382 973.137 541.135C965.157 535.888 958.877 528.432 955.061 519.678C951.245 510.923 950.058 501.247 951.645 491.83C953.232 482.412 957.525 473.66 964 466.64L909.19 411.84C869.447 451.134 816.524 474.264 760.69 476.74L742.61 522.9C745.06 522.83 747.52 522.77 749.99 522.77C810.222 522.773 867.985 546.701 910.575 589.293C953.164 631.884 977.09 689.648 977.09 749.88C977.09 752.2 977.04 754.52 976.97 756.88L999.97 747.83V752.15L976.78 761.26C974.147 816.999 950.933 869.779 911.63 909.39L966.44 964.19C975.506 955.6 987.511 950.796 1000 950.76V954.76C988.589 954.806 977.621 959.18 969.31 967L1000 997.7V1000H996.63L966.49 969.86C959.071 978.144 954.979 988.88 955 1000H951C950.981 987.801 955.513 976.034 963.71 967L908.87 912.16C869.164 951.245 816.39 974.24 760.73 976.71L751.56 1000H747.25L756.25 976.89C754.16 976.95 752.05 976.98 749.95 976.98C689.718 976.98 631.954 953.054 589.362 910.465C546.771 867.875 522.843 810.112 522.84 749.88C522.84 747.58 522.84 745.29 522.95 743L476.59 761.22C473.966 816.893 450.809 869.62 411.59 909.22L466.41 964C473.419 957.439 482.194 953.071 491.655 951.435C501.116 949.799 510.848 950.966 519.653 954.793C528.459 958.62 535.953 964.938 541.211 972.971C546.47 981.004 549.265 990.399 549.25 1000H545.25C545.259 991.194 542.696 982.576 537.875 975.207C533.054 967.837 526.185 962.036 518.112 958.517C510.039 954.998 501.114 953.914 492.434 955.398C483.753 956.882 475.695 960.869 469.25 966.87L502.37 1000H496.69L466.43 969.72C458.921 978.017 454.765 988.809 454.77 1000H450.77C450.763 987.746 455.339 975.932 463.6 966.88L408.77 912C369.095 951.131 316.329 974.174 260.66 976.68L251.55 1000H247.24L256.29 976.88C254.13 976.94 251.97 976.98 249.8 976.98C219.977 976.98 190.446 971.106 162.893 959.693C135.34 948.28 110.304 931.552 89.216 910.464C46.6265 867.874 22.7 810.111 22.7 749.88C22.7 747.58 22.7367 745.287 22.81 743L0 752V747.69L23 738.69C25.6068 683.122 48.6689 630.479 87.75 590.89L33.17 536.29C24.1263 544.611 12.2895 549.236 0 549.25L0 545.25C11.2262 545.211 22.0341 540.986 30.31 533.4L0 503.06V497.37L33.15 530.54C40.8072 522.213 45.0548 511.312 45.05 500C45.0369 488.039 40.2921 476.57 31.8516 468.096C23.4111 459.621 11.9604 454.831 0 454.77L0 450.77C13.0214 450.833 25.4889 456.046 34.6807 465.269C43.8724 474.493 49.0417 486.978 49.06 500C49.0786 512.377 44.4128 524.302 36 533.38L90.56 588C130.088 548.888 182.677 525.767 238.22 523.08L256.28 476.93C254.13 476.99 251.97 477.03 249.8 477.03C219.974 477.03 190.441 471.155 162.886 459.74C135.331 448.325 110.294 431.595 89.2054 410.503C68.1169 389.412 51.3894 364.373 39.9783 336.817C28.5673 309.26 22.6961 279.726 22.7 249.9C22.7 247.613 22.7367 245.323 22.81 243.03L0 252V247.68L23 238.68C25.5955 183.174 48.6008 130.582 87.6 91L33 36.36C23.989 44.6163 12.2214 49.2128 0 49.25L0 45.25C11.1548 45.2032 21.8965 41.0241 30.15 33.52L0 3.37V0H2.31L33 30.69C40.7547 22.3529 45.0606 11.3861 45.05 0L49.05 0C49.0659 12.4489 44.3428 24.4372 35.84 33.53L90.44 88.12C129.984 48.9493 182.624 25.7961 238.22 23.12L247.22 0.03H251.53L242.53 22.95C244.92 22.88 247.32 22.83 249.73 22.83C279.557 22.8208 309.093 28.6871 336.652 40.094C364.211 51.5008 389.253 68.2248 410.349 89.3107C431.444 110.397 448.179 135.432 459.598 162.986C471.017 190.54 476.896 220.073 476.9 249.9C476.9 252.227 476.863 254.56 476.79 256.9L523.15 238.69C525.757 183.067 548.858 130.376 588 90.77L533.37 36.18C524.292 44.5881 512.373 49.2564 500 49.25C486.942 49.2368 474.423 44.0437 465.19 34.8104C455.956 25.5771 450.763 13.0578 450.75 0L454.75 0C454.763 11.9951 459.536 23.4949 468.019 31.9749C476.503 40.4549 488.005 45.2221 500 45.23C511.309 45.2438 522.209 40.9989 530.53 33.34L497.19 0H502.87L533.37 30.49C541.009 22.1746 545.242 11.2913 545.23 0L549.23 0C549.252 12.3514 544.609 24.2555 536.23 33.33L590.84 87.93C630.311 48.9148 682.788 25.8312 738.22 23.1L747.22 0H751.53L742.53 22.93C744.98 22.85 747.44 22.8 749.91 22.8C810.14 22.8027 867.902 46.73 910.491 89.319C953.08 131.908 977.007 189.67 977.01 249.9C977.09 252.23 977 254.55 977 256.86ZM865.54 59L815.62 108.92C822.603 105.906 830.115 104.312 837.72 104.23V108.23C824.484 108.355 811.774 113.427 802.09 122.45L877.38 197.74C886.403 188.056 891.475 175.346 891.6 162.11H895.6C895.523 169.715 893.929 177.229 890.91 184.21L940.83 134.29C922.094 103.55 896.28 77.7358 865.54 59ZM799.3 125.3C789.961 135.412 784.897 148.745 785.17 162.508C785.443 176.27 791.031 189.392 800.765 199.125C810.498 208.858 823.62 214.447 837.383 214.72C851.145 214.993 864.478 209.929 874.59 200.59L799.3 125.3ZM365.35 59L315.43 108.92C322.416 105.906 329.932 104.312 337.54 104.23V108.23C324.334 108.38 311.66 113.454 302 122.46L377.3 197.75C386.323 188.066 391.395 175.356 391.52 162.12H395.52C395.447 169.725 393.855 177.238 390.84 184.22L440.76 134.3C421.994 103.54 396.137 77.7207 365.35 59ZM299.11 125.3C289.743 135.408 284.657 148.752 284.92 162.53C285.182 176.308 290.773 189.448 300.518 199.192C310.263 208.936 323.404 214.525 337.182 214.785C350.96 215.046 364.303 209.958 374.41 200.59L299.11 125.3ZM231.32 127.16C236.237 152.984 246.826 177.394 262.323 198.628C277.821 219.862 297.84 237.39 320.935 249.946C344.03 262.502 369.625 269.774 395.872 271.236C422.119 272.698 448.363 268.314 472.71 258.4C472.82 255.57 472.89 252.74 472.89 249.9C472.984 210.561 462.609 171.905 442.83 137.9L377.28 203.45C366.459 213.797 352.017 219.497 337.046 219.33C322.074 219.162 307.763 213.14 297.177 202.553C286.59 191.967 280.568 177.656 280.4 162.684C280.233 147.713 285.933 133.271 296.28 122.45L361.83 56.9C327.817 37.1465 289.163 26.7928 249.83 26.9C246.99 26.9 244.16 26.97 241.34 27.07C228.413 58.7678 224.933 93.5287 231.32 127.16ZM93.28 91L408.74 406.43C446.842 367.96 469.529 316.863 472.51 262.8C451.287 271.206 428.667 275.525 405.84 275.53C394.432 275.526 383.049 274.455 371.84 272.33C336.054 265.522 303.143 248.11 277.381 222.355C251.619 196.601 234.198 163.694 227.38 127.91C220.937 94.1174 224.235 59.1892 236.89 27.2C182.829 30.1895 131.737 52.8872 93.28 91ZM27.1 237C60.0304 223.982 96.049 220.878 130.721 228.07C165.393 235.263 197.205 252.437 222.24 277.48C247.284 302.514 264.459 334.327 271.65 368.999C278.841 403.672 275.733 439.691 262.71 472.62C316.561 469.652 367.475 447.125 405.89 409.27L90.44 93.81C52.5861 132.229 30.0625 183.147 27.1 237ZM127.27 436.4L177.55 386.12C171.933 388.349 165.953 389.525 159.91 389.59V385.59C171.034 385.491 181.725 381.264 189.91 373.73L126 309.81C118.475 318.001 114.25 328.688 114.14 339.81H110.14C110.205 333.766 111.385 327.786 113.62 322.17L63.31 372.43C80.1095 397.861 101.879 419.63 127.31 436.43L127.27 436.4ZM192.73 370.87C200.584 362.275 204.821 350.982 204.558 339.342C204.296 327.701 199.555 316.611 191.322 308.378C183.089 300.145 171.999 295.404 160.358 295.142C148.718 294.879 137.425 299.116 128.83 306.97L192.73 370.87ZM258.29 472.82C271.468 440.464 274.808 404.94 267.891 370.695C260.974 336.451 244.108 305.007 219.405 280.303C194.702 255.599 163.26 238.732 129.015 231.813C94.7706 224.895 59.2461 228.233 26.89 241.41C26.7833 244.23 26.7267 247.06 26.72 249.9C26.6039 292.058 38.5167 333.375 61.06 369L126 304.1C135.346 295.475 147.666 290.8 160.382 291.054C173.097 291.309 185.221 296.474 194.213 305.467C203.206 314.459 208.371 326.583 208.626 339.298C208.88 352.014 204.205 364.334 195.58 373.68L130.69 438.57C166.308 461.147 207.629 473.091 249.8 473C252.64 473 255.47 472.92 258.29 472.82ZM127.29 936.37L177.57 886.09C171.955 888.328 165.974 889.505 159.93 889.56V885.56C171.052 885.459 181.741 881.237 189.93 873.71L126 809.79C118.475 817.981 114.25 828.668 114.14 839.79H110.14C110.205 833.746 111.385 827.766 113.62 822.15L63.31 872.4C80.1095 897.831 101.879 919.6 127.31 936.4L127.29 936.37ZM192.75 870.84C200.569 862.238 204.775 850.954 204.494 839.333C204.214 827.711 199.468 816.644 191.243 808.429C183.018 800.214 171.945 795.482 160.323 795.216C148.701 794.95 137.423 799.17 128.83 807L192.75 870.84ZM268.3 872.62C263.384 846.794 252.794 822.381 237.296 801.145C221.797 779.909 201.776 762.38 178.678 749.823C155.581 737.267 129.983 729.996 103.734 728.536C77.484 727.075 51.2378 731.462 26.89 741.38C26.7833 744.213 26.7267 747.047 26.72 749.88C26.5996 792.045 38.5126 833.37 61.06 869L126 804.07C135.349 795.47 147.66 790.817 160.36 791.081C173.061 791.346 185.167 796.509 194.15 805.49C203.133 814.472 208.297 826.578 208.564 839.278C208.83 851.978 204.178 864.289 195.58 873.64L130.69 938.53C166.304 961.121 207.625 973.079 249.8 973C252.64 973 255.47 972.93 258.29 972.83C271.23 941.093 274.7 906.287 268.28 872.62H268.3ZM405.93 909.2L90.56 593.66C52.6343 632.102 30.0653 683.08 27.1 737C60.027 723.985 96.0407 720.881 130.709 728.07C165.377 735.258 197.188 752.426 222.225 777.46C247.262 802.494 264.434 834.302 271.627 868.97C278.82 903.637 275.721 939.651 262.71 972.58C316.578 969.609 367.507 947.071 405.93 909.2ZM472.51 762.78C439.58 775.797 403.562 778.902 368.889 771.712C334.217 764.523 302.404 747.352 277.364 722.314C252.325 697.276 235.153 665.463 227.962 630.791C220.771 596.119 223.874 560.101 236.89 527.17C182.891 530.15 131.851 552.791 93.4 590.82L408.78 906.36C446.859 867.898 469.53 816.821 472.51 762.78ZM472.89 749.88C472.983 710.541 462.608 671.885 442.83 637.88L377.28 703.43C366.459 713.777 352.017 719.477 337.046 719.31C322.074 719.142 307.763 713.12 297.177 702.533C286.59 691.947 280.568 677.636 280.4 662.664C280.233 647.693 285.933 633.251 296.28 622.43L361.83 556.89C327.824 537.112 289.169 526.737 249.83 526.83C246.99 526.83 244.16 526.9 241.34 527.01C228.165 559.365 224.827 594.888 231.745 629.131C238.664 663.374 255.53 694.815 280.232 719.518C304.935 744.22 336.376 761.086 370.619 768.005C404.862 774.923 440.385 771.585 472.74 758.41C472.82 755.55 472.89 752.72 472.89 749.88ZM395.48 662.14C395.408 669.745 393.816 677.259 390.8 684.24L440.72 634.32C421.968 603.558 396.125 577.731 365.35 559L315.43 608.92C322.416 605.906 329.932 604.312 337.54 604.23V608.23C324.338 608.372 311.665 613.435 302 622.43L377.3 697.72C386.323 688.036 391.395 675.326 391.52 662.09L395.48 662.14ZM299.11 625.27C289.743 635.378 284.657 648.722 284.92 662.5C285.182 676.278 290.773 689.418 300.518 699.162C310.263 708.906 323.404 714.495 337.182 714.755C350.96 715.016 364.303 709.928 374.41 700.56L299.11 625.27ZM523.11 738.62C525.711 683.161 548.689 630.613 587.64 591.05L533.04 536.45C523.682 544.964 511.404 549.547 498.756 549.248C486.108 548.95 474.06 543.792 465.114 534.846C456.168 525.9 451.01 513.852 450.712 501.204C450.413 488.556 454.996 476.278 463.51 466.92L408.69 412.11C369.017 451.213 316.268 474.241 260.62 476.75L242.6 522.9C244.99 522.82 247.39 522.77 249.8 522.77C279.624 522.77 309.156 528.644 336.71 540.058C364.263 551.471 389.299 568.2 410.387 589.29C431.476 610.379 448.204 635.415 459.616 662.97C471.028 690.524 476.901 720.056 476.9 749.88C476.9 752.2 476.863 754.533 476.79 756.88L523.11 738.62ZM466.39 469.76C458.637 478.366 454.482 489.619 454.784 501.198C455.085 512.778 459.819 523.799 468.01 531.99C476.201 540.181 487.222 544.915 498.802 545.216C510.381 545.518 521.634 541.363 530.24 533.61L466.39 469.76ZM533.1 530.76C541.099 522.195 545.459 510.857 545.259 499.139C545.06 487.421 540.316 476.238 532.03 467.95C523.743 459.662 512.561 454.917 500.843 454.716C489.125 454.514 477.787 458.872 469.22 466.87L533.1 530.76ZM627.46 936.34L677.74 886.06C672.125 888.297 666.144 889.473 660.1 889.53L660.05 885.53C671.171 885.423 681.858 881.201 690.05 873.68L626.15 809.78C618.616 817.965 614.389 828.656 614.29 839.78H610.29C610.357 833.737 611.533 827.758 613.76 822.14L563.49 872.4C580.287 897.832 602.058 919.603 627.49 936.4L627.46 936.34ZM692.92 870.81C700.671 862.196 704.82 850.936 704.51 839.352C704.2 827.768 699.455 816.745 691.254 808.558C683.053 800.372 672.022 795.646 660.438 795.356C648.854 795.066 637.6 799.234 629 807L692.92 870.81ZM768.46 872.59C763.54 846.769 752.948 822.362 737.449 801.132C721.95 779.901 701.93 762.377 678.836 749.824C655.741 737.27 630.147 730.001 603.902 728.541C577.657 727.081 551.415 731.466 527.07 741.38C526.97 744.21 526.9 747.04 526.9 749.88C526.783 792.046 538.7 833.37 561.25 869L626.14 804.11C635.489 795.51 647.8 790.857 660.5 791.121C673.201 791.386 685.307 796.549 694.29 805.53C703.273 814.512 708.437 826.618 708.704 839.318C708.97 852.018 704.318 864.329 695.72 873.68L630.9 938.61C666.52 961.17 707.837 973.101 750 973C752.84 973 755.67 972.93 758.49 972.83C771.419 941.09 774.882 906.285 768.46 872.62V872.59ZM906 909.34L590.52 593.89C552.726 632.307 530.241 683.19 527.28 737C560.207 723.987 596.221 720.884 630.888 728.074C665.556 735.263 697.366 752.43 722.403 777.464C747.441 802.497 764.614 834.304 771.809 868.97C779.004 903.637 775.907 939.651 762.9 972.58C816.708 969.625 867.59 947.139 906 909.34ZM972.72 762.78C939.788 775.806 903.766 778.917 869.088 771.731C834.41 764.546 802.591 747.376 777.547 722.336C752.503 697.296 735.328 665.48 728.136 630.803C720.944 596.127 724.05 560.104 737.07 527.17C682.971 530.15 631.842 552.859 593.36 591L908.82 906.51C946.984 868.032 969.709 816.892 972.69 762.78H972.72ZM865.54 559L815.62 608.92C822.603 605.906 830.115 604.312 837.72 604.23V608.23C824.484 608.355 811.774 613.427 802.09 622.45L877.38 697.74C886.403 688.056 891.475 675.346 891.6 662.11H895.6C895.523 669.715 893.929 677.229 890.91 684.21L940.83 634.29C922.094 603.55 896.28 577.736 865.54 559ZM799.3 625.27C789.88 635.366 784.748 648.727 784.987 662.533C785.226 676.34 790.817 689.514 800.581 699.279C810.346 709.043 823.52 714.634 837.327 714.873C851.133 715.112 864.494 709.98 874.59 700.56L799.3 625.27ZM741.49 527C728.322 559.355 724.991 594.875 731.913 629.114C738.835 663.353 755.703 694.789 780.406 719.487C805.108 744.186 836.548 761.048 870.788 767.965C905.028 774.881 940.548 771.544 972.9 758.37C973 755.55 973.07 752.72 973.07 749.88C973.162 710.543 962.791 671.888 943.02 637.88L877.47 703.43C866.649 713.777 852.207 719.477 837.236 719.31C822.264 719.142 807.953 713.12 797.367 702.533C786.78 691.947 780.758 677.636 780.59 662.664C780.423 647.693 786.123 633.251 796.47 622.43L862 556.85C827.995 537.071 789.339 526.696 750 526.79C747.15 526.79 744.32 526.86 741.49 527ZM756.29 476.95C754.19 477 752.09 477.04 749.99 477.04C720.163 477.04 690.628 471.165 663.072 459.749C635.516 448.334 610.478 431.603 589.388 410.51C568.299 389.418 551.571 364.378 540.159 336.82C528.748 309.263 522.876 279.727 522.88 249.9C522.88 247.61 522.88 245.32 522.99 243.03L476.63 261.25C473.99 316.929 450.815 369.656 411.58 409.25L466.38 464.04C475.71 455.342 488.053 450.606 500.807 450.83C513.561 451.054 525.73 456.221 534.749 465.241C543.768 474.261 548.933 486.431 549.155 499.185C549.377 511.939 544.639 524.281 535.94 533.61L590.51 588.18C630.025 548.984 682.64 525.786 738.23 523.05L756.29 476.95ZM610.29 339.82C610.357 333.777 611.533 327.798 613.76 322.18L563.48 372.46C580.277 397.892 602.048 419.663 627.48 436.46L677.76 386.18C672.142 388.407 666.163 389.583 660.12 389.65L660.07 385.65C671.193 385.546 681.882 381.32 690.07 373.79L626.17 309.89C618.64 318.078 614.414 328.767 614.31 339.89L610.29 339.82ZM692.91 370.9C700.788 362.308 705.044 351.006 704.791 339.352C704.538 327.697 699.795 316.591 691.552 308.349C683.308 300.107 672.201 295.365 660.547 295.114C648.892 294.863 637.591 299.121 629 307L692.91 370.9ZM768.45 372.68C763.537 346.855 752.95 322.443 737.455 301.206C721.96 279.97 701.943 262.439 678.848 249.88C655.754 237.32 630.159 230.045 603.911 228.581C577.664 227.116 551.418 231.498 527.07 241.41C526.97 244.23 526.9 247.06 526.9 249.9C526.788 292.059 538.704 333.376 561.25 369L626.14 304.11C635.486 295.485 647.806 290.81 660.522 291.064C673.237 291.319 685.361 296.484 694.353 305.477C703.346 314.469 708.511 326.593 708.766 339.308C709.02 352.024 704.345 364.344 695.72 373.69L630.9 438.64C666.523 461.19 707.84 473.11 750 473C752.84 473 755.67 472.93 758.49 472.83C771.413 441.099 774.875 406.306 768.46 372.65L768.45 372.68ZM906.32 409L590.82 93.61C552.852 132.051 530.252 183.051 527.28 237C560.21 223.983 596.228 220.878 630.901 228.068C665.573 235.257 697.386 252.428 722.426 277.466C747.465 302.504 764.637 334.317 771.828 368.989C779.019 403.661 775.916 439.679 762.9 472.61C816.869 469.624 867.881 446.999 906.32 409ZM972.69 262.8C951.461 271.209 928.834 275.529 906 275.53C894.592 275.526 883.209 274.455 872 272.33C836.22 265.515 803.315 248.1 777.557 222.346C751.8 196.592 734.38 163.69 727.56 127.91C721.122 94.1171 724.42 59.1904 737.07 27.2C683.11 30.1745 632.101 52.7853 593.66 90.77L909.16 406.18C947.123 367.74 969.719 316.744 972.69 262.8ZM973.07 249.9C973.163 210.562 962.791 171.908 943.02 137.9L877.47 203.45C866.649 213.797 852.207 219.497 837.236 219.33C822.264 219.162 807.953 213.14 797.367 202.553C786.78 191.967 780.758 177.656 780.59 162.684C780.423 147.713 786.123 133.271 796.47 122.45L862 56.87C827.987 37.1161 789.333 26.7623 750 26.87C747.16 26.87 744.33 26.94 741.5 27.04C728.323 59.3957 724.985 94.9202 731.904 129.164C738.824 163.408 755.693 194.849 780.4 219.55C805.105 244.246 836.547 261.105 870.789 268.016C905.031 274.926 940.55 271.582 972.9 258.4C973 255.57 973.07 252.74 973.07 249.9ZM955 0H951C951.016 13.0139 956.175 25.494 965.354 34.7196C974.533 43.9452 986.986 49.1682 1000 49.25V45.25C988.046 45.1735 976.606 40.3736 968.177 31.897C959.747 23.4204 955.01 11.9546 955 0V0ZM894.3 649C892.318 640.157 888.271 631.909 882.49 624.93L879.4 627.5C884.786 633.984 888.556 641.654 890.4 649.88L894.3 649ZM0 950.76V954.76C11.9614 954.823 23.4119 959.616 31.8522 968.092C40.2925 976.568 45.037 988.038 45.05 1000H49.05C49.0343 986.978 43.8676 974.492 34.6777 965.266C25.4879 956.041 13.0214 950.826 0 950.76ZM127.93 378.26C133.925 383.236 141.016 386.715 148.62 388.41L149.49 384.49C142.51 382.927 135.999 379.733 130.49 375.17L127.93 378.26ZM111.29 351.09C112.811 357.985 115.81 364.467 120.08 370.09L123.28 367.66C119.36 362.507 116.606 356.563 115.21 350.24L111.29 351.09ZM349.81 609.49C357.259 611.129 364.261 614.371 370.33 618.99L372.75 615.78C366.219 610.818 358.689 607.331 350.68 605.56L349.81 609.49ZM623.46 367.63C619.546 362.474 616.797 356.531 615.4 350.21L611.48 351.09C612.998 357.984 615.993 364.466 620.26 370.09L623.46 367.63ZM649.67 384.49C642.69 382.926 636.179 379.732 630.67 375.17L628.1 378.26C634.096 383.234 641.187 386.713 648.79 388.41L649.67 384.49ZM372.75 115.81C366.221 110.844 358.69 107.357 350.68 105.59L349.81 109.51C357.256 111.158 364.256 114.399 370.33 119.01L372.75 115.81ZM394.11 149C392.124 140.18 388.077 131.955 382.3 125L379.21 127.56C384.592 134.047 388.362 141.716 390.21 149.94L394.11 149ZM127.93 878.23C133.926 883.205 141.017 886.687 148.62 888.39L149.49 884.46C142.508 882.901 135.996 879.707 130.49 875.14L127.93 878.23ZM111.29 851.06C112.81 857.955 115.809 864.438 120.08 870.06L123.28 867.63C119.361 862.479 116.608 856.539 115.21 850.22L111.29 851.06ZM894.29 149.06C892.311 140.221 888.268 131.976 882.49 125L879.4 127.56C884.783 134.047 888.552 141.716 890.4 149.94L894.29 149.06ZM379.21 627.49C384.596 633.974 388.366 641.644 390.21 649.87L394.13 648.99C392.152 640.146 388.104 631.897 382.32 624.92L379.21 627.49ZM872.94 615.78C866.407 610.82 858.878 607.333 850.87 605.56L850 609.49C857.446 611.127 864.446 614.369 870.51 618.99L872.94 615.78ZM872.94 115.78C866.41 110.816 858.88 107.329 850.87 105.56L850 109.48C857.443 111.126 864.441 114.367 870.51 118.98L872.94 115.78Z"  fill-opacity="0.05" fill="black"/>
</svg>
