<svg width="32" height="32" viewBox="0 0 32 32" fill="none" xmlns="http://www.w3.org/2000/svg">
<path fill-rule="evenodd" clip-rule="evenodd" d="M32 16C32 24.8366 24.8366 32 16 32C7.16344 32 0 24.8366 0 16C0 7.16344 7.16344 0 16 0C24.8366 0 32 7.16344 32 16ZM12.2182 11.7951C13.165 10.7056 14.5435 10.0846 16.222 10.0846C19.5236 10.0846 21.6325 12.4333 21.6325 16.0325C21.6325 17.6458 21.2058 19.0058 20.4397 20.0179L24.3746 23.9528C26.3421 22.0148 27.4943 19.2801 27.4943 16.035C27.4943 9.49195 22.7945 5 16.222 5C13.0372 5 10.2938 6.05751 8.3103 7.88847L12.2182 11.7951ZM7.67939 8.55615L13.2707 14.1683C10.8114 16.3989 7.95237 17.3851 4.64827 17.1736C4.51693 15.6047 4.71911 14.0257 5.24153 12.5405C5.76394 11.0552 6.59477 9.69739 7.67939 8.55615ZM17.8709 18.7857C15.6317 21.2192 14.6393 24.0843 14.8312 27.3933V27.3909C16.4251 27.5297 18.0302 27.325 19.5383 26.7908C21.0007 26.2765 22.3379 25.459 23.4621 24.3917L17.8709 18.7857ZM14.2213 27.322C11.9119 27.0114 9.7599 25.9784 8.073 24.3708L15.7842 16.6891L17.4418 18.3553C15.1054 20.8835 14.0492 23.8728 14.2226 27.322H14.2213ZM4.7146 17.7922C5.02605 20.0986 6.05356 22.2491 7.65226 23.9405V23.9392C10.219 21.3815 12.7874 18.8218 15.3573 16.26L13.6985 14.595C11.147 16.9314 8.15765 17.9791 4.7146 17.7922Z" fill="#0000FF"/>
</svg>
