<svg width="32" height="32" viewBox="0 0 32 32" fill="none" xmlns="http://www.w3.org/2000/svg">
<circle cx="16" cy="16" r="16" fill="#0000FF"/>
<path d="M12.2194 11.7951C13.1662 10.7056 14.5447 10.0846 16.2232 10.0846C19.5248 10.0846 21.6337 12.4333 21.6337 16.0325C21.6337 17.6458 21.207 19.0058 20.4409 20.0179L24.3758 23.9528C26.3433 22.0148 27.4955 19.2801 27.4955 16.035C27.4955 9.49195 22.7957 5 16.2232 5C13.0384 5 10.295 6.05751 8.31152 7.88847L12.2194 11.7951Z" fill="white"/>
<path d="M7.68061 8.55615L13.2719 14.1683C10.8126 16.3989 7.95359 17.3851 4.64949 17.1736C4.51815 15.6047 4.72033 14.0257 5.24275 12.5405C5.76516 11.0552 6.59599 9.69739 7.68061 8.55615Z" fill="white"/>
<path d="M14.8324 27.3933C14.6405 24.0843 15.6329 21.2192 17.8721 18.7857L23.4633 24.3917C22.3391 25.459 21.0019 26.2765 19.5395 26.7908C18.0314 27.325 16.4263 27.5297 14.8324 27.3909" fill="white"/>
<path d="M14.2225 27.322C11.9131 27.0114 9.76112 25.9784 8.07422 24.3708L15.7854 16.6891L17.443 18.3553C15.1066 20.8835 14.0504 23.8728 14.2238 27.322" fill="white"/>
<path d="M7.65348 23.9405C6.05478 22.2491 5.02727 20.0986 4.71582 17.7922C8.15887 17.9791 11.1482 16.9314 13.6997 14.595L15.3585 16.26C12.7886 18.8218 10.2202 21.3815 7.65348 23.9392" fill="white"/>
</svg>
