<?xml version="1.0" standalone="no"?>
<!DOCTYPE svg PUBLIC "-//W3C//DTD SVG 1.1//EN" "http://www.w3.org/Graphics/SVG/1.1/DTD/svg11.dtd">
<svg xmlns="http://www.w3.org/2000/svg"><metadata>This SVG WebFont was generated by YouWorkForThem.
Copyright Â© 2021 by Lund Design Co. All rights reserved.</metadata><defs><font horiz-adv-x="600" id="ywftsvg"><font-face ascent="800" bbox="-138 -352 904 1006.11" cap-height="688" descent="-200" font-family="Upperhand" font-stretch="normal" font-weight="400" panose-1="0 0 0 0 0 0 0 0 0 0" underline-position="-75" underline-thickness="50" unicode-range="U+0020-2265" units-per-em="1000" x-height="618"/><missing-glyph d="M159 531h-156l46 90h202v-90v-304h93q23 0 43 12.5t30 34.5q18 44 -7 82t-69 38h-54v99h54q79 0 130 -53q54 -57 54 -129q0 -73 -54 -130q-51 -53 -130 -53h-182v403zM561 531q91 -94 91 -220q0 -130 -91 -221q-90 -90 -220 -90h-310v394h-95l49 99h46h92v-403h218 q91 0 155.5 65t64.5 156q0 90 -64.5 154t-155.5 66h-54v90h54q130 0 220 -90z"/><glyph d="M159 531h-156l46 90h202v-90v-304h93q23 0 43 12.5t30 34.5q18 44 -7 82t-69 38h-54v99h54q79 0 130 -53q54 -57 54 -129q0 -73 -54 -130q-51 -53 -130 -53h-182v403zM561 531q91 -94 91 -220q0 -130 -91 -221q-90 -90 -220 -90h-310v394h-95l49 99h46h92v-403h218 q91 0 155.5 65t64.5 156q0 90 -64.5 154t-155.5 66h-54v90h54q130 0 220 -90z" glyph-name=".notdef"/><glyph glyph-name=".null" horiz-adv-x="0"/><glyph glyph-name="nonmarkingreturn" horiz-adv-x="333"/><glyph glyph-name="space" horiz-adv-x="450" unicode=" "/><glyph glyph-name="space" horiz-adv-x="450" unicode=" "/><glyph d="M241 258q1 1 1 3q1 3 1 4q20 20 23 45q2 11 5 14q7 24 8 25q5 12 7 35q5 10 7 13q5 16 12 25q1 19 11 38q5 11 9.5 24t10.5 29.5t9 25.5q2 8 7.5 23.5t7.5 20.5q8 13 13 32q8 20 11 30q10 36 10 41q1 1 1.5 3t1 3t1.5 2q6 20 4 49q-1 1 -3 7q-4 8 -25 20q-5 3 -11 2 q-12 0 -38 6h-11q-7 0 -14.5 -6t-7.5 -12v-10q2 -34 -7 -54q-1 -1 -1 -5q-10 -39 -20 -58q-2 -4 -4.5 -12t-3.5 -11q-2 -4 -6 -13.5t-4 -10.5l-11 -33q-2 -8 -7.5 -20t-6.5 -16q-2 -7 -7.5 -20.5t-7.5 -19.5q-1 -13 -11 -35q-1 -4 -5 -12t-5 -11q-1 -2 -4.5 -13.5 t-5.5 -18.5q0 -7 -5 -20.5t-5 -14.5q-1 -2 -4 -6t-4 -7q-1 -8 -6 -20.5t-6 -15.5q-1 -7 -6.5 -21t-6.5 -20q-10 -20 -18 -40q-2 -7 -8.5 -20t-8.5 -19q-4 -15 -1 -27q0 -5 3 -9q0 -4 4 -8q17 -10 37 -10q12 0 17 1q5 0 17 2q2 0 4.5 2t3.5 3q9 6 15 15q21 28 28 55 q8 20 11 26q1 1 2.5 2t2.5 2q5 8 0 21zM50 -41q0 -3 1.5 -10t1.5 -10q2 -11 12 -14q2 -1 16 -7q17 -11 48 -5q8 3 10 4q12 5 19 16q3 3 3 9q2 6 2 15q0 19 -24 29q-1 1 -3 2l-1 1q-22 8 -43 7q-3 -1 -8.5 -2t-8.5 -2q-16 -2 -22 -13q-3 -2 -3 -7v-13z" glyph-name="exclam" horiz-adv-x="461" unicode="!"/><glyph d="M156 674q1 -3 1 -10v-27.5v-33v-30.5q0 -4 1.5 -12.5t0.5 -12.5q-5 -15 -2 -31q0 -15 12 -15h7q11 6 25 9q2 3 7 8q2 2 2 3q3 3 3 6q1 3 2.5 8.5t2.5 8.5q2 4 4 11t3 10q-4 3 -4 14q0 60 1 87q0 14 -1 17t-1 18q-1 9 -9 23q-3 5 -8 6q-14 11 -35 8q-3 0 -5 -2 q-2 -3 -5.5 -6t-4.5 -5q-5 -6 -3 -13q2 -6 2.5 -19t3.5 -20zM329 537q0 12 1 19q0 10 -1 16q1 4 0 9q-2 5 -2 22q0 8 0.5 23t1.5 23q-4 11 -2 25q0 4 0.5 14t0.5 16q1 5 1 17q-2 18 -9 28q-2 0 -6.5 4t-8.5 3q-2 0 -6.5 -1.5t-6.5 -1.5q-13 -12 -22 -33v-6q3 -8 3 -22 q-1 -3 -1 -10t-1 -10q0 -6 2 -9q2 -17 0 -26v-25q0 -7 1 -9q2 -7 2 -19q0 -28 1 -33q1 -1 1 -2.5t-1 -2.5q0 -1 -0.5 -3.5t-1.5 -3.5q1 -3 1.5 -6t1 -6.5t0.5 -5.5q4 -9 8 -10q8 -3 19 -1q2 0 6 2q7 7 9 11q2 5 9 14z" glyph-name="quotedbl" horiz-adv-x="330" unicode="&quot;"/><glyph d="M305 358h11l1 -2q1 -2 2 -2v-7v-4q-4 -15 -14 -45q-1 -3 -5 -7q-9 -5 -11 -5q-4 0 -12 -0.5t-13 -0.5q-1 -1 -3 -1t-3 -1q-9 -5 -27 -5q-4 0 -4 7q1 7 4 20.5t4 19.5q1 3 2.5 7t1.5 6l4 4q0 1 2 1q19 6 20 6q1 1 2 1q2 0 2 1q11 0 18 5q1 1 4 1q4 1 14 1zM453 392 q14 2 20 2q17 2 20 5q1 1 2 1q2 0 2 1q3 0 7 0.5t7 0.5q6 -1 17 8q2 1 4 7q2 4 1 7q0 3 -1.5 8.5t-2.5 7.5q-2 4 -3 5q-8 8 -12 11q-2 2 -4 2q-27 0 -40 -2q-3 0 -5 -1q-4 -3 -20 -5q-10 0 -15 -1q-3 0 -7 -2q-9 -5 -22 -3q-6 2 -4 10q0 3 2 7q1 3 3 9.5t2 10.5q3 16 11 35 q3 8 3 17q-2 8 -4 13q-2 4 -12 14q-10 8 -22 3q-2 0 -4 -4q-4 -12 -6 -19q-1 -10 -7 -30q-11 -34 -14 -49q-5 -19 -7 -25q-3 -6 -6 -6q-20 -6 -22 -7t-6 -1q-2 0 -6 -0.5t-5 -0.5q-5 0 -9 -3t-9 -3q-7 0 -11 -1l-2 1l-4 4q0 5 1 7q7 20 8 26l6 15q1 2 1.5 5t0.5 5 q0 1 -0.5 5t-0.5 5q0 14 -8 20q-1 1 -3 2.5t-3 2.5q-3 3 -8 3h-12q-5 -1 -8 -11q0 -2 -1 -6.5t-2 -6.5q-8 -28 -8 -33q-6 -22 -10 -32q-1 -3 -2 -8.5t-2 -8.5v-4q-3 -9 -9 -10q-6 -2 -11 -2q-6 -2 -9 -2q-6 -5 -19 -5q-8 -2 -11 -4q-1 -1 -4 -2l-3 -1q-7 0 -11 -1 q-19 0 -29 -1q-7 0 -12 -8q-2 -4 -2 -6q0 -4 2 -10q5 -12 14 -24q3 -4 8 -6q14 -1 42 -1q12 2 18 6q4 2 9 0q6 0 4 -10l-9 -36q-2 -8 -4 -13q-1 -9 -8 -12q-2 0 -6 -2q-8 -5 -16 -6l-6 -3q-5 -3 -9 -3q-4 -1 -8 -4q-6 -3 -7 -3q-8 -2 -15 -7q-4 -1 -11.5 -5t-11.5 -5 q-9 -1 -9 -18q0 -11 5 -19q5 -9 12 -16q9 -4 11 -5t7 1.5t6 2.5l9 3l5 2.5l5 2.5q2 0 13 6h7q6 -2 4 -11q0 -2 -1.5 -7.5t-2.5 -8.5t-3 -9.5t-3 -9.5q-1 -4 -2.5 -12t-2.5 -12q-3 -17 3 -27t10 -15q10 -4 15 -7q1 1 3.5 2.5t4.5 3.5q5 5 6 14q1 2 1 6.5t1 6.5q1 4 3.5 13 t3.5 14l6 27l3 9q1 8 5 22.5t5 17.5q3 9 9 10q1 1 3.5 1.5t3.5 0.5q4 0 8 2q7 5 20 5q6 0 13 5q6 3 11 0q1 0 2.5 -3t0.5 -5q-1 -4 -2 -8.5t-2 -10t-2 -8.5q-4 -18 -5 -27v-4q3 -14 9 -28q0 -1 2 -3q10 -10 16 -13h2q2 2 8 6q5 6 6 15q0 2 0.5 6.5t0.5 7.5q2 4 3 12t2 11 q2 7 8 26t9 29q1 4 5 6q2 1 7.5 2t7.5 3q4 2 7 2t7 0.5t6 0.5q20 0 27 5q2 1 7 1q1 0 5 0.5t5 0.5q8 4 15 11q2 4 2 6q-1 2 -2.5 7.5t-2.5 8.5l-2 2q-8 8 -12 11q-2 3 -7.5 4t-7.5 3q-13 5 -24 -1q-4 -2 -11 -2l-2 1q-1 1 -2 1q-6 4 -4 12q7 22 8 29q2 11 8 29q3 6 5 7 q10 6 13 6q22 2 27 6q2 1 6 1q6 1 16 1q3 0 13 5z" glyph-name="numbersign" unicode="#"/><glyph d="M313 507v-8q-1 -2 -3.5 -9t-4.5 -10q-10 -16 -23 -9q-7 9 -7 12q-2 11 2 16q3 3 22 18q3 3 7.5 -1t6.5 -9zM311 245q-1 0 -3 -1h-1q-5 -3 -8 0q-3 4 -2 8q29 76 40 100q2 5 7 1q15 -10 25 -25q0 -1 2 -3q4 -13 3 -25q-2 -7 -3 -8q-7 -12 -22 -27q-11 -10 -31 -17 q-1 0 -3.5 -1t-3.5 -2zM363 597q-3 -1 -9.5 -4.5t-9.5 -4.5q-5 -1 -23 -8q-3 -1 -11 -3.5t-12 -4.5q-6 -1 -18.5 -6t-19.5 -6q-6 0 -8 -2q-34 -16 -50 -26q-7 -5 -8 -13v-17q2 -14 4 -21q1 -8 8 -15q2 -3 9.5 -10.5t10.5 -12.5q7 -11 22 -22q8 -4 11 -8q6 -6 4 -11 q-2 -9 -16 -42q-6 -9 -18 -40q-6 -14 -16.5 -40t-15.5 -40q-3 -7 -7 -14q-7 -12 -19 -12q-7 -1 -21 -1q-17 0 -29 6q-20 4 -40 15q-16 8 -23 12q-2 1 -4 1q-6 1 -10.5 -2.5t-4.5 -7.5q0 -16 7 -29q3 -4 7 -12q11 -16 26 -24q20 -11 39 -17q11 -3 33 -11q2 0 2 -3 q0 -7 -6 -19q-10 -16 -10 -26q-2 -6 -3 -8q-10 -14 -14 -29q-2 -6 -8 -16.5t-8 -15.5q-10 -22 -19 -36q-2 -3 -1.5 -9.5t3.5 -10.5q1 -1 1 -2t1 -2q15 -16 30 -26q5 -5 12 -5h12q7 0 15 6q12 14 14 19q3 6 11 20.5t11 22.5q3 10 9 19q3 5 11 25q3 7 21 53q1 3 5 12.5t6 13.5 q3 6 7 10q5 7 12 9q22 4 32 8q18 5 23 7q3 2 12.5 4.5t13.5 5.5q12 2 30 12q2 2 7 4.5l7 3.5q20 10 31 24q16 18 18 22q16 21 12 46q-1 4 -1.5 11t-1.5 12.5t-3 10.5q-1 1 -5.5 9.5t-7.5 13.5q-12 16 -19 24q-3 4 -21 22q-20 17 -23 21q-5 5 -2 12q2 8 4 12q27 50 34 68 q4 6 10 17t8 14q2 4 8 10q2 4 6 5q15 7 45 16q6 0 9 -1q10 -4 16 -5q8 0 12 2q10 5 5 13q-11 25 -33 34q-5 2 -11 7q-3 5 -2 8q13 24 27 44q6 6 9 13l18 27q3 4 8 13.5t8 13.5q5 7 9 24q-2 2 -4.5 6.5t-5 8t-5.5 6.5q-2 2 -6 6.5t-6 6.5q-12 12 -31 12h-2t-2 -1 q-10 -2 -11 -5q-11 -16 -13 -20q-11 -22 -14 -25q-4 -5 -9 -14.5t-7 -12.5q-13 -18 -21 -34q-10 -11 -24 -37q-3 -4 -33 -54z" glyph-name="dollar" horiz-adv-x="557" unicode="$"/><glyph d="M541 352q-1 9 5 17q4 7 12 13q1 1 41 44q3 2 12 13q5 9 23 29q31 31 47 48l100 100q17 14 21 17q20 14 28 23q15 14 34 23q0 1 1 1t2 1q15 6 29 22q8 8 8 20l-3 9q-1 2 -14 18q-9 10 -35 20q-13 4 -27 -5l-30 -20q-3 -2 -18 -15t-24 -19l-4 -2l-45 -45l-61 -61 q-8 -7 -15 -17q-4 -6 -33 -38q-19 -17 -31 -32l-11.5 -11.5t-14.5 -16t-9 -14.5q-4 -6 -10 -10q-5 -7 -28 -30q-1 -2 -5 -7t-5 -7q-2 -3 -21 -25q-11 -13 -16 -16q-7 -8 -22.5 -29t-26.5 -30q-1 -2 -3 -4t-2 -4q-1 -3 -3.5 -7t-3.5 -5q-3 -3 -8 -8.5t-9 -10t-7 -8.5 t-10 -14.5t-12 -14.5q-7 -7 -21 -23q-8 -8 -9 -11q-6 -10 -20 -24q-6 -7 -17 -18t-19.5 -21t-14.5 -20q-1 -2 -4 -5t-4 -5l-32 -32q-13 -14 -28 -29.5t-33 -34t-28 -28.5q-5 -5 -18 -25q-4 -10 -4 -14q0 -15 10 -25l16 -16q10 -6 17 -6q4 0 11.5 1t10.5 1q8 1 13 7q1 1 7 11 t11 14l21.5 21.5t26 28t18.5 25.5q4 6 10 9q7 7 20 21.5t20 22.5q11 11 15 17q5 9 19 25q9 8 26 27q8 8 10 14q6 8 9 11q25 27 30 38q3 6 10 11q9 12 20 23l12 15q1 2 19 25q14 12 20 24q1 5 6 8q26 29 41 43q0 1 7 3v-1zM645 186q-1 -2 -2 -5.5t-1 -4.5q-3 -12 -11 -25 q-6 -9 -18 -25q-2 -7 -12 -13q-37 -21 -43 -25q-2 -2 -4 -2q-14 -2 -18 -1q-8 1 -6 9q8 21 19 36q3 5 8.5 14t8.5 13q1 1 9 12.5t13 16.5q5 6 15.5 16.5t12.5 13.5q5 3 12 0q8 -7 13 -18q1 -2 2 -6t2 -6zM535 276q1 -9 -5 -17q-20 -24 -28 -32q-16 -32 -25 -41q-3 -4 -8 -16 q-13 -24 -20 -31l-3 -9q-3 -19 -9 -35q-1 -9 3 -18q2 -8 17 -37q3 -5 7 -11l7 -7q3 -2 9.5 -5.5t9.5 -5.5q8 -6 25.5 -8.5t22.5 -4.5q3 0 4 1q6 2 31 5q6 0 10 1q5 1 13 4t12 4q3 1 7.5 3t6.5 3q14 7 19 11q10 8 16 10q6 4 10 8q3 3 12.5 13.5t15.5 15.5q9 9 13 20 q5 7 9.5 22t6.5 20q1 3 1 9v27q0 9 -3 18q-15 34 -34 54q-4 1 -6 7q0 6 2 9q0 2 3 2q1 1 5.5 4t6.5 5q12 12 3 29q-18 25 -19 25q-5 3 -7 5q-13 7 -27 7q-2 0 -6 -0.5t-7 -0.5q-10 0 -22 -6q-15 -8 -19 -12q-1 -1 -43 -40q-7 -7 -17 -5zM359 485q-16 -11 -17 -12 q-5 -5 -12 -9q-22 -12 -57 -28q-12 -2 -18 -1q-11 0 -7 9q5 7 15 23q1 2 4 5.5t4 4.5q4 5 12.5 12.5t10.5 9.5q21 24 50 39q1 0 23 13q5 3 14 1t7 -11q-1 -1 -6 -17q-1 -8 -9 -20q-2 -3 -7 -9.5t-7 -9.5zM166 487q-4 -14 -10 -28q-3 -8 -1 -18q4 -7 6 -17q2 -8 15 -32 q4 -8 15 -16q5 -3 15 -7.5t14 -6.5q16 -9 35 -9q3 1 9 1q22 -1 44 8q7 1 20 6t15 6q3 0 21 8q34 22 50 30q3 3 4 3q20 18 29 29q5 7 6 12q6 10 10 20q0 5 3.5 13.5t3.5 13.5v11t1 12q0 22 -6 35q-4 4 -4 18v13q-1 4 -5 10.5t-5 9.5q-4 7 -9 10q-5 2 -10 5t-7 4t-5.5 2.5 t-4.5 1.5t-5.5 0.5t-8 0.5h-11.5q-13 0 -39 -2q-9 0 -14 -4q-9 -6 -32 -21t-35 -24q-17 -7 -36 -28q-8 -6 -20 -18q-6 -7 -14 -12q-6 -4 -10 -10q-5 -8 -24 -30z" glyph-name="percent" horiz-adv-x="718" unicode="%"/><glyph d="M106 38q5 -2 14.5 -7t14.5 -8q24 -12 46 -12h32q15 2 16 3l18 6t18 7q19 7 36 23q2 3 10 11t12 13q15 18 4 41q-7 18 -27 23q-16 3 -32 -3q-2 -1 -53 -25q-12 -3 -38 -7q-1 -1 -4 1q-4 3 -4 10q1 10 8 20q12 14 62 60q15 16 39 29q12 6 19 10q6 5 46 28q5 2 14.5 6.5 t14.5 7.5q8 5 13 16q3 9 6 15q-1 21 -19 37q-16 11 -18 12q-26 8 -27 8q-16 4 -26 -1q-7 -3 -22.5 -7t-22.5 -8q-4 0 -11 -1t-12.5 -1.5t-9.5 -0.5q-18 -2 -27 -5q-13 -5 -26 -2q-6 0 -14 6t-3 15q1 1 9 12.5t13 16.5q43 47 64 60q4 2 12 10q2 2 12.5 11t16.5 13 q5 4 17.5 12t18.5 13q1 1 5.5 3.5t6.5 4.5q30 25 74 33q9 -1 20 -5h6q11 -2 22 0q6 1 13 8q15 15 2 34q-19 25 -52 39q-6 2 -10 2q-3 1 -10 2t-11 2q-9 4 -26 0q-5 -1 -20 -2t-22 -4q-48 -22 -68 -43q-2 -1 -4 -3q-6 -3 -44 -33q-7 -9 -11 -11q-15 -7 -38 -30 q-57 -56 -85 -84q-3 -3 -8.5 -9.5t-9.5 -10.5q-2 -3 -4 -9q-5 -25 3 -43q3 -7 10 -21t10 -21q5 -4 10 -9q6 -6 20 -18q2 -2 24 -10q1 -1 3 -2t3.5 -2t2.5 -2q9 -6 3 -14q-5 -7 -34 -35q-7 -6 -14 -17q-3 -6 -11 -18q-6 -7 -13 -23q-11 -23 -2 -48q5 -15 17 -33q6 -13 16 -21 q5 -5 16 -15zM527 844q0 17 -4 25q-14 22 -33 26q-24 5 -32 7q-4 1 -10 -2q-8 -3 -10 -4q-6 -6 -7 -8q-13 -47 -12 -63v-27q0 -13 8 -26q7 -17 23 -30q7 -5 19 -7h5q19 2 28 16q12 26 13 40q0 8 6 20q6 16 6 33zM113 -235q16 -20 45 -28q12 -6 26 3q14 10 27 26q1 1 4 10 q2 17 -1 31q-4 18 -23 22q-29 5 -58 0q-14 -4 -22 -15q-1 -1 -2.5 -4.5t-2.5 -5.5q-8 -9 -2 -20q2 -3 3.5 -6t3 -7t2.5 -6z" glyph-name="ampersand" horiz-adv-x="487" unicode="&amp;"/><glyph d="M161 674q1 -3 1 -10q3 -41 1 -91q-2 -18 -4 -25q-5 -15 -2 -31q0 -15 12 -15h7q11 6 25 9q2 3 7 8q2 2 2 3q3 3 3 6q1 3 2.5 8.5t2.5 8.5q2 4 4 11t3 10q2 3 2 14q2 28 0 87q0 8 -3 17q-4 12 -4 18q-1 9 -9 23q-3 5 -8 6q-14 11 -35 8q-3 0 -5 -2q-2 -3 -5.5 -6t-4.5 -5 q-5 -6 -3 -13q8 -26 11 -39z" glyph-name="quotesingle" horiz-adv-x="176" unicode="'"/><glyph d="M588 684v10q0 12 -9 20q-16 11 -32 11h-28q-30 -2 -35 -3t-29 -12q-2 -1 -8 -3.5t-10 -3.5q-5 -1 -13 -7q-14 -9 -42 -29q-39 -23 -61 -45q-10 -8 -15 -11q-17 -13 -20 -15q-27 -27 -40 -39q-24 -22 -34 -28q-2 -1 -9 -10q-6 -8 -21 -26q-34 -34 -50 -52q-18 -18 -24 -28 l-21 -27q-8 -10 -11 -16q-1 -2 -5 -9.5t-6 -10.5q-25 -36 -30 -60q-1 -2 -3 -6.5t-3 -6.5q-7 -12 -12 -30q-7 -21 -8 -33q0 -4 -4 -14q-3 -7 -5 -23q0 -51 1 -77q0 -9 3 -13q4 -7 6 -33q2 -7 10 -22.5t10 -25.5q17 -44 43 -69q5 -4 12.5 -11.5t11.5 -10.5q15 -13 37 -22 q1 0 4.5 -0.5t4.5 -1.5q18 -11 46 -9q14 0 38 2q5 0 9 4q9 5 16 17q4 7 -2 13q-17 19 -37 20q-11 0 -23 3q-6 1 -13 5q-22 8 -43 37q-12 18 -18 28q-6 13 -9 27q-2 4 -6 12.5t-6 12.5q-5 53 -2 107q0 26 9 51q3 6 7 18q1 4 7 16t7 19q9 22 18 33q26 39 30 43q3 2 6 8 q6 10 20 26q27 30 34 40q1 3 9 11l14 14t16 16.5t14 13.5q4 5 14 13q15 10 33 28q16 14 25 21q10 6 33 26q3 3 10 8.5t9 6.5q14 10 40 26.5t36 23.5q18 15 51 25q2 1 13.5 5t17.5 5q14 3 22 17z" glyph-name="parenleft" horiz-adv-x="563" unicode="("/><glyph d="M143 -86q24 -5 63 -1q10 0 17 4q3 2 13 4q19 6 24 9q16 4 44 21q26 14 40 27q3 3 8.5 7.5t10 8.5t8.5 8q11 6 25 21q12 16 23 23q1 2 3 3.5t3 3.5q2 3 30 43l9 12q3 8 11.5 21.5t11.5 21.5q1 3 20 46q0 1 1.5 6t2.5 8q2 10 9 32.5t9 34.5q7 22 9 46q0 8 3 14q4 13 4 30 q2 38 2 56q0 1 1 5t2 5q4 15 0 30q0 2 -1 6.5t-1.5 8t-0.5 6.5q-1 6 -1.5 19.5t-0.5 20.5q0 11 -1 16q-3 8 -7.5 24t-7.5 24q-3 9 -10 24.5t-9 20.5q-4 6 -6 8q-11 18 -25 27q-10 8 -20 19q-12 13 -38 24q-14 5 -20 8q-32 2 -48 1q-9 0 -16 -3q-3 0 -7 -4.5t-5 -8.5 q-2 -6 -2 -10q-1 -10 1 -30q3 -14 12 -20q3 -3 9 -6.5t8 -6.5q8 -2 21.5 -2t20.5 -1q2 -1 7 -4.5t7 -4.5q6 -2 8 -3q22 -26 28 -40q3 -7 6.5 -20.5t4.5 -17.5q5 -23 5 -24q2 -36 0 -103q0 -17 -5 -31q-3 -7 -3 -24q-1 -5 -1 -13.5t-1 -12.5q-7 -22 -8 -29q-5 -13 -10 -34 q-26 -73 -46 -103q-3 -11 -21 -33q-4 -4 -8.5 -9.5t-10 -12.5t-8.5 -11q-1 -1 -4 -5t-5 -5q-9 -6 -24 -20.5t-21 -19.5q-2 -3 -14 -10q-25 -17 -83 -41q-20 -5 -26 -5q-8 0 -23 -0.5t-21 -0.5q-19 -9 -30 -10q-4 0 -5 -2q-4 -2 -5 -7.5t2 -10.5q13 -19 27 -32q6 -6 12 -7z " glyph-name="parenright" unicode=")"/><glyph d="M488 558q1 2 5 8t0 11q-4 8 -5 11q-1 2 -4 5l-1 1h-2q-1 1 -11 6q-2 1 -6 0q-15 -5 -49 -12q-4 0 -6 -2q-5 -1 -12 -1q-8 -2 -8 2q0 5 3 6q2 1 5 4l4 4q14 9 31 19q3 2 13 10t16 11q10 5 19 16q0 1 1 2.5t2 2.5q2 6 0 13q-2 6 -7 9q-4 3 -11 8t-9 6q-1 1 -6 1 q-12 0 -17 -4q-9 -5 -11 -6q-1 0 -4.5 -3t-5.5 -4l-15 -9q0 -2 -3 1q-1 2 0 5q7 12 -1 23l-11 22v1l-1 1q-7 4 -9 3q-8 -3 -13 -7q-3 0 -7 -6l-6 -15t-5 -13q-2 -5 -7 -15t-7 -15q-2 -8 -9 -22q-11 -27 -11 -28l-3.5 -7t-4.5 -7q-4 -6 -11 -3l-2 1q-2 1 -5 4q-28 28 -33 36 q0 2 -2 2q-17 17 -26 25q-6 4 -16 13.5t-14 12.5q-1 2 -5 4q-2 4 -7 4q-5 1 -11 5q-1 0 -8 5q-4 2 -6 2q-12 0 -18 -1q-1 0 -2.5 -1.5t-2.5 -1.5q-4 -4 -4 -8v-5q6 -19 19 -28q3 -3 10.5 -8t11.5 -7q9 -7 10 -8q19 -16 41 -40q6 -6 8 -9q3 -3 5 -11q0 -4 -3 -4 q-12 -1 -73 -1l-15 3q-8 3 -15 0q-4 -1 -14 -5q-3 -3 -3 -5q-5 -10 2 -17q13 -15 22 -21q3 -3 8 -3h6q31 0 45 -5q2 -1 5 -1h5h8q3 0 3 -2q1 -2 0 -5q-15 -15 -23 -21q-2 -1 -5 -3.5t-5 -3.5q-5 -5 -15 -14.5t-17.5 -17.5t-14.5 -15q-3 -3 -4 -5t-1 -6q1 -8 8 -15 q9 -5 17 -6q9 -3 18 0q10 3 16 8q10 10 16 15q3 2 8.5 6t7.5 6l5 5t5 4q3 3 6.5 6t7 7t5.5 6q2 1 4.5 3t3.5 3h5q2 0 2 -2q-1 -3 -2 -10.5t-2 -10.5q-1 -4 -8 -20l-2 -2q-3 -12 4 -21q2 -2 5.5 -6.5t5.5 -6.5q8 -4 12 -4q10 0 15 1q5 0 7 4q6 6 9 13q0 2 2 6q0 1 2.5 9.5 t3.5 13.5v3q3 5 6 23q1 4 5 4h6q27 -29 56 -56q4 -2 6 -2q1 -1 6 -1q7 -1 17 2q5 2 5 7q-10 22 -16 29q-12 20 -19 27q-3 2 -5 8q-6 8 -10 12q-1 1 -4.5 5t-5.5 6t-8 13q-4 4 1 7q13 5 24 5q9 0 27 2q6 0 10 1q3 2 20 4q7 0 12 3q17 5 20 7q2 1 6.5 3t8 4t6.5 5z" glyph-name="asterisk" horiz-adv-x="444" unicode="*"/><glyph d="M346 220q1 3 3 8t4 9t5 7q2 1 6 2.5t7.5 2.5t7.5 2q5 1 14.5 1.5t14.5 0.5q37 0 56 2q9 0 13 1q5 2 16.5 4.5t16.5 3.5q2 0 16 6q7 5 9 10l3 4q2 5 3 8q1 4 0 7q-7 23 -20 34q-5 5 -12 5q-3 1 -12 1q-41 0 -60 -1q-38 0 -57 1q-4 0 -7 3q-9 4 -7 14q0 2 1 5t1 4 q5 36 8 42q2 14 -1 25q-1 3 -3 8.5t-2 8.5q-3 11 -11 18q-2 3 -12 13q-1 1 -7 4q-18 6 -34 -1q-9 -2 -11 -12q-1 -4 -1 -12q0 -29 -1 -44q0 -14 -5 -25q-3 -6 -3 -17q0 -3 -0.5 -11.5t-1.5 -13.5q-1 -4 -6 -9.5t-8 -6.5h-14q-32 -1 -99 -1q-7 0 -21.5 -0.5t-21.5 -0.5 q-3 0 -11 -5q-8 -8 -9 -16v-17q1 -2 2 -6t2 -6q13 -21 17 -25q12 -10 23 -10q5 -1 13 -1q14 0 43 0.5t43 1.5q3 0 9 -0.5t9 -0.5l2 -1h2q6 0 8 -9q2 -30 -1 -52q0 -5 -3 -8q-2 -10 -2 -17q-1 -16 -1 -47q0 -9 5 -17q5 -9 6 -11q5 -8 13 -11q2 -1 7.5 -3.5t8.5 -3.5 q9 -4 20 2q15 10 16 26q2 24 6 33q2 10 2 31q0 40 3 63z" glyph-name="plus" unicode="+"/><glyph d="M132 23q-8 10 -22 28q-5 5 -8 7q-13 9 -28 9q-2 0 -5 0.5t-4 0.5q-5 0 -17 2q-4 1 -13 -1q-11 -4 -11 -13v-3q-2 -5 3 -10q9 -9 13 -16q5 -5 16 -28q2 -3 2 -18v-18q0 -6 -2 -8q-1 -2 -6.5 -12t-10.5 -15q-2 -2 -4.5 -6t-5.5 -6q-3 -3 -9 -8t-11 -9.5t-11 -7.5 q-9 -5 -27 -17q-3 -3 -5 -4q-2 -3 1 -8q2 0 5 -1.5t6 -2.5q28 -3 56 0q2 0 7 2t8 2q6 2 14.5 6.5t13.5 5.5q1 0 3 2t4 2q13 10 16 12q6 6 8 9q3 2 7.5 7.5t7.5 8.5q11 14 13 25q0 2 1 3q6 7 6 20q0 18 -1 26q0 6 -1 8q-3 5 -5.5 13.5t-3.5 12.5z" glyph-name="comma" horiz-adv-x="143" unicode=","/><glyph d="M120 262h24q14 0 21 2q8 0 11 2q6 2 29 5q10 0 29.5 0.5t29.5 0.5q8 5 32 7h37q16 0 24 1q18 3 35 17q0 3 4 10t3 13q-5 11 -6 20q-22 22 -46 30q-5 0 -7 -1q-10 -4 -28 -6h-26q-8 0 -11 -3q-15 -4 -33 -4q-6 0 -17 -1t-16 -1q-4 0 -12 -2q-10 -5 -24 -5q-31 -2 -41 -6 h-8q-2 1 -4.5 2t-3.5 1q-8 -3 -24 -7q-9 -5 -11 -14q-3 -12 1 -28q0 -3 4 -9q7 -9 15 -13q3 -1 6 -3t6.5 -4.5t6.5 -3.5z" glyph-name="hyphen" horiz-adv-x="431" unicode="-"/><glyph d="M126 120l-14 -3.5t-16 -4.5l-12 -9q-3 -7 -30 -41l-3 -9q-3 -14 5 -25q9 -12 21 -21q6 -4 14 -6q12 -1 24 0q6 2 10 4q6 5 19 15.5t20 15.5q11 16 14 27q2 8 0 16q-3 14 -13 21q-32 17 -39 20z" glyph-name="period" horiz-adv-x="279" unicode="."/><glyph d="M49 -74q16 -3 27 4q12 10 14 12q10 13 13 17q15 21 32.5 44.5t39 52t33.5 44.5q7 9 44 58.5t57 75.5q60 80 89 120q16 22 24 32q5 11 39 58q12 16 34.5 46.5t26.5 35.5q14 18 20 29q1 2 32 47q18 24 22 33q1 3 8 10l6 6q4 5 4 13q-2 22 -18 39q-6 5 -18 13q-8 5 -21 3 q-3 -1 -8.5 -2.5t-8.5 -2.5q-10 -3 -13 -11q-2 -6 -9 -17.5t-9 -18.5q-4 -6 -22 -32q-5 -6 -13 -18q-4 -5 -10 -15q-4 -8 -13 -17q-5 -6 -13 -18q-4 -8 -7 -11q-6 -9 -19 -26t-15 -20q-15 -23 -17 -26q-4 -8 -14 -22q-4 -5 -12 -16t-12 -16q-23 -32 -165 -223 q-50 -66 -75 -98q-8 -12 -13 -18q-17 -15 -21 -28q-13 -16 -14 -17q-7 -7 -22.5 -25t-24.5 -27q-7 -8 -7 -21q-1 -3 1 -8q6 -15 18 -24q18 -13 30 -15z" glyph-name="slash" unicode="/"/><glyph d="M157 139v46q0 8 1 12q4 9 7 27t5 24l3 6q4 20 8 28t8.5 23.5t6.5 21.5q2 5 7 22q1 6 5 11q1 4 9 21.5t10 28.5q32 69 49 94q11 15 21 35q5 10 18 14q6 1 16 5t12 5q13 3 23 2q15 -4 15 -16q1 -1 1 -3t1 -3q2 -81 -1 -148q-2 -19 -7 -34q-3 -6 -5 -23q-2 -4 -4 -17 q0 -1 -2.5 -7t-3.5 -10q-3 -8 -8 -25t-8 -26l-12 -27l-33 -63q-5 -9 -13 -20q-3 -4 -9 -11.5t-9 -11.5q-8 -16 -38 -44q-1 -1 -10 -7q-18 -10 -32 5q-4 4 -7 10q-17 33 -24 55zM461 253q1 5 2.5 14.5t2.5 14.5q4 7 8 22.5t7 22.5q3 9 5 23q0 6 1 18t1 18q3 16 3 17 q6 15 6 47v24q0 3 -2.5 13t-1.5 16q1 7 -3 23q0 1 -3 17q-2 12 -4 17q-9 30 -13 39q-1 2 -9 16q-7 12 -21 20q-17 8 -39 13q-4 1 -10 7q-5 4 -2 21q2 13 -7 15q-19 5 -32 15q-1 1 -10 7q-24 13 -44 -5q-30 -26 -47 -53q-4 -6 -16 -25.5t-18 -30.5q-2 -4 -7.5 -11t-5.5 -8 q-20 -30 -29 -45q-6 -9 -20 -36q-4 -10 -13.5 -29.5t-14.5 -29.5q-17 -44 -22 -55l-12 -33q-4 -15 -11 -34q-8 -26 -13 -39q-2 -6 -7 -35q0 -1 -1.5 -5t-2.5 -6q-5 -12 -5 -23q0 -5 -0.5 -15t-0.5 -14q1 -49 3 -57.5t25 -55.5q4 -10 12 -21q19 -27 37 -37q6 -4 17.5 -11 t17.5 -11q22 -8 34 -11q16 -5 41 -3q1 0 3 0.5t3 0.5q43 19 69 34q19 12 29 29q12 16 26 32q3 3 18 21q18 31 48 91q4 6 4 11q2 9 6 19t9.5 22t8.5 19z" glyph-name="zero" horiz-adv-x="447" unicode="0"/><glyph d="M179 83q-5 -1 -12 -2t-12.5 -2t-12.5 -1q-8 0 -14 3q-4 2 -18 -3.5t-17 -3.5q-5 -1 -14 -5.5t-16 -2.5q-3 1 -17 1q-8 0 -15 -5q-7 -4 -12 -8q-3 -3 -3 -8q-2 -9 2 -15q14 -23 22 -30q2 -1 9 -3t15 -3.5t9 -1.5q6 -2 10 0t10 -1q3 -1 16 3.5t16 4.5q14 0 81 4q10 0 15 2 q15 6 38 8q4 0 19 5q2 1 12.5 4t15.5 5q1 0 29 6l9 3q12 5 20 5q14 0 47 11q4 1 15.5 5t17.5 5t27 13q10 6 18 17q5 8 1 14q-10 14 -17 17q-23 12 -44 13q-12 -5 -32 -7h-10q-20 0 -44 -8q-8 -3 -19 -1q-7 2 -9 10q-3 7 0 15q4 14 14 42l7 16q7 16 9 25q5 12 15 36.5 t15 36.5q5 8 10 37q1 3 5 11l6 12q13 25 22 55q7 21 17 46q4 9 10.5 26t7.5 20q10 23 11 27q5 14 13.5 39.5t10.5 30.5q12 34 15 52q1 7 5 19q2 6 2 10q2 11 -5 18q-1 2 -3 3.5t-4 3.5l-3 3q-5 5 -9 5q-6 1 -17.5 5.5t-15.5 5.5q-13 3 -24 -2q-17 -7 -22 -11 q-20 -13 -38 -23q-7 -3 -21 -13q-2 -2 -16 -10q-12 -6 -34.5 -20t-34.5 -20q-4 -2 -6 -9.5t0 -11.5q9 -17 12 -22q7 -13 21 -21q3 -2 9 -4.5t8 -3.5q7 -3 15 0q4 2 12.5 6.5t13.5 6.5q7 4 19 7q1 1 2 0.5t1 -1.5q2 -2 2 -4v-5q-13 -34 -16 -47q-3 -8 -11 -26t-11 -29l-3 -9 l-15 -36q-1 -5 -6 -18t-6 -20q-4 -7 -8 -20.5t-8 -20.5q-5 -11 -10 -23q-3 -10 -8 -23q-9 -30 -18 -46q-3 -5 -5 -14.5t-4 -13.5q-12 -23 -14 -32q-1 -6 -5 -16t-6 -16q-6 -28 -6 -29q-3 -5 -4.5 -15.5t-2.5 -13.5q-2 -8 -8 -11q-3 -2 -9 -4.5t-9 -3.5z" glyph-name="one" horiz-adv-x="520" unicode="1"/><glyph d="M505 186q-30 3 -56 0q-9 0 -18 -3q-17 -7 -35 -7q-16 0 -29 -7q-15 -5 -25 -5q-2 -1 -8 -2t-9 -3q-6 -3 -24 -8t-27 -10q-6 -1 -19 -5.5t-21 -4.5q-1 0 -2.5 0.5t-2.5 0.5v6q0 1 1 2q2 2 2 3q5 6 19 20.5t23 25.5t16 24l3.5 3.5t5 4.5t3.5 4q13 13 33 35q16 18 16 19 q11 18 30 38q26 34 29 39q7 7 15.5 22.5t14.5 22.5q15 15 33 44q11 15 33 56q11 21 25 63q7 23 7 34q0 21 -2 30q0 12 -9 23q-8 14 -28 30q-17 14 -33 15q-39 3 -78 0q-2 0 -6.5 -0.5t-5.5 -0.5q-9 -5 -28.5 -11t-27.5 -10q-18 -11 -54 -28q-20 -9 -62 -39q-13 -9 -36 -35 q-3 -6 -10 -18.5t-9 -16.5l-3 -7q-3 -6 -4 -10q0 -7 1 -11q9 -17 25 -26q9 -3 12 -3q21 -3 42 0q1 1 5 2.5t5 2.5q12 9 18 17q16 19 31 28q44 32 54 37q34 20 67 31q2 2 8 -1t6 -7q0 -2 0.5 -5.5t0.5 -5.5q0 -5 -1 -7q-16 -37 -18 -43q-8 -21 -19 -32q-3 -4 -21 -29 q-17 -25 -51 -76q-1 -2 -7 -8q-4 -4 -9.5 -12t-9.5 -13q-6 -6 -10 -14q-10 -16 -19 -24q-39 -44 -46 -56q-4 -6 -7 -9q-9 -9 -28 -28.5t-34 -33t-32 -23.5l-51 -51q-1 -2 -3.5 -5.5t-4.5 -4.5q-18 -32 -25 -47q-6 -24 7 -35q3 -3 12 -11.5t14 -13.5q10 -5 11 -5 q46 -11 47 -12q31 -4 47 3q6 2 20 5.5t20 6.5q7 3 20.5 7.5l19.5 6.5q6 3 17.5 6.5t17.5 6.5q26 14 61 22q46 18 70 20q29 12 60 12q1 1 3 1.5l4 1t3 0.5q15 7 30 7q4 0 12 4q15 8 33 15l4 4q12 16 3 33q-9 14 -26 26q-4 2 -13 6t-13 6z" glyph-name="two" horiz-adv-x="560" unicode="2"/><glyph d="M202 334q6 -5 25 -20q7 -5 14 -5q11 -1 31 -3q36 -11 54 -21l9 -6q19 -16 29 -42q2 -6 0 -11q-5 -21 -18 -37q-21 -25 -59 -60l-12 -9q-6 -3 -26 -18q-3 -2 -14.5 -8.5t-16.5 -11.5l-9 -6q-27 -14 -72 -29q-8 -2 -11 -2h-26q-1 0 -25 6q-5 2 -10 0q-21 -9 -13 -31 q2 -3 5 -9t5 -9q4 -6 8 -7q29 -18 61 -30q3 -2 10 -2q14 0 20 3q20 6 31 7q4 0 10 2q7 4 20 7.5t19 6.5q37 18 46 25q6 5 18 11q11 5 29.5 17.5t24.5 15.5q8 6 12 10q20 17 56 55q5 5 12.5 17t11.5 17l2.5 5t2.5 4q4 14 7 20q5 12 5 36q1 12 -5 25q-1 2 -3 7t-4 7 q-2 4 -11 16t-13 19q-31 33 -45 43q-6 4 -8 7t0 10q4 6 7 8q22 14 45 35q2 2 25 19q6 4 8 7q3 6 12.5 15t11.5 12q4 5 11.5 14.5t11.5 14.5q10 11 19 31q2 4 5.5 12t5.5 12q4 35 1 63q0 8 -6 14q-8 11 -14 15q-4 4 -10 10.5t-8.5 9l-6 6t-6.5 5t-6 3.5t-9 4t-11 4t-16 6 q-18 10 -51 10q-45 0 -66 -3q-45 -19 -55 -21q-4 -1 -10 -5q-13 -7 -39.5 -20.5t-39.5 -19.5l-4 -4q-4 -6 -3 -9q9 -22 22 -44q4 -3 14 -13q11 -10 29 -8q3 0 5.5 0.5t6 1.5t5.5 1q5 3 17 11q15 9 17 11q13 10 62 28q2 1 7.5 2t7.5 2q20 9 51 5q14 -1 20 -15q-4 -18 -8 -24 q-14 -27 -39 -57q-15 -20 -34 -31q-8 -4 -13 -10q-2 -1 -37 -28q-2 -2 -56 -30q-3 -2 -30 -7q-5 0 -10 -3q-27 -12 -33 -17q-2 -2 -3 -4q4 -22 20 -41z" glyph-name="three" horiz-adv-x="524" unicode="3"/><glyph d="M409 375q1 3 2.5 6l3 6t2.5 4q10 15 8 35q-2 10 -1 15q0 16 6 24q2 3 28 49q10 19 24 40q20 28 24 32q5 5 12 17t12 17q4 5 16 26q6 14 -1 25q-1 3 -3.5 7.5t-3.5 5.5q-4 8 -12 9q-10 3 -19 9q-8 6 -13 8q-6 4 -20 2q-3 -1 -9 -5q-15 -11 -27 -30q-7 -12 -57 -85 q-2 -5 -14.5 -23.5t-14.5 -30.5q-1 -2 -4 -6.5t-5 -6.5q-6 -7 -9 -18q-3 -16 -17 -37q-9 -15 -25 -45q0 -1 -1 -2.5t-1 -2.5q-6 -8 -15 -13l-15 -6q-15 -7 -35 -5h-2q-2 1 -3 1q-7 2 -8 6q-2 5 0 10q2 6 8 17.5t7 14.5q3 13 27 61l6 12t7 16t20 53q4 9 1 20l-9 18q-2 3 -8 7 q-17 10 -41 19q-1 1 -10 1q-2 0 -5.5 -0.5t-5.5 -0.5q-14 -3 -18 -16q-1 -1 -3 -10q-4 -15 -11 -34q-1 -6 -17 -37q-9 -16 -16 -32q-3 -6 -9 -18.5t-9 -18.5q-4 -6 -7.5 -18t-5.5 -16q-5 -9 -13 -27q-6 -15 -1 -31q0 -2 2 -4q2 -6 7 -15.5t6 -12.5q11 -20 24 -26 q3 -2 13 -10t17 -9q4 -1 15.5 -5.5t18.5 -5.5q6 0 10 -3q5 -2 7 -7t0 -10q-2 -7 -8 -19t-8 -18q-5 -19 -17 -43q-3 -5 -5.5 -15t-4.5 -14l-15 -33q-1 -1 -1 -2q-1 -2 -1 -3q0 -6 -5 -17t-5 -17q-1 -7 -5 -20.5t-5 -19.5t-1 -20q0 -7 2 -10q6 -17 18 -31q2 -2 4 -3 q21 -16 43 -13q7 0 14 5.5t9 12.5q0 3 1 8t1 7q1 5 5.5 20.5t5.5 24.5q0 4 3 10q2 6 5.5 17t5.5 16q6 20 19 48q12 22 34 66.5t33 66.5q3 6 12.5 20.5t13.5 23.5q3 4 29 30q2 3 7 7t6 5z" glyph-name="four" horiz-adv-x="499" unicode="4"/><glyph d="M261 649q-5 -4 -8 -4q-22 -13 -39 -13q-8 0 -20 -4q-18 -7 -31 -7q-14 -2 -20 -5q-5 -1 -9.5 -8.5t-4.5 -14.5q0 -5 0.5 -9t1.5 -7t3 -6l3 -4.5t5 -6t6 -6.5q5 -4 13 -14t13 -14q2 -1 4 -5q0 -1 1.5 -5t2.5 -6v-35q0 -18 6 -36q9 -34 20 -55q47 -61 77 -80q2 -2 4 -3 q5 -5 15.5 -15t16.5 -16q4 -4 6 -16q0 -12 -2 -18q-12 -35 -31 -54l-30 -33q-14 -15 -30 -24q-6 -3 -18 -11q-25 -15 -38 -18.5t-42 -3.5q-9 0 -31 2q-10 2 -15 5l-5 2.5t-4 2.5q-16 6 -28 -9q-4 -5 -2 -11q20 -50 62 -69q11 -5 35 -13q10 -2 15 -2h36q14 2 25 7 q36 14 62 29q41 24 49.5 31.5t42.5 45.5q16 20 24 29q8 14 26 62q0 5 0.5 17t0.5 18q0 15 -6 29q-4 7 -10 20.5t-9 19.5q-14 19 -24 26q-11 7 -21 17q-15 15 -21 18q-16 10 -40 38q-18 21 -15 49q2 16 2 23q5 11 5 12q10 26 15 38q10 22 28 25q10 0 15 2q20 8 51 10 q10 0 20 5t25 5q5 0 15.5 0.5t15.5 1.5q12 2 15 4q14 6 20 6q35 3 37 3q7 0 15 3q7 3 30 8q2 0 5.5 1t4.5 2q18 8 36 23q5 3 8 8q1 2 3.5 0t3.5 1q6 10 -2 16q-26 22 -37 33q-4 4 -14 6q-25 0 -36 -5q-7 -3 -20 -5q-56 -2 -72 -10q-3 -1 -10 -1q-24 -2 -36 -2q-7 0 -15 4 q-26 17 -31 22q-8 8 -24 10q-31 2 -50 -12q-6 -4 -10 -7q-9 -9 -35 -37z" glyph-name="five" horiz-adv-x="575" unicode="5"/><glyph d="M218 123q8 7 27 26.5t30 29.5q25 25 39 32q3 2 7.5 6.5t8.5 8t8 6.5q2 2 6 5.5t6.5 5.5t5.5 2q8 4 8 -3q5 -7 2 -11q-2 -6 -7 -18.5t-6 -17.5q-3 -10 -8 -15q-29 -34 -80 -81q-18 -15 -31 -21q-11 -5 -31 -15q-7 -2 -16 3q-8 3 -16 15q-4 4 -3 10.5t6 8.5q1 1 19 10 q20 11 25 13zM433 640q10 7 28.5 19t23.5 16q5 3 5 10q3 13 -7 28q-1 6 -11 10q-24 9 -33 11h-4h-7q-11 -7 -26 -10q-5 0 -10 -3t-10.5 -7t-8.5 -6q-24 -15 -36 -28q-11 -12 -33 -34.5t-34 -33.5q-9 -9 -15 -18q-3 -6 -10.5 -17t-10.5 -16q-6 -9 -28 -36q-3 -4 -9 -14 q-2 -3 -12 -21t-18 -26q-18 -40 -34 -59l-5 -10q-5 -11 -16.5 -35t-17.5 -35q-6 -10 -8 -16q-5 -18 -7 -21q-3 -6 -7 -18.5t-6 -17.5q-3 -6 -6 -19t-7 -19l-3 -18q-3 -36 0 -73q0 -3 3 -21q4 -10 13 -27t12 -24q4 -5 13.5 -14.5t13.5 -14.5q14 -13 28 -19q2 -1 47 -18 q5 -2 17 -2q14 0 23 -2q9 0 21 5q3 2 21 7q48 17 67 32q15 7 31 23q45 43 79 80q1 3 15.5 31.5t20.5 45.5q3 12 5 55q0 6 -0.5 20t-0.5 21q-5 12 -7 14q-4 3 -7 6.5t-7 7.5l-6 6q-18 18 -40 19q-41 0 -62 -1q-13 -4 -16 -7q-24 -16 -28 -18q-49 -32 -62 -48q-2 -2 -10 -9 t-11 -11q-20 -18 -31 -39q-8 -12 -20 -20q-8 -2 -8 5q-3 5 0 12q16 49 23 63q9 18 27 53t27 53q7 11 9 13q5 5 11.5 17t10.5 17q14 22 22 38q4 8 14 21t14 21q5 7 18 23q1 3 4.5 7t5.5 6q10 21 32 39l26 26z" glyph-name="six" horiz-adv-x="541" unicode="6"/><glyph d="M181 565q37 -6 89 -1q10 0 22 5q4 2 6 2q19 4 57 14q4 1 10 -3q4 -4 1 -11q-9 -24 -28 -51l-9 -15q-1 -9 -21 -41q-2 -3 -4 -6.5t-4.5 -8t-3.5 -6.5q-27 -55 -55 -110q-35 -64 -37 -67q-3 -5 -5 -10q-2 -10 -10 -28q-39 -81 -44 -96q-4 -14 -19 -42q-5 -9 -11 -28 t-10 -27q-4 -27 0 -41q9 -30 40 -39q17 -5 35 -3q12 2 20 11q24 39 30 64q4 13 16 37q4 6 8 19.5t7 19.5q20 41 35 74q14 28 15 32q6 19 18 36q5 7 7 16q15 39 34 68q7 11 26 46q23 48 63 106q38 57 52 85q7 16 18 30q5 7 9 22.5t8 21.5q3 4 3 11q3 18 -3 34q-2 4 -6 10 q-6 6 -9 8q-30 26 -65 23q-34 -5 -40 -8q-4 -3 -11 -3q-26 -4 -34 -8q-6 -3 -17.5 -4t-16.5 -3q-23 -9 -46 -12q-11 -5 -33.5 -9.5t-33.5 -9.5q-31 -4 -46 4q-10 6 -32 14q-24 9 -46 0q-5 -1 -10 -6q-11 -11 -6 -27q4 -11 14 -33l9 -9l11 -11l9 -9q14 -14 29 -20l7 -3.5 t8 -3.5z" glyph-name="seven" horiz-adv-x="500" unicode="7"/><glyph d="M268 243q0 -17 -1 -25q0 -1 -9 -41q0 -1 -0.5 -3t-1.5 -4.5t-1 -3.5q-2 -9 -14 -32q-4 -11 -13 -23q-3 -3 -11 -12t-13 -13q-12 -15 -41 -28q-7 -2 -13 0q-4 0 -8 4.5t-5 9.5q-4 27 3 52q2 6 7 19.5t8 19.5q3 11 7 14q44 60 91 103q3 2 9 0q3 -2 5 -8q0 -1 0.5 -2.5 t0.5 -2.5v-24zM305 571v27q0 12 9 18q4 3 20 14q1 1 10 3q8 6 26 6q13 0 18 -3q6 -2 14.5 -6.5t12.5 -6.5q19 -10 33 -38q1 -5 8 -18q0 -8 -3 -11q-2 -5 -6 -7l-54 -42q-3 -2 -5.5 -4t-6 -4t-5.5 -3q-19 -10 -36 -26q-9 -6 -16 3q-7 11 -7 16q-2 7 -4 25q-7 15 -9 53v4h1z M466 686q-33 22 -68 38q-61 5 -102 -1q-24 -10 -60 -33q-5 -2 -7 -8q-16 -18 -16 -43q-2 -32 0 -65q0 -21 5 -36q2 -4 5 -21q2 -14 3 -16q5 -13 5 -26q1 -4 3.5 -12.5t3.5 -13.5q4 -11 4 -37q-2 -15 -7 -19q-6 -4 -18.5 -16t-20.5 -16q-11 -7 -25 -23q-45 -47 -86 -98 q-5 -10 -10 -20.5t-10.5 -23t-8.5 -20.5q-1 -2 -4 -13.5t-5 -17.5q-3 -10 -5 -31q0 -5 0.5 -14t0.5 -13q0 -12 4 -19q17 -38 24 -49q-1 0 6 -7q12 -17 31 -23q18 -9 36 -15q6 -2 32 -2h18q3 0 5.5 0.5t5.5 1.5t5 1q8 6 16 8q9 3 17 9q6 5 16.5 12.5t18.5 13.5t14 12 q3 6 9.5 15t8.5 12q3 2 10 14q3 5 9 15.5t10 15.5q2 3 4 11.5t3 11.5q4 10 9 37q0 13 3 28q3 6 3 10q0 53 -5 69q0 1 -1 8.5t-2 12.5q0 15 -1 21q0 2 -2.5 11.5t-3.5 14.5q-1 6 3 10q6 13 17 18q7 5 25 17t27 20q1 1 3.5 2t3.5 3q28 17 29 18q6 5 17 13t15 11q7 5 14 11 t15 13t12 11q10 25 18 34q5 10 5 11q5 27 -2 44q-2 2 -9 10t-12 12q-5 7 -1 10q-1 1 -3 2t-3.5 2t-2.5 2l-2 2q-2 5 -7 16.5t-7 17.5q-15 19 -35 39z" glyph-name="eight" horiz-adv-x="512" unicode="8"/><glyph d="M413 588v-6q-10 -20 -19 -33q-18 -20 -26 -32q-12 -17 -28 -31q-3 -5 -8 -6q-4 -2 -26 -18q-4 -4 -12 -11t-11 -11q-9 -3 -22.5 -13t-22.5 -13q-24 -14 -32 -17q-2 -1 -10 -1q-4 -1 -7 2t-1 7q10 31 27 50q15 16 21 28q2 4 7 9.5t7 8.5q10 9 31 30t32 31q4 7 17 12 q7 4 12 10q16 11 28 13q3 1 8 2.5t7 1.5q9 4 23 -6q5 -3 5 -7zM416 666q-6 1 -14.5 2.5t-11.5 1.5q-21 10 -52 8q-7 0 -21 -4q-2 -3 -8 -5q-30 -14 -48 -31q-7 -9 -13 -11q-9 -4 -28 -23q-7 -6 -20.5 -19t-17.5 -17q-29 -31 -36 -46q-2 -3 -6 -7.5t-6 -7.5q-8 -6 -11 -13 q-22 -37 -32 -65q-1 -3 -1 -10q0 -6 4 -14t4 -11q1 -12 15 -34q8 -14 26 -25q14 -10 37 -19q6 -3 15 -3q8 -1 27 -1q14 0 30 6q2 1 8.5 4t9.5 5q9 5 11 -7q3 -9 -1 -21q-14 -29 -17 -38q-6 -18 -16 -38q-19 -38 -22 -48q-10 -21 -17 -49l-1 -2q-1 -2 -1 -3q-1 -3 -12 -29 q-2 -4 -13 -33q-12 -25 -26 -69q-1 -5 -4 -13t-4 -12q-1 -7 1 -15q2 -7 10 -19q4 -4 10 -5q22 -3 41 1q9 2 13 9l10 15t12 19q12 18 13 29q1 5 6 16.5t6 17.5q5 15 15 33q3 6 6 18t5 17q11 18 14 29q6 20 21 53l4 8t4.5 8.5t3.5 7.5q4 15 20 48q3 15 21 53q7 13 17.5 35 t14.5 31q5 7 12 29q5 16 25 52q1 3 10 12q0 1 8 10.5t11 14.5q19 34 42 58q14 16 18 34q3 12 -2 26q-6 11 -16 13q-1 0 -14 3q-7 0 -18 4.5t-16 5.5q-2 0 -4 0.5t-4 2t-3 1.5q-2 0 -4 2q-17 14 -40 24z" glyph-name="nine" horiz-adv-x="488" unicode="9"/><glyph d="M162 140q-8 0 -15 -1q-9 0 -12 -6q-4 -5 -12.5 -14t-11.5 -12q-4 -4 -6 -11q-3 -20 11 -31q10 -8 14 -12q7 -5 17 -7q25 -2 38 1q7 0 12 6q18 30 26 45v4q0 3 -1 4q-1 3 -2.5 8.5t-2.5 8.5l-6 6q-19 12 -35 11h-14zM178 477q-10 2 -43 2q-1 0 -19 -3q-12 -5 -15 -19 q-3 -13 3 -26q11 -24 15.5 -28.5t23.5 -15.5q4 -2 11 -5t11 -5q1 -1 4 -1t5 -1h12t12 1q11 4 19 15q1 5 5 15q5 13 2 31q0 6 -4 10q-8 17 -20 20q-17 9 -22 10z" glyph-name="colon" horiz-adv-x="325" unicode=":"/><glyph d="M281 85q-1 -3 -4 -9.5t-4 -10.5q-1 -2 -3.5 -9t-3.5 -12q-8 -22 -21 -41q-13 -18 -17 -36q0 -1 -2 -5.5t-2 -7.5q-2 -9 7 -11q14 0 18 2q5 2 13 6t13 6q27 12 37 32q7 8 17 28q8 16 10 19q6 14 6 21q3 11 4 14q3 6 3 12q0 7 0.5 20t0.5 20q0 13 -5 20q0 1 -3 11 q-1 1 -2 3.5t-1 3.5q-2 2 -6 8t-6 8q-3 4 -9 4q-8 1 -25 1q-10 0 -14 -1q-7 -2 -9 -5q-5 -6 -1 -12q1 -2 2.5 -7.5t3.5 -7.5l3 -8q0 -10 4 -18q0 -1 -0.5 -2.5t-0.5 -2.5q-2 -6 -2 -11q0 -3 -0.5 -10.5t-0.5 -11.5zM277 426q21 0 28 1q4 0 10 4q2 2 12 4t13 5q21 29 21 51 q5 4 5 16v9q0 7 -6 17q-6 11 -16 18q-2 3 -7 3q-3 1 -7 0q-2 0 -8 -2l-9 -3q-6 -2 -18 -2q-1 0 -3.5 -0.5t-3.5 -0.5q-24 -10 -34 -32l-4.5 -9t-6.5 -11q-4 -5 -8 -19q-2 -5 0 -14q6 -19 14 -26q5 -5 13 -8q3 0 6.5 -0.5t5.5 -0.5h3z" glyph-name="semicolon" unicode=";"/><glyph d="M240 289q-4 2 -4 3q-25 20 -36 25q-8 1 -15 9q-1 0 -4 3q0 7 1 10q2 1 4.5 3t3.5 2q5 3 11 5t13.5 4t11.5 3q50 25 67 35q4 1 16 11q20 17 22 18q3 2 9 11q3 2 10 11q18 21 18 48v4q2 14 -11 25q-6 3 -14 1q-3 -2 -6.5 -3.5t-8 -4t-7.5 -3.5q-5 -5 -18 -14t-19 -15 q-5 -5 -15 -11q-18 -11 -43 -22q-4 -1 -38 -15q-2 -1 -20 -6q-4 -1 -14 -5.5t-16 -5.5q-15 -5 -30 -13q-4 -2 -10 -4q-14 -8 -22 -22q-2 -4 -5 -12.5t-4 -9.5q-2 -9 -2 -24q0 -10 6 -18l11.5 -11.5t14 -13.5t11.5 -12q4 -2 12 -8q5 -3 14.5 -9t13.5 -9q6 -4 30 -23 q2 -2 6 -4t5 -3q5 -4 20.5 -14t22.5 -16q9 -8 31 -22q21 -15 36 -24q27 -11 45 -26q2 -1 7 -0.5t7 2.5q10 8 14 13q3 4 5 13q2 14 2 42q-3 10 -7 13q-9 9 -14 12l-27 19q-7 7 -31 22q-7 7 -11 10q-4 4 -12 11.5t-12 11.5q-1 1 -3.5 3t-3.5 3h-6z" glyph-name="less" horiz-adv-x="444" unicode="&lt;"/><glyph d="M49 239q1 -3 2 -6.5t2 -8t2 -6.5q1 -4 8 -14q13 -11 21 -12t17 -6q9 -2 16 2q24 7 31 10q9 3 17 3q4 0 16 4q5 3 12 3l33 3q13 0 25 3q4 3 16 3q16 1 48 1t48 1h66q8 0 16 2q9 4 21 4q20 0 29 2q6 0 11 5l9 9q7 8 4 20q-4 12 -10 17q-1 3 -6 6q-9 6 -23 8q-24 3 -29 5 q-6 2 -12 2q-47 0 -71 -1q-8 0 -11 -1q-8 -4 -25 -4q-16 -1 -49.5 -1t-50.5 -1q-8 0 -16 -2q-11 -5 -29 -5q-31 -2 -41 -7q-12 -2 -16 -2q-14 -2 -17 -4q-14 -4 -44 -14q-6 -1 -13 -8q-6 -9 -7 -10zM102 390q16 -14 21 -17q3 -4 7 -4q10 -2 29 -2q10 0 29 0.5t29 1.5 q14 0 24 5q5 1 13 1q38 2 58 2q2 0 20 5q8 2 13 2q11 1 33 1q1 0 16 3q11 4 24 4q23 2 67 2q2 0 6.5 0.5t8 1t6.5 1.5q8 4 16 4q12 0 27 11q3 3 3 7q5 12 0 25q0 3 -3 7q-9 10 -12 11q-4 4 -11 4q-3 1 -9 1q-17 0 -51.5 -0.5t-51.5 -0.5q-12 0 -17 -2q-7 -4 -16 -4 q-13 -1 -37 -1q-29 -2 -37 -6q-4 -1 -13 -1q-7 0 -20.5 -1t-20.5 -1q-14 0 -29 -5q-8 -2 -12 -2q-45 -4 -75 0q-14 0 -20 -2q-6 0 -12 -3q-3 -2 -9 -8q-8 -8 -5 -20q4 -6 11 -20z" glyph-name="equal" unicode="="/><glyph d="M192 132q50 54 70 74q20 22 25 32q3 6 10 12l24 27q5 6 14 16t16.5 18.5t14.5 16.5q7 7 8 18q2 18 -1 32q0 7 -5 14q-8 10 -13 15q-26 10 -39 14q-11 2 -35 4q-6 4 -17.5 10t-17.5 10q-7 2 -17 10q-2 3 -4.5 5.5t-5.5 5t-5 4.5q-20 22 -24 34q-1 1 -6 6.5t-7 9.5 q-3 3 -9 6q-2 1 -18.5 6.5t-18.5 5.5q-13 2 -25 0q-10 -2 -11 -11q-2 -6 -2 -31q2 -13 7 -19q3 -4 11 -13.5t11 -15.5q2 -4 18 -25l10.5 -10.5l12 -12l10.5 -10.5q25 -29 36 -36q5 -2 17 -12l7 -7q3 -4 3 -10t-2 -9q-15 -20 -38 -43q-4 -4 -11.5 -18t-16 -22.5t-20.5 -7.5 l-3 -3l-27 -25q-8 -9 -25 -20t-25 -20q-7 -12 -1 -26q10 -12 18 -19q4 -1 9.5 -3t12.5 -5t11 -4q8 -2 14 1q10 5 30 15.5t30 15.5z" glyph-name="greater" horiz-adv-x="440" unicode=">"/><glyph d="M152 246l12.5 -7.5t10.5 -6.5q30 -11 32 -11q16 -5 27 -6q5 -1 15 1q3 1 7.5 3.5t5.5 3.5t2 2.5t2.5 2.5t2.5 2q4 3 4.5 9.5t-3.5 9.5q-12 12 -23 16q-4 4 -16 10q-10 5 -4 16q8 12 29 30q13 6 15 11q13 14 41 30q4 3 8 4q28 24 44 36l5 2.5t4 2.5q3 2 8.5 7.5l8.5 8.5 q6 4 21 16t23 18q1 0 28 25q12 14 24 21q2 1 4 3.5t3 3.5q37 37 59 64q11 17 13 24q1 2 2 6.5t2 6.5q0 2 -3 26q-2 7 -3 8q-10 18 -19 27q-29 23 -41 30q-6 3 -10 3q-5 1 -12 3t-11 2q-5 2 -16.5 4t-17.5 4q-7 2 -14 0q-17 -1 -58 -5q-1 0 -13 -3q-14 -7 -38 -10 q-10 -2 -13 -4q-5 -3 -14 -5.5t-13 -4.5q-3 -1 -10.5 -4.5t-11.5 -5.5q-20 -10 -24 -14q-39 -31 -41 -32t-4 -4l-2 -2q-1 0 -2 -2l-1 -2q-8 -9 -3 -21q0 -2 3 -5.5t4 -6.5q6 -10 27 -25l9 -3q16 0 25 2q17 1 28 14q3 5 9 11q10 13 26 20q16 10 25 13q5 5 8 5q22 4 32 9 q3 2 9 2q7 1 31 4t37 3q10 0 17 -8q8 -8 2 -16q-2 -3 -5.5 -7.5t-5.5 -7.5q-31 -37 -52 -51q-10 -8 -19 -20q-3 -2 -8 -6t-8 -6q-22 -19 -24 -22q-2 -1 -11.5 -8t-14.5 -11q-14 -15 -40 -32q-16 -11 -47 -34.5t-46 -35.5q-6 -5 -21 -17q-23 -25 -29 -34q0 -2 -3 -7t-4 -9 q-7 -18 2 -33q6 -9 22 -31zM262 -7q0 6 -2 8q-2 11 -9 15q-10 10 -28 17q-19 8 -38 0q-19 -6 -26 -24q-3 -4 0 -9q11 -16 21 -24l12 -8q4 -1 15 -3.5t17 -3.5t19 1q8 2 14 8.5t6 13.5q0 2 -0.5 5t-0.5 4z" glyph-name="question" horiz-adv-x="650" unicode="?"/><glyph d="M378 422q0 -1 -1 -3.5t-1 -3.5q-17 -35 -33 -65q-2 -2 -4.5 -5t-5.5 -7t-5 -6q-6 -6 -11 -14q0 -1 -1.5 -3t-2.5 -3q-13 -14 -41 -40q-5 -3 -13.5 -9.5t-12.5 -9.5q-1 -1 -3.5 -1t-3.5 -1q-4 -2 -6 0t-2 7q0 2 1 3l21 45q3 4 12.5 17.5t15.5 20.5q28 30 58 58q2 1 5 3.5 t4 3.5q7 5 23 15q4 1 7 -2zM479 668l-12 -6t-11 -5q-8 -2 -21 -7.5t-18 -7.5t-13.5 -6t-9.5 -4q-19 -10 -23 -11q-4 -3 -25 -13q-3 -3 -24 -16q-53 -38 -55 -40q-1 0 -3 -2t-3 -2q-8 -3 -20 -15q-11 -13 -21 -19q-4 -2 -22 -18q-24 -24 -35 -36q-2 -2 -12 -14q-2 -4 -9 -11 q-3 -4 -9.5 -11t-9.5 -10q-7 -6 -11 -14q-4 -6 -14 -18t-14 -19l-21 -24q-2 -3 -9.5 -17t-13.5 -20q-2 -4 -7 -11.5t-6 -9.5q-2 -4 -13 -25q-2 -2 -5 -9t-6 -10q-7 -7 -10 -19q-2 -4 -7 -15t-8 -17q-2 -4 -4 -13t-5 -14q-2 -4 -2 -7q-1 -12 -6 -24q-1 -3 -1 -11v-27 q1 -2 2 -5t2 -5.5t1 -4.5q1 -7 13 -33q6 -10 10 -14q5 -6 15 -16l9.5 -9.5l7.5 -7.5t6 -5.5t7 -5.5t7 -4t10.5 -5t13.5 -6q3 -1 11 -2t13 -3q8 -3 14 -3h47q12 0 21 4q6 2 10 2q3 1 9 1t9 1q6 0 14 3q5 2 17 4q2 1 6.5 2.5t8 2.5t6.5 1q7 1 20.5 5t20.5 5q13 4 37 12h2l2 1 q2 1 8 3.5t8 3.5q1 0 7 2.5t10 3.5q13 5 35 17q3 2 6 5q14 11 20 20q2 1 1.5 4.5t-2.5 4.5q-3 3 -9.5 8t-9.5 8t-7 1q-9 -4 -17 -5q-8 0 -14 -3q-4 -2 -14.5 -4.5t-15.5 -5.5q-5 -1 -14 -4.5t-13 -4.5l-16.5 -5.5t-14.5 -4.5q-14 -4 -20 -6q-6 -3 -18 -5q-4 0 -10.5 -3 t-9.5 -3q-17 -2 -24 -6q-4 -1 -8 -1.5t-9 -1t-8 -0.5q-1 -1 -4 -1q-8 -4 -27 -6q-2 0 -14 -3q-11 -4 -32 -2q-16 4 -24 7l-6 3q-16 12 -27 29q-11 19 -10 34q1 8 1 25q0 7 2 10q1 3 2.5 10t2.5 11q6 14 7 20q2 5 6 13q10 22 32 64q5 9 15 25q32 50 51 73q6 11 25 30 q10 10 15 20q3 5 12 14q44 45 81 80q7 6 14 11q8 6 11 9q15 15 40 31q4 2 10.5 6.5t12 8t10.5 6.5q11 5 33.5 16t33.5 17q5 3 14.5 6.5t12.5 4.5q30 12 40 13q3 0 7 2q3 2 10 2h18q2 0 4 -0.5t3 -0.5q2 -1 8 -3.5t9 -4.5q16 -9 17 -25q3 -22 -1 -50q0 -3 -2 -7q-1 -4 -3 -10 q0 -6 -3.5 -16t-3.5 -12q-1 -2 -5 -13.5t-5 -17.5q-2 -4 -6 -12.5t-8 -15.5t-8 -12q-5 -10 -19 -26q-17 -19 -30 -31q-1 -1 -4.5 -4t-5.5 -5q-8 -8 -20 -15l-9 -6q-4 -4 -12.5 -7.5t-9.5 -4.5h-4q-6 2 -6 7q-3 12 2 25q12 24 25 44q0 2 0.5 8t0.5 9q1 9 -6 16q-6 6 -14 11 q-6 1 -9 6q-3 3 -2 6q2 2 3 2q2 1 7 1q17 0 25 -1q7 0 11 1q8 2 11 8q7 13 -3 23q-5 5 -15.5 11.5t-13.5 8.5q-3 3 -10 5q-1 0 -5 1t-5 2q-6 4 -21 4h-7q-9 0 -17 -3q-12 -4 -17 -6q-16 -7 -19 -10q-4 -4 -24 -16q-27 -18 -42 -33q-4 -6 -10 -10q-12 -12 -19 -16 q-10 -7 -18 -18q-2 -4 -7.5 -11t-7.5 -9q-9 -8 -16 -19t-31 -56q0 -1 -3 -11q-3 -13 -4 -17q-4 -9 -2 -28q0 -3 2 -7q3 -8 8 -16q3 -5 9 -13t7 -9q3 -2 10 -7.5t11 -8.5q9 -6 19 -9q6 -2 11 -1q2 1 6.5 2t6.5 2q11 2 24 9q8 5 19 10q10 10 16 14q4 6 11 9q11 7 19 16 q5 5 14.5 14t14.5 13q2 2 6.5 2.5t6.5 -1.5l6 -3q2 -2 7 -6t7 -6l6 -3q12 -4 17 -6q5 0 7 1q5 2 15 3t15 2q2 1 10.5 5t13.5 6q8 4 22 12.5t15 9.5q4 3 25 21q4 4 12 12.5t13 13.5t8 11q4 6 7 9q8 8 21 32q14 26 17 40q2 4 4.5 12t3.5 11q2 4 4 12t4 12q3 6 3 14q3 17 4 21 q3 9 3 17v36q0 12 -2 19q-12 25 -17 34q-12 22 -32 33q-6 3 -12.5 6t-14 7t-11.5 6q-14 8 -28 9h-3q-12 5 -21 1q-10 -1 -32 -3z" glyph-name="at" unicode="@"/><glyph d="M426 569q-2 -25 -6 -37q-3 -6 -3 -14q-1 -18 -11 -48q-2 -8 -8 -24l-3 -24q-2 -10 -4 -14q-2 -6 -6 -21t-8 -22q-1 -4 -2.5 -12.5t-2.5 -12.5t-7.5 -9t-11.5 -6q-8 -1 -24 -1.5t-21 -0.5q-14 0 -29 -5q-10 -4 -24 -2q-7 0 -10.5 6t-0.5 12q17 40 34 60q5 10 18 29.5 t18 29.5q27 43 37 53l15 21q4 8 12 16q10 12 20 28q4 5 14 15q4 4 8 3q3 -1 5 -8q0 -9 1 -12zM440 709q-29 -12 -36.5 -17t-27.5 -23l-7 -7q-14 -10 -22 -11q-13 -1 -27 -10l-4 -4q-2 -3 -6.5 -10.5t-7.5 -11.5q-29 -42 -43 -72q-4 -9 -11 -17q-10 -15 -29 -52 q-7 -12 -36 -71q-3 -4 -7.5 -13t-7.5 -13q-5 -7 -29 -53q-3 -5 -9 -16.5t-9 -17.5q-5 -11 -15 -14q-24 -12 -38 -14q-17 -9 -21 -19q-6 -7 0 -15q3 -4 9.5 -11.5t9.5 -11.5t1 -9q-1 -2 -3 -6.5t-3 -6.5q-15 -27 -40 -77l-35 -70q-3 -7 3 -13q3 -2 9.5 -6t11 -8t7.5 -9 q9 -8 22 -12q9 -3 19 2q2 1 20 19q32 64 42 82q30 60 44 90q6 12 10 17q1 4 7 6q11 6 14 7q38 13 52 15q11 0 20 6q6 2 10 3q30 2 45 1q5 -1 9 -5.5t3 -8.5q0 -7 -1 -10q-3 -6 -10 -28q-8 -22 -9 -34l-3 -9q-4 -9 -14 -36t-19 -41q0 -1 -3 -11q0 -10 5 -13q22 -14 31 -24 q4 -5 12 -7q7 -2 16 1q14 9 22 18q4 2 8 8l22 44q2 6 2 10q2 16 5 23q3 6 6 15.5t5 13.5q5 12 6 23q0 1 1 7t2 9q2 4 4.5 13.5t4.5 13.5q2 5 5 14.5t5 14.5q4 11 12 15q1 1 4 2.5l5 2.5q13 6 23 19q6 8 3 19q-3 8 -7 13q-17 16 -8 36q6 9 6 19q2 14 5 19q4 12 12 38 q1 2 1.5 9t2.5 10q5 14 11 48q0 1 1.5 2.5t1.5 2.5q5 12 5 24q1 9 1 25q2 16 5 24q3 7 3 15q2 46 0 69q0 9 -5 19q-6 12 -22 28q-7 7 -18 7q-6 1 -20 1q-7 1 -19 5z" glyph-name="A" horiz-adv-x="511" unicode="A"/><glyph d="M104 238l1 3l3 -2zM354 232q-7 -25 -23 -40l-21 -21q-15 -13 -25 -17q-18 -9 -23 -14l-15 -9q-6 -3 -22.5 -11.5t-29.5 -14t-23 -7.5q-4 -1 -15.5 -6t-17.5 -7q-5 -3 -10 2q-8 8 -4 16q2 5 4.5 15l3.5 14q1 1 4.5 6t5.5 8q7 12 8 16q3 12 31 70q18 24 39 26q51 9 90 4 q20 -8 28 -13q6 -1 15 -17zM261 402q-7 3 -5 10q13 35 43 84q11 20 13 26q10 29 24 48q12 20 20 30q7 10 19 12q3 0 46 5t62 3q11 0 18 -8.5t2 -19.5q-2 -5 -6 -18.5t-6 -19.5q-2 -11 -14 -19q-3 -7 -7 -12t-10 -10t-8 -8q-22 -20 -32 -28q-7 -3 -19.5 -13.5t-21.5 -13.5 q-7 -4 -19 -14q-1 -1 -4.5 -3.5t-5.5 -3.5q-10 -5 -39 -12t-39 -11q-2 -1 -11 -4zM495 707q-45 4 -60 11q-22 4 -35 -2q-8 -2 -12 -2q-8 3 -11 1q-13 -5 -41 -5q-16 -2 -25 -2q-9 -5 -19.5 -14.5t-20.5 -14.5q-7 -7 -20.5 -21.5t-19.5 -21.5q-3 -5 -6 -15t-4 -13 q-1 -2 -4 -6.5t-4.5 -8.5t-0.5 -7q0 -2 2 -6t2 -6q4 -12 -11 -40q-1 -2 -4 -11q-2 -7 1 -12q4 -6 1 -11q-1 -4 -9 -6q-12 -7 -19 -22q-5 -10 -6 -16q4 -18 -11 -23q-4 -2 -4 -3q-14 -14 -15 -21q-2 -8 -2 -11q-2 -14 -2 -18q0 -10 -9 -14q-20 -17 -23 -41q-1 -4 -2 -16 t-3 -19q-2 -3 -5.5 -10.5t-5.5 -10.5q-2 -6 -7 -10q-17 -9 -25 -38q-7 -21 -14 -34q0 -5 -15 -42q-12 -25 4 -44l12 -15q2 -3 2 -8.5t-2 -7.5l-9 -9q-2 -2 -4.5 -3.5t-5.5 -3l-5 -2.5q-10 -8 -1 -21q4 -3 13 -8t13 -9q8 -7 41 -26q5 -1 7.5 -0.5t7.5 2t8 1.5q23 -10 40 -1 q17 5 23 5q18 0 52 12q60 20 88 35q14 8 25 16q8 7 20 12q44 22 53 38q11 12 28 27q9 12 27 49q9 18 5 47q0 1 -1 3t-1 3q-18 46 -56 67q-11 6 -19 13q-8 5 -11 14q-3 6 1 10q5 6 25 16q4 2 11.5 8.5t12.5 9.5q6 3 16.5 10.5t13.5 9.5q4 3 16.5 9.5t18.5 10.5q34 25 47 46 q2 6 13 11q12 9 14 11q4 4 12 12.5t12 13.5q13 24 14 26q2 5 5 15.5t4 12.5q2 4 2 6q6 19 -4 40q-2 4 -23 35q-10 15 -20 20q-20 17 -51 32q-2 1 -25 11z" glyph-name="B" horiz-adv-x="540" unicode="B"/><glyph d="M64 245q4 -4 3 -10l-3 -2q-6 2 -4 8zM125 437q6 0 6 -6q-1 1 -3 2l-1 1q-1 0 -2 5l-3 -3l-2 -1q-1 -2 -6.5 -10t-8.5 -12q-8 -9 -13 -25q-4 -14 -18 -40q-3 -7 -14 -30q-1 -7 -13 -37q-1 -4 -4 -10t-4 -9q-5 -40 -9 -50q-3 -5 -3 -16q-1 -9 -1 -28q0 -22 2 -33 q1 -3 4 -10t4 -11q3 -12 17 -41l15 -15q11 -12 26 -20q10 -6 13 -10q5 -5 15.5 -10t12.5 -7l49 -15q5 -2 15.5 -3.5t15.5 -2.5q4 -3 11 0q9 4 22 4q7 0 26 7q1 -1 3 -1t3 -1q17 -6 27 -1q14 6 45 10q4 2 20.5 10.5t26.5 13.5q4 4 12 11.5t12 11.5q10 8 6 19q-1 3 6 8 q8 7 5 15q-9 18 -24 20q-3 0 -21 8q-8 1 -16 0q-26 -9 -50 -25q-2 -1 -5 -5.5t-5 -6.5q-4 0 -6 2q-12 3 -21 -2q-18 -6 -21 -6q-30 -2 -43 -8q-3 -2 -12 -2q-5 0 -13 0.5t-12 0.5q-18 8 -36 28q-6 10 -8 14q-1 4 -2 10t-1 7q-14 27 -3 54q3 6 3 10q1 4 1 11q2 24 9 38 q2 8 8.5 25.5t8.5 27.5q4 7 13 25.5t14 28.5q1 2 4 10q5 10 16.5 27t15.5 25q3 5 10 13.5t10 13.5q5 4 9 13q10 17 32 37l67 67q7 8 18 13l7.5 5t6.5 5q9 8 29 15q6 1 18 7t18 7q7 1 15 -5q6 -6 18 -17t18 -17q13 -13 36 -9q8 2 15 7l8 8q7 7 5 14q-16 46 -26 60 q-5 5 -17 16.5t-17 16.5q-6 4 -15.5 7t-12.5 5q-9 5 -28 8t-26 6q-2 0 -5.5 -0.5t-5.5 -1.5q-6 -3 -17.5 -4t-15.5 -2q-6 -3 -9 -4q-46 -23 -65 -42q-4 -4 -14 -8q-10 -8 -13 -11q-12 -12 -26 -25.5t-30.5 -30.5t-25.5 -26q-7 -6 -13 -18q-2 -2 -5 -7t-5 -7q-21 -21 -27 -35 q-4 -4 -11 -12.5t-10 -12.5q-7 -7 -9 -26z" glyph-name="C" horiz-adv-x="500" unicode="C"/><glyph d="M241 555q7 -3 3 -9q-1 -2 -3 -3q-6 3 -3 8q0 1 3 4zM217 98q-26 -13 -51 -10q-8 2 -11 7q-2 3 -2 11q0 1 2 5l3 6q12 32 16 40q6 11 9 28q1 9 6 18q6 16 18 44.5t21.5 52t17.5 44.5q2 4 6 13.5t7 13.5q11 16 37 77q13 21 16 25q5 8 8 18q5 11 14.5 33t14.5 33q6 14 7 16 q2 5 10 7t13 0l5 -2.5t4 -2.5q12 -9 18 -17q18 -14 25 -32q10 -19 11 -23q2 -6 6 -17.5t5 -16.5q2 -2 4 -12q0 -17 4 -30q3 -8 2 -12q-4 -14 2 -30v-6q-2 -4 -7.5 -12.5t-6.5 -14.5q-2 -16 -6 -23q-9 -24 -18 -39q-26 -40 -54 -73q-27 -30 -28 -31q-10 -10 -19 -15 q-2 -3 -8 -6.5t-7 -4.5q-19 -22 -55 -44q-8 -6 -12 -15q-3 -7 -15 -5q-4 0 -12 2zM588 371q0 15 -2 39q0 26 -10 42q-2 3 -4 18q-3 16 -11 28l-12 27q-7 21 -25 50q-30 32 -37 46q-3 4 -10 9q-1 1 -6.5 3.5t-7.5 5.5q-10 12 -16 18q-2 4 -8 8q-66 32 -94 38q-9 5 -25.5 8.5 t-20.5 4.5q-7 2 -18 -1q-7 -4 -23 -6q-7 0 -17 -2q-21 -5 -25 -24q0 -13 -5 -31q-2 -6 -2 -12q0 -44 6 -65q4 -12 -1 -25q-19 -44 -27 -55q-3 -3 -8 -15q-23 -53 -37 -90q0 -2 1 -6t1 -6q-1 -4 -6 -8t-6 -5q-16 -25 -16 -46q2 -9 0 -18q0 -13 -12 -20q-14 -7 -18 -23 q-6 -35 -26 -62l-5 -10q-5 -13 -31 -74q-2 -9 1 -17q8 -16 10 -22q5 -10 11 -15q15 -6 33 -15q26 -20 28 -22q10 -6 15 -8q7 -2 18.5 -7.5t14.5 -6.5q11 -7 29 -7q7 0 21 1t21 1q11 1 28 8q15 6 17 7q18 1 38 14q45 24 81 50q3 3 18 17q23 26 37 32q1 1 5.5 5t6.5 6 q5 8 16.5 20t15.5 18q1 1 17 25q2 6 12 13q1 1 5.5 5t6.5 6q3 6 14.5 30.5t20.5 35.5l3 12q1 2 3 24q2 7 8 23.5t9 25.5z" glyph-name="D" horiz-adv-x="588" unicode="D"/><glyph d="M303 414q5 0 8 -5q2 -6 -1 -10q-1 -1 -2 -0.5t-1 1.5q-2 2 -2 4q-1 4 -1 10q-5 0 -7 -1q-10 -8 -23 -1q-12 5 -8 17q5 10 7 17q3 6 13 23t14 27q2 4 11 17t12 22q2 6 12 11q20 11 29 12q6 1 15.5 4.5t14.5 4.5q7 2 21.5 4t15.5 2q2 0 4 2q21 7 25 7q29 2 32 3q4 1 14.5 5 t17.5 5q4 1 14 6t15 7q14 4 31 17q3 3 5 11q-1 10 0 22q2 6 -4 10q-3 3 -16 11.5t-19 15.5q-1 1 -10 3q-30 2 -89 -2q-4 0 -10 -2q-14 -8 -41 -10q-21 -2 -31 -6q-5 -3 -17 -6.5t-18 -7.5q-11 0 -16 1q-2 1 -6.5 3t-7.5 2q-17 2 -25 -5q-1 -1 -2.5 -3t-2.5 -3 q-20 -16 -42 -22q-7 -1 -19.5 -7.5t-19.5 -8.5q-4 -3 -6 -9q-5 -22 1 -40q1 -3 3.5 -8.5t3.5 -8.5q5 -15 -1 -34q-3 -3 -6 -10.5t-4 -8.5q-15 -22 -29 -56q-8 -16 -11 -33q-2 -10 -8 -15q-2 -2 -5 -8l-4 -8q-8 -13 -15 -21q-5 -3 -7 -10q-1 -7 -3 -18q0 -2 -12 -43 q0 -9 -12 -19l-2 -6q-38 -90 -41 -98q0 -2 -1.5 -7t-1.5 -7q0 -18 -12 -30q-4 -6 -6 -12q-2 -24 4 -39q4 -10 10 -21q5 -8 7 -9q4 -3 14.5 -10.5t16.5 -12.5q1 -1 3.5 -2t4.5 -2.5t4 -3.5q24 -14 46 -6q20 10 31 10q3 0 8 1t8 1q8 3 21.5 10t16.5 8q5 1 91 35q9 1 15 6 q4 6 15.5 13t15.5 11q16 6 24 28q4 16 1 35l-4 4q-10 7 -28 13q-16 7 -35 0q-4 -1 -9 -5t-6 -4q-9 -2 -38.5 -11.5t-34.5 -12.5t-15 -7t-14 -6q-10 -3 -32 -3l-2 1h-3q-5 1 -8 6t-2 9q3 8 7 22q3 18 11 26q17 22 25 45q1 2 4 9q7 16 23 24q20 11 39 17q21 8 24 8q15 0 41 10 q5 0 35 14q8 6 29 14q4 1 12 5.5t12 6.5q19 11 27 33q5 14 6 17q1 1 1 3t0.5 4t0.5 4q-2 3 -7 16q-6 10 -11 12q-6 1 -17 6.5l-13 6.5h-16q-16 -11 -19 -12q-20 -5 -25 -9q-22 -8 -23 -9z" glyph-name="E" horiz-adv-x="490" unicode="E"/><glyph d="M85 119q5 -3 3 -9l-3 -3q-5 3 -3 9zM185 385q-2 -6 -7 -3q-3 0 -3 4q3 4 8 2q1 0 1 -1zM344 340q-14 4 -24 0q-2 0 -6.5 -2t-7.5 -2q-12 -2 -34 -10q-8 -6 -19 -2q-10 3 -7 12q1 2 2.5 7.5t2.5 7.5q5 10 14 29.5t13 29.5q5 11 13.5 30t11.5 25q6 8 11 17.5t11 21t9 17.5 q1 3 3 5q6 7 12 10q2 1 9 2t10 3q14 7 29 7q27 0 39 7q5 3 15 3q8 1 25 1q16 0 29 7q5 2 15 2q13 1 40 1q14 1 32 14l7 7q7 12 8 20q1 6 -2 12q-21 33 -58 36q-16 0 -29 7q-10 3 -20 1q-18 -2 -19 -2q-4 1 -10 -1q-8 -5 -15 -5q-13 -1 -40 -1q-19 -2 -29 -8q-4 -2 -9 0 l-27 15q-2 0 -14.5 3.5t-19.5 5.5q-4 1 -10 3q-13 -6 -16 -9t-10 -14q-8 -15 -20 -16q-11 -2 -31 -15q-1 -1 -2 -3l-2 -2q-4 -9 -1 -17q2 -6 6.5 -17t6.5 -17q-1 -14 -8 -27l-57 -123q-10 -24 -12 -37q-2 -7 -7 -14q-8 -13 -8 -14q-6 -24 -21 -56q-4 -8 -10 -26 q-1 -6 -15 -40q-6 -13 -9 -27q-1 -8 -10 -19q-6 -8 -7 -14q-1 -7 -8 -26l-27 -60q-4 -10 -5 -15q-5 -17 4 -32q6 -13 17 -19q3 -3 18 -10q12 -8 29 -5q7 2 9 5q15 11 19 25q2 11 10 31q11 30 12 37q0 1 2 5q20 46 31 70q5 12 16 20l10 5q12 2 19 3q1 0 19 8q2 1 4.5 1t4.5 1 q20 4 29 8q6 3 17 6.5t16 5.5q7 1 19.5 7t18.5 7q4 1 14 5t15 5q19 2 33 10q2 1 5 1t5 1q9 0 25 2q21 11 40 23q3 2 5 8l2 6v22q0 6 -4 10q-16 15 -31 17q-16 2 -29 -7q-1 0 -6 2.5t-8 3.5q-24 3 -40 -4q-3 -1 -38 -12z" glyph-name="F" horiz-adv-x="500" unicode="F"/><glyph d="M287 369q3 4 9 3q2 -2 2 -3q-2 -5 -8 -3zM96 331q0 -1 -1 -2.5t-1 -2.5q-7 -2 -9 0q-3 4 1 8q4 6 8 4q6 -1 2 -7zM130 252q-6 0 -6 6l3 -1l2 -4q1 -1 1 -2q1 1 4 3q17 31 26 55q9 26 21 40q4 5 12 19t13 20q5 9 16.5 22t14.5 18q1 1 5 9q1 2 2.5 4t3.5 4.5t3 3.5 q37 39 86 87q8 8 16 12q3 1 5.5 3t6 5t5.5 4q28 25 31 27q6 3 18.5 9t16.5 8q1 0 4.5 1.5t5.5 1.5q18 4 30 -3l7 -7q8 -7 19 -7q9 -3 20 0q6 0 14 4q9 6 9 17q-4 13 -4 16q3 7 -2 14q-22 25 -48 36q-4 2 -11.5 6t-11.5 5q-2 0 -6 0.5t-5 0.5q-7 0 -20.5 0.5t-19.5 0.5 q-15 0 -25 -7q-6 -3 -19 -5q-5 -2 -12 -7t-10 -7q-22 -13 -31 -24q-2 -2 -7.5 -7t-8.5 -7q-5 -5 -13 -8q-4 -2 -16 -12l-75 -75q-26 -24 -32 -41l-7 -7q-10 -14 -20 -22q-10 -11 -11 -23q-1 -6 -9 -12q-10 -8 -11 -17q0 -1 -1 -2t-1 -2q-2 -7 -6 -9q-15 -9 -23 -37 q-1 -2 -2.5 -7t-2.5 -7q-20 -42 -30 -53q-1 -2 -4 -10q-1 -3 -2 -11.5t-3 -12.5q-8 -20 -7 -35q0 -13 -6 -24q0 -1 -1 -3t-1 -3q-4 -37 4 -54q3 -9 5 -25q1 -6 9 -23q4 -8 12 -6q9 4 14 -1q-2 -6 -3 -10q-3 -10 5 -18q6 -5 14 -3q6 3 8 -4q1 -15 17 -24q5 -2 31 -15 q18 -2 26 -2q5 -1 13 -4t11 -3q7 -2 10 0q17 7 31 8q8 0 14 3q4 2 12 4.5t12 4.5q12 4 27 13q3 2 8 6.5t8 6.5l5 5t7 5q2 1 18 17q3 3 10 8.5t10 7.5q22 20 28 34q6 7 35 57q14 26 17 43q1 2 4 10t5 13q7 10 16 13q4 1 15 4.5t18 6.5l8 2t9.5 1.5t9.5 1.5q38 19 58 28 q13 7 19 16q10 12 8 28q-2 10 -8 13q-28 16 -37 19l-9 -3q-10 -3 -15 -3q-17 0 -25 -3q-23 -9 -39 -10q-4 -1 -15 -5q-6 -2 -9 -2q-16 -2 -24 7q-10 11 -19 16q-5 2 -10.5 5t-12 6t-9.5 5q-42 2 -55 -4q-10 2 -15 1q-3 0 -9.5 -3t-9.5 -4q-3 0 -5 -1q-7 -2 -9 -4 q-5 -5 -16 -11.5t-14 -8.5q-10 -7 -12 -22q0 -2 0.5 -7t0.5 -7q0 -1 1 -2.5t1 -2.5q4 -7 8 -19q0 -3 11 -16q21 -20 45 -32q3 -1 11.5 -4t12.5 -5q16 -5 6 -19q-1 -2 -2 -5t-2 -5.5t-2 -4.5q-15 -18 -22 -33q-2 -3 -5.5 -7t-4.5 -5q-4 -5 -42 -43q-5 -5 -16 -11t-15 -9 q-2 -2 -6 -4.5t-6 -3.5q-24 -6 -40 -8q-8 1 -15 4q-15 10 -21 21q-12 24 -11 44q1 15 1 46q0 12 6 24q5 9 5 30z" glyph-name="G" horiz-adv-x="593" unicode="G"/><glyph d="M146 409q-6 -14 -16 -36q-5 -9 -17 -20q-7 -4 -7 -13v-27q0 -16 -6 -31q-12 -35 -15 -45q-2 -7 -20 -48q-4 -16 -20 -49q-10 -20 -11 -24q-3 -10 -20 -49q-2 -4 -2 -5q-7 -24 8 -39q8 -8 12 -10q18 -12 28 -14h6q8 3 24 11q17 9 23 28q3 12 9 24q16 32 23 47q1 8 5 27 q1 1 3 4q12 12 13 16q3 12 12.5 36.5t12.5 38.5q0 1 1.5 2.5t1.5 2.5q6 12 20 14q33 2 59 -1q3 0 5 -1q8 -3 12 -10q2 -3 0 -10q-2 -5 -6 -19t-7 -21q-1 -6 -5.5 -17.5t-5.5 -17.5q-4 -24 -8 -31q-3 -6 -5.5 -18t-5.5 -17q-1 -3 -12 -35q-6 -16 7 -29q10 -10 17 -13 q7 -4 23 -12h6q11 -2 19 6q12 10 16 14q11 10 14 23q1 6 6 17t6 17q0 4 14 34q1 6 4 11q-2 12 -2 20l3 3q9 5 10 12q4 27 9 36q2 7 7 20.5t6 19.5q4 18 18 32q4 3 12 11q5 5 7 8q5 6 3 14q0 3 -2 5q-9 16 -3 47q4 6 7 20t6 20q4 9 6 20q0 8 3 16q2 5 5 15t5 15q3 6 6 18 t5 17q6 13 8 31q2 17 7 30q2 5 4.5 13.5t3.5 11.5q3 7 7 20.5t6 20.5q7 19 -1 37l-18 18q-10 12 -22 13q-5 1 -13.5 4t-11.5 4q-5 1 -11 -1l-7 -3.5l-7 -3.5q-7 -3 -9 -12q-1 -4 -2.5 -13t-2.5 -13q-7 -14 -7 -31q-2 -17 -5 -25q-12 -37 -14 -46q-2 -7 -6 -20.5t-5 -19.5 q-14 -47 -14 -51q0 -5 -3 -10l-15 -45q-1 -6 -7 -21.5t-7 -24.5q0 -2 -2 -4q-7 -12 -17 -13q-26 -3 -53 0q-6 0 -10 3q-12 7 -6 18q1 4 4 16.5t6 18.5q2 4 4 16q1 9 7 25q2 6 4 18t2 13q1 2 2.5 5.5t1.5 4.5q0 2 1 5t1.5 5.5t0.5 4.5q1 14 8 31q-3 15 -7 26q-3 12 -15 20 q-16 8 -24 11q-5 0 -16 1t-16 2q-3 0 -8.5 -1.5t-7.5 -1.5q-5 -1 -10 -7.5t-6 -11.5q0 -25 -1 -37q0 -16 -5 -26t-5 -20t-7 -26l-3 -15q-2 -14 -3 -24z" glyph-name="H" horiz-adv-x="462" unicode="H"/><glyph d="M129 42q-1 -3 -3 -3q-4 2 -2 7l3 3q4 -2 2 -7zM257 684q-14 -5 -25 -6q-40 0 -60 -1l-8 1q-9 0 -9 -1q-22 -10 -28 -18q0 -1 -1 -3v-3q4 -12 5 -24q5 -12 6 -13q6 -8 8 -13q11 -12 23 -19q11 -8 24 -4q5 4 14 6q5 0 11.5 2.5t13.5 0.5q9 -2 9 -13q0 -5 -1 -6q0 -3 -8 -34 q-1 -7 -7 -18q-7 -22 -8 -28q0 -4 -5 -14q-2 -8 -6.5 -21t-5.5 -17q-1 -6 -5 -17t-5 -17q-2 -6 -5.5 -18.5t-6.5 -18.5q-9 -23 -10 -39q-1 -2 -2 -7t-1 -7q-7 -16 -8 -20q-2 -7 -11 -29t-12 -35q-6 -17 -42 -110q-3 -8 -10 -11q-1 -11 -17 -19q-11 -7 -26 -12q-1 -1 -4 -2 t-4 -2q-2 0 -7.5 -1t-8.5 -1t-7 -6q-6 -10 -3 -23q0 -3 1.5 -8t2.5 -7q3 -10 10 -14q5 -3 15 -10t14 -9q9 -2 13 -1h15q4 3 12 8t11 7q3 1 9.5 5.5t7.5 5.5q1 0 5.5 2t6.5 2q4 1 16 16q2 -2 8 -2q5 -2 12 1q5 5 10 5q16 0 28 8q3 2 7 2q8 1 21 1q18 0 28 8q1 0 5 1t7 1 q13 3 15 5l18 9q7 1 11 7q3 6 9 12q4 7 1.5 18.5t-11.5 16.5q-3 2 -10.5 4t-11.5 5q-5 4 -20 0l-4 -2q-5 -2 -7 -2q-25 -3 -44 -2q-10 2 -8 11q1 4 6 16.5t6 20.5l5 15q18 44 22 64q1 6 6 18.5t7 19.5q2 16 11 38q3 5 5.5 16.5t4.5 17.5q4 8 0 23q1 5 6 8q1 1 3 4q0 1 0.5 3 t1 3.5t1 3.5t1.5 3q0 2 1 3v2q1 2 5.5 16t8.5 21q3 7 6.5 20t5.5 20q11 28 14 46q12 34 16 41l6 6q5 1 12 1h73q8 0 13 1q6 3 8 10q1 2 3 3.5t3 0.5q10 -4 12 10q4 11 -3 22q-5 8 -12 13q-22 14 -33 20q-16 3 -20 4q-12 7 -32 7h-44h-46q-9 0 -15 -6q-7 -2 -15 0q-1 2 -3 2z " glyph-name="I" horiz-adv-x="421" unicode="I"/><glyph d="M419 434q-3 -4 -4 -9q-8 -9 -11 -25q0 -3 -3 -12q-3 -10 -10 -28t-10 -26q-1 -2 -3 -6.5t-2 -6.5q-1 -11 -16 -48q-2 -11 -8 -17q-6 -12 -7 -21q-2 -8 -3 -10q-4 -6 -13.5 -24.5t-16.5 -26.5l-6 -12l-2 -4t-3 -4.5t-3 -4.5q-16 -24 -42 -53q-19 -9 -37 -21q-12 -4 -32 0 q-6 2 -17.5 5t-17.5 5q-13 1 -27 14q-3 3 -12 11.5t-14 13.5q-7 5 -9 11q-21 38 -26 54q-1 2 -5 8q-21 21 -40 36q-5 5 -7 0q-4 -5 -9.5 -15.5t-10.5 -15.5v-2q-1 -3 -1 -4q-2 -4 -2 -9q0 -26 8 -40q0 -1 1.5 -4.5t2.5 -5.5q8 -26 26 -41q17 -17 27 -26q20 -20 39 -29 q16 -14 38 -22q19 -7 31 -8q6 0 13 -3q1 0 16 -3q49 2 75 5h2l2 1q8 5 10 9q2 6 11 4q7 -1 12 1q13 13 20 18q3 1 6 4t5 4q2 2 12.5 15t16.5 20q1 2 3.5 6.5t3.5 6.5q1 3 9 16q4 6 14 18q4 6 10 20q2 4 5.5 13t6.5 13q6 9 22 46q8 23 17 43q11 34 14 44q1 5 18 53l12 36 q1 5 20 57q2 8 3 13q0 4 8 27q2 5 5.5 15t6.5 18t6 15q3 6 6 19.5t5 20.5q5 11 14 50q1 1 1 4q0 7 -5 14q-19 22 -47 33q-8 1 -17 -2q-2 -1 -6 -4t-6 -4q-5 -2 -8 -9q-5 -12 -6 -19q0 -5 -3 -15.5t-4 -15.5q-2 -14 -12 -36q-1 -2 -1.5 -6.5t-0.5 -7.5q-1 -5 -4.5 -17 t-3.5 -19q-2 -4 -5.5 -13t-5.5 -13q-5 -12 -17 -47q0 -9 -2 -25z" glyph-name="J" horiz-adv-x="500" unicode="J"/><glyph d="M106 197q2 -5 -3 -8q-8 -2 -10 5q-1 5 3 8q8 2 10 -5zM50 67q10 -1 20 0q4 1 12 5q13 11 18 22q13 27 41 83q3 6 3 8q2 9 22 52q6 10 13 12q5 2 15.5 5t15.5 5q2 1 22 7q6 2 12 -6q3 -4 5 -13t4 -12q15 -29 19 -48q2 -3 3 -6.5t2.5 -8l2.5 -7.5q4 -12 11 -25 q10 -20 19 -47q2 -4 4 -11.5t3 -10.5q7 -20 8 -22q1 -9 11 -25q3 -6 12 -15q6 -6 16 -8q12 -1 23 0q7 1 12 6q6 4 10 10q5 5 5 12q2 11 -1 19q-1 3 -3 8.5t-3 8.5q-3 14 -11 31q-8 16 -9 26q-3 6 -9 22.5t-10 24.5q-8 16 -9 26q-18 50 -22 56q-3 7 -5 13q-1 5 -4 12.5 t-3 9.5l-3 11q-4 11 -6 16q-3 5 3 13q10 12 21 18q10 6 15 10q2 2 4 4.5t5 5t4 3.5q26 24 36 29q14 11 19 20q4 7 14 19q17 17 26 27q4 4 10 14.5t11 15.5q4 7 13 19.5t12 19.5q16 31 31 62q3 5 3 9q2 2 0 4q-1 10 -11 26q-1 2 -7 6q-22 11 -25 12q-6 1 -18 5q-3 1 -13 -1 q-13 -6 -19 -20q0 -1 -1.5 -3.5t-1.5 -4.5q-1 -7 -6.5 -20.5t-6.5 -19.5q-1 -4 -7 -12q-3 -3 -7 -10t-5 -9q-6 -8 -18 -22q-7 -9 -8 -12q-3 -6 -10.5 -15.5t-10.5 -14.5q-1 -4 -6 -6q-10 -6 -22 -24q-12 -17 -27 -25q-6 -3 -11 -8q-12 -10 -17 -16q-12 -12 -31 -19 q-2 -1 -5 -1q-5 -2 -13 2q-6 3 -3 12q2 4 3.5 11t3.5 11q2 5 6 13.5t5 12.5l6 12q1 6 11 31q6 14 8 21q8 18 12 36q3 5 6.5 17t5.5 17l3 9q2 18 -4 27l-4 8q-7 16 -26 18q-5 0 -14 3l-12 4q-4 1 -9 -1q-10 -4 -17 -15q-3 -3 -3 -9q-2 -9 -4 -27q-2 -6 -5 -17.5t-6 -17.5 q-2 -5 -19 -47q-1 -4 -3.5 -11.5t-3.5 -11.5q-2 -4 -6 -12.5t-6 -12.5q0 -1 -1.5 -3.5t-1.5 -4.5q-4 -16 -14 -35q-2 -4 -4.5 -13.5t-3.5 -12.5q-10 -20 -14 -30q-2 -4 -2 -9q-3 -9 -3 -17q-20 -39 -23 -47q-11 -19 -13 -34q-11 -17 -9 -45q0 -3 -0.5 -9.5t-0.5 -9.5 q0 -2 -2 -4q-4 -1 -7 4q-2 6 -6 3q-1 -2 -3.5 -6t-3.5 -6q-5 -10 -1 -18q3 -6 -2 -13q-8 -9 -24 -25q-2 -4 -6 -11.5t-5 -11.5q-3 -7 0 -13q9 -17 17 -22q3 -2 22 -15z" glyph-name="K" horiz-adv-x="500" unicode="K"/><glyph d="M19 115q7 0 11 -1q8 0 5 -5q0 -1 -2 -2l-2 -1h-3l-2 1q-6 3 -6 9q-7 -3 -8 -8q-4 -14 1 -22q5 -12 17 -36q5 -11 21 -27q8 -6 10 -6q48 -19 71 -15h14.5t14.5 1q9 0 16 3q18 6 28 6q4 0 11 0.5t12.5 1t10.5 1.5q7 1 19 5.5t19 6.5q1 1 2.5 2t2.5 1q0 1 0.5 2.5t1.5 2.5 q-10 3 -11 12q-7 0 -7 6l4 -2q2 -2 2 -5q9 -1 12 -11q15 0 23 1q12 0 16 3q8 4 46 11q7 3 20 9t20 9q7 2 23 4q10 2 15 7q14 10 21 20l6 9q5 7 0 17q-3 5 -23 25q-10 10 -26 10q-11 1 -34 -1q-7 0 -11 -3q-18 -6 -28 -7q-10 0 -17 -3q-16 -8 -39 -8q-13 0 -22 -5 q-14 -6 -27 -6q-34 -2 -51 -9q-10 -5 -34 -3q-5 0 -8.5 3t-2.5 7q7 29 16 49q2 16 18 35q4 7 3 16q-2 6 -4 11q2 4 3 5q10 12 15 17q8 10 11 20q1 4 5 17q2 6 9 20t9 22q2 7 17 42q5 8 6 16q1 6 6.5 18.5t7.5 19.5q1 4 17 42q4 9 5 16l9 21q1 3 3.5 13t4.5 15 q6 10 13.5 31.5t9.5 26.5q10 26 5 57q0 4 -4 10q-12 17 -26 22q-17 7 -38 12q-5 2 -11 0q-8 0 -19 -10.5t-13 -19.5v-6q-2 -34 -11 -50q-1 -8 -7 -22t-7 -21q-3 -7 -9 -25.5t-10 -28.5q-8 -16 -26 -70q-1 -5 -4.5 -13.5t-5.5 -12.5q0 -1 -3 -17v1q7 -2 7 -7q0 -4 -7 -6v1 q-3 -9 -11 -12q-11 -6 -8 -19q1 -4 1 -11q-1 -1 -7.5 -6t-8.5 -9q-4 -8 -11 -24t-8 -17q-1 -2 -1 -12q0 -1 0.5 -3t1.5 -4.5t1 -3.5q-2 -3 -7 -6t-7 -6l-9.5 -19t-10.5 -20q-4 -6 -4 -10q-1 -7 -17 -42l-18 -36q0 -1 -3 -17zM146 392v-1v13v-1q-7 0 -7 -6q0 -5 7 -5z" glyph-name="L" horiz-adv-x="476" unicode="L"/><glyph d="M128 442q-10 -21 -11 -24q-2 -5 -7 -16.5t-7 -18.5q-1 -4 -17 -46q-7 -10 -7 -26q-2 -15 -5 -19q-2 -4 -4 -13.5t-5 -14.5q-5 -14 -13 -28q-2 -4 -2 -11q-1 -4 -4.5 -13t-4.5 -12q-12 -26 -15 -40q-4 -6 -7 -20t-6 -20q-1 -4 -4.5 -19.5t-8.5 -23.5q0 -6 1 -11q0 -4 3 -9 q8 -15 25 -27q6 -3 9 -6q6 -2 11 -2q14 -2 29 0q8 1 13 6q4 5 4 10q-3 9 8 16q2 4 5 14.5t7 15.5q2 10 7 26.5t6 20.5q1 7 6.5 20.5t5.5 21.5q3 7 9 20t9 19q5 9 8 20q5 22 31 74q2 5 48 102q15 29 21 35q7 15 17 28q3 4 9 15.5t10 17.5q3 4 8.5 13t8.5 14q2 2 4 2q3 3 5 2 q5 0 5 -6q2 -12 0 -60q0 -2 -1 -4.5t-2 -6t-1 -4.5q-2 -6 -4 -21q0 -13 -1 -38t-1 -37q-2 -3 -5 -16q0 -2 0.5 -6t0.5 -5q0 -5 -2.5 -13.5t-2.5 -12.5v-29q-1 -36 -1 -107q0 -10 1 -17q0 -6 4 -11q12 -17 30 -29q8 -4 9 -4q16 -1 30 0l7 7q15 13 18 20l21 42q5 14 10 19 q18 18 28 40q6 7 15 23t13 22q6 6 6 14q3 16 13 24q17 22 25 40q1 3 4 9q5 13 20 26q1 0 3 2q5 2 12 2q4 -2 1 -8q-16 -42 -16 -47q-9 -22 -9 -43q0 -7 -4 -19q-5 -15 -5 -17q-2 -17 -7 -30q-1 -4 -5 -16.5t-8 -20.5q-2 -28 -8 -42q0 -1 -3 -28q0 -16 -3 -25q-5 -14 -5 -43 q0 -11 5 -21q4 -10 6 -14q11 -6 28 -21q4 -1 13 1q4 5 14 0q9 -5 18 4q0 1 1 2q2 2 2 3q8 6 10 24q0 2 1 13.5t4 18.5q6 18 6 30q0 13 2 17q0 13 4 21q0 1 3.5 17t8.5 24q0 8 4 22q0 5 3.5 15t3.5 16q1 11 9 31q0 2 2 7.5t2 9.5q2 17 6 26q3 12 3 15q0 2 0.5 6t1.5 8l2 8 q3 5 6 15.5t4 13.5q6 22 7 33q0 6 1 10q8 14 10 42q0 7 4 21q0 1 1 3t1.5 3.5t0.5 2.5q1 3 3.5 17t4.5 20q4 6 4 17q1 7 1 22q0 4 5 26q4 4 2 10q-1 4 -3 11.5t-4 13.5t-5 11q-1 1 -2.5 4t-2.5 4q-4 3 -11.5 7t-10.5 6q-9 6 -20 6q-8 -2 -26 -2q-3 0 -15 -5q-18 -20 -34 -40 q-3 -6 -24 -35q-12 -22 -16 -27q-4 -3 -9.5 -11t-7.5 -10q-2 -6 -16 -27q0 -9 3 -11q-1 -1 -4 -3.5t-5 -4.5q-10 -7 -11 -10q-9 -17 -23 -34q-1 -1 -2 -3l-1 -2q-2 -9 -10 -20q-10 -9 -28 -36q0 -1 -1.5 -3t-2.5 -3q-1 -2 -4 -2q-5 0 -5 8q-2 6 -2 21q0 6 1 18.5t1 19.5 q-3 20 5 42q0 1 1 7t2 10q0 10 0.5 34t0.5 36q0 7 2.5 20.5t3.5 18.5q0 7 0.5 24.5t0.5 26.5q0 20 -13 35q-8 9 -24 25q-14 7 -15 7q-12 0 -16 1q-13 0 -24 -8q-21 -12 -25 -17q-15 -17 -22 -23q-12 -8 -19 -1q-4 3 -11.5 10.5t-11.5 9.5q-6 4 -15 6q-15 3 -32 0 q-20 -2 -23 -24v-10q-3 -28 -3 -30q-1 -2 -16 -42q0 -3 -4 -21q-1 -6 -7 -25q-5 -14 -6 -22q-4 -5 -8 -21q-2 -3 -4.5 -11.5t-3.5 -12.5l-6 -11v1q-3 -11 -6 -32z" glyph-name="M" horiz-adv-x="700" unicode="M"/><glyph d="M80 25l66 156q12 27 34.5 81t33.5 81q8 22 11 34q1 5 8 7q6 3 9 -3q2 -3 9 -23q3 -9 0 -18q-5 -12 -5 -24v-87q0 -18 4 -31q1 -3 -1 -12q-5 -24 0 -55q5 -14 7 -43q0 -12 2 -18q1 -3 12 -41q5 -13 16 -15q5 -1 25 -8q12 -7 26 1q3 2 9 5.5t9 4.5q24 41 25 42q3 8 8 15 t11 16t9 13l3 6q5 10 16.5 30.5t16.5 32.5q4 12 8 16q6 9 22 43q22 49 25 54q5 8 12.5 24.5t11.5 23.5q20 35 25 48q4 12 7 16q6 9 32 65q12 26 16 32l9 15q4 8 11.5 25t10.5 25q11 28 29 58q-1 3 -1.5 8t-0.5 8q5 1 8.5 5t5 7.5t4.5 9.5t4 9q5 12 3 31q0 10 -6 17 q-7 12 -19 20q-16 10 -22 14q-23 6 -42 -8q-4 -2 -5 -3q0 -1 -3 -4t-4 -5q-2 -4 -5 -11t-5 -11q0 -7 -11 -41v-7q0 -1 1.5 -5t2.5 -6q0 -1 0.5 -3t0.5 -3q2 -6 -3 -14t-11 -8q-3 -1 -10 1q-9 -16 -22 -48t-20 -45q-1 -1 -3.5 -4.5t-3.5 -5.5q-28 -37 -31 -77q-1 -7 -10 -13 q-12 -8 -18 -22q-19 -42 -27 -53q-4 -8 -11.5 -24.5t-11.5 -24.5q-20 -27 -25 -32q-2 -1 -5 -1q-6 0 -6 7q-2 16 -2 25q0 26 0.5 78t0.5 78q0 70 -2 104q-4 13 -10 37q-5 17 -16 24q-13 8 -22 17q-6 7 -19 9q-21 4 -41 -7q-26 -15 -37 -42q-5 -9 -13 -20q-2 -3 -6.5 -9 t-6.5 -9q-30 -60 -33 -64q-2 -4 -10 -22q-10 -22 -14 -33q-3 -7 -10.5 -19t-9.5 -18q-1 -3 -4.5 -16t-6.5 -19q-1 -3 -4.5 -10.5t-6.5 -11.5q-6 -9 -16 -31q-7 -16 -20.5 -47.5t-19.5 -47.5q-3 -6 -8.5 -19t-8.5 -20q-1 -3 -3 -13.5t-5 -15.5q-3 -6 -5.5 -18t-4.5 -18 q-8 -22 -13 -34q0 -1 -0.5 -3t-0.5 -3v-6q10 -31 27 -61q2 -5 8 -7q18 -4 42 -2q9 1 19 11q6 8 11 13z" glyph-name="N" horiz-adv-x="560" unicode="N"/><glyph d="M476 446q-3 -5 -8 -3q-3 3 -3 4q3 5 8 4q1 0 3 -5zM194 353q21 31 27 43q3 7 13 19q11 12 32 36.5t31 36.5q8 10 16 15q10 6 13 10q20 24 66 49q4 3 9.5 -1t6.5 -11q1 -16 -1 -49q-2 -4 -2 -5q-6 -12 -6 -24q-2 -13 -16 -65q-15 -52 -26 -73q-2 -5 -4.5 -10.5t-5 -12 t-3.5 -10.5l-4 -8q-11 -13 -35 -43q-26 -30 -40 -38q-5 -3 -16 -16q-14 -14 -27 -18q-10 -5 -54 -20q-10 -4 -19.5 3.5t-12.5 21.5q-2 21 1 36q1 4 5 16.5t6 18.5q2 9 4 12q9 13 21.5 42.5t20.5 44.5zM45 164q9 -23 20 -49q4 -10 9 -15q9 -12 19 -22q5 -5 8 -6q10 -3 30 -11 t30 -11q21 -7 46 1q6 4 19 6t17 3q59 32 92 54q3 3 8 9t8 9q3 4 9 7q43 32 61 73q6 8 14.5 25t11.5 22q10 16 12 27q1 6 5.5 19.5t5.5 21.5q2 8 7.5 21t7.5 18q7 16 2 36q-3 9 2 16l3 6t3 5q2 2 2 5q-3 9 0.5 23.5t3.5 18.5q0 9 0.5 27.5t-0.5 28.5q0 62 1 92q0 12 -1 18 q-1 13 -9 22q-4 6 -8 8q-7 5 -25 21q-5 5 -15 5q-24 2 -36 -4q-5 -3 -15 -6t-14 -5q-5 -3 -16 -10t-17 -10q-4 -2 -10.5 -6.5t-12 -8t-10.5 -6.5q-13 -13 -19 -20q-4 -4 -11.5 -8t-10.5 -7q-6 -7 -23.5 -21t-25.5 -25q-2 -1 -5 -3.5t-4 -3.5q-6 -4 -19 -21q-3 -4 -10.5 -10 t-9.5 -8q-22 -25 -25 -32q-5 -11 -17 -27t-14 -20q-16 -38 -21 -45q-11 -17 -24 -48q-5 -12 -7 -15q-13 -14 -14 -33q-1 -5 -5.5 -16t-4.5 -19q0 -11 -8 -35q-2 -7 0 -13q3 -6 10 -48z" glyph-name="O" horiz-adv-x="520" unicode="O"/><glyph d="M139 59q1 6 8 4q2 -4 2 -5l-3 -3q-5 -1 -7 4zM413 607q23 -8 31 -12q10 -4 21 -10l8 -8q7 -13 11 -24q4 -26 -4 -42q-3 -4 -7 -14q-26 -25 -47 -37q-9 -5 -30.5 -17.5t-33.5 -18.5q-4 -2 -18 -11q-9 -11 -25 -14l-9 -3l-9 -3q-5 -2 -8 3q0 3 -2 5q0 3 4 11 q5 10 11.5 31.5t9.5 28.5q2 17 13 40q17 34 2 66q-1 2 -1 6q-2 6 3 9q21 16 40 15h34q4 0 6 -1zM588 495q2 24 -4 37q0 3 -1 5.5t-2 5.5t-1 4q-1 7 -7 21q-17 42 -42 66q-1 1 -5.5 5t-6.5 6q-11 7 -24 15l-12 9q-26 22 -52 25q-2 0 -15 5q-10 4 -19 4h-63q-7 0 -13 -3 q-5 -3 -10.5 -4.5t-12 -2.5t-10.5 -2q-9 -3 -40 -21q-13 -8 -23 -26q-9 -15 -20 -44q-3 -16 4 -26l9 -12l9 -12q4 -5 4 -15q0 -3 -5 -16q-6 -28 -12 -41q0 -4 -17 -45q-2 -6 -4 -16q-1 -3 -2.5 -8t-2.5 -7q-3 -6 -19 -55q-3 -6 -5 -16.5t-4 -14.5q-5 -9 -13 -29 q-8 -16 -9 -24q-2 -8 -12 -36q-9 -17 -12 -36q-4 -8 -9 -29q-2 -6 -4.5 -12t-5.5 -13t-5 -11q-1 -1 -1 -5q-4 -12 0 -21l1 -2v-2q2 -8 -3 -9q-7 -4 -10 -12q-9 -19 -10 -24q0 -23 1 -28q2 -6 5 -8q9 -9 38 -24q9 -3 19 1l18 9q11 6 12 16q1 5 7 23t7 28q2 4 14 30l2 6 q1 5 2 9q1 6 7 20q1 4 3 12.5t3 12.5q2 5 8 18.5t8 22.5q1 8 7 22.5t7 16.5q5 17 7 21q3 12 10 24q4 9 11 9q26 2 38 3q6 3 18.5 6.5t19.5 7.5q3 1 14 -1q8 4 14 5q21 8 26 12q6 2 15.5 9.5t14.5 9.5q2 1 7 2t6 1q13 2 22 9q3 2 7 3.5t7 3.5q2 2 6 5t6 5t7.5 5.5t8.5 5.5 q2 1 11 10q13 9 17 12q4 2 11 9q18 22 25 30q19 39 24 50z" glyph-name="P" horiz-adv-x="539" unicode="P"/><glyph d="M414 578q0 -4 0.5 -12.5t0.5 -13.5q0 -8 5 -21t3 -42q-7 -14 -9 -58l-1 -3q-1 -2 -1 -4q-6 -18 -33 -72q-1 -2 -3 -4.5t-2 -3.5q-4 -4 -10.5 -4.5t-8.5 3.5q-1 2 -4 6q-1 2 -2 3q-9 13 -14 16q-10 6 -26 18q-5 5 -14 5h-30q-8 0 -10 -2q-14 -2 -18 -19q-2 -14 3 -26 q9 -20 13 -24q7 -11 36 -66q5 -10 -1 -21l-6 -9t-5 -9q-6 -11 -14 -16q-2 -1 -6.5 -4t-6.5 -4q-3 -2 -14 -12.5t-19 -13.5q-1 0 -29 -23q-11 -9 -18 -10q-5 -1 -13.5 -4.5t-11.5 -4.5q-6 -2 -14.5 1t-12.5 9q-5 6 -16 33q0 3 -1 6q0 6 -0.5 18t-0.5 22t1 18q1 12 6 21 q2 10 4 17q0 11 11 40q5 9 19 39q12 22 14 35l2 4q2 3 4 5q8 5 13 15q4 7 10 19q10 15 13 18q12 12 16 21q8 12 23 28q11 14 36 39q21 24 30 30l30 21q16 13 46 24q8 4 14 -1q15 -14 22 -27zM2 151q3 -7 8.5 -20t8.5 -19q8 -14 16 -21q13 -16 27 -24q2 0 13 -9t23 -12 q4 -1 14 -6q11 -4 20 -4q6 0 18.5 -1t17.5 -1q29 0 46 11q3 1 10 1q28 11 41 23q6 6 12 9q7 3 19.5 13.5t19.5 13.5q5 4 12.5 11t12.5 11l11 11q6 6 15 6h4q12 0 14.5 -3.5t2.5 -16.5q1 -2 9.5 -15t13.5 -19q0 -1 29 -32q5 -6 15.5 -18t15.5 -18q30 -28 41 -34l2 -1l2 -2 q2 -5 5 -8.5t9.5 -7t8.5 -5.5q8 -9 34 -23q11 -5 22 0q3 1 9 4l10 5q3 2 7 14q2 19 -7 30l-19 19q-2 3 -6.5 8.5t-6.5 8.5q-7 12 -36 46q-4 4 -12 11.5t-11 11.5q-26 31 -29 37q-3 5 -10 12q-8 11 -26 29q-15 17 -23 40q-2 5 0 10q7 21 19 39q9 12 12 18q5 12 15 33t12 26 t5 17.5t6 18.5q2 3 2 10q0 5 0.5 14t0.5 13v21q0 5 3.5 15t3.5 12v4q4 41 -4 59q-3 12 -3 16q0 19 -7 42q-2 7 2 11q2 5 0 10q-7 18 -21 44q-9 16 -23 22q-35 19 -48 23q-12 0 -19 1q-5 0 -20 5q-5 2 -10 -2q-5 0 -10 -3l-30 -3q-7 -2 -17 -9.5t-15 -9.5q-4 -2 -14 -8 q-14 -7 -19 -18q-3 -3 -4 -3q-16 -9 -32 -27q-17 -18 -48.5 -50.5t-43.5 -45.5q-11 -13 -16 -22q-1 -5 -8 -14q-4 -6 -13.5 -21t-15.5 -22l-17 -34q-12 -26 -16 -33t-10 -22t-10 -23q-2 -11 -11 -30t-11 -26q-6 -58 2 -124z" glyph-name="Q" unicode="Q"/><glyph d="M306 521q5 15 13 31q3 10 0 20q-5 9 -3 15q4 12 18 17q16 3 32 -1q5 -2 22 -7.5t25 -10.5q15 -6 26 -17q28 -28 33 -34q17 -15 7 -39q-2 -6 -4 -10q-11 -26 -39 -41q-21 -11 -40 -25q-1 -1 -9 -4q-58 -33 -102 -51q-5 -4 -15 0q-5 2 -5 9q0 6 3.5 15.5t4.5 13.5 q5 13 12.5 38t11.5 36q6 14 6 26q0 7 3 19zM191 183q-8 0 -8 5q3 0 5 -2v-2l1 -2q4 1 9 6q0 1 5.5 14t7.5 21q2 11 10 17q5 5 8 0q4 -1 8 -7t9.5 -17l7.5 -15t7 -10t8 -11t5 -10q1 -2 13 -17q0 -1 5.5 -7t7.5 -9q6 -11 33 -41q10 -10 14 -14.5t10 -8.5l7.5 -5t11 -5.5 t16.5 -8.5l18 -9q8 -5 15 -6q9 -5 20 0q2 1 7 3t7 3q1 1 4 3t4 4q1 8 0 16q0 3 -2 4q-20 33 -44 59q-4 6 -8 7q-14 18 -18 26l-2 4q-2 3 -4 5q-18 18 -30 42q-15 18 -32 60q-2 6 3 9q13 11 32 16t44 14q6 3 33 16q11 6 34 18.5t35 18.5q29 22 71 70q2 6 7.5 16t6.5 11 q5 33 -7 53q-1 1 -3 10q-5 13 -9 18q-23 28 -23 29q-4 8 -13 17q-30 30 -43 37q-9 6 -16 13q-12 12 -25 17q-5 3 -16 9t-16 9q-22 11 -45 11l-30 9q-15 2 -67 2q-3 0 -6 -1t-4 -1q-14 -5 -29 -14q0 -1 -1.5 -2.5t-1.5 -2.5q-17 -27 -16 -48q0 -10 -7 -26q0 -2 -1.5 -7 t-2.5 -8q0 -17 -2 -26q-2 -4 -4.5 -12.5t-3.5 -12.5q-1 -7 -6 -22t-6 -24q0 -5 -3 -9q-5 -15 -5 -26q-4 -15 -6 -21q-1 -2 -5 -10.5t-7 -12.5q-3 -12 -3 -16q-1 -7 -7 -25q-11 -35 -18 -49q-1 -2 -9 -25q-2 -5 -5.5 -17t-5.5 -17l-18 -39q-1 -2 -3.5 -8t-4.5 -9 q-1 -3 -2.5 -13t-2.5 -15q-7 -13 -17 -26q0 -4 -1.5 -13.5t-2.5 -14.5q-10 -12 -15 -19q-34 -71 -41 -86q-7 -11 -2 -31q0 -1 5 -8q4 -6 7 -8q13 -13 36 -20q8 -2 16 0l5 2.5l7 3.5l6 3q11 5 16 14q10 19 27 55.5t23 48.5q1 1 2 3l1 1q2 13 17 44q1 1 2.5 6.5t3.5 7.5 q8 14 12 41z" glyph-name="R" horiz-adv-x="560" unicode="R"/><glyph d="M438 93q-3 13 1 27q4 8 -1 22l-43 86q-2 4 -7.5 11t-5.5 8q-5 6 -14 20.5t-15 20.5q-9 9 -18 26.5t-12 22.5q-1 1 -3.5 4t-3.5 4q-5 7 -13.5 21.5t-14.5 21.5q-29 53 -32 61q0 1 -1.5 4.5t-2.5 5.5q-2 5 -6 18t-7 19q-1 3 -1 11q0 5 -1 14.5t-1 14.5q4 17 8 22 q26 31 53 50q51 34 68 40q23 2 40 9q4 2 17 2h20q12 -7 18 -8q22 -9 38 -33q11 -21 15 -37q2 -11 11.5 -18t21.5 -7q20 3 30 14q1 2 4 4t4 4q7 11 5 22q-3 9 -6 19t-4.5 14t-3.5 9t-5.5 9t-8 9t-13.5 14l-24 24q-14 13 -28 19q-12 5 -34.5 16.5t-27.5 13.5q-21 3 -22 3h-52 q-30 -5 -37 -9q-16 -4 -49 -18q-1 0 -4.5 -2.5t-5.5 -2.5q-4 -1 -11 -3t-11 -4q-3 -2 -10.5 -7.5t-12.5 -8.5q-18 -10 -32 -24q-2 -3 -6 -6.5t-5 -5.5q-9 -8 -17 -22q-12 -16 -13 -19q-6 -6 -11 -21q-1 -3 -3 -10t-3 -10q-3 -11 -3 -18v-34q1 -6 4 -15l4 -12q2 -26 7 -33 q2 -6 7 -29q2 -13 9 -20q8 -10 14 -24q5 -10 15 -28t12 -22q9 -10 30 -49q6 -11 13 -17q17 -20 23 -33q1 -2 10.5 -16t13.5 -22q20 -34 24 -40q4 -1 4 -9q4 -16 0 -35q0 -2 -2 -5t-2 -4q-15 -11 -26 -11q-20 -4 -33 3q-5 3 -16.5 5.5t-16.5 5.5q-1 1 -38 9q-3 0 -9 2.5 t-8 2.5q-20 11 -30 14q-14 6 -28 0q-16 -6 -16 -22q0 -11 6 -22l44 -44q8 -6 10 -8q42 -21 50 -23q4 -1 23.5 -8t31.5 -8q4 0 16 -5q2 0 9.5 -1.5t12.5 -1.5h24q11 0 16 2q18 6 39 9q7 1 25 13q7 2 8 8q12 16 32 61z" glyph-name="S" horiz-adv-x="550" unicode="S"/><glyph d="M101 711q-7 1 -25 1q-7 0 -11 -1q-12 -5 -14 -21q-1 -13 0 -25q2 -9 7 -15q6 -10 18.5 -22t17.5 -18q4 -4 6 -5q14 -10 20 -10q1 0 18.5 -2.5t25.5 -9.5q4 -2 13 -2q32 0 49 -1q8 0 12 -2q4 0 6.5 -6t0.5 -11q-11 -36 -17 -48q-13 -37 -14 -44q0 -3 -2.5 -8l-3.5 -7 q-8 -16 -9 -27q-1 -5 -8 -28q-3 -10 -12 -36t-13 -40q-1 -2 -3.5 -10t-3.5 -12q-2 -14 -12 -45q-1 -2 -2.5 -10.5t-3.5 -13.5q0 -1 -1 -4l-2 -6t-1 -6q-9 -31 -28 -80q-5 -17 -8 -21q-7 -11 -15 -43q-2 -8 0 -17q2 -12 9 -27q2 -9 12 -14q2 -1 13 -10t14 -11q5 4 23 2t20 9 l2.5 5t3 5.5t3.5 4.5l28.5 85.5l25.5 76.5q0 3 2 8.5t3 8.5q0 5 10 39q2 8 7.5 22.5t7.5 21.5q2 18 18 67q44 131 52 151q16 53 16 56q6 16 15 17q7 2 21 2q22 1 48 4.5t46 4.5q9 3 36 17q1 -2 3 -2q12 -7 34 0q30 19 34 21q4 4 6 14q1 21 0 42q-2 21 -17 23q-11 3 -20 -1 q-4 -4 -12 -7q-6 0 -20 -0.5t-20 -0.5q-88 0 -132 -2q-4 0 -9 1.5t-7 1.5q-1 0 -6 5q-6 16 -7 17q-3 7 -9 10q-7 3 -25 3q-8 -3 -13 -11q-1 -2 -3 -8t-3 -8q-6 -8 -11 -9h-16q-15 0 -24 -9q-11 -5 -20 1q-4 4 -16 6q-39 0 -56 2q-15 0 -21 1q-3 2 -14 9t-17 12z" glyph-name="T" horiz-adv-x="465" unicode="T"/><glyph d="M381 414h12q7 -1 6 -7q0 -2 -5 -2q-4 0 -6 1q-6 4 -6 9q-2 0 -6.5 -0.5t-6.5 -0.5q-11 -3 -18 -15q-4 -5 -5 -11q-4 -16 -9 -21q-9 -11 -28 -46t-20 -37q-9 -10 -32 -51q-6 -10 -10 -15t-11.5 -16t-14.5 -20t-14 -16q-3 -2 -5 -5.5t-4.5 -8t-4.5 -6.5q-7 -10 -18 -16 q-2 -1 -9.5 -4.5t-12.5 -5.5q-3 -2 -9 0t-7 5q-2 6 -6 17.5t-5 16.5q-3 6 -3 11q-2 23 1 42q0 1 0.5 3t0.5 3q6 11 8 34q2 36 10 52q2 4 2 12q1 12 8 29q3 6 6.5 19.5t6.5 19.5q3 7 7.5 21t6.5 18t5 13.5t5 14.5q31 64 34 77q16 36 23 48q5 8 10.5 25t6.5 20q1 4 -2 11 q-1 3 -3.5 8.5t-4.5 7.5q-4 7 -14 12q-29 9 -40 14q-4 1 -12 1q-10 2 -30 -11q-7 -5 -8 -8q-12 -32 -14 -40q-1 -6 -6.5 -19t-7.5 -20q-2 -12 -17 -38q-3 -6 -7 -19.5t-8 -19.5q-10 -19 -15 -33q-10 -26 -14 -39q-2 -6 -6 -17.5t-6.5 -21t-2.5 -18.5q0 -5 -4 -11 q-6 -11 -8 -29q0 -11 -6 -23q-5 -12 -5 -23q-1 -10 -1 -29q0 -16 -7 -35q-8 -24 0 -53q8 -28 21 -62q9 -29 32 -50q18 -18 34 -25q1 -1 -1 -3t0 -4q13 -12 28 -13q20 -2 29 -6q8 -3 24 -5q15 0 24 4q5 2 27 13q3 3 7.5 7t6.5 6q28 26 39 46q3 5 16 18q2 3 7.5 9t7.5 10 q8 15 22 29q8 9 20 29q3 5 13 13q5 5 11 2q7 -3 8 -8q1 -4 6 -30q3 -6 9.5 -17.5t7.5 -13.5q4 -4 24 -34q6 -6 10 -7q30 -12 46 -17l-6 -2q2 0 17 2q2 0 6 2q14 8 26 25q5 7 3.5 17t-8.5 16q-3 3 -14 13t-16 16q-9 12 -10 22q-2 8 -2 11q0 21 -9 41q-3 7 1 17q7 17 7 35 q2 32 2 48q2 22 10 40q1 3 8.5 29t7.5 40q0 5 5 17q2 5 6.5 21t9.5 24q1 9 7 24t8 21q1 8 6 17q18 42 22 55q2 6 8.5 18.5t8.5 20.5q-10 20 -14 26q-3 5 -8 8q-3 2 -9 4.5t-8 3.5q-17 9 -35 8q-13 0 -13 -0.5t7 -1.5q-15 -1 -20.5 -5.5t-2.5 -11.5q-1 -2 -1 -6 q-3 -11 -9 -22q-3 -3 -8 -10.5t-6 -9.5q-3 -12 -8.5 -24.5t-14 -27.5t-12.5 -23q-5 -12 -16 -33t-14 -26q-3 -6 -9.5 -18.5t-9.5 -18.5q-6 -11 -6 -23v-24z" glyph-name="U" horiz-adv-x="570" unicode="U"/><glyph d="M159 212q1 -1 1 -3t1 -3q5 -12 1 -23q-9 -16 -1 -35q7 -16 7 -29v-43q0 -16 1 -24q2 -8 4 -11q10 -18 25 -26q10 -6 25 -12q24 -3 39 -2q11 2 16 7q13 13 16 18q16 30 18 39q2 13 15 39q4 7 11.5 22t14 26t14.5 20q15 27 17 32q1 1 4 7t5 9q9 9 26 41q6 14 16 25 q11 12 12 27q1 9 8 17q7 7 8 9q16 28 27 40q3 10 14.5 24.5t14.5 21.5t11.5 19t11.5 17q28 59 45 78q4 5 5 11q11 20 31 60q2 3 4 11q3 17 16 32q8 9 10 28q0 25 -1 30q-2 11 -9 15l-8 4l-8 4q-12 6 -24 6q-16 0 -24 -1q-6 -1 -11 -5q-16 -16 -17 -18q-4 -6 -19 -29.5 t-22 -37.5q-8 -17 -17.5 -36t-21.5 -42t-18 -36q-12 -23 -22 -36q-3 -4 -8 -12.5t-8 -12.5q-8 -11 -17 -25q-30 -44 -40 -68q0 -2 -3 -5q-11 -11 -26 -41q-7 -15 -20 -30q-11 -11 -24 -35q-1 -2 -4.5 -4.5t-4.5 -3.5q-7 -5 -10 2q-4 16 -7 23q-7 21 -7 36q-2 36 -3 53 q-11 31 -10 48q1 13 -1 37q0 13 -4 24q-6 13 -6 29v109q0 11 -2 31q-2 9 -8.5 15.5t-15.5 8.5q-29 5 -35 8q-13 7 -36 3q-15 -3 -23 -17q-7 -11 -8 -23q7 -22 6 -29v-13q0 -13 7 -29q-7 -31 -6 -41q0 -9 0.5 -27.5t1.5 -27.5q0 -9 3 -18q4 -6 7 -20t6 -20q5 -9 5 -23 q0 -12 0.5 -36.5t1.5 -36.5q0 -2 0.5 -6t1 -7t1.5 -5q4 -8 11 -47q3 -6 8 -19t8 -20z" glyph-name="V" horiz-adv-x="553" unicode="V"/><glyph d="M338 424q6 -3 9 -7q3 -7 -2 -10h-4q-2 2 -2 5q-1 4 -1 11q-5 -2 -5 -3q-5 -8 -18 -26.5t-19 -28.5q-4 -8 -11 -14q-4 -4 -10 -6q-7 -4 -9 5q-1 3 -1 42q-2 28 6 47q0 8 -1 12q-4 9 0 17q5 13 5 23v127q0 13 -4 24q-2 5 -7 29l-3 12q-5 9 -12 13q-9 4 -26 9t-20 6t-12 1 t-17 -1t-16 -8q-2 -1 -4.5 -4t-3.5 -5q-10 -10 -6 -22q2 -5 6 -19t7 -21q6 -18 6 -35q0 -65 1 -97q0 -16 -7 -29q-1 -4 -4 -24q0 -32 -2 -96q0 -11 -5 -24l-4 -14q-1 -9 -1.5 -28.5t-0.5 -29.5q0 -26 -7 -41q-3 -8 -3 -18l-3 -126q0 -17 1 -25q2 -14 11 -20q7 -4 16 -5.5 t13 -4.5q21 -7 41 2q17 10 20 14q29 40 39 61q4 9 16 25q20 30 30 46q9 15 25 47q30 63 56 86q7 16 16 26q2 2 12 20q16 26 30 36q7 4 10 -2q2 -4 5.5 -11.5t4.5 -9.5q-2 -5 -4 -13q-4 -14 0 -24q4 -15 1 -23q3 -14 -2 -29v-6t-1 -6q-2 -29 22 -40q11 -5 -1 -11 q-9 -6 -11 -20q-1 -33 3 -97q0 -6 3 -11q5 -11 12 -14q4 -2 19 -10t24 -12q15 -6 29 -5q8 0 12 1q3 0 6 -2t4 1q3 4 17 25q5 7 7 16q1 3 2 11t3 13l6 18t5 16q1 6 6 15.5t6 12.5q8 20 9 22q3 14 13.5 42.5t14.5 43.5q5 9 9.5 26t8.5 25q5 9 13 27q3 9 9 29q13 39 25 61 l15 33q6 22 7 23q3 6 6.5 17.5t5.5 16.5l15 33q2 4 5 10.5t5.5 12t4.5 10.5q5 17 21 49q12 22 15 33q8 22 -7 40q-2 3 -8 9q-10 11 -26 13q-18 2 -54 -2l-6 -3q-9 -5 -13 -12l-6.5 -13t-6.5 -14q-2 -13 -12 -34t-12 -28q-4 -20 -5 -29q-4 -8 -6 -11l-23 -49q-2 -6 -9 -26 t-10 -31q-5 -28 -11 -34q-12 -16 -14 -27q-4 -20 -18 -38q-2 -2 -5 -2q-7 -2 -10 5q-2 2 -2 5q-2 12 -4 36q-2 16 -5 23q-4 12 -5 18q-3 14 -17 38q-3 5 -13 13q-1 1 -5 2.5t-5 2.5q-5 3 -12 11t-13 13t-13 5q-16 0 -23 -4q-6 -3 -20.5 -7t-21.5 -8q-14 -13 -39 -40 q-18 -32 -21 -39q-3 -6 -12 -16.5t-12 -17.5z" glyph-name="W" horiz-adv-x="760" unicode="W"/><glyph d="M120 146q0 -7 -4 -7q0 3 1 4q1 0 2.5 1t2.5 1q0 5 6 5l-2 -2q-1 -2 -6 -2zM68 104q8 -4 10 -9v-10q7 -2 7 -6q-3 0 -4 2q-2 1 -2 4q-8 4 -10 10v9q-7 -2 -9 -5q-4 -8 -8 -18q3 -14 -6 -23q-2 -2 -4.5 -4t-5.5 -5.5t-5 -5.5q-9 -13 4 -22q17 -11 33 -16h10q12 4 34 16 q0 1 3 4q8 14 13 22q14 23 19 29q5 8 7 19q-7 2 -7 5q4 0 4 -1q2 -2 2 -4q8 2 13 8q4 4 11 16t12 17q1 1 3 6t3 8q4 12 9 19q18 16 25 32q5 6 14 18.5t14 17.5q14 22 16 26q6 11 7 13q4 6 7 6q8 -3 9 -6q9 -13 16 -32q2 -4 12 -38q2 -5 6.5 -16t6.5 -17t7 -18.5t6 -15.5 q-9 -19 2 -39q5 -8 0 -19q-1 -2 -2.5 -6t-2.5 -7t-1 -5q-2 -11 -18 -31q-5 -7 -3 -20q3 -11 14 -14q11 -4 35 -12q15 -5 31 1q2 2 6.5 4t6.5 3q6 2 6 11q0 6 4 9q18 5 21 26q0 1 0.5 3t0.5 3q0 67 -1 81q0 9 -3 14q-4 9 -8 35q0 10 -4 19q-3 5 -7 18t-8 20q-1 8 -6.5 22.5 t-6.5 20.5q-3 7 -8.5 23t-9.5 24q-4 17 -19 47q-6 13 -4 30q0 9 4 14q16 25 62 88l7 7q3 1 8 6q8 13 38 43q25 22 30 33q4 6 8 7q14 10 20 16q14 13 31 21q3 1 7 5q12 18 15 28q0 7 -1 10q-10 13 -20 18q-2 1 -12 5.5t-15 7.5q-25 1 -33 -0.5t-27 -11.5l-8 -4 q-35 -35 -52 -53q-21 -16 -34 -37q-3 -5 -18 -20q-16 -14 -22 -28q-6 -8 -10 -12q-3 -3 -11 -10t-11 -11q-11 -9 -19 1q-6 5 -10 13q-5 9 -15.5 28.5t-15.5 29.5q-8 16 -25 32q-10 10 -22 14q-6 3 -18 8.5t-16 7.5q-2 -1 -14 -5q-16 -2 -21 -2q-11 -4 -11 -16q-3 -9 1 -19 q3 -4 8 -13t8 -14q5 -6 19 -29q7 -15 10 -18q9 -8 25 -38l16 -32q14 -23 24 -56q2 -4 0 -14q-7 -15 -21.5 -41.5t-19.5 -37.5q-9 -10 -24 -25q-2 -4 -4 -12.5t-4 -11.5q-16 -30 -21 -35q-2 -2 -9 -13q-5 -9 -15 -29t-15 -29q-7 -9 -11 -11q-7 -4 -10 -12q-1 -12 -15 -26 q0 -1 -8 -13z" glyph-name="X" horiz-adv-x="500" unicode="X"/><glyph d="M188 265q-1 -1 -12 -26.5t-19 -36.5q-2 -2 -4 -7t-3 -7q-9 -21 -18 -36q-3 -5 -8.5 -15t-8.5 -15q-4 -6 -9 -18t-6 -14q-4 -8 -10 -18q-8 -10 -14 -32q-2 -6 -5 -17.5t-5 -17.5q-2 -18 12 -27q4 -2 11.5 -5.5t11.5 -4.5q15 -5 28 2q3 0 4 1q2 1 6 4t7 5q8 3 13 12 q26 62 35 74q4 7 10 23q4 10 8 15q3 4 19 39q0 1 13 23q13 23 17 43q0 7 7 12l1 1q2 1 3 2q5 10 15 26q1 2 10 17q4 10 12.5 30.5t12.5 31.5q5 12 25 61q2 3 5 8.5t5 8.5q6 10 6 14q3 12 13 39l6 14t6.5 15t5.5 13l1 2q1 2 2 3q10 13 21 41q2 5 10 18t10 22q3 4 10 11 l7 10.5t7 11.5q2 5 7 13.5t7 13.5v4q-7 22 -21 33q-4 2 -5 4q-2 1 -9.5 4.5t-12.5 5.5q-6 3 -13 3q-7 -1 -21 -1q-12 -3 -18 -15q-4 -10 -6 -14q-11 -16 -24 -45q-13 -32 -21 -41q0 -1 -1 -4t-2 -5q-3 -5 -10.5 -21.5t-12.5 -23.5q-19 -41 -23 -61q-1 -7 -7 -15 q-10 -12 -13 -31v-4l-1 -2l-4 -4q-5 -11 -16 0q-20 29 -23 32q-7 10 -11 23q-12 18 -15 20q-12 18 -18 25l-6 9q-5 8 -9 12q-12 20 -17 25q-10 18 -14 26q-2 2 -5 6.5t-4 6.5q-4 5 -15 20q-6 13 -19 14q-2 0 -19 6q-10 5 -19 2q-12 0 -19 -3q-5 0 -9.5 -5.5t-5.5 -11.5 q-3 -18 4 -30q10 -20 16 -26q7 -7 8 -11q3 -6 12 -17t12 -17q3 -7 12.5 -19t12.5 -19q15 -17 23 -34q6 -5 14.5 -18t12.5 -17q3 -3 9.5 -13.5t11.5 -15.5q7 -8 18 -31q14 -23 14 -43q0 -2 1.5 -5.5t2.5 -4.5q1 -4 1 -14q-4 -11 -4 -22z" glyph-name="Y" horiz-adv-x="400" unicode="Y"/><glyph d="M256 37q32 0 59 12q5 2 15 3.5t14 2.5q23 9 40 9q8 1 29 7q49 22 62 31l1 3q2 3 4 8t5 8h5q6 -3 11 0q9 5 11 14q0 2 1 6.5t1 6.5q0 10 -9 15q-16 3 -28 10q-6 5 -17 5q-6 0 -17.5 -0.5t-17.5 -0.5q-30 0 -46 -8q-3 -1 -18 -4q-39 -2 -57 -11q-3 -1 -9.5 -1.5t-8.5 -0.5 q-2 -1 -8 -2t-9 -3q-15 -7 -28 -8q-14 -1 -28 -9q-11 -4 -15 7q-2 8 2 12q10 14 42 46q3 3 9 7q9 4 29 22q13 13 18 16q4 3 7.5 6.5t7.5 8.5t6 7q4 4 13.5 11.5t14.5 12.5q6 7 19 20t19 20q28 28 41 36q3 2 18 17l108 117q16 16 25 35q16 20 36 66q6 12 8 37q0 35 -29 52 q-20 12 -25 17q-1 1 -6 4t-7 5q-8 2 -31 3.5t-35 6.5q-8 0 -11 -2q-9 -3 -17 0q-14 7 -29 1q-12 -5 -23 -5q-8 0 -23.5 -1t-23.5 -1q-14 0 -23 -5q-11 -6 -28 -8q-9 -1 -23 -7q-2 -1 -12.5 -4t-15.5 -5q-18 -8 -28 -10q-4 -1 -17.5 -7t-21.5 -7q-5 -3 -11.5 -5.5t-15 -5 t-12.5 -4.5q-8 -3 -16 -8t-11 -14q-4 -18 1 -38q0 -4 5 -11q7 -10 25 -28q11 -9 21 -9q10 -1 30 -1q12 0 22 6q7 3 19.5 10t17.5 10l27 12q6 1 28 11q5 2 16.5 5.5t17.5 6.5q5 2 17 4q31 2 46 10q31 4 47 0q6 -2 9 -6q2 -3 1.5 -9t-3.5 -9q-1 -1 -3.5 -4.5t-3.5 -5.5 q-5 -6 -15.5 -17t-18.5 -20.5t-13 -19.5q-3 -5 -8 -9q-9 -5 -28 -24q-46 -50 -138 -148q-19 -19 -28 -23q-13 -7 -21 -22q-4 -9 -7 -10q-9 -4 -24 -17.5t-25 -18.5q-19 -16 -28 -32q0 -2 -6 -10q-4 -2 -10.5 -6t-10.5 -6q-18 -8 -34 -26q-4 -5 -23 -19q-6 -6 -8 -10 q-16 -27 -20 -48q4 -5 7 -19.5t8 -22.5q3 -4 11 -12.5t12 -12.5q5 -6 15 -10l10.5 -3.5t11.5 -4.5q14 -7 29 -7h30q31 2 46 10q3 2 17 4q15 2 23 6q6 3 36 17z" glyph-name="Z" unicode="Z"/><glyph d="M191 432q0 -5 -0.5 -16.5t-0.5 -17.5q-2 -20 -5 -29q0 -3 -0.5 -8.5t-1.5 -8.5q0 -3 -0.5 -8.5t-1.5 -8.5q-3 -8 -5.5 -23.5t-4.5 -22.5q-2 -6 -2 -9q-2 -26 -7 -38q-1 -10 -5 -28t-5 -26q-3 -7 -5 -23t-5 -23q-2 -12 -2 -17q0 -2 -0.5 -6.5t-1.5 -6.5q-2 -6 -7 -38 q-4 -11 -6 -34q0 -1 -3 -16q-1 -3 -2 -7.5t-1 -5.5q0 -5 -0.5 -13t-0.5 -13q0 -11 -3 -21q-1 -4 -4 -21q-1 -8 -6 -16q-1 -2 -3 -5.5t-3 -5.5t0 -6.5t2 -5.5q5 -7 8 -8q11 -3 20 -9q12 -7 13 -8q8 -2 11 -1h7q14 7 38 9q5 0 11 2q8 4 24 6q5 0 11 2q11 6 28 6q8 0 25 0.5 t25 0.5h61q13 0 25 4q3 2 10 2q22 2 32 2q10 2 14 5l12 9q4 2 5 8.5t-2 10.5q-6 9 -7 10q-3 5 -9 6q-5 0 -7 1q-9 1 -25.5 1.5t-21.5 0.5q-2 0 -6.5 0.5t-7.5 0.5q-8 5 -31 5h-65q-21 0 -28 -4q-3 -2 -11 -2q-16 -2 -36 -3q-1 0 -4.5 -1.5t-5.5 -2.5q-6 -3 -21 -3 q-4 1 -7.5 6t-2.5 9q0 3 1 5q3 9 5 29q0 2 0.5 8t1.5 9q3 7 5 30q0 14 2 21q4 10 6 30q0 9 1 12q4 11 6 34q0 5 2 13q3 8 5 25q1 4 3.5 13.5t3.5 15.5q0 9 2 13q4 9 6 29q0 3 2 9q4 11 4 25q3 16 3 17q4 11 4 25q2 17 5 25q0 1 0.5 2.5t0.5 2.5q1 4 1.5 13t1.5 16t4 13 q1 4 1 13q0 5 1 16.5t1 17.5q5 15 5 26q0 4 0.5 12.5t0.5 13.5q0 14 1 21q1 3 2 8.5t2 8.5q0 2 0.5 6t0.5 7q0 12 1 35t1 34q0 9 1 13q0 2 6 10q2 2 4 2q2 1 6.5 2t6.5 2q9 5 28 7q12 0 18 3q13 4 17 5q13 0 25 6q1 1 3 1.5l4 1t3 0.5q4 1 11.5 3.5t9.5 3.5q3 1 6.5 1.5t8 1 t6.5 0.5h1q1 1 2 1q23 13 26 15q7 6 7 15q0 8 -1 12q-3 9 -10 12q-19 5 -32 -2q-3 -2 -17 -4q-9 0 -18 -3q-5 -3 -17 -5q-10 0 -14 -1q-10 -3 -11 -3q-8 -4 -24 -6q-15 0 -25 -5q-1 0 -14 -3q-6 0 -18 -2q-13 -3 -17 -1q-13 -5 -25 -5q-10 0 -23 -9q-6 -5 -6 -15q0 -9 3 -17 q3 -10 3 -21v-13q0 -12 -3 -22q-1 -3 -1.5 -8.5t-0.5 -8.5q0 -25 -2 -73q0 -11 -3 -22q-3 -8 -3 -25q1 -14 -6 -35z" glyph-name="bracketleft" unicode="["/><glyph d="M391 63q22 -27 29 -39q3 -9 15 -23q3 -4 7.5 -13.5t6.5 -13.5q8 -10 15 -34q0 -2 2 -8q4 -5 6 -7q3 -3 11 -7q11 -9 24 -8q14 0 20 -1q8 0 17 7q9 8 13 18q4 5 5 11q4 6 2 14q-19 41 -26 48q-5 11 -18.5 31t-14.5 22q-2 4 -7.5 11t-7.5 12q-4 5 -14 22q-9 10 -29 45 q-5 7 -12 20t-11 18q-8 14 -22 40q-3 4 -21 40q-1 2 -3 4l-15 27q-1 8 -8 16q-4 7 -10.5 20.5t-10.5 19.5q-1 2 -4.5 11t-6.5 13q-13 23 -20 41q-5 10 -13.5 29.5t-13.5 28.5q-3 13 -11 24q-4 6 -9.5 16.5t-7.5 14.5q-2 5 -11 21q-26 45 -32 59q-2 4 -7 11.5t-7 11.5 q-3 5 -7.5 15t-6.5 14q-1 3 -5 7q-5 6 -22 33q-7 12 -17 12h-38q-3 0 -9 -4q-17 -15 -21 -21q-2 -3 -2.5 -9t1.5 -9t10.5 -13t11.5 -16q2 -6 9 -15.5t9 -14.5q3 -5 10 -17t10 -19q5 -5 18 -32q11 -27 22 -43q3 -4 7 -12q6 -14 18 -37t16 -31q6 -9 13.5 -25t9.5 -20 q37 -81 44 -93q2 -2 2 -4q16 -38 32 -65q3 -4 8 -14.5t7 -13.5q3 -4 5.5 -8.5t5 -10t4.5 -8.5q22 -44 36 -62q5 -6 12 -20q6 -12 7 -17z" glyph-name="backslash" unicode="\"/><glyph d="M361 326q-1 -7 -1 -19.5t-1 -22.5t-4 -19q-1 -4 -1 -13q-1 -14 -1 -40q0 -11 -0.5 -31.5t-0.5 -30.5q0 -12 -2 -17q-3 -11 -3 -22q-1 -16 -1 -49q0 -3 2 -15t1 -16q-2 -8 -2 -13q-1 -5 4.5 -20t5.5 -19q-1 -14 -10 -28l-3 -3q-3 -1 -7.5 -3t-8.5 -3.5t-8 -2.5 q-3 -1 -11 -4.5t-13 -4.5q-17 -5 -20 -7q-1 0 -5.5 -5t-11 -4.5t-18.5 9.5q-2 -1 -9.5 -4t-10.5 -5q-7 -4 -24.5 -5.5t-25.5 -6.5q-6 -4 -36 -29q-8 -6 -17 -22q-1 -2 0 -7t2 -6q1 0 3 -2l3 -3l12 -6t11 -5q5 -2 14 -2q12 0 20 8q9 9 26.5 6.5t28.5 0.5q14 -8 19.5 -6 t11.5 10.5t7 9.5q2 1 7 2.5t7 2.5q14 5 17 6q11 6 13 6q6 2 18 4l6 3q8 3 14 3q10 1 29 1q6 1 18 1q6 1 13 8q3 3 9 13q8 22 8 34v10.5v13v11.5q0 5 -6 22t-6 22q0 9 4 21q2 5 -1 9q0 1 -4 8.5t-4 9.5q5 25 5 39q0 45 1 67v57q0 11 3 22q0 1 3 17q0 18 1 27q0 17 4 30 q2 8 2 13q2 33 6 43q1 1 1 4t1 5q0 20 5 34q2 6 2 18q2 14 4 21q0 2 1 6.5t2 6.5q0 11 5 26q2 8 2 13q0 2 1 6.5t1 6.5q4 11 6 34q0 5 2 13q3 8 5 26q0 19 4 34q2 6 2 9v66q-2 14 -11 17q-4 1 -20 8q-2 1 -7 -1q-13 -5 -25 -5h-39q-36 -2 -46 -7q-1 -1 -3 -1t-4 -0.5 t-4 -0.5q-24 -2 -31 -7q-10 -2 -14 -2q-13 -3 -14 -3q-11 -6 -21 -6q-15 -2 -18 -4q-5 -3 -17 -5q-7 0 -11 -1q-14 -3 -22 -13q-2 -2 -2 -3q-3 -5 0 -8q12 -22 36 -34q3 -2 11 -2q35 0 49 8q3 1 11 1q1 0 6 1t8 2q9 5 28 7q1 0 10 3q10 5 17 5q6 0 20 0.5t20 0.5q1 0 3 -0.5 t4 -0.5q7 -2 9 -12q0 -29 -4 -44q-2 -4 -2 -8q-3 -25 -3 -26q-5 -25 -5 -30q0 -1 -1 -4t-1 -5q-3 -8 -5 -26q0 -11 -1 -17q0 -6 -1 -9t-7 -34q-4 -11 -6 -35q0 -4 -2 -12q-5 -17 -5 -31q1 -14 -6 -34z" glyph-name="bracketright" unicode="]"/><glyph d="M433 605q5 32 1 83q0 2 -2 10q-1 2 -2 4.5t-2 5.5t-2 5q-3 7 -10 10q-6 3 -14 5q-4 2 -7 3q-27 4 -40 -6q-26 -15 -34 -23q-7 -5 -15 -10l-6 -3q-3 -5 -11.5 -13.5t-11.5 -13.5q-7 -8 -20 -21q-6 -4 -9 -10l-30 -30q-2 -1 -3.5 -3t-3.5 -4l-3 -3q-2 -4 -5 -8t-8 -9l-7 -7 q-16 -23 -31 -38q-2 -2 -4.5 -6t-2.5 -5q-2 -3 -5.5 -8t-4.5 -7q-7 -8 -25 -37v-3q1 -2 4 -9q11 -20 33 -21h12q14 0 23 11q3 2 7 7q14 18 21 28q6 6 17.5 19.5t17.5 19.5q3 4 11 12.5t12 14.5q3 5 12 15t12 14q6 9 20 25q5 5 13.5 15t12.5 14q3 3 5 1q2 0 3 -3q3 0 1 -18 l-1 -18q0 -15 -4 -26q-3 -7 -3 -20q-2 -13 -6 -19q-1 -2 -1.5 -6.5t-0.5 -6.5l-1 -4q-1 -3 -2 -5q-6 -13 -4 -33q1 -11 14 -19q10 -6 25 -9q14 -3 24 4q10 6 11 13q1 4 4 11t4 11q5 27 7 30q1 6 1 16q2 22 6 29q1 4 1.5 8t1 8.5t0.5 6.5q0 13 5 26z" glyph-name="asciicircum" unicode="^"/><glyph d="M524 -19q-7 -5 -26 -5q-20 1 -60.5 2.5t-61.5 2.5q-11 1 -25 -2q-4 -1 -14 -1q-12 1 -35.5 1.5t-35.5 0.5q-3 0 -7.5 -0.5t-6.5 -0.5q-8 -3 -32 -3h-25q-7 0 -14 -3q-2 -1 -7 -1h-18q-19 0 -29 -4q-2 -1 -7 -1q-28 0 -38 -5h-3h-4.5h-3.5q-26 -3 -31 -4q-2 -1 -7 2 q-6 3 -18 1q-2 -1 -6.5 -2t-6.5 -2q-5 -2 -6 -5q-2 -1 -4 -5q-6 -13 -1 -24q7 -21 27 -33q9 -4 17 -5q21 0 24 1q7 3 28 5q8 0 11 1q11 4 22 4q9 0 14 2q12 3 24 3q7 0 11 2q15 3 28 2q19 0 28 1q2 0 5.5 0.5t5.5 0.5q10 4 22 2q10 0 29 -0.5t28 -0.5q6 0 14 2q14 2 21 2 q61 -2 183 -8l78 -3q4 1 20 8q4 1 7 8l6 12q-1 3 -2.5 10.5t-2.5 11.5l-2 4q-1 1 -2.5 3t-3 4.5t-2.5 3.5q-11 14 -29 12q-22 2 -34 3h-42z" glyph-name="underscore" unicode="_"/><glyph d="M80 857q0 -8 5 -13q9 -11 31 -31q11 -11 22 -18q3 -1 8 -6q19 -17 30 -23q4 -3 10 -9q18 -16 22 -18q2 -1 9 -10q4 -6 6 -8q12 -14 24 -19q4 -1 11 -1q11 3 21 11q3 2 5 5q2 2 4 7t4 8q2 7 -1 13q-1 5 -3 6q-28 28 -42 41q-5 5 -8 7q-9 5 -32 26l-9 6q-6 3 -11 8 q-6 6 -20 17t-20 16t-20 13q-10 4 -20 1q-6 -2 -16 -8q-2 0 -2 -2q-3 -4 -7 -12q-1 -2 -1 -7z" glyph-name="grave" horiz-adv-x="373" unicode="`"/><glyph d="M321 473q-1 -27 -8 -41q-1 -2 -4 -16q-2 -15 -7 -26q-3 -6 -5 -21q0 -10 -10 -30q-3 -8 -10 -12q-1 -1 -5 -2.5t-5 -2.5q-18 -9 -47 -5q-8 2 -10 12q0 9 1 10q2 5 14 29q9 10 28 45q1 2 3 5t3 5q5 5 11.5 16.5t8.5 14.5q5 6 12.5 18t11.5 17q4 7 13 9q3 2 5 0q4 0 4 -4 q-1 -10 -4 -21zM232 45q6 -1 6 -6q0 1 -2 1t-2 1t-1 2t-1 2q-13 -4 -19 -17l-5 -10q-8 -15 -8 -42q0 -10 8 -20l11 -11q7 -6 15 -6q22 -2 32 -2q5 0 11 2q7 1 14 8q10 16 15 34q2 18 4 22q6 16 8 42q0 21 8 37l3 15q0 4 0.5 12.5t1.5 12.5q9 21 10 22q8 15 9 31q0 9 3 16 q8 16 8 31q0 18 10 36q13 24 13 41q0 5 4 15q5 12 5 21q1 10 7 26q4 10 4 16q2 14 6 26q3 7 5 21q2 12 4 16q7 18 7 31q1 7 7 21q4 9 -1 21q-4 7 -1 15q7 14 7 32t4 26q4 6 0 16q-5 10 0 26q4 9 -2 20l-5 10q-1 2 -11 12q-1 0 -2.5 1t-2.5 1q-21 11 -41 12h-16q-14 0 -25 -9 q-12 -11 -17 -21q-7 -10 -16 -14q-12 -6 -17 -20q-1 -1 -3 -4q-4 -9 -14 -16l-24 -12q-20 -5 -37 5q-5 3 -11 1q-11 -2 -13 -8q-21 -35 -30 -63q-1 -5 -7 -15q-17 -22 -22 -43q-8 -20 -13 -30q-3 -7 -12.5 -25t-13.5 -28q-4 -5 -6 -15q-1 -13 -11 -24q-8 -9 -10 -19 q-3 -16 -17 -39q-6 -10 -15 -16q-10 -5 -19 -11q-17 -11 -22 -24q3 -6 8 -17t7 -17q0 -7 -2 -11q-7 -16 -23 -48q-7 -14 -14.5 -29.5t-16.5 -34.5t-14 -29q-2 -2 0 -5q2 -11 14 -29l2 -1q2 -1 2 -2q15 -13 33 -18h11q25 5 34 24q4 9 13 26.5t13 26.5q28 61 60 109 q8 14 25 20l7 3.5t8 3.5q5 1 19.5 4t21.5 6q14 6 43 4q1 0 2.5 -0.5t2.5 -1.5q4 -1 7 -5t2 -7q-1 -2 -2.5 -6.5t-2.5 -8t-1 -6.5q-1 -4 -2.5 -11.5t-3 -13.5t-3.5 -11q-2 -4 -4 -16q0 -3 -0.5 -10.5t-0.5 -11.5q0 -13 -7 -26q0 -1 -2 -5q-2 -14 2 -21q6 -8 7 -14z" glyph-name="a" horiz-adv-x="454" unicode="a"/><glyph d="M427 603q33 8 40 11q9 6 25 2q5 -2 8.5 -7.5t2.5 -10.5q-1 -8 -6 -15q-1 -1 -2 -3t-2 -3.5t-2 -2.5q-9 -9 -28 -29t-29 -30q-2 -2 -16 -14q-11 -5 -17 -13q-14 -14 -30 -22q-8 -8 -12 -11q-12 -11 -32 -18q-3 -2 -10 2q-4 4 -3 10q6 15 14 31q16 36 18 46q11 32 24 50 q2 4 3 4q13 5 54 23zM430 275q0 4 1 6t3 1v-2q-1 -1 -1 -2q-1 0 -2 -1t-2 -1q4 -10 7 -15q4 -6 0 -15q-1 -2 -2.5 -6t-1.5 -5q-10 -23 -32 -37q-20 -15 -26 -19q-3 -3 -12.5 -8.5t-13.5 -10.5q-6 -6 -18 -10q-14 -3 -23 -12q-5 -5 -10 -6q-12 -4 -25 -10t-28 -14t-24 -12 q-16 -2 -26 -5q-6 -2 -20 -8q-4 -1 -15 -1q-11 2 -9 12q0 1 11 25q2 5 8 19t8 22q1 8 20.5 51t25.5 52q1 3 6 8q11 12 21 15q5 1 12.5 2t8.5 1q14 2 26 6q18 7 36 0q12 -6 20 -2q7 2 11 1q10 -4 14 -4q21 -3 36 -10q3 -3 16 -5zM613 662q-1 1 -10.5 11.5t-14.5 16.5l-4 4 q-11 11 -24 11q-46 4 -115 0q-3 0 -15 -3q-12 -5 -16 -5q-8 -1 -40 -12q-6 -2 -21 -8t-23 -8q-32 -14 -66 -35q-21 -18 -49 -51q-1 -1 -2 -3l-1 -1q0 -1 -1 -3t-1 -3q-2 -13 2 -22q8 -11 10 -14q12 -13 4 -30q-22 -48 -33 -71q-8 -20 -19 -34q-3 -3 -5 -10 q-3 -12 -7.5 -23.5t-12 -26.5t-10.5 -22q-1 -2 -2 -5.5t-2 -5.5q-2 -16 -13 -37q-20 -45 -28 -59q-1 -6 -2.5 -15.5t-1.5 -13.5q0 -1 -0.5 -2.5t-1.5 -2.5q-16 -14 -19 -21q-4 -9 -13.5 -29.5t-13.5 -29.5q0 -1 -1 -3t-1 -3q0 -21 -19 -31q-7 -5 -13 -10q-5 -4 -6.5 -12 t2.5 -13q6 -11 22 -31q2 -2 7 -4.5l7 -3.5q2 -2 5 -2q1 -1 4 -1q3 -1 8.5 1t7.5 2t6.5 -2t7.5 -3q27 -3 52 0q8 2 11 3q13 7 30 7q15 0 21 4q6 3 17.5 6t17.5 6q12 5 25 6q5 0 10 3q8 4 24.5 10t24.5 10q20 11 65.5 35.5t69.5 37.5q2 2 6.5 5.5t6.5 5.5q14 15 26 21q5 2 7 6 q18 15 35 37q3 6 11 25q2 6 4 16v34q-1 7 -5 16q-1 3 -3.5 8l-3.5 7q-6 12 -21 25q-7 4 -19 12.5t-17 11.5q-24 14 -37 21q-2 1 -14 8q-2 2 -3 7.5t1 7.5q13 19 33 35q7 3 18.5 12.5t17.5 12.5q14 7 24 21q28 26 38 31l11 11q6 6 18 20q8 14 11 20q8 19 20 34q4 8 5 15 q1 8 4 21.5t3 16.5q0 1 -1 3t-1 3q-1 3 -2.5 6.5t-3.5 8t-3 6.5z" glyph-name="b" horiz-adv-x="574" unicode="b"/><glyph d="M236 536q6 -4 3 -9q0 -3 -4 -3q-5 3 -3 9q1 1 4 3zM32 310q7 -1 7 -6q-3 0 -4 1q-2 4 -2 5q-8 -2 -9 -7q-1 -4 -4.5 -15.5t-6.5 -17.5q-3 -4 -3 -11v-35q0 -9 4 -16q6 -14 9 -28q3 -5 8 -8q7 -4 7.5 -6t-1.5 -8q0 -1 -2 -5q-3 -15 6 -27q4 -5 11 -13t12.5 -15t9.5 -14 q4 -9 26 -24q24 -15 25 -16q25 -22 47 -25q3 -1 8.5 -4t8.5 -3q5 -1 20 -5.5t25 -6.5h58q13 0 24 4q15 5 17 5q10 0 27 5t21 6q19 5 44 19q19 11 25 25l12 27q2 4 -0.5 11t-6.5 9q-2 1 -5.5 3t-5.5 3q-18 8 -28 12q-8 4 -17 -1q-2 -1 -19 -8t-27 -8q-27 -11 -53 -14l-12 -3 q-7 -4 -17 -4q-29 -2 -43 1q-31 9 -55 25q-9 5 -13 12q-14 20 -18 36q-1 4 -4 11.5t-4 10.5q0 2 -1 5.5t-2 5.5q-3 22 1 52q0 4 1 6q4 8 9 24.5t9 23.5q14 24 17 38q3 8 4 10q21 29 24 34t11.5 16t12.5 17q2 5 11 14l17 17q22 22 34 40q19 25 44 40q14 8 29 21q29 23 65 32 l4 -4q5 -10 1 -17q-13 -32 -32 -48q-6 -6 -8 -9q-6 -8 -3 -16q10 -28 30 -44q8 -6 13 -11q9 -4 11 -5q19 -7 42 0q8 3 15 10q2 2 3.5 4.5t3 5.5l2.5 5q2 3 11 18t15 21q5 7 7 16q2 8 8 22q3 5 5 16q2 47 -1 64q-3 8 -4 10q-4 5 -13 16t-14 18q-4 2 -21.5 9.5t-26.5 12.5 q-26 2 -37 2q-11 1 -31 1q-27 0 -41 -8q-21 -4 -57 -22q-22 -10 -35 -23q-62 -56 -93 -87q-3 -5 -9.5 -16.5t-9.5 -17.5q7 0 7 -6l-2 1l-2 1q-1 1 -1 2q-1 2 -1 3q-17 0 -24 -13l-21 -28q2 -8 2 -11q-1 -2 -3 -4q-12 -7 -17 -16q-8 -14 -13 -31q-1 -7 -11 -13q-7 -5 -9 -8 q-15 -28 -16 -36q0 -3 -6 -15q-4 -7 -6 -22z" glyph-name="c" horiz-adv-x="519" unicode="c"/><glyph d="M243 136q-10 -5 -30.5 -14t-31.5 -13q-7 -4 -20 0q-3 1 -6 6.5t-2 8.5l5.5 11t6 12.5t5.5 10.5q4 6 8.5 20t8.5 20t7.5 12.5t7.5 14.5l6 12l21 39q10 18 12 22q11 32 17 41q3 4 21 38q8 16 9 23q4 13 9 17q11 11 25 37q24 44 37 66l12 15q4 4 12.5 4t12.5 -4q7 -6 10 -9 q13 -22 28 -49q4 -9 6 -18q3 -19 11 -42q4 -10 1 -18q-1 -8 -6.5 -26t-6.5 -28q-1 -4 -5 -12l-18 -33q-8 -15 -18 -26q-26 -29 -29 -34q-2 -4 -8 -10q-14 -14 -44 -40q-4 -4 -11 -7q-9 -4 -32 -22l-10 -8t-11 -9t-10 -8zM221 662q18 -34 33 -47q9 -7 4 -17q-14 -30 -22 -47 q0 -3 -1.5 -13t-2.5 -16q-2 -11 -9 -16q-10 -5 -14 -12q-14 -24 -40 -72q-25 -44 -36 -73q-2 -7 -8.5 -18t-8.5 -16q-12 -35 -27 -49q-15 -27 -17 -34q-5 -15 -24 -51q-7 -13 -21.5 -38.5t-21.5 -38.5t-4 -30q0 -7 5 -11q7 -9 14 -13t30.5 -15t34.5 -19q4 -3 13 -5 q6 -1 16.5 -5t15.5 -5q6 -2 13 0q4 1 13 3.5t13 3.5q7 1 18.5 5t14.5 5q4 1 9.5 2t12.5 2t11 2q5 0 13 4q24 10 49 23q7 3 19.5 12t19.5 12q8 4 41 32q11 10 22 15q17 7 36 28q11 17 23 22q24 13 33 31q6 9 20.5 24.5t18.5 20.5q5 10 8 15q2 4 6.5 12t8 14.5t6.5 12.5 q2 3 5 13.5t6 15.5q4 12 5 18q4 66 0 99q0 8 -2 12q-5 8 -11 26t-10 26q-3 4 -12 19.5t-15 24.5q-28 28 -72 65q-43 36 -62 65q-1 2 -5 4q-7 9 -17 9t-26.5 1t-30 1.5t-25.5 0.5q-15 0 -41 -2q-9 -1 -17 -9.5t-9 -16.5q0 -2 0.5 -6t0.5 -6z" glyph-name="d" horiz-adv-x="555" unicode="d"/><glyph d="M86 28q2 -1 6 -2.5t6 -2.5l54 -15q3 0 8.5 -2t7.5 -2q8 -3 16 -3q10 -1 28 -1q10 2 17 4q16 6 26 6h6q25 0 44 8q3 1 9 2t7 1q12 1 27 8q5 3 23 11t27 13q8 5 15 15q1 1 2 2.5t1 2.5q10 14 5 31q0 4 -4 10q-7 12 -23 12q-16 2 -28 -4q-10 -4 -30 -14q-1 0 -18 -2.5 t-25 -6.5q-8 -3 -23 -4t-21 -3q-4 0 -6 -1q-22 -10 -55 -4q-27 3 -44 22q-14 16 -14 34q0 30 9 47q2 10 8.5 27t8.5 24q3 11 15 16q32 12 42 13q6 0 16 4q5 3 16.5 5.5t15.5 4.5q7 2 19.5 7.5t17.5 7.5q16 2 48 12q23 7 48 16q9 7 29 23l8 8q3 1 4 4q7 6 7.5 17t-4.5 18 q-2 3 -7 8q-12 15 -35 13q-3 0 -11 -2q-24 -8 -38 -9q-1 -1 -4.5 -2t-5.5 -1q-6 -3 -18.5 -6t-18.5 -6q-7 -4 -21 -5.5t-17 -2.5q-2 -1 -7.5 -3t-8.5 -3t-11 -1q-4 -1 -7 2.5t-1 7.5q21 54 45 86q11 15 23 37q15 26 33 48q28 13 43 14q6 1 15 3.5t12 3.5q5 2 15 3t13 2 q1 0 5 2q12 6 27 7q9 0 21 5q14 4 16 5q19 2 28 5q7 3 31 10q11 8 29 26q8 10 2 20q-4 8 -10 13q-7 8 -19 11h-6q-29 3 -106 -1q-2 -1 -5 -2t-5 -1q-14 -6 -28 -6q-6 0 -22 -2q-8 0 -16 -3q-14 -6 -27 -6q-38 -2 -55 -2q-2 -1 -5.5 -2.5t-5.5 -2.5q-35 -18 -78 -31 q-6 -1 -26 -8q-5 -2 -12 -11q-7 -10 -3 -21q7 -21 19 -32q3 -2 7 -8q6 -7 3 -15q-9 -19 -28.5 -56t-29.5 -55q-24 -48 -37 -72q-6 -14 -12 -18q-12 -12 -14 -34q0 -6 -4 -16q-2 -3 -3.5 -8t-3.5 -7q-5 -8 -10 -24t-8 -21q-1 -1 -6 -26q0 -5 -3 -10q-4 -9 -6 -37 q-3 -34 16 -67q15 -24 27 -35q16 -14 23 -20z" glyph-name="e" horiz-adv-x="499" unicode="e"/><glyph d="M429 696q-8 0 -17.5 -0.5t-21.5 -1.5t-18 -1q-9 0 -21 -4q-14 -6 -42 -4q-5 0 -9 4q-5 5 -15.5 14.5t-15.5 14.5q-3 3 -9 5q-20 5 -37 1q-1 0 -5 -2q-14 -7 -21 -22q-2 -3 -3 -8t-2 -7q-2 -9 -10 -18q-13 -11 -23 -12q-13 -1 -37 -1q-12 -2 -16 -2q-17 -3 -19 -23v-5 q2 -16 11 -22q16 -9 36 -31q6 -5 6 -14q0 -17 -4 -25q-3 -6 -8 -17t-7 -15q-4 -27 -11 -41l-2.5 -5t-2.5 -4q-7 -13 -8 -25q0 -5 -7 -24q-8 -26 -10 -30q-2 -5 -3.5 -15.5t-2.5 -14.5q-11 -27 -24 -40q-3 -3 -1 -10q1 -2 4 -10q4 -16 0 -41q-1 -2 -2 -5t-1 -5q-4 -10 -5 -15 q-1 -17 -9 -35q-1 -8 -7.5 -26t-7.5 -28q0 -1 -3 -10q-3 -6 -7 -19.5t-7 -19.5q-5 -12 -3 -31q1 -10 9 -18q10 -13 35 -24q12 -6 25 -3q18 3 24 18q0 1 0.5 2.5t1.5 2.5q11 41 11 45q0 3 2 5q8 17 8 41q2 10 6 19q3 8 5 20q0 1 1 7t2 9q4 7 9 40q6 12 9 19q6 7 12 10 q22 10 35 12q8 0 15 3q12 4 26 6q10 2 15 4q17 7 36 7q10 0 26 6q8 3 16 3l-32 -4q8 0 16 3q13 5 26 5q17 0 47 2q15 0 26 4q9 4 16 5t28 13q11 7 7 19q-1 1 -2.5 4l-2.5 5q-9 13 -27 21.5t-32 9.5q-68 2 -68 3t4 2q-1 0 -27 -8q-32 -2 -52 -2q-17 -2 -26 -6q-10 -4 -31 -4 q-15 0 -12 12l6 30q0 1 0.5 2.5t0.5 2.5q2 6 9 25t10 29q0 3 1 5q2 3 6.5 13t7.5 15q3 4 5.5 14t4.5 15q15 29 19 48q14 26 36 28q18 2 26 5q8 4 26 6q4 0 11 0.5t10 0.5q9 1 20 5q12 4 36 10q31 -10 57 0q15 5 26 5q14 1 28 15q2 2 6 8q9 9 1 24q-6 9 -19 18q-6 4 -9 5 q-24 4 -37 8q-16 6 -36 -1q-9 -3 -11 -4z" glyph-name="f" horiz-adv-x="494" unicode="f"/><glyph d="M78 140l-9 3q-9 6 -4 11q3 3 9 3q2 -1 5 -1t4 -1q4 -3 4 -7q0 -10 -9 -8zM79 108q54 -26 55 -26q9 -4 25.5 -9t23.5 -7h2q2 -1 3 -1q47 -4 75 8q6 3 15 -1q6 -3 4 -8q-1 -6 -6.5 -17l-6.5 -13q-8 -24 -12 -35q-3 -13 7 -22q3 -3 11 -9q15 -8 30 0q8 4 29 18q14 9 21 21 q17 29 20 37t15 35q6 11 6 13q3 10 13 30q3 5 6.5 14.5t4.5 11.5q3 7 7.5 21t6.5 19q13 35 14 39q2 10 8.5 28t7.5 21q3 8 8 17q2 6 10 10q2 1 14 6q28 12 41 19q10 5 19 16q7 8 7 19t-8 19q-2 2 -6 5.5t-5 4.5q-9 6 -19 6q-32 2 -51 -6q-2 -1 -29 -9q-26 -8 -39 -11 q-22 -4 -35 -8q-16 -5 -30 1q-11 4 -14 5q-37 7 -65 -10q-5 -3 -7 -11q-3 -16 8 -26q7 -7 11 -9q26 -16 37 -23q4 -1 13.5 -2.5t13.5 -2.5q5 -1 13 -7q7 -5 4 -13q-5 -15 -8 -26q-7 -32 -28 -49q-11 -7 -19 -16q-15 -14 -33 -22q-6 -2 -32 -14q-3 0 -10 -0.5t-11 -0.5h-31 q-9 0 -19 5q-2 1 -7 2.5t-7 2.5q-12 6 -19 16q-6 11 -7 13q-5 8 -5 17q-2 38 2.5 54.5t27.5 51.5q2 2 3 4q5 5 8 11q19 32 35 46q1 2 3.5 6t4.5 6q4 5 12.5 17t15.5 20.5t14 15.5l3 3q5 9 36 40q11 11 35 33q10 9 20 22q4 8 14 13q7 4 21 14q16 15 43 25q20 4 29 6 q6 -2 16 -6t13 -5q12 -6 30 -4q1 0 2.5 0.5t2.5 0.5q8 2 10 9q4 15 -3 32q-1 5 -5 8l-14 14q-24 20 -45 20q-8 -1 -30 6q-16 3 -31 -1q-1 0 -6 -1.5t-8 -2.5q-16 -2 -38 -15q-39 -24 -52 -37q-42 -37 -51 -46q-2 -2 -5 -5.5t-5 -5.5q-2 -3 -32 -36q-4 -3 -10 -11 q-6 -11 -22 -25q-5 -5 -13.5 -14t-12.5 -13q-25 -40 -38 -51q-26 -37 -30 -43q-35 -53 -50 -101q-2 -24 0 -47q1 -3 2 -7.5t1 -6.5q1 -4 4 -10t3 -7q3 -9 9 -17q8 -10 11 -16q6 -10 15 -18z" glyph-name="g" horiz-adv-x="553" unicode="g"/><glyph d="M395 121q8 33 10 38q19 61 32 88q4 8 4 15q2 12 10 32q15 37 25 79q0 2 1 5.5t2 4.5q4 6 7 19.5t5 17.5q5 12 13 36q0 1 4 15.5t8 21.5q2 8 7 22.5t6 19.5q1 11 7.5 30.5t8.5 27.5q8 15 8 49q0 14 -9 25q-12 16 -23 23q-8 7 -16 4q-7 -2 -20 -4.5t-17 -3.5 q-20 -4 -22 -22q-2 -35 -11 -54q-2 -5 -2 -16q-1 -14 -6 -27q-9 -22 -15 -47q-1 -4 -5 -14.5t-6 -18t-2 -15.5q0 -1 -3 -10q-1 -2 -5 -11t-6 -14q-5 -12 -9 -32q-3 -16 -16 -28q-11 -9 -19 -10q-3 0 -17.5 -1t-21.5 -4q-15 -6 -37 -8q-9 0 -27 -6q-16 -5 -38 -2q-4 1 -7 5.5 t-2 7.5q5 10 13 30q2 5 5.5 15.5t5.5 15.5q2 4 4.5 13t4.5 13q2 6 7 17.5t6 13.5q3 5 6 17.5t7 18.5q3 6 5 21q2 10 4 16q4 13 12 37q4 14 5 21l6 27q1 5 -2 10q-13 18 -35 35q-7 6 -16 4q-14 -4 -21 -2q-3 2 -6 0q-19 -8 -25 -20q-7 -14 -7 -21q-2 -18 -2 -27 q-1 -16 -8 -32q-1 -11 -16 -58l-6 -18t-6 -19q-1 -2 -2.5 -5.5t-1.5 -4.5q-1 -3 -8.5 -20t-9.5 -26q-4 -9 -10 -27t-9 -25q-8 -24 -9 -26q-6 -14 -25 -67q-10 -31 -12 -37q-11 -26 -13 -30q-3 -6 -6.5 -18.5t-6.5 -18.5l-21 -45q-3 -6 -8.5 -22t-9.5 -24q-3 -4 -21 -57 q-2 -8 3 -21q8 -15 22 -24q16 -10 31 -7q15 2 25 10q1 1 5.5 5t6.5 6q9 8 12 19q13 47 31 82q14 27 18 46q14 29 23 56q2 9 10 20q2 5 7 7q4 2 12.5 4t9.5 2q17 7 32 7q18 0 27 1q10 0 22 5q2 0 7.5 1.5t8.5 2.5q2 0 43 6q2 2 4 -3q5 -9 2 -21q-1 -6 -6 -18t-6 -19 q-1 -3 -4 -10t-4 -10q-13 -29 -24 -73q-1 -6 -5 -16q-2 -5 -6 -20t-7 -22q-2 -6 4 -16q7 -11 27 -27q2 -1 10 -4q9 -2 28 0q8 1 15 6q11 7 16 15q18 36 19 56q12 28 17 41z" glyph-name="h" horiz-adv-x="533" unicode="h"/><glyph d="M533 609q9 -7 6 -18q-2 -6 -9 -11.5t-12 -6.5q-2 0 -7 -1t-7 -1q-33 -1 -51 -1q-27 0 -46 -2q-6 0 -18 -6q-3 -1 -6 -6q-7 -7 -7 -17l-5 -35q0 -9 -3 -13q-1 -4 -3 -10.5t-3.5 -12t-2.5 -10.5q0 -14 -7 -33q-5 -10 -5 -19q-1 -16 -6 -27q-7 -20 -9 -34q-3 -13 -3 -14 l-1 -3v-3q-9 -15 -9 -33q-1 -17 -9 -32q-2 -4 -4 -11.5t-2 -8.5q-1 -4 -3 -11t-3 -10q-4 -4 -4 -12q0 -2 -1 -6.5t-1 -6.5q-1 -11 -7 -27q-3 -6 -8 -27q0 -3 -0.5 -10t-0.5 -11q0 -1 -2 -8t-4 -11q-4 -11 8 -18q-1 0 -4 1q51 0 60 1q15 2 19 4q1 1 8 3q12 4 25 -3t17 -10.5 t13 -17.5q6 -17 -6 -24q-5 -4 -6 -5q-4 -1 -12.5 -5t-12.5 -5q-8 -5 -14 -5q-57 -3 -61 -3h-61q-13 0 -21 -4q-18 -6 -27 -6q-65 -3 -116 -2q-24 3 -39 12q-11 5 -15 14l-9 19q-4 13 5 26q6 6 12 7q9 3 19 3h69q12 0 22 -0.5t18 -0.5h3q-3 2 0.5 4.5t7.5 5.5t4 6q-4 8 -2 19 q0 9 5 21q8 17 10 39q0 9 5 19q7 16 7 27q4 25 9 33l5 14q0 1 0.5 3l0.5 2q1 3 2 8t1 6q8 18 10 40q4 16 6 20q9 18 9 32v8q5 16 6 19q4 8 6 20q0 6 1 17.5t1 16.5q2 15 6 27q6 14 6 27q0 15 -2 21q0 15 -16 17q-3 2 -8 2q-16 0 -26 -5q-19 -8 -41 -8h-21q-13 0 -25 7 l-18 10q0 1 -1.5 2.5t-2.5 3.5q-6 13 -1.5 24.5t14.5 16.5q17 8 25 12l20 4q1 0 76 3q13 0 27 6q15 5 27 5q38 1 114 1q35 0 74 -3q8 0 13 -4q9 -3 24 -12q2 -2 6 -5t5 -4z" glyph-name="i" horiz-adv-x="520" unicode="i"/><glyph d="M454 665q-1 -4 -1 -12q0 -15 -1 -23q0 -38 -8 -56q-2 -20 -18 -76q-1 -9 -6.5 -25t-6.5 -24q-1 -7 -5 -19.5t-6 -18.5q-2 -9 -9.5 -28t-9.5 -30q0 -3 -2 -5q-22 -54 -31 -72l-18 -33q-3 -6 -9.5 -17t-9.5 -16q-6 -10 -27 -35t-30 -34q-5 -4 -15.5 -12.5t-16.5 -12.5 q-6 -5 -19.5 -12t-15.5 -8q-8 -4 -14 -4h-24q-6 0 -9 1q-9 6 -26.5 9.5t-19.5 4.5q-5 2 -14.5 6t-17 7.5t-13.5 7.5q-8 7 -28 7q-10 0 -16.5 -9t-6.5 -22q0 -15 7 -25q21 -27 32 -35q5 -2 12 -8t8 -6q21 -16 36 -17q9 -1 18 -6q10 -5 19 -5q16 -2 48 -2q25 2 37 8q5 3 10 3 q14 0 36 15q2 2 7 6.5t8 6.5q2 2 6.5 4.5t6.5 3.5q3 3 8 7.5t7 6.5q13 9 17 12q1 1 3.5 3t3.5 3q21 25 34 41q26 31 30 37q3 4 8.5 14t8.5 14l6 9q5 6 16 29q8 17 21.5 50t19.5 46q11 28 12 31q3 7 7 21.5t6 21.5q5 20 16 59.5t17 59.5q4 18 5 28q1 2 1.5 5.5t0.5 5.5 q6 15 8 39q0 7 4 15q10 31 -5 60q-8 13 -13 17l-21 12q-3 0 -8 0.5t-7 0.5q-9 0 -19 -5q-1 -1 -3.5 -2.5t-4.5 -3t-4 -3.5q-9 -6 -12 -16z" glyph-name="j" horiz-adv-x="575" unicode="j"/><glyph d="M608 638q2 17 -7 33q-1 2 -7 13q-8 13 -20 13q-14 1 -40 1q-1 0 -5 -2q-6 -2 -8 -5q-12 -17 -12 -33v-5q0 -21 -12 -38q-28 -43 -34 -50q-11 -13 -12 -16q-11 -17 -29 -34q-4 -5 -13.5 -14.5l-14.5 -14.5q-11 -10 -35 -28q-6 -4 -34 -30q-1 0 -2 -1l-2 -2 q-5 -3 -14.5 -9.5t-14.5 -9.5t-9 1q-5 3 -3 9l2.5 7.5t3 8.5t3.5 8q4 6 7.5 19t6.5 19q0 1 0.5 2.5t1.5 3.5t1 3q1 11 16 58q5 13 5 25q0 24 5 35q2 6 -2 14q-2 6 -4 10q-7 16 -24 25q-3 3 -9 3q-25 2 -45 -1q-5 -1 -10.5 -6.5t-6.5 -10.5q-2 -6 -2 -10q0 -7 -0.5 -20 t-0.5 -20q0 -11 -2 -15q-4 -10 -8 -34q-2 -6 -6 -17.5t-5 -16.5q-1 -4 -5.5 -15.5t-5.5 -17.5q-1 -2 -2.5 -5.5t-1.5 -4.5q-25 -58 -27 -65q-19 -41 -21 -46q-15 -37 -19 -46q-33 -72 -87 -177q-17 -31 -23 -38q-3 -5 -7 -14t-7 -13q-2 -7 3 -15q9 -12 25 -24q5 -3 10 -3h20 q3 0 4 1q28 12 37 25q17 21 18 30q1 5 7 13q5 7 13 21q7 13 20 38.5t19 38.5q11 22 33 68q2 4 10 10t14 1q8 -3 11 -9t7 -15.5t5 -12.5q1 -6 7 -22.5t6 -26.5q9 -31 10 -39q0 -4 3 -10q2 -6 7.5 -24t9.5 -28q2 -5 7.5 -22t9.5 -26q7 -17 21 -27q6 -4 9 -4q18 -5 34 4 q1 1 4 2.5l5 2.5q6 6 6 7q3 8 7 24q3 8 0 15q-5 20 -5 25v15q-2 14 -6 24q-1 2 -4 10q-1 9 -10 44q-1 8 -5 22t-5 17q-1 4 -5.5 17.5t-5.5 21.5q-1 7 -6.5 21t-5.5 22q0 3 -3 9t-3 10q0 11 4 14q29 21 33 23q6 4 18 13t19 13q12 8 34 30l7 7q16 16 27 22q4 2 11 9 q17 17 25 26q2 3 5.5 8t6.5 9t6 7q9 11 30 40q12 18 20 35q5 10 15 32q8 13 8 35z" glyph-name="k" horiz-adv-x="570" unicode="k"/><glyph d="M174 346q-3 -5 -8 -3l-3 3q3 5 8 3zM122 3q10 -2 12 -2q21 -1 96 1q1 0 3 0.5l4 1t3 1.5q15 6 31 6q11 0 16 2q21 8 47 10q8 0 15 4q4 2 15 5t17 6q8 6 14 12t22 16q5 4 7 14q2 12 -1 21q0 4 -1 5q-4 6 -7 7q-5 2 -17.5 4.5t-18.5 5.5q-4 3 -10 1q-28 -8 -41 -13t-26 -5 q-5 -1 -16 -1q-6 0 -16.5 -3.5l-13.5 -4.5q-16 -3 -32 -3q-4 0 -36 -8q-1 0 -3 -0.5t-3 -0.5q-4 0 -11 0.5t-10 0.5q-12 0 -14 13q-2 12 -2 16q2 25 8 36q5 9 13.5 28t9.5 21q4 19 18 44q0 1 1.5 4.5t2.5 5.5q1 8 4.5 16t8.5 17.5t7 15.5q10 20 11 24q3 13 21 49 q34 70 52 105q13 29 14 34q1 6 4 11.5t7.5 11.5t6.5 9q2 4 2 5q3 13 21 49q1 3 4 9.5t5 9.5q4 10 -2 20q-12 15 -27 27q-12 7 -23 11q-28 12 -48 -11q-9 -11 -10 -19q-2 -8 -7 -21t-7 -19q-4 -12 -13 -29q-1 -2 -2.5 -5.5t-1.5 -4.5q-2 -13 -18 -44q-9 -20 -22 -37 q-2 -3 -4 -10t-3 -10q-9 -21 -20 -43l-18 -39q-2 -9 -5.5 -17.5t-9.5 -20t-8 -15.5q-5 -9 -14 -29t-14 -29q-6 -9 0 -20q3 -8 2 -10q-1 -7 -11 -5q-1 0 -5 -2q-3 -8 -11 -24q-2 -15 -13 -34q-5 -8 -9.5 -25.5t-8.5 -24.5q-2 -3 -2 -11q-2 -17 1 -32q2 -10 6 -14 q27 -32 52 -53q7 -5 14 -8q3 -2 9.5 -5t8.5 -4z" glyph-name="l" horiz-adv-x="445" unicode="l"/><glyph d="M355 689q-1 1 -4 2t-5.5 2.5t-4.5 2.5q-11 5 -20 2q-1 0 -31 -3q-8 -1 -16 -10q-3 -3 -3 -4q-7 -16 -36 -52q-2 -1 -6 -3.5t-6 -3.5q-22 -2 -32 -3q-8 0 -16 -10q-2 -2 -10 -16q-2 -8 -4 -11q-35 -88 -45 -105q-4 -11 -5 -15q-5 -13 -21 -53.5t-23 -62.5 q-17 -46 -41 -107q-6 -17 -9 -23q-8 -14 -20 -42t-13 -31q-11 -29 -20 -45q-3 -18 1 -32q1 -12 12 -17q6 -4 38 -20q3 -1 8 -3t8 -2q15 -2 24 6l8 12q13 28 21 38q1 4 4 14t4 16q1 7 7 19q9 15 10 17q15 37 22 49q3 5 8 18t9 18q5 7 11.5 20.5t9.5 19.5q6 10 7 12q1 4 30 64 q1 2 4 6t5 7.5t3 7.5q9 22 25 55q35 62 37 64h4q2 -2 2 -4q4 -9 2 -22q-3 -18 -3 -40q3 -18 -3 -36v-20q0 -4 -0.5 -11t-0.5 -10q-5 -15 -3 -41q0 -2 -1 -7t-1 -7q-4 -22 -4 -32q1 -11 -2 -25q-2 -10 -3 -14q-4 -32 -16 -70q-3 -7 -6.5 -22t-5.5 -22q-2 -10 8 -20 q7 -9 28 -26q5 -3 15 -5q6 0 16 -0.5t15 -0.5q15 2 21 12q9 11 10 23q1 5 3 13.5t3 11.5q3 12 26 69q16 44 28 64q5 7 11.5 23.5t9.5 22.5q2 3 25 46l2 4t1.5 3.5t1.5 3.5t2 3q14 18 21 34q3 7 10.5 19t9.5 16q7 14 34 59q2 2 4 2q4 0 6 -1.5t1 -3.5q-2 -14 -3 -22 q0 -6 -2 -20q-2 -7 -6.5 -29t-7.5 -34q-11 -61 -12 -66q-1 -4 -3 -14q-2 -18 -4 -32q-2 -5 -3.5 -14.5t-2.5 -14.5q-9 -41 -9 -45q-7 -46 -13 -64q-8 -30 -8 -45q1 -3 -0.5 -8t-1.5 -7q-8 -24 17 -41q4 -4 18 -14q6 -3 9 -3q24 -4 36 -2q8 1 16 11l6 18q14 49 14 65v5 q1 3 3.5 15.5t4.5 18.5q1 5 2.5 17t3.5 19q3 6 3.5 18.5t1.5 16.5q4 13 4 30q2 13 3 15q4 14 6 20q4 11 4 25q1 6 3 20q2 5 3.5 16.5t4.5 17.5q1 5 2.5 15t3.5 15q1 4 3 16t4 18t4 16.5t3 14.5q2 6 3.5 17.5t3.5 17.5q0 1 1 12.5t2 17.5q0 2 2 4q2 21 5 32q2 6 2.5 18.5 t1.5 16.5q5 12 3 45q0 17 3 32l-7 14q-5 11 -22 25q-8 6 -19 8q-23 2 -47 0q-12 -2 -21 -9q-26 -25 -61 -71q-3 -3 -8 -13q-3 -7 -11 -21q-17 -17 -29 -41q-4 -6 -30 -50q-3 -7 -11.5 -18.5t-10.5 -14.5q-1 -1 -4 -1q-8 0 -8 6q3 12 1 26q0 8 -1.5 25.5t-2.5 26.5 q-2 19 2 31q1 5 1 16q-2 16 -6 52q-2 8 -7 13q-9 16 -28 28z" glyph-name="m" horiz-adv-x="686" unicode="m"/><glyph d="M295 47l6 -4t4 -3q11 -10 25 -8q1 0 4 0.5t5 0.5q15 3 22 16q1 2 4 7t4 8q2 7 8.5 18.5t8.5 16.5q2 6 15 35q19 39 28 66q2 8 7 15q4 7 9 21t8 19q6 9 17 42q4 10 7 15q31 64 47 105q6 8 20 45q10 32 13 37q11 20 23 56q7 20 4 34q0 4 -2 12q-11 21 -25 32q-6 4 -10 4 q-3 0 -9 -0.5t-8 -0.5h-3l-2 -1q-12 -12 -16 -20q-5 -13 -5 -16q-3 -9 -11 -27.5t-12 -28.5q-14 -34 -22 -51q-3 -7 -8 -20.5t-8 -20.5q-4 -7 -10.5 -22.5t-10.5 -22.5q-4 -6 -10 -22t-11 -22q-5 -16 -20 -39q-6 -9 -11 -25q-4 -12 -14 -23q-6 -4 -8 0q-2 2 -2 5q0 7 -2 23 q-1 34 -3 102.5t-3 103.5q-1 14 -2.5 43.5t-1.5 44.5q-1 4 -2.5 12t-1.5 11q0 12 -10 18q-18 18 -42 17q-8 -1 -18 -3q-7 -3 -7 -4q-15 -16 -32 -48q-6 -15 -23.5 -50.5t-23.5 -56.5q-2 -2 -3.5 -6.5t-3.5 -7.5q-2 -5 -6.5 -14.5t-8 -17t-6.5 -13.5q0 -1 -17 -48 q-1 -2 -3.5 -9.5t-4.5 -10.5q-13 -27 -25 -62q-1 -3 -3 -10.5t-4 -10.5q-5 -8 -12 -23.5t-10 -21.5q-12 -32 -24 -55q-23 -50 -26 -61q-1 -3 -3.5 -7.5t-3.5 -6.5q-15 -34 -27 -53q0 -1 -0.5 -2.5t-1.5 -2.5q-3 -10 1 -17q1 -8 6 -16q4 -9 12 -17q18 -16 39 -12q7 2 12 5 q2 1 6 5t6 5q2 6 9.5 20.5t10.5 23.5q8 18 13 24q5 7 11.5 22.5t10.5 21.5q4 5 6 15q18 44 26 54l2.5 5t2.5 4q3 10 12.5 28t12.5 28q6 11 15.5 35t11.5 29q24 33 33 49q1 1 4 3q6 5 7 -2q3 -6 3 -11q1 -28 3 -82q2 -32 7 -47v-11q-3 -12 1 -23q3 -12 4 -17q1 -13 2 -38.5 t2 -38.5q2 -15 6 -20q6 -8 16 -28z" glyph-name="n" horiz-adv-x="535" unicode="n"/><glyph d="M208 406q4 5 16 18.5t18 20.5q27 43 91 100q1 1 2 2.5t2 2.5q5 5 7 15l3 24q2 10 9 14q16 13 33 6t21 -10q5 -3 7 -9q2 -4 2 -12q0 -31 -1 -47q0 -12 -2 -18q-6 -13 -8 -40q-2 -13 -6 -23q-4 -9 -5 -17q-6 -28 -6 -29q-3 -8 -9 -27t-11 -28q-3 -5 -12 -28 q-10 -29 -27 -52q-10 -13 -15 -25q-10 -21 -26 -39q-6 -6 -8 -9q-11 -21 -49 -59l-38 -38q-29 -29 -51 -41q-4 -2 -14 -9q-11 -6 -22 2q-9 7 -10 15q-2 5 -5 15.5t-4 12.5q-6 20 0 41q4 9 5 17q1 4 2 11t2.5 12.5t4.5 10.5q7 30 17 50q5 8 11 24.5t10 24.5l21 42q8 18 14 26 q9 11 31 53zM-18 101q2 -7 5.5 -18.5t4.5 -15.5q2 -8 10 -22q16 -31 51 -56q6 -3 17.5 -11t17.5 -11q5 -3 17 -5q4 -1 12 -1q36 0 41 1t16.5 5t17.5 6q20 8 37 19q46 32 64 52q4 4 24 25q20 20 29 30q3 4 21 29q4 5 11.5 14t10.5 13q5 10 15.5 25t13.5 20q34 52 39 73 q2 7 10 21q8 18 13 27q0 1 3 6.5t4 9.5q1 8 5.5 21t5.5 18q2 8 2 12q1 20 9 40q1 3 1.5 6t1 6.5t0.5 5.5q2 22 7 40q4 13 4.5 38.5t-3.5 38.5q-4 12 -8 34q0 14 -5 24q-16 24 -19 29q-1 1 -3 5q-7 9 -18 15q-27 13 -38 15q-3 0 -5.5 1t-6 2.5t-5.5 2.5q-6 1 -12 0 l-10.5 -3.5t-11.5 -3.5q-14 -2 -38 -16q-9 -5 -12 -13q-6 -18 -10 -27q-3 -9 -11 -14q-2 -1 -6 -2.5t-5 -1.5q-4 -2 -12 -4.5t-14.5 -5t-12.5 -5.5q-8 -3 -19 -13t-13 -12q-4 -2 -10 -6q-1 -1 -6.5 -5t-7.5 -6q-27 -27 -35 -41q-2 -5 -9.5 -13t-8.5 -10q-14 -14 -20 -22 q-6 -7 -39 -59q-1 -1 -3.5 -4t-3.5 -5q-5 -7 -6 -11q-10 -16 -22 -42q-11 -21 -31 -63q-5 -10 -5 -11q-3 -12 -13 -34.5t-11 -26.5q-2 -16 -4 -23q0 -3 -2 -8.5t-3 -8.5q-4 -10 -4 -17q-2 -29 1 -53z" glyph-name="o" horiz-adv-x="498" unicode="o"/><glyph d="M392 642q8 0 15 -1q6 0 10 -2q5 -2 17 -5.5t19 -6.5q6 -3 9.5 -10.5t0.5 -13.5q-16 -32 -35 -47q-5 -4 -19.5 -16t-22.5 -17q-18 -14 -30 -16q-4 -2 -7 -5q-3 -1 -14.5 -8.5t-19.5 -9.5q-5 -2 -17 -7.5t-19 -7.5q-13 -8 -17 -8h-5q-5 0 -9 6t-3 10q2 10 5.5 28t5.5 26 q6 24 12 34q2 4 3.5 11.5t2.5 9.5q3 12 10 17q9 6 17 10q23 17 38 20q18 9 38 9h15zM251 730q-4 -3 -11.5 -7.5t-13.5 -8.5t-11 -8q-19 -11 -40 -27q-5 -5 -7 -14q-2 -26 -2 -39q0 -12 -3 -23q-18 -85 -29 -110q-1 -3 -2.5 -8t-2.5 -7q-14 -44 -15 -46q-1 -10 -8 -26t-8 -19 q-12 -54 -23 -78q-2 -9 -6.5 -26.5t-5.5 -20.5q-1 -2 -2 -6.5t-2 -8t-2 -6.5q-5 -10 -12 -30.5t-10 -28.5q-2 -6 -6.5 -18t-6.5 -18q-1 -3 -18 -55q-10 -26 -11 -29q-2 -8 -2 -12q0 -22 15 -37q9 -11 18 -15l11 -5.5t10 -5.5q8 -4 14 0q2 1 21 13l18 30q6 8 11 24q3 18 9 31 q14 42 17 57q2 6 4 9q9 21 12 41q1 3 2.5 8.5t2.5 7.5q4 10 10 29t9 27q12 36 18 56q1 6 9 24q7 10 16 10q11 0 32.5 0.5t32.5 1.5q11 0 15 2q20 10 32 11q1 0 3 1t3.5 1.5t2.5 0.5q6 3 18 7.5t18 8.5q4 3 14.5 7t15.5 8q17 3 34 18q10 6 28 18q16 9 28 19q4 3 12 11.5 t13 12.5q6 4 15 13.5t13 13.5q12 10 15 27q6 24 9 37q2 6 1 11q-2 28 -9 47q-1 2 -2.5 6t-1.5 5q-2 3 -17 26q-6 7 -18 18t-16 15q-11 9 -20 13q-3 1 -8 4t-7 4q-9 6 -61 24q-7 2 -40 2q-35 0 -70 -3q-9 0 -15 -3q-3 -1 -37 -12z" glyph-name="p" horiz-adv-x="513" unicode="p"/><glyph d="M207 55q-26 18 -32 22l-21 30q-2 3 -4 10t-3 9q-9 22 -9 51q0 9 0.5 26t0.5 25q2 15 3 16q5 15 7 35q0 5 2 15q5 8 6.5 25t3.5 23q2 7 8.5 22t8.5 19q4 27 11 39q5 9 11 27t10 25l14 28t11 23q16 28 18 32q7 8 11 17q16 30 33 46q5 6 14 18.5t14 18.5q7 7 14 4q1 0 5 -2 q6 -2 10 -4q6 0 20 -2q17 -2 23 -18l3 -12t4 -12q4 -14 4 -21q1 -7 1.5 -20.5t0.5 -20.5q0 -79 -1 -119q-2 -31 -6 -40l-3 -15q0 -3 -0.5 -10t-0.5 -11q1 -18 -12 -44q-1 -4 -5 -3.5t-7 4.5q-2 2 -6 8l-2.5 5t-2.5 4q-5 11 -17 19q-4 2 -10 4q-13 0 -20 1q-12 0 -20 -4 q-16 -8 -23 -12q-5 -3 -8 -12.5t0 -15.5l9 -18q20 -44 22 -53q1 -5 5 -12.5t5 -10.5q7 -15 8 -19q1 -6 5 -15t5 -14q2 -10 -2 -15q-7 -11 -21.5 -32.5t-21.5 -32.5q-13 -19 -36 -28q-19 -8 -37 -3zM104 36q9 -6 11 -8q20 -16 70 -34q12 -4 46 -4q6 0 18 0.5t18 0.5 q18 0 39 12q5 2 13 8q4 2 9.5 7t6.5 6q2 2 4.5 3.5t3.5 2.5q4 4 12.5 1.5t9.5 -8.5q8 -26 13 -39q0 -5 14 -49q8 -26 27 -44q11 -11 23 -20q6 -4 20 -2q3 0 5 2q8 6 12 10q9 9 12 22q2 31 -5 46q-5 15 -5 20q-3 16 -9 29q-2 5 -3.5 17.5t-4.5 18.5q-3 7 -5.5 24.5t-6.5 25.5 q-1 2 -1 6q-1 2 -1 4q-1 2 -2 9.5t-3 10.5q-7 15 -7 35q0 17 5 25q3 5 5 14.5t5 14.5q3 6 6.5 17.5t5.5 16.5t5 15t5 15q2 4 7 35q1 1 1 2q1 2 1 3q5 11 7 35q0 18 6 35q3 7 3 16q1 10 1 31q0 8 0.5 23t0.5 23q3 45 5 51l-3 15q-3 24 -3 47q0 20 -7 35q-3 8 -3 15 q-1 13 -10 29l-15 27q-3 7 -10 11q-6 4 -9 5q-13 9 -30 9q-10 1 -31 1q-20 0 -35 8q-6 2 -9 2q-16 2 -37 -1q-3 0 -5 -1q-24 -12 -30 -18l-26 -26q-15 -13 -23 -28q-3 -6 -13 -16q-11 -13 -12 -16q-30 -47 -35 -58l-30 -60q-4 -7 -10.5 -21t-9.5 -21q-1 -7 -5.5 -18.5 t-5.5 -15.5q-14 -46 -14 -50q-1 -3 -3.5 -10t-3.5 -9q-1 -4 -2 -12.5t-2 -13.5q0 -2 -2 -4q0 -2 -2 -7t-2 -8q-4 -24 -8 -35q-1 -1 -3 -16q-1 -8 -1 -25q-1 -16 -6 -31q-6 -18 0 -35q5 -23 5 -26q2 -20 3 -29q2 -5 4 -11q1 -3 7.5 -16.5t10.5 -20.5q3 -6 11.5 -16t11.5 -14z " glyph-name="q" horiz-adv-x="507" unicode="q"/><glyph d="M367 554q-7 -8 -18.5 -26t-22.5 -30.5t-26 -19.5q-1 -1 -7.5 -2.5t-13.5 -3.5t-8 -2q-5 -2 -10 1q-3 6 -2 10q3 6 13 30.5t11 26.5q4 12 10 28l6 21q3 11 10 23q8 3 15.5 1.5t8.5 -1.5q8 2 21 -3t16 -6q8 -2 8 -12v-11q-6 -14 -11 -24zM377 692q-32 4 -68 4 q-34 -2 -51 -10q-3 -2 -13.5 -3.5t-23.5 -7.5q-13 0 -18.5 -9.5t-5.5 -19.5v-16q2 -22 2 -36q0 -1 -11 -39q-7 -26 -16 -43q-3 -7 -17 -38q-5 -7 -9.5 -21.5t-5.5 -16.5q-13 -29 -25 -68q-2 -6 -6.5 -18.5t-6.5 -20.5q-7 -14 -17 -41.5t-16 -39.5q-1 -2 -4 -10 q-1 -6 -13 -34q-3 -6 -7 -18t-6 -16q-44 -90 -67 -133q-3 -6 -14 -22t-6 -29q0 -6 3 -9t29 -22q3 -3 8 -3h22q15 9 23 12q6 4 7 6q22 30 28 43q21 38 48 98q4 12 14 34t14 32q1 1 8 19q6 16 14 34q3 5 6 16.5t7 17.5q2 2 4 9q1 3 5.5 3.5t6.5 -1.5q11 -8 17 -20q2 -2 4 -6.5 t3 -5.5q10 -11 28 -46q15 -30 29 -53q7 -15 9 -19q20 -33 35 -74l6 -9q11 -16 26 -24q3 -2 4 -3q22 -2 32 2l14 7q7 4 7 13q1 5 4 16.5t3 17.5q-8 29 -19 53q-17 33 -21 48q-2 7 -14 28q-5 5 -11.5 16t-8.5 14q-17 39 -39 73q-2 4 -12 21.5t-15 27.5q-1 2 -2.5 7t-2.5 7 q3 8 10 12q9 5 35.5 11t36.5 15q6 7 16 13q12 7 17 12q24 23 40 41q11 8 15 20q10 12 12 16q4 6 8 14q4 14 6 20q6 10 6 25v41q0 7 -4 11q-8 23 -20 33q-13 11 -17 13q-44 24 -59 29z" glyph-name="r" horiz-adv-x="487" unicode="r"/><glyph d="M148 511q-2 -4 -2 -9q-4 -38 0 -92q0 -11 5 -21q2 -6 4 -16q3 -16 9 -31q6 -17 16.5 -49t15.5 -49q2 -5 4 -15q1 -13 8 -32q4 -15 -2 -32q-4 -10 -5 -15q-1 -14 -19 -32q-14 -9 -19 -10q-1 0 -5 -1t-5 -2q-16 -10 -42 -10q-59 0 -70 1q-17 1 -49 1q-16 0 -33 -3 q-12 -2 -16.5 -11.5t-0.5 -21.5q0 -1 2 -5q8 -10 27 -27q3 -3 9 -5q4 -1 12.5 -4t12.5 -5q5 -2 17.5 -5.5t19.5 -6.5q4 -2 15 -2q28 -1 82 -1q30 0 47 8q17 3 36 13q21 10 30 12q8 2 18 12q25 21 36 53q0 1 0.5 3l1 4t1.5 3q10 19 10 53q0 7 -0.5 21.5t-0.5 21.5q0 13 -4 21 q-4 11 -6 21q-1 10 -7 26q-3 7 -7.5 23t-7.5 23q-1 7 -6.5 20.5t-6.5 21.5q-5 8 -9.5 24.5t-6.5 21.5q-3 8 -3 15q-3 25 0 49q0 4 3 12q1 2 4 6t5.5 7.5t4.5 7.5q10 19 30 39q5 5 15.5 15t15.5 15q11 10 22 15q26 14 39 18q23 7 36 -5l21 -18q25 -27 35 -35q4 -2 12 -5.5 t12 -5.5q5 2 15.5 5t15.5 4q1 1 2.5 2t2.5 1q3 2 6.5 8.5t2.5 9.5q-3 7 -7 21q-3 15 -11 24l-4 6t-4.5 6.5t-3.5 5.5l-12 18q-10 12 -57 42q-5 5 -40 14h-6q-25 0 -37 -4q-12 -5 -21 -5q-3 0 -36 -11q-13 -4 -15 -6q-6 -5 -18.5 -12.5t-22 -14.5t-16.5 -15q-11 -12 -35 -34 q-42 -41 -60 -90z" glyph-name="s" horiz-adv-x="482" unicode="s"/><glyph d="M103 586q7 0 11 0.5t4.5 1t0.5 1.5t0.5 2t4.5 1.5t11 0.5q29 0 83 2q2 0 5 -0.5t5 -0.5q14 -2 0 -30q-8 -20 -9 -23q-5 -11 -23 -48t-28 -58q-4 -10 -13 -30.5t-14 -31.5q-1 -2 -17 -46q-2 -4 -2 -5q-2 -10 -10 -28t-10 -26q-3 -12 -12.5 -32.5t-11.5 -26.5 q-1 -3 -3.5 -11t-4.5 -12q-2 -7 -7 -18.5t-7 -17.5q-2 -8 -9 -24t-7 -17q-2 -4 -5.5 -13t-5.5 -14q-6 -16 -8 -23q-1 -7 3 -15q8 -15 19 -21q12 -6 27 -12q6 -3 14 -1q3 1 9 4.5t8 4.5q15 7 22 25q1 2 2 6q1 2 1 3q2 7 6 20t5 18q7 16 19 50q3 7 9.5 24t9.5 27q9 20 19 49 q3 7 8 20.5t7 20.5q10 27 19 46q6 11 6 13q3 15 12 32q19 41 52 111l4 8t5 9q17 26 23 48q0 1 0.5 2t0.5 2q6 12 20 34l2 2t2 1q3 1 9.5 2.5t9.5 2.5q14 6 28 6l2 1l1 1q11 0 29 6q5 2 14 2q2 0 40 3q25 2 37 8q3 1 8 2t7 2q22 11 28 18q3 4 11 10q6 10 2 14q-4 13 -14 26 q-3 5 -12 8q-1 0 -4.5 0.5t-5.5 0.5q-19 0 -122 -5q-4 0 -19 -5q-1 0 -14 -3q-4 0 -8 -1t-8 -1q-26 -1 -32 -1q-5 0 -19.5 -3t-23.5 -2q-7 -3 -15.5 3.5t-14.5 6.5q-36 -1 -84.5 -6.5t-89.5 -5.5q-9 0 -29 -2q-8 0 -14 -3q-3 -2 -9 -5t-9 -5q-6 -3 -8 -11q0 -12 1 -15 q8 -21 18 -28q11 -5 24 -16q30 -7 34 -9z" glyph-name="t" horiz-adv-x="432" unicode="t"/><glyph d="M299 309q-27 -43 -44 -67q-27 -43 -39 -54q-2 -2 -5 -7t-4 -6q-7 -11 -21 -23q-2 -2 -9.5 -7t-9.5 -10q-3 -5 -12.5 -11.5t-11.5 -8.5q-3 -3 -6 -5.5t-7.5 -6t-6.5 -5.5q-1 -1 -4 -3q-2 -1 -7.5 -1t-7.5 2q-11 11 -12 23t-1 72q2 28 8 41q1 2 1.5 4.5t1 5.5t0.5 5 q2 13 6 25q3 6 5 20q2 10 4 15q1 4 9 21t10 27q20 42 26 51q10 14 26 44q6 12 19.5 34t14.5 24q2 2 33 53q1 1 2 5t1 5q3 12 -2 26q-7 20 -22 27q-14 9 -29 9q-17 0 -26 -1q-6 -1 -14 -7q-5 -5 -6 -8q-7 -13 -20.5 -39t-20.5 -39q-5 -13 -12 -23q-7 -8 -17 -26 q-15 -31 -19 -37l-7 -10.5t-7 -11.5q-2 -5 -5 -14t-6 -14q-6 -12 -19 -49q-3 -8 -7 -24q-1 -3 -3.5 -9.5t-3.5 -10.5q-6 -16 -8 -25q-1 -4 -2.5 -12.5t-2.5 -12.5q0 -1 -0.5 -2.5t-0.5 -2.5q-8 -15 -8 -40q-1 -16 -6 -31q-3 -8 -3 -15q0 -6 -0.5 -18t-0.5 -18q0 -16 6 -31 q1 -3 2.5 -10t2.5 -10q10 -28 27 -43q6 -6 17.5 -16.5t16.5 -15.5q12 -4 34 -12q14 -5 31 -2q1 0 8.5 2.5t11.5 3.5q12 3 24 9q31 16 48 30q4 2 5 2h5q7 -1 9 -11q0 -5 0.5 -15.5t0.5 -15.5q2 -15 8 -25q12 -21 37 -23q15 -2 26 1q10 2 14 6q17 15 23 28q-1 3 -2 8t-2 7 q-2 47 5 66l3 26q0 20 7 35q3 7 3 16q1 4 3.5 12t3.5 12q24 72 32 88q2 2 2 5q5 17 18 42q14 28 17 44q3 5 6.5 17t5.5 17q2 4 6.5 14t6.5 14t4 14.5t5 15.5q3 4 5 14q3 11 10 19q8 10 9 18q1 4 3.5 10.5t3.5 8.5q6 12 17 34.5t15 30.5q6 12 1 26q-11 19 -13 22q-3 7 -12 9 q-27 7 -57 1q-3 0 -9 -4q-15 -13 -17 -25q-1 -7 -11 -29q-5 -8 -10 -12q-1 -1 -4 -3.5t-4 -3.5q-2 -2 -2 -4q-2 -5 -6.5 -18.5t-6.5 -21.5q-1 -2 -17 -38v-2q-1 -2 -1 -3q-1 -7 -6.5 -20t-6.5 -19q-2 -7 -8 -19.5t-8 -18.5q-4 -12 -23 -58q-1 -11 -4 -23z" glyph-name="u" horiz-adv-x="507" unicode="u"/><glyph d="M194 -7q18 16 28 30l12 24q26 52 39 69q4 5 10.5 15.5t10.5 15.5q5 5 13 17t12 17q13 15 34 46t28 40q3 7 11.5 18.5t11.5 16.5q3 6 7.5 11.5t9.5 12t8 10.5q4 6 30 44q8 12 12 17q4 4 11 12t11 12q4 5 10 15t10 15q6 6 14.5 19.5t13.5 19.5q3 7 20 31q22 36 30 68 q1 2 2 5.5t1 4.5q-6 23 -19 38q-5 7 -13 7h-27q-7 0 -14 -5q-19 -19 -24 -28q-3 -7 -12 -18t-12 -18t-13 -19.5t-13 -19.5q-15 -19 -20 -25q-4 -5 -10 -15.5t-10 -15.5q-4 -4 -9.5 -13t-9.5 -13q-8 -9 -23 -30.5t-25 -32.5q-4 -4 -10.5 -15t-10.5 -15q-14 -14 -21 -31 q-6 -11 -27 -39q-4 -5 -11.5 -15.5t-10.5 -14.5q-4 -6 -13 -17t-13 -16q-1 -1 -4 -3h-6q-4 1 -6 7q0 1 -3 32v95q-2 27 -4 32q-5 13 -5 26q0 14 -2 42q0 19 -5 31q-3 5 -3 10q-1 9 -17 60q-14 15 -25 21q-3 2 -7 4.5t-7 3.5q-9 4 -21 4q-14 1 -31 -2q-15 -2 -19 -17 q-3 -18 3 -31q10 -22 15 -32q4 -22 7 -33q6 -20 6 -31t2 -37q0 -5 2 -15q5 -14 5 -32q0 -22 0.5 -66t0.5 -66q1 -17 1 -50.5t1 -50.5q0 -14 5 -31q6 -21 0 -42q0 -2 -1 -5.5t-2 -4.5q-2 -12 5 -20l30 -30q10 -7 19 -8q20 -5 37 4z" glyph-name="v" horiz-adv-x="500" unicode="v"/><glyph d="M307 193q2 -11 2 -24q2 -56 8 -69q1 -4 1 -16q0 -14 1 -21q1 -8 9 -24q23 -23 48 -23q14 0 22 7q3 3 11 8.5t11 11.5q1 5 5.5 17t5.5 19q6 21 26 61q11 14 21 41q12 26 25 54.5t28.5 63t24.5 53.5q4 9 27 60t37 76q5 10 22.5 48.5t27.5 58.5q3 17 0 34q-4 18 -19 21 q-20 4 -48 2q-11 0 -19 -14l-3 -9q-26 -53 -46 -99q-18 -45 -31 -61q-4 -11 -7 -14q-2 -7 -10 -24q-5 -10 -14.5 -32.5t-17.5 -39t-17 -30.5q-3 -4 -7 -13t-5 -11q-5 -10 -13 -28q-1 -3 -5 -2.5t-6 4.5q-2 2 -5 8q0 3 -1 10.5t-1 11.5q0 10 -0.5 31.5t-0.5 31.5q0 15 -4 26 q-2 5 -4 15t-2 11q0 3 -4 9q-3 8 -9 12q-5 3 -14 6l-12 4q-5 3 -10 3q-27 7 -45 -12q-4 -6 -15 -13q-25 -36 -32 -58q-4 -6 -8 -13q-28 -45 -40 -71q-4 -11 -8 -14q-8 -12 -11 -24q-18 -33 -21 -41q-4 -2 -5 -2q-2 0 -2 5q-4 8 -4 11q0 7 1.5 24.5t1.5 26.5t4 27q0 2 2 7 t2 7q1 10 1 28q0 31 6 47q2 5 2 14q1 10 1 28q2 32 6 41q0 1 3 17q0 31 2 47q0 3 3 15q0 7 3 15q-10 20 -12 25q0 3 -9 11q-6 1 -16 5t-12 5q-3 1 -10 1q-20 4 -35 -10q-5 -3 -7 -13q-1 -11 -1 -31q2 -34 0 -64q0 -7 -7 -37q0 -2 -1 -7.5t-1 -8.5q-2 -45 -8 -58 q-1 -4 -1 -14q-1 -14 -1 -38q-2 -19 -6 -26q-2 -7 -2 -25q0 -11 -0.5 -32.5t-1.5 -31.5q0 -12 -5 -27q0 -2 -0.5 -7.5t-1.5 -7.5v-6v-132q0 -15 7 -25q3 -10 22 -29q1 -1 8 -3q22 -6 42 0q10 2 13 7q12 12 16 19q6 8 16.5 26t16.5 26q4 7 10.5 20t12.5 24t12 20l9 18 q1 3 9 19q6 7 17 31q4 11 13.5 30t11.5 22q1 6 7 13q4 6 7 6q5 0 5 -7q2 -10 2 -26q0 -20 6 -39z" glyph-name="w" horiz-adv-x="597" unicode="w"/><glyph d="M353 -33q3 4 9.5 12t9.5 12t5 14q0 1 0.5 4.5t0.5 5.5q1 11 -2 94q0 4 -2 10q-6 13 -6 34q-2 19 -7 35q-3 9 -3 19q-2 20 -6 29q0 2 -1 5t-2 5q0 4 -0.5 10t-0.5 10q-1 5 -1 15q0 6 -3.5 17.5t-3.5 16.5q-1 7 2 14l6 9q4 4 13.5 14t14.5 15t12.5 15.5t11.5 15.5 q2 3 6.5 8t6.5 7q9 9 10 11q8 14 42 50l9 12q7 12 31 39l46 46q28 28 42 43q2 2 4 9q4 11 0 29q-2 8 -8 13q-15 9 -17 10q-10 6 -24 6h-25q-9 -2 -13 -6q-22 -20 -28 -29q-5 -9 -25 -31q-7 -7 -21 -21.5t-21 -21.5q-1 -2 -6 -7t-7 -8q-5 -10 -21 -28q-17 -19 -27 -35 q-2 -3 -7 -8t-6 -7q-3 -3 -7 -3t-6 3q-10 24 -10 39q0 12 -2 34q0 11 -2 15q-2 6 -3.5 12.5t-3 14.5t-2.5 12q0 2 -2 4q-10 14 -18 18q-7 4 -18 8q-17 8 -39 1l-18 -9q-14 -8 -10 -27q0 -1 1 -2t1 -2q8 -18 9 -29q0 -8 3 -14q5 -12 5 -30q0 -8 0.5 -22.5t0.5 -21.5 q2 -14 4 -20q3 -8 3 -15q1 -12 1.5 -26t1 -31.5t0.5 -26.5q0 -7 -6 -19l-1 -2q-1 -2 -2 -2q-3 -3 -13.5 -15t-14.5 -20q-22 -24 -33 -31q-8 -6 -11 -10q-7 -11 -19 -23q-40 -43 -73 -75q-10 -10 -13 -15q-10 -16 -36 -42q-5 -5 -14 -14.5t-13 -14.5q-13 -13 -21 -34v-6v-4 q-1 -4 4 -8q17 -11 24 -11t22 8q17 7 38 23q3 3 15 10t17 13l11 11q44 43 131 130q4 4 12 10q1 2 6.5 1t7.5 -3q8 -10 9 -17q1 -6 2 -18.5t2.5 -22.5t5.5 -18q1 -2 1.5 -7.5t0.5 -7.5q0 -16 2 -44q0 -9 4 -25q8 -26 -2 -49q-2 -2 -2 -4q-3 -18 7 -28q14 -14 23 -20 q3 -2 9 -2q7 2 29 7q2 1 7 2.5t7 2.5z" glyph-name="x" horiz-adv-x="500" unicode="x"/><glyph d="M564 642q1 5 -1 15q-2 15 -16 24q-13 7 -29 12q-12 4 -32 0q-22 -5 -31 -18q-8 -15 -17 -26q-2 -3 -5.5 -8.5t-5.5 -8.5q-5 -15 -19 -30q-15 -18 -19 -29q-2 -3 -5 -9q-18 -23 -22 -29q-4 -5 -9.5 -15.5t-8.5 -14.5q-1 -2 -3.5 -4.5t-2.5 -3.5l-7 -10.5t-7 -11.5 l-8.5 -17l-10 -20l-8.5 -17q-1 -2 -3 -4q-1 -2 -7 -3t-7 1q-7 3 -8 7q-26 31 -36 54q-3 4 -19 35q-5 6 -10.5 19.5t-9.5 19.5q-1 6 -22 50q-1 3 -5 6.5t-5 4.5q-12 10 -38 16q-3 1 -12 1t-25 -4q-19 -5 -19 -23q2 -16 6 -23q10 -14 11 -28q4 -18 11 -27q3 -8 4 -10 q3 -14 13 -31q4 -12 19 -34q10 -15 11 -18q3 -6 11 -18t10 -16q5 -8 17 -24q3 -8 12.5 -22t10.5 -16q2 -3 16 -25l5 -10q2 -10 -1 -19q-1 0 -1 -2t-1 -2q-5 -8 -13 -24.5t-10 -20.5q-1 -3 -10.5 -21.5t-13.5 -28.5q-3 -7 -7 -14q-4 -5 -9 -16t-7 -15q-12 -17 -13 -32 q0 -2 -2 -4q-5 -7 -11.5 -20.5t-10.5 -19.5q-7 -11 -23 -51q-4 -16 0 -34q2 -5 10 -11q26 -10 41 -12q1 1 14.5 6t19.5 9q16 17 23 33q10 22 10 23q6 9 26 55q6 15 15 31q6 9 11 23l9 18q6 10 19.5 36.5t22.5 39.5q2 3 4.5 9.5t3.5 8.5q8 19 21 40q22 42 28 59q4 7 5 9 q1 3 3.5 6.5t4.5 6.5t4 7t3 7q2 4 7.5 13.5t7.5 12.5l15 27q1 2 6 11.5t8 14.5q13 23 15 26q4 5 11 14.5t8 10.5q14 19 17 25q6 11 33 45q5 7 15 19l15 18z" glyph-name="y" horiz-adv-x="464" unicode="y"/><glyph d="M129 463q31 7 49 18q11 6 33 16q4 3 15 5q14 1 29 8q4 2 11 2q2 1 7 -1.5t6 -4.5t1 -5.5t1 -5.5q0 -1 -2 -5q-14 -28 -28 -46q-7 -10 -21 -30.5t-22 -29.5q-4 -4 -10 -13t-9 -13q-4 -5 -12 -14.5t-12 -14.5q-14 -17 -17 -21q-6 -11 -22 -29q-12 -14 -17 -21 q-11 -19 -39 -51q-10 -10 -24.5 -31.5t-20.5 -28.5q-1 -1 -2.5 -4.5t-2.5 -4.5q-12 -24 -14 -29q-5 -12 -5 -21q-2 -19 1 -32q2 -9 8 -14q13 -10 37 -28q20 -7 26 -8q32 -11 55 1q6 3 20 5q9 1 20 5q10 4 15 5q15 1 30 8q8 2 26.5 8.5t28.5 7.5q4 0 10 2q11 6 35 8l15 3 q17 7 30 8q6 0 16 4t14 5q27 5 30 7q7 3 19.5 4t16.5 2q3 1 8 2.5t7 1.5q10 4 15 4q5 1 17 1.5t19 2.5q2 1 17 5t23 5q2 1 5 2t5 1q28 14 42 22q8 4 8 13q1 4 -1 10q-1 3 -3.5 8l-3.5 7q-3 5 -11 11q-17 12 -40 10q-27 -3 -30 -4q-11 -5 -26 -5q-6 0 -18 -1t-18 -1 q-12 0 -20 -4q-10 -4 -30 -6q-26 0 -41 -7q-3 -2 -20 -4q-17 -3 -21 -4q-16 -6 -40 -8q-5 0 -15 -4q-16 -6 -25 -6q-11 -2 -20 -6q-10 -5 -25 -5q-16 -1 -30 -7q-10 -4 -30 -10q-1 0 -5 2q-13 6 -4 17l16 20q16 20 23 31q4 7 17 20q2 2 8 9.5t8 11.5q7 14 22 30q10 11 28 33 q4 7 9 14.5t12 15.5t10 13q2 3 5.5 8.5t6.5 10t6 8.5q9 9 16.5 19t17 24.5t13.5 20.5q2 3 5.5 9.5t5.5 9.5q10 13 27 52q8 17 13 41q5 18 1 33q0 6 -3 10q-24 34 -50 35q-4 1 -12.5 4t-12.5 3q-18 4 -30 -1q-15 -5 -26 -5q-20 -2 -31 -2q-6 -1 -20 -5q-11 -4 -15 -5 q-13 -1 -39 -11q-16 -5 -48.5 -16.5t-49.5 -17.5q-1 0 -2.5 -0.5t-2.5 -1.5l-3 -3l-3 -6q-5 -12 -1 -32q0 -1 1 -2.5t1 -2.5q6 -12 17 -20q28 -19 46 -24z" glyph-name="z" horiz-adv-x="500" unicode="z"/><glyph d="M163 502q-3 -19 -1 -41q0 -7 1 -9q8 -18 14 -25q22 -22 37 -29l10 -10q2 -2 2 -6t-2 -6q-20 -14 -44 -36q-13 -11 -16 -12q-7 -4 -27 -19q-5 -4 -22 -15t-25 -18q-2 -2 -12 -7q-6 -5 -18.5 -12.5t-17.5 -11.5q-16 -11 -36 -31q-1 -1 -3 -3.5t-3 -3.5q0 -1 -1 -2l-2 -2 q-8 -10 1 -22q15 -17 28 -25q18 -10 24.5 -11.5t30.5 2.5q1 1 2.5 1t2.5 1q1 -1 2.5 -1t2.5 -1q16 -6 33 2q5 4 13 7q1 1 10.5 9.5t14.5 12.5q5 5 11 8q5 2 24 13.5t31 16.5q9 5 21 13q3 3 8 3q4 0 5 -1q1 0 1 -3q-4 -6 -29 -31l-12 -11q-13 -12 -18 -19l-27 -33 q-2 -2 -4 -8q-2 -3 -4.5 -10t-3.5 -11q-5 -9 -3 -18q0 -12 1 -18q5 -9 20 -29q32 -25 39 -31q15 -13 38 -20q2 -1 7 -2t7 -2q13 -6 34 -6q8 -1 24 -1q23 0 34 2q8 1 24 7q3 0 5 1q11 1 21 10q15 8 6 24q-2 4 -8 12q-6 6 -12 6q-35 3 -64 2h-29q-11 0 -19 4q-2 1 -7 2.5 t-7 2.5q-23 10 -18 34q2 8 6 12l8 9q8 8 11 13q8 13 28 31q8 8 24 23.5t24 22.5q10 8 16 11q17 10 39 34q3 5 7 10t9 10.5t7 8.5q4 6 5 8q3 15 2 28q-2 8 -10 15l-4 2q-6 4 -14 6.5t-17.5 5t-14.5 4.5q-4 1 -10 0q-14 -5 -38 -3q-8 2 -4 7q1 3 5 7q7 7 25 15q12 8 20 20 q6 10 18 32q5 9 5 22q1 12 -9 21q-14 9 -21 11q-10 4 -23 7q-17 5 -28 -5q-16 -14 -25 -21q-8 -6 -12 -8q-6 -3 -18 -7q-5 -2 -11.5 1t-8.5 8q0 1 -1 4q-2 15 1 27q0 5 3 9q5 9 17 27q6 8 10 11q46 46 100 92q34 17 40 21q17 13 43 20l16.5 5.5t21.5 6.5q2 0 17 8q2 0 2 3 q-6 17 -17 33q-1 4 -7 6q-23 14 -51 5q-14 -5 -42 -13q-20 -7 -40 -18q-2 -1 -19 -12t-24 -18q-2 -2 -6 -4.5t-6 -3.5q-2 -2 -8 -5.5t-8 -5.5q-11 -11 -24 -22.5t-28.5 -26t-24.5 -22.5q-20 -18 -30 -36q-13 -15 -21 -35z" glyph-name="braceleft" unicode="{"/><glyph d="M230 91v-44q0 -10 -0.5 -27.5t-1 -32t-1.5 -27.5q0 -10 -1 -13q-6 -17 -6 -33q-1 -8 -4 -16q0 -1 -2 -5t-2 -7q-2 -6 0 -11q5 -19 19 -27q16 -7 28 -7h21q6 0 9 1q8 3 10 7q12 17 12 35v8q0 11 2 71l3 12q1 4 -1 12v9q3 7 3 24q1 23 1 70v226q0 35 0.5 105.5t0.5 106.5 q0 58 2 87q0 20 3 29q1 4 1 12q2 20 -4 32q0 3 -0.5 6.5t-1.5 8t-1 6.5q0 5 -3 7l-18 18q-3 5 -15 7q-7 1 -21 -1q-17 -6 -17 -21q1 -26 1 -76q-1 -51 -1 -154q0 -4 -0.5 -12t-0.5 -12q0 -8 -2 -13q-4 -7 -4 -16v-42q-1 -38 -1.5 -112.5t-0.5 -112.5q0 -22 -5 -32v-9 q2 -4 2 -8q5 -6 0 -16q-2 -8 -3 -13z" glyph-name="bar" unicode="|"/><glyph d="M300 -111q8 3 25 10.5t27 9.5q3 1 6 2.5t6.5 3.5t5.5 3q23 13 41 27q4 3 10 11q9 15 30 39q5 6 6 13q12 34 13 53q0 1 5 19q2 11 -1 19q0 1 -3 12t-3 17q0 17 -4 24q-2 6 -5.5 17t-6.5 16q-12 22 -26 35l-11 11q-12 10 -20 14q-31 15 -45 18q-2 1 -4 3q-1 1 -1 4 q4 7 11 10q5 2 14.5 5t13.5 5q3 1 13 3.5t15 4.5q8 4 19 4h17.5t17.5 1q6 2 8 5q6 8 8 12q6 9 6 19v20q-1 7 -6 13q-5 5 -8 6q-23 12 -41 16q-13 6 -29 6q-23 0 -39 6q-1 0 -14 3q-10 0 -30 2q-5 0 -7 5q0 3 2 5q8 10 13 14l36.5 36.5t37.5 36.5q22 24 30 39q2 3 6.5 9.5 t6.5 10.5q1 3 1.5 9.5t1.5 11.5t3 9q3 6 0 14l-3 9q-3 14 -11 22q-14 14 -19 20q-9 4 -24 12t-22 11q-7 2 -22.5 7.5t-24.5 7.5q-2 0 -6 2q-2 1 -3 1q-8 2 -10 2q-30 2 -44 0q-9 -2 -10 -3q-13 -5 -24 -5q-10 -2 -14 -3t-10.5 -3.5t-12 -4.5t-10.5 -4q-19 -8 -35 -18 q-4 -2 -10.5 -6.5t-12 -8t-10.5 -6.5l-2 -2l-2 -2q-8 -8 -2 -18q12 -16 21 -20q11 -6 23 -18q2 -2 4 -3.5t4.5 -3t3.5 -2.5q2 -2 7 -2t7 2q9 5 19 15q17 15 40 20q4 1 11.5 4t11.5 4q5 1 14.5 2t14.5 2q2 0 19 6q14 3 24 -1q15 -4 22 -11q5 -3 3 -8q-1 -4 -3.5 -8.5t-6 -9.5 t-5.5 -8q-7 -13 -11 -16q-42 -45 -73 -73q-13 -11 -16 -12q-7 -4 -20 -15l-24 -21q-42 -23 -60 -38q-3 -2 -3.5 -8.5t1.5 -9.5q18 -27 34 -35q4 -2 11 -7.5t9 -7.5q7 -5 13 -5q20 -2 30 -4q3 0 4 -3q2 -2 2 -6.5t-2 -6.5q-8 -8 -20 -22q-6 -8 -4 -19q1 -3 2.5 -8t1.5 -6 q-1 -2 -5 -9q-9 -9 -13 -14q-5 -7 0 -14q12 -13 38 -39q8 -8 22 -8q16 2 20 4q14 7 42 14q21 6 36 -10q11 -11 13 -20q1 -7 5 -19q5 -13 5 -24q0 -5 -0.5 -13t-0.5 -12q0 -7 -1 -10q-2 -5 -5 -16t-5 -17q-10 -24 -20 -34l-10 -10q-16 -18 -31 -24q-5 -2 -8 -6 q-11 -9 -31 -14q-26 -8 -29 -8q-6 -1 -15.5 -4t-12.5 -4t-10 -1h-59q-13 2 -19 5q-1 1 -10 3q-5 2 -9 0q-13 -4 -7 -16q11 -14 46 -45q2 -2 8 -4q8 -2 24 -8q8 -2 14 -2q18 -1 55 -1q9 0 19 5q6 3 14 3q20 2 23 3z" glyph-name="braceright" unicode="}"/><glyph d="M103 305q15 -9 29 -14q7 -2 10 3q10 10 14 15q4 4 8.5 8t9.5 9.5t8 8.5q5 3 20 11q4 1 8 1q11 -2 18 -7q25 -27 34 -47q2 -7 6 -10q6 -7 16.5 -17t15.5 -16q16 -13 33 -10q7 2 25 4q28 13 36 18q7 3 14 8q11 9 17 11q7 4 17.5 13.5t16.5 12.5q5 3 6 7q7 8 23 24 q12 15 14 30v8q-1 6 -7 20q-1 1 -2.5 3t-2.5 3q-12 9 -25 12q-11 2 -19 -5q-12 -10 -19 -21q-7 -12 -19 -20q-33 -25 -39 -28t-16 -13q-1 -1 -3.5 -2t-3.5 -1q-16 -5 -27 -4q-3 0 -7 4q-1 1 -10 12q-3 7 -16 24q-7 4 -32 32q-34 20 -61 27q-2 0 -5.5 -0.5t-6.5 -0.5 q-19 -2 -31 -14q-34 -26 -49 -44q-6 -14 -10 -23q0 -1 -1 -3q-2 -12 2 -17q2 -2 6 -6.5t5 -5.5z" glyph-name="asciitilde" unicode="~"/><glyph d="M262 -67q8 2 26 6q6 3 9 9q2 5 5 15.5t6 15.5q2 6 2 9q3 21 9 42q0 1 3 14q3 28 3 29q0 5 2 13q5 10 5 19q1 12 2.5 37.5t2.5 37.5q0 11 5 24q3 9 3 18q1 27 5 81q2 26 6 38q2 4 2 14q0 2 6 86q0 1 -0.5 4t-0.5 5q-2 11 -8 16q-1 1 -7 4t-9 5q-7 4 -17 4q-18 0 -21 -1 q-10 -3 -12 -12q-3 -6 -3 -8q0 -32 -3 -62q0 -10 -3 -14q-3 -11 -5 -33q-3 -33 -3 -67q-5 -28 -7 -33q-2 -4 -2 -14q-1 -12 -3 -37.5t-3 -38.5q0 -10 -3 -13q-4 -16 -6 -33q0 -21 -8 -37q0 -5 -2 -16t-2 -17q-3 -5 -7 -13.5t-5 -11.5q-7 -14 -7 -37q0 -7 2 -9q11 -17 18 -21 q5 -2 13 -9t12 -9zM332 717q-21 4 -35 1q-8 -1 -13 -9.5t-3 -18.5q0 -3 1 -5q9 -25 19 -44q14 -14 21 -22q2 -3 6 -3q10 -1 18 0q12 2 14 17q6 24 4 52q0 12 -10 19q-3 2 -11 6.5t-11 6.5z" glyph-name="exclamdown" unicode="¡"/><glyph d="M187 366q0 -27 -7 -41q-2 -16 -4 -24q-1 -7 -11 -15q-5 -3 -9 -2q-17 5 -19 20v15q0 12 8 22q20 26 29 39l3 3q5 4 8 -1q2 -4 2 -5v-11zM249 671q-19 3 -40 1q-1 0 -3 -1t-3.5 -1.5t-2.5 -0.5q-6 -3 -9.5 -10.5t-1.5 -14.5q0 -1 0.5 -3t1 -3.5t1.5 -2.5q5 -8 7 -24t6 -23 q1 -3 1 -10q2 -32 1 -49q-1 -9 -8 -17l-15 -12q-17 -10 -31 -24q-9 -8 -26.5 -25t-26.5 -26q-8 -8 -18.5 -23.5t-13.5 -19.5q-7 -9 -15 -31q-5 -23 -2 -53q0 -7 2 -10q5 -16 13 -25q24 -29 55 -39q21 -8 23 -9q15 -6 11 -18q-6 -16 -6 -24q0 -13 -1 -19q-2 -10 -3 -14 q-8 -20 -6 -53q2 -9 7 -13q14 -10 30 -15q14 -3 23 6q11 8 25 36q1 7 6 22.5t6 24.5q0 6 3 14q4 7 6 24q0 2 0.5 7t0.5 7q1 7 5 14q7 10 19 16q2 1 5.5 2t6.5 2l6 2q33 15 40 19q4 2 12 8q8 7 19 14q3 4 8.5 12t8.5 12t5 14q2 17 -5 28l-2.5 5t-2.5 4q-3 5 -8 5 q-14 4 -29 -2q-7 -3 -21 -11q-8 -4 -29 -18q-6 -3 -8 3q-5 21 2 39q4 12 5 18q2 36 3 52q2 5 5 13.5t4 11.5q4 8 15 12q5 2 19 4h39q10 0 15 1q4 2 7 5t5 9q5 10 -2 17q-2 2 -4.5 5t-5 5t-4.5 4q-9 9 -22 10q-16 0 -24 1q-4 0 -12.5 0.5t-12.5 0.5q-11 2 -13 13 q-1 6 -1.5 18t-0.5 16q0 26 -6 38q-1 4 -2.5 12t-2.5 12q-2 8 -8 11q-2 1 -11 6.5t-14 7.5z" glyph-name="cent" horiz-adv-x="447" unicode="¢"/><glyph d="M131 466q3 -5 9.5 -14.5t9.5 -14.5q6 -13 19 -21q4 -3 17 -13.5t21 -14.5l7 -7q4 -5 -2 -8q-17 -12 -34 -12q-10 0 -22 -5t-13 -5q-25 -5 -27 -7q-4 -2 -13 -4.5t-13 -4.5t-13 -5t-13 -5q-29 -15 -53 -30q-8 -5 -10 -16q-3 -19 8 -32q15 -16 35 -24q3 -1 9 -1q15 0 21 1 l6 2q7 3 21 11q23 14 85 35q3 0 5 -1q8 -2 5 -10q-13 -31 -24 -48q-2 -2 -7 -13l-6.5 -13t-6.5 -14q-3 -10 -13 -26t-13 -21q-4 -8 -17 -23q-8 -10 -15 -25q-3 -7 -3 -15q0 -20 14 -36l3 -3q5 -1 13.5 -5t12.5 -6q13 -5 31 0q3 0 9 4q14 12 22 18q2 3 10 14t13 16 q18 16 28 18q12 6 38 18q58 4 95 0q43 -14 53 -19q10 -1 27 -16q14 -14 17 -30l3 -9q2 -6 9 -11q1 -1 9 -4t16 -6.5t9 -3.5q16 -3 27 4q1 0 8 5q7 4 9 16q2 8 0 25q-1 21 -16 41q-10 15 -31 29q-29 17 -35 23q-2 3 -8 5q-36 21 -81 32l-9 3q-9 5 -22 5q-52 2 -78 2 q-11 0 -7 10q2 6 8 18q22 53 25 64q7 17 20 18q3 1 9 1t9 1q12 2 13 3q13 5 23 5q18 2 26 2q21 8 42 23q8 5 10 15.5t-4 19.5q-1 1 -3 3.5t-3 3.5q-9 10 -24 12q-35 2 -69 0q-15 0 -23 -1q-6 -1 -18 -5q-2 -1 -8 3q-7 6 -12 15q-4 9 -18 23q-6 3 -18 13.5t-19 14.5 q-10 5 -21 19q-5 7 -5 14q-2 18 7 28q22 26 34 33q6 3 18 13q25 9 32 11q9 3 17 -3q17 -10 22 -25q3 -12 12 -21q10 -13 29 -23q15 -9 31 -4q10 2 15 11q5 12 0 29q-14 26 -22 38q-20 26 -39 43q-6 5 -36 20q-3 2 -9 4q-3 1 -14 3t-17 5q-10 4 -36 2q-6 -3 -18 -6.5 t-17 -5.5q-34 -17 -50 -35l-36 -39q-15 -16 -15 -40q0 -12 -4 -20q-2 -8 1 -15q4 -16 6 -23z" glyph-name="sterling" horiz-adv-x="578" unicode="£"/><glyph d="M331 163q4 3 11 7.5t12.5 8t9.5 6.5q10 7 10 21q-1 10 -9 16q-1 1 -4 2.5t-4 2.5q-18 10 -36 10q-4 0 -12 -0.5t-14.5 -0.5t-11.5 1q-11 0 -13 12v14q1 9 10 16q1 1 4 2t4 2q7 1 19 3q4 1 11.5 3.5t11.5 3.5q3 1 9 1q14 2 19 2q3 1 9 3.5t9 4.5q8 4 12 7q3 3 11 8.5 t11 9.5q2 2 2 4q3 12 -1 23q-2 6 -5 8q-16 10 -30 13q-10 3 -19 0q-3 0 -9 -2q-12 -4 -19 -5q-7 0 -21 -0.5t-21 -0.5q-7 -1 -12 6t-2 14l3 9q3 3 8.5 9t7.5 9q3 5 22.5 34t28.5 46q8 14 10 16q13 19 21 37q2 4 13 20q8 11 13 25q3 8 6.5 16t8 17.5t6.5 14.5q8 21 -7 36 l-6 6q-10 8 -22 10q-19 0 -28 -1q-14 0 -18 -14q-1 -3 -3 -10.5t-4 -11.5q-24 -50 -27 -56q-26 -47 -31 -53q-6 -7 -9 -17q-4 -9 -15 -25.5l-15 -22.5q-1 -2 -4.5 -5.5l-5.5 -5.5l-3 -3q-3 -3 -9 -2t-8 5q-1 2 -6 11.5t-6 14.5q-1 6 -5.5 16.5t-5.5 15.5q0 2 -14 35 q0 2 -2 4q-5 17 -33 74q-2 4 -10 10q-3 2 -9 4.5t-8 3.5q-9 3 -19 3q-12 0 -26 -9q-9 -5 -9 -15q0 -15 6 -23q14 -17 22 -42q5 -16 6 -17q5 -9 11 -27.5t10 -25.5q1 -7 25 -57q5 -6 13 -19.5t14 -19.5q19 -27 16 -53q0 -4 -3.5 -8.5t-7.5 -4.5q-4 -2 -5 -2q-32 0 -48 -1 q-6 0 -27 7q-4 -1 -13.5 -3.5t-13.5 -4.5q-12 -5 -14 -18q-3 -19 8 -31q6 -7 20 -21q5 -2 13.5 -5.5t11.5 -4.5q31 -3 54 -2q9 0 14 -1q8 -2 10 -9q1 -5 1 -14q0 -6 -4.5 -11t-10.5 -5h-38q-6 0 -18 -6q-1 -1 -3.5 -2.5t-3.5 -2.5q-5 -5 -6 -8q-5 -19 6 -31q16 -16 23 -24 q8 -8 21 -10q5 -1 15 -1q2 0 5 -1t4 -1q6 0 9 -10q0 -1 3 -47q0 -10 2 -14q1 -3 7 -32q1 -10 11 -15q5 -3 17 -9q14 -7 32 -4q8 2 12 8q12 17 11 35v29t-1 28q0 22 -3 33q-2 12 7 16q18 8 26 11q13 3 32 4z" glyph-name="yen" horiz-adv-x="465" unicode="¥"/><glyph d="M276 529v-127v-9q2 -14 9 -20l5 -5t5.5 -6t5.5 -5q5 -5 12 -6q14 -2 26 1q8 2 12 7q7 10 12 23q1 3 1 9q0 3 -2 9q-5 13 -5 26q0 19 -1.5 69.5t-0.5 78.5q0 50 -1 76q0 6 -1 8q-10 24 -18 31q-7 7 -11 7q-2 1 -25 9q-6 3 -13 -2q-8 -8 -8 -15q-2 -98 -2 -159zM273 106v-5 q0 -21 0.5 -61.5t0.5 -59.5q0 -17 5 -28l6 -15q7 -12 15 -19q2 -3 8 -5q18 -5 40 -2q11 3 19 14q3 5 3 10q1 8 1 45q-3 24 -4 27q-4 16 -4 37q-2 77 0 116v39q0 11 -1 17q-1 12 -7 20q-1 1 -3 3.5t-3 3.5q-9 9 -16 10q-22 3 -40 2q-10 -3 -15 -12q-4 -4 -4 -15 q0 -20 -0.5 -60.5t-0.5 -61.5z" glyph-name="brokenbar" unicode="¦"/><glyph d="M256 147h-8q-11 2 -15 9q-1 1 -2 4t-2 4q-6 10 -5 21q0 9 1 13q0 5 5 12q7 13 9 14q2 5 4 7.5t3.5 3t2.5 -0.5q7 8 12 12q15 11 29 12q17 2 30 -6q4 3 9 -4.5t11 -16t10 -7.5q5 2 7 -3q1 -7 0 -14q0 -9 -6 -16q-3 -3 -9 -9.5t-9 -9.5q-8 -10 -25 -17q-18 -9 -30 -8h-22z M199 510l12 -24q5 -5 12 -16t8 -13q5 -6 15 -16q10 -13 11 -14q2 -3 21 -28q5 -5 8 -11q2 -3 11.5 -22t13.5 -30q1 -4 -2 -8q-4 -8 -7 -11q-10 -6 -16 -8q-11 -4 -16 3q-1 1 -2.5 4t-2.5 4q-2 2 -7 4q-14 2 -22 -2q-4 -2 -12 -8.5t-13 -9.5q-3 -1 -7 -5q-6 -4 -10 -10 q-16 -24 -19 -29q-3 -7 -7 -21q-5 -8 -5 -17q0 -2 -6 -25q-3 -8 -1 -18q6 -16 8 -25l6 -12q17 -28 40 -40q10 -4 19 -18q0 -1 1 -2l3 -6q3 -7 13 -17q20 -17 23 -21q14 -17 6 -37t-22 -33q-23 -23 -50 -36l-12 -6q-10 -4 -33 -21v-4q7 -11 22 -22q3 -3 8 -3q20 -4 49 -2 q2 0 8 2q25 10 69 40l6 6l8 8l9 9l8 8q7 6 16 26q2 5 4 13v17q0 13 -4 22q-6 16 -10 25q-3 4 -11.5 12.5l-12.5 12.5q-6 6 -9 10q-6 6 3 10q61 30 80 41q10 10 12 11q12 11 19 30q3 6 3 13q3 39 1 66q0 7 -5 17q-10 22 -28 33q-3 2 -9 8q-6 14 -9 26q-5 16 -17 41 q-11 19 -13 22q-3 4 -9.5 14.5t-11.5 14.5q-5 12 -23 32q-4 4 -5 7q-4 7 -13.5 18.5t-12.5 16.5q-2 5 -5 15t-5 15q-3 9 2 17q7 16 10 20q25 29 46 40q18 16 54 29q6 3 13 0q8 -3 24 -11q6 -4 20 -10q4 -2 8 -2q11 -3 27 1q2 0 4.5 4t1.5 6q0 10 -6 16q-16 19 -32 31 q-8 8 -19 11q-8 2 -12 4q-12 4 -17 4q-36 3 -67 -2q-7 -3 -20 -9.5l-19 -9.5q-3 -2 -8.5 -7t-8.5 -8t-10 -6.5l-9 -4.5q-2 -2 -5.5 -5t-4.5 -4q-27 -27 -40 -41q-3 -8 -11 -24q-4 -29 5 -43q1 -8 3 -22z" glyph-name="section" unicode="§"/><glyph d="M460 780q0 7 -1 12q-2 6 -7 9q-17 12 -33 13q-5 0 -11 3q-1 0 -4 1q-4 0 -7 -3q-14 -8 -16 -22q0 -1 -4 -18t-8 -25q-1 -1 -1 -5q-1 -8 4 -15q13 -13 23 -14q3 -1 9 -3.5t9 -3.5q8 -3 19 4q10 12 13 19q3 6 5.5 12.5t4.5 14.5t4 13q1 2 1 8zM197 781q-15 0 -20 -2 t-10 -7.5t-5 -10.5q1 -7 1 -20q0 -6 4 -12q10 -10 14 -13t10 -7q5 0 23 -9q7 -2 10 4q4 2 8 8q5 7 7 16v7q1 17 -8 31q-4 4 -5 6q-3 1 -7 3q-10 6 -20 6h-2z" glyph-name="dieresis" unicode="¨"/><glyph d="M217 66q-7 3 -19.5 8.5t-18.5 8.5q-19 3 -41 25q-3 5 -10 12q-6 5 -10 15q-16 31 -18 38.5t-2 41.5q0 20 1 30q0 8 1 10q2 5 5.5 18t6.5 20q3 5 8 15.5t8 15.5l21 33q2 2 6.5 7t6.5 8q5 5 15 16t15 16q21 21 25 30q7 6 8 7q6 4 38 31q15 14 27 22q6 3 16 13q2 2 10 8 t13 9q4 2 12 7.5t12 7.5q49 25 59 29q10 6 22 1q9 -1 15 -4l7.5 2.5t8.5 2.5t8 1q20 0 29 -4q6 -3 10 -2q7 3 23 5.5t24 7.5q9 0 14 -4q1 0 3 -3t4 -4q18 0 22.5 -2.5t13.5 -17.5q1 -1 3.5 -3t4.5 -3q14 -3 35 0q2 0 8 -27q2 -6 3 -5q0 1 1.5 2.5t1.5 2.5q5 6 8 0 q12 -24 13 -37q0 -9 5 -19q2 -8 2 -14v-60q0 -10 -1 -14q-5 -10 -7 -45q0 -11 -6 -22q0 -2 -1 -5t-1.5 -5.5t-0.5 -4.5q-1 -13 -13 -37q-7 -16 -22 -46q-24 -28 -45 -45q-16 -16 -27 -20q-32 -21 -74 -37q-5 -2 -14 -6l-9 -4q-8 -5 -28 -9q-3 0 -5 -1q-3 -1 -11 -3.5 t-13 -3.5q-3 -1 -11 -2t-12 -3q-19 -7 -34 -7q-11 0 -20 -4q-14 -4 -24 -4h-45q-10 0 -22 5q-9 3 -16 3q-6 2 -22 2zM727 147q1 3 4 8.5t5.5 10.5l4.5 9q4 7 10.5 21t9.5 19q5 8 9 23.5t8 22.5q0 10 2 16q3 22 4 24q4 7 4 23q1 13 1 37.5t1 36.5q0 27 -6 39q-4 5 -4 14 q1 10 -4.5 28.5t-5.5 20.5q-1 5 -5.5 15.5t-5.5 16.5q-2 5 -8 13t-8 12q-3 6 -11 16.5t-11 15.5q-8 18 -31 30q-46 26 -76 38q-2 0 -7 0.5t-8 0.5q-62 0 -93 1q-8 0 -25 -0.5t-25 -0.5q-13 0 -19 -3q-5 -3 -34 -8q-35 -16 -50 -20q-16 -6 -23 -12q-16 -10 -35 -24 q-22 -19 -36 -26q-26 -18 -29 -20q-6 -4 -14.5 -12.5l-10.5 -10.5q-2 -1 -4.5 -3t-4.5 -3.5t-4 -1.5q-5 -3 -34 -29q-38 -36 -66 -67q-3 -3 -9 -11q-4 -5 -11 -15t-9 -12q-3 -5 -9.5 -15t-8.5 -15q-10 -15 -16 -32q-9 -30 -14 -41q-4 -13 -4 -29q-3 -38 0 -73q6 -16 10 -30 q9 -25 21 -38q17 -19 21 -27q3 -6 9 -12q18 -18 28 -27q5 -3 14 -7.5t16.5 -8.5t14.5 -8q5 -2 15 -7t15 -7q13 -5 14 -5q6 0 12.5 -2t14 -4.5t11.5 -3.5q22 -4 33 -8q5 -2 16 -2q17 -1 54 -1q46 0 63 7q3 2 10 2q10 1 29 1q14 2 24 6q52 15 57 15q6 3 20.5 7.5t20.5 7.5 q53 25 67 33q8 3 13 7t15 10.5t14 9.5q3 3 21 20q24 20 43 44zM399 368q32 21 64 29q13 6 29 4q15 0 24 3q2 0 4 3q4 8 -1 14q-11 13 -23 19q-11 6 -13 7q-8 4 -19 4q-31 2 -54 -1q-7 0 -14 -5q-18 -8 -21 -11q-2 -1 -5.5 -4t-6.5 -5t-6 -3q-10 -5 -22 -17 q-25 -23 -31 -31.5t-22 -39.5q0 -1 -2 -6t-4 -7q-9 -16 -10 -33q0 -3 -2 -8t-2 -6q-8 -31 1 -54q1 -1 3.5 -10.5t6.5 -15.5q4 -4 14 -16q3 -3 8 -9.5t7 -10.5q26 -18 28 -20q5 -2 14.5 -5.5t14.5 -4.5q8 -2 14 -2q44 -4 76 1q5 3 16 8t17 9q16 10 18 27q1 3 -1 10 q-5 11 -12 16q-8 6 -18 6q-7 0 -10 -2q-13 -8 -33 -8h-30q-10 0 -14 1q-13 0 -23 10q-11 7 -14 20q-1 2 -2.5 6.5t-2.5 6.5q1 5 2.5 17t2.5 17q1 8 7 24q13 35 35 57q3 3 5 6l4 6t3 4z" glyph-name="copyright" horiz-adv-x="840" unicode="©"/><glyph d="M178 299l-2 1q-1 0 -1 1q-16 14 -26 18q-5 1 -11 7q-1 0 -3 2q0 5 1 7q1 1 3 2t3 2q5 3 14 6l12 4q28 12 49 24q6 3 11 8q7 7 16 13q3 2 7 8q2 3 7 8q13 16 13 35v3q1 10 -8 18q-4 3 -10 1l-16 -8q-4 -4 -13.5 -10.5t-13.5 -10.5q-5 -5 -11 -8q-13 -8 -31 -16 q-6 -1 -28 -11q-6 -2 -14 -4q-2 -1 -9.5 -4t-12.5 -4q-13 -5 -22 -10q-1 0 -3.5 -0.5t-3.5 -1.5q-11 -6 -17 -17q-1 -3 -3 -8t-3 -8q-1 -6 -1 -17q0 -9 4 -13l27 -27l9 -6q16 -11 20 -13q8 -5 22 -17q1 -1 4 -2.5t4 -2.5q3 -2 14.5 -9.5t16.5 -12.5q7 -6 23 -16 q13 -10 26 -17q21 -9 33 -18q2 -1 5 -1t5 1q6 4 10 10q2 3 4 9q1 10 1 31q-2 7 -5 9q-5 6 -10 9q-18 13 -20 15q-3 4 -11 9t-11 7q-1 1 -4 3t-4 3q-3 3 -9 8.5t-9 8.5t-5 4h-4q-3 0 -9 -2zM429 462q-17 -18 -48 -49q-13 -13 -17 -21q-2 -3 -7 -8q-5 -6 -17 -18 q-5 -5 -15 -15.5t-16 -16.5q-5 -7 -5 -12v-21q2 -6 4 -10q1 -1 4 -4.5t5 -5.5l27 -9l24 -3q16 -8 25 -12q8 -4 11 -7q2 -1 3.5 -3t3.5 -4l3 -3q12 -10 17 -22q1 -1 4 -4.5t5 -5.5q1 -2 5 -4q12 -8 27 -8q8 -2 17 0q6 2 7 6q3 9 1 21q0 6 -5 13q-10 12 -15 19q-4 8 -12 16 q-4 3 -7.5 7t-8 8.5l-6.5 6.5q-7 7 -17 12q-2 2 -5.5 5t-5.5 4q-1 0 -2.5 2t-2.5 2q-6 6 0 13q7 10 25 28q5 4 12.5 14.5t12.5 14.5q0 1 2 3l17 17q19 19 35 38q3 2 3 7.5t-2 8.5q-4 7 -12 13q-10 3 -22 8q-6 1 -11 -1q-12 -7 -41 -20z" glyph-name="guillemotleft" unicode="«"/><glyph d="M336 591q2 3 6 8.5t5 7.5q1 3 7 7l12 9q4 1 6 -3v-8v-3q-2 -2 -4 -7.5t-3 -8.5t-6 -9l-5 -5l-9 -9q-1 0 -2.5 -1.5t-2.5 -1.5q-3 -3 -6 -1q-1 0 -2.5 2.5t-0.5 4.5q1 3 2.5 9t2.5 9zM422 626q-3 8 -9 20q-7 11 -16 16q-7 4 -16 6q-5 2 -7 5q-4 2 1 4q13 4 17 5q12 2 18 0 q6 -3 12 -3q7 -1 15 -6q11 -4 17 -15q2 -3 3.5 -6.5t3.5 -7.5l3 -6t1 -6q1 -2 1 -7q4 -8 4 -26v-20q1 -11 -4 -25q0 -6 -6 -14q-2 -4 -6.5 -11.5t-6.5 -11.5l-3 -3q-16 -17 -30 -29q-9 -7 -16 -8q-2 -1 -4 2q-2 0 -2 2v7q-2 6 -4 10q-11 12 -21 29q-1 1 -0.5 4t1.5 4t1 2 q17 11 38 34q8 9 11 23q1 3 1 8q3 6 3 12v12zM252 452q1 0 13 -5q6 -2 10 -1q12 0 17 12q6 19 7 25q0 3 2 5q2 3 3 9t2 8t2 7t3 8q3 5 7 1q6 -4 16 -16q1 -3 13 -17l3 -3q8 -9 19 -15q5 -4 0 -9q-2 -1 -8 -3.5t-9 -4.5q-2 -1 -7 -2.5t-7 -2.5q-10 -4 -15 -4q-3 0 -7 -2 q-3 -1 -10 -3t-11 -4h-4q-28 -2 -41 0q-7 2 -24 10q-11 6 -16 16q-3 7 -9 19q-1 19 0 37q0 6 2 9q1 3 2.5 8t1.5 7q1 2 2.5 4.5t2.5 5.5t2 4q2 6 2 8q0 1 1 2l2 2q7 10 12 23q10 15 11 17q5 5 7 8q5 5 7 8t27 31q1 2 14 7q3 1 7 0q3 0 5 -1t5.5 -2t4.5 -1q5 -3 3 -5 q-1 -1 -7 -10t-10 -13q-1 -2 -5.5 -9t-8.5 -10q-1 -2 -3 -7t-3 -7q-1 -7 -7 -19q-4 -8 -5 -12q0 -4 -4 -10q-6 -12 -6 -19q0 -1 -3 -7q-3 -9 -3 -10q-3 -3 -3 -7q-5 -20 -10 -35q-1 -1 -1 -2q-1 -2 -1 -3q0 -9 5 -14q4 -4 5 -6zM198 630q-2 -3 -7 -12t-8 -14 q-13 -21 -20 -42q-1 -2 -2.5 -7.5t-2.5 -7.5q-4 -12 -4 -20q0 -34 1 -51q4 -8 5 -12q7 -12 8 -14l7 -7l8 -8t6 -6.5t5 -4.5t5 -3.5l6 -3t8.5 -4t11.5 -5.5q3 -2 9 -4q2 -1 7 -2.5t7 -2.5q30 -1 53 0q4 0 10 3q1 0 3.5 0.5t4.5 0.5l24 6q2 1 7 3t8 2q4 1 11 3.5t11 3.5 q3 1 9 4t10 4t7.5 2.5t7.5 3.5l6 3q14 8 21 11q8 4 13 9q2 2 9.5 8.5t10.5 10.5q19 20 23 28l7 14q0 2 2 5t2 4q2 6 2 7q3 10 3 11q3 6 3 15v44q0 6 -3 12q-2 6 -2 10q-2 9 -3 10q-1 3 -3.5 8.5t-3.5 7.5q-3 9 -6 12q-7 8 -11 17q-10 16 -20 24q-5 5 -8 6q-7 4 -14 11 q-4 4 -14 9q-1 0 -3 0.5t-5 1.5t-4 1q-3 2 -7 3.5t-9 3t-8 2.5q-9 1 -28 1h-19q-10 0 -17 -4q-19 -5 -30 -15q-2 0 -4 -2q-3 -2 -9 -6.5t-10 -6.5q-2 -2 -6.5 -6t-7.5 -6l-22 -22q-23 -26 -25 -29q-10 -12 -16 -18z" glyph-name="registered" unicode="®"/><glyph d="M120 766h24q14 0 21 2q8 0 11 2q6 2 29 5q10 0 29.5 0.5t29.5 0.5q8 5 32 7h37q16 0 24 1q18 3 35 17q0 3 4 10t3 13q-5 11 -6 20q-22 22 -46 30q-5 0 -7 -1q-10 -4 -28 -6h-26q-8 0 -11 -3q-15 -4 -33 -4q-6 0 -17 -1t-16 -1q-4 0 -12 -2q-10 -5 -24 -5q-31 -2 -41 -6 h-8q-2 1 -4.5 2t-3.5 1q-8 -3 -24 -7q-9 -5 -11 -14q-3 -12 1 -28q0 -3 4 -9q7 -9 15 -13q3 -1 6 -3t6.5 -4.5t6.5 -3.5z" glyph-name="macron" horiz-adv-x="479" unicode="¯"/><glyph d="M297 661q4 4 9 4q3 0 13 -5q2 0 6.5 -1t6.5 -2q4 -2 4 -6q2 -7 0 -13q-5 -14 -11 -22q-1 -2 -4 -5.5t-4 -5.5q-13 -21 -31 -31q-4 -2 -9.5 -7t-6.5 -6q-2 -2 -6 -4q-2 -1 -3 -2q-5 -3 -8 5v6q8 24 9 26q4 13 14 24q4 3 10 9.5t10 9.5q6 7 4 16q-1 4 -3 10zM366 704l-6 2 t-6.5 2t-5.5 2q-3 1 -8.5 -1t-7.5 -2q-7 0 -17 -2l-16 -8q-14 -7 -19 -19q-2 -5 -5 -3q-4 1 -6 0.5t-5.5 -2t-5.5 -1.5q-12 -2 -20 -11q-7 -7 -19 -21q-4 -3 -6 -8q-12 -19 -16 -34q-1 -5 -5 -13q-2 -12 -4 -17q-5 -11 -3 -27q0 -3 2 -7l3.5 -7t3.5 -8q3 -3 9 -8.5t9 -8.5 q4 -2 12 -4.5t11 -3.5q13 -4 27 0q22 6 32 12q12 6 19 10q21 18 25 23q4 4 14 10q2 1 10 9q2 4 8 12q11 11 16 22q1 2 4 5.5t4 5.5q8 17 10 29t0 24v4q-1 4 -4 11t-5 11q-3 5 -4 6q-9 6 -25 16z" glyph-name="degree" unicode="°"/><glyph d="M335 291q1 3 3 8t4 9t5 7q2 1 6 2.5t7.5 2.5t7.5 2q5 1 14.5 1.5t14.5 0.5q37 0 56 2q9 0 13 1q5 2 16.5 4.5t16.5 3.5q2 0 16 6q7 5 9 10l2 5q3 4 4 7q1 4 0 7q-7 23 -20 34q-5 5 -12 5q-3 1 -12 1q-41 0 -60 -1q-38 0 -57 1q-4 0 -7 3q-9 4 -7 14q0 2 1 5t1 4 q5 36 8 42q2 14 -1 25q0 3 -2 8.5t-3 8.5q-3 12 -11 18q-1 2 -12 13q-1 1 -7 4q-18 6 -34 -1q-9 -2 -11 -12q-1 -4 -1 -12q0 -29 -1 -44q0 -14 -5 -25q-3 -6 -3 -17q0 -3 -0.5 -11.5t-1.5 -13.5q-1 -4 -6 -9.5t-8 -6.5h-14q-32 -1 -99 -1q-7 0 -21.5 -0.5t-21.5 -0.5 q-3 0 -11 -5q-8 -8 -9 -16v-17q1 -2 2.5 -6t1.5 -6q13 -21 17 -25q12 -10 23 -10q5 -1 13 -1q14 0 43 0.5t43 1.5q3 0 9 -0.5t9 -0.5h1q2 -1 3 -1q6 0 8 -9q2 -30 -1 -52q0 -5 -3 -8q-2 -10 -2 -17q-1 -16 -1 -47q0 -10 5 -17q5 -9 6 -11q5 -8 13 -11q2 -1 7.5 -3.5 t8.5 -3.5q9 -4 20 2q15 10 16 26q2 24 6 33q2 10 2 31q0 40 3 63zM453 -7q-8 0 -12 2q-1 0 -3.5 1t-4.5 1.5t-4 0.5q-9 -2 -28 2q-3 1 -12 1t-13 2q-21 2 -28 0q-28 -2 -37 0q-4 1 -12 1q-22 -2 -33 -4h-13q-13 4 -32 2q-15 -2 -42.5 -6.5t-39.5 -6.5q-3 0 -8.5 -0.5 t-8.5 -0.5q-18 7 -23 10q-4 1 -8 9q-1 2 -1.5 5t-0.5 5q-1 15 7 26q19 28 45 32q11 2 34.5 5.5t35.5 5.5q27 2 37 -2q9 -2 20 2q27 2 37 -2h8q9 0 13 2q31 2 40 -2h13t12 -1q7 -3 20 -3q9 0 13 -1q4 -2 12 -3.5t12 -2.5l12 -3t12 -2q2 0 4.5 -1t5.5 -2.5l5 -2.5q8 -3 5 -11 q-1 -4 -2.5 -12t-1.5 -11q-1 -2 -2.5 -5.5t-1.5 -4.5q-21 -19 -31 -25z" glyph-name="plusminus" unicode="±"/><glyph d="M293 857q0 5 -1 7q-4 8 -7 12q0 2 -2 2q-10 6 -16 8q-10 3 -20 -1q-14 -8 -20 -13t-20 -16t-20 -17q-5 -5 -11 -8l-9 -6q-23 -21 -32 -26q-3 -2 -8 -7q-14 -13 -42 -41q-1 -1 -3 -6q-3 -6 -1 -13q1 -3 4 -8t4 -7q2 -3 5 -5q10 -8 21 -11q7 0 11 1q12 5 24 19q2 2 6 8 q7 9 9 10q4 2 22 18q6 6 10 9q11 6 30 23q5 5 8 6q11 7 22 18q22 20 31 31q5 5 5 13z" glyph-name="acute" horiz-adv-x="373" unicode="´"/><glyph d="M471 622q4 -2 11 -5t9 -4q11 -5 16 -20q8 -22 14 -40l-2.5 -10t-1.5 -9q-7 -13 -9 -15q-8 -9 -17 -14q-15 -8 -47 -24q-2 -1 -3 0t-2 5q-2 1 -2 6v6q2 5 5 15.5t5 15.5q2 6 5.5 20.5t5.5 20.5q0 5 1 15t1 14q1 17 11 23zM404 575q0 -12 -3 -19q-1 -5 -4.5 -20t-5.5 -24 q-2 -6 -4.5 -19t-4.5 -19t-7 -24q-9 -19 -18 -27q-17 -13 -23 -15q-4 -1 -12.5 -7t-14.5 -8q-2 -1 -11.5 -7t-15.5 -7q-7 -6 -22 -14t-22 -15q-3 -3 -23 -13q-14 -10 -23 -11l-12 -6q-10 -6 -19 -8q-5 0 -8 -3q-5 -4 -10.5 -6.5t-13 -4t-11.5 -3.5q-1 -1 -3.5 -2t-4.5 -2 q-7 -3 -15 7q-4 10 -1 18q15 28 30 46q14 16 24 26q5 6 14.5 14.5t12.5 11.5t12.5 14.5t15.5 15.5q3 3 20 17.5t25 25.5q65 55 76 61q2 2 5.5 5t5.5 5q11 12 22 18q6 5 18.5 11.5t18.5 10.5q4 2 8 -3t4 -12v-8zM372 234q12 43 13 47q7 29 26 40q3 2 14 7.5t16 11.5q1 1 5 1 h3q9 0 7 -12q-1 -5 -5 -20.5t-5 -24.5q-2 -10 -6.5 -27t-6.5 -23q0 -1 -1 -3.5t-2 -4.5t-1 -4q-1 -11 -3.5 -22.5t-6 -25t-5.5 -21.5q-2 -12 -4 -34q-3 -9 -6 -26.5t-5 -24.5q-3 -13 -3 -40v-21q2 -21 10 -28q11 -13 27 -28q4 -2 8 -2q8 0 15 10q2 3 6 10.5t5 9.5q5 11 4 24 q-1 7 1.5 17.5t2.5 15.5q0 23 1 34q0 6 2 20q0 4 2 13t3 13q1 6 5 23.5t5 27.5q2 8 6 22.5t6 21.5q9 34 9 37q11 41 12 44q8 29 25 85.5t25 84.5q7 23 10 30q5 12 12.5 36.5t11.5 34.5q4 13 2 33q0 3 -1 7.5t-1 6.5q-2 3 -3.5 9.5t-2.5 7.5q-5 11 -10 11q-3 1 -9.5 2t-9.5 2 q-6 1 -8 6q-11 14 -16 21q-23 28 -46 40q-27 13 -48 13q-11 0 -31 -2q-8 0 -16 -6q-9 -4 -12 -5q-14 -2 -23 -10q-6 -2 -17 -8.5t-17 -8.5q-2 -1 -12 -8t-15 -8q-9 -6 -25 -20q-59 -47 -76 -64q-6 -5 -20 -17t-22 -18.5t-19 -17.5t-20 -22q-26 -24 -28 -25 q-7 -5 -19.5 -19.5t-19.5 -19.5q-2 -3 -17 -28q-4 -7 -20 -23q-6 -5 -23 -37q-4 -4 -4 -13q-2 -18 0 -53q0 -7 3 -14q9 -28 10 -29q10 -19 19 -32q1 -2 2.5 -3.5t3 -2.5t2.5 -2q12 -12 27 -15q3 -1 11 -5q9 -6 36 -4q1 0 2 1l2 1q6 5 28 9q12 0 19 4q13 8 27 10q7 0 17 5 q9 7 15 8q7 0 19 7q9 6 28 16.5t29 15.5q3 1 9 1q4 1 6.5 -4t1.5 -11q-2 -5 -3.5 -13.5t-2.5 -11.5q-13 -40 -15 -57q0 -6 -3 -12q-3 -10 -8 -28.5t-7 -27.5q-3 -10 -7.5 -31t-7.5 -31q0 -2 -1 -6.5t-2 -6.5q-6 -24 1 -46q0 -1 0.5 -2.5l1 -3l1 -3t0.5 -3.5q6 -11 10 -13 q7 -5 23 -15q3 1 7.5 1.5t7.5 0.5q6 1 9 12q6 20 7 32q4 16 7 32q0 11 1 23.5t2 25.5t1 18q2 15 8 35.5t7 27.5q1 13 7.5 36t7.5 27q0 7 2 29z" glyph-name="paragraph" unicode="¶"/><glyph d="M330 371l-14 -3.5t-16 -4.5q-2 -1 -4 -2.5t-4.5 -3.5t-3.5 -3q-3 -7 -30 -41q0 -1 -1 -3q-2 -4 -2 -6q-3 -14 5 -25q9 -12 21 -21q6 -4 14 -6q12 -2 24 0q6 2 10 4q7 5 20 15.5t19 15.5q11 16 14 27q2 8 0 16q-3 14 -13 21q-32 18 -39 20z" glyph-name="periodcentered" unicode="·"/><glyph d="M80 -200q2 -2 4.5 -6t3.5 -6q8 -8 11 -12q13 -4 15 -6q5 -2 13 -4q6 -3 13 -1q4 2 6 2q3 -1 7 -1q1 0 3.5 0.5t3.5 0.5q5 -1 14.5 1.5t13.5 2.5q6 3 18 6.5t16 4.5q3 1 8 2.5t7 1.5q15 4 30 12q2 1 6.5 2.5t6.5 2.5q19 13 22 15q3 1 6.5 5t5.5 5q3 0 5 4q1 2 5 6.5t5 7.5 q9 12 12 28q1 2 -1 8q-1 5 -6 10q-2 3 -8 8.5t-8 8.5q-1 0 -2.5 1l-3 2t-2.5 1t-4 0.5t-4 1.5q-8 6 -10 8q-6 2 -21 10q-11 2 -16 5t-10 3q-2 2 -2 5l2.5 5t2.5 4q6 9 16 29q0 1 0.5 2.5t1.5 2.5q0 1 -0.5 2.5t-0.5 3.5q-1 -2 -3 -4t-4 1q4 8 5 12q1 2 3 6.5t3 7.5q1 2 1 7 q-1 4 -6 4h-3q-5 6 -12 3h-1q-1 1 -1.5 3t0 3.5t-0.5 3.5q-1 1 -1 2q-1 2 -1 3q-4 -1 -12.5 -1h-13.5q-2 -1 -5 -4q0 -1 -0.5 -2.5t-0.5 -2.5q0 -2 -6 -19q-1 -2 -4 -6l-3 -4q-5 -11 -16 -26q0 -1 -2 -4t-2 -5q-1 -6 -7 -10q-1 -2 -7.5 -10t-8.5 -14q0 -1 -1 -1q-4 -4 -7 -6 q0 -1 -1 -3q-3 -5 -3 -8q1 -2 2.5 -7t2.5 -7q4 -3 7 -7q3 -3 7 -9q1 -1 12 -5l6 -6q3 0 9 -1.5t10 -0.5q2 1 8 5q7 0 10 2q2 1 4.5 0t3.5 -1q6 2 10 2h12q6 -2 11 -4q2 -2 3 -4q-2 -3 -13 -14q-6 -2 -8 -3q-1 -1 -5 -4t-6 -4q-21 -11 -26 -12q-3 -1 -32 -12q-21 -8 -43 -8 q-7 1 -16 -2q-1 0 -25 -6q-1 -3 -4 -7t-4 -6z" glyph-name="cedilla" horiz-adv-x="421" unicode="¸"/><glyph d="M412 317l2 2q18 16 21 17q2 1 5.5 4t4.5 3l1 1q0 2 1 2q0 5 -1 7l-2 1l-3 3q-3 2 -10.5 4.5t-10.5 4.5q-19 11 -41 25q-3 2 -9 8l-13 13q-2 2 -6 7l-2.5 5t-2.5 4q-11 16 -11 34q0 3 -1 4q0 12 8 17q4 4 8 1q2 -1 6 -3.5t6 -3.5q3 -4 11 -10.5t12 -10.5q6 -6 9 -8t25 -16 q4 -1 24 -11q5 -3 11 -4q2 -1 8.5 -4t10.5 -4q3 -1 9 -4.5t9 -5.5q1 -1 2.5 -2t2.5 -1q10 -7 14 -17l6 -15v-18q2 -7 -3 -12q-4 -4 -11.5 -13t-11.5 -14q-4 -4 -7 -6q-10 -10 -16 -13q-4 -3 -18 -17q-1 -1 -3.5 -2.5t-3.5 -3.5q-22 -17 -26 -21q-6 -6 -18 -16q-9 -8 -22 -17 q-24 -16 -27 -19q-1 -1 -4 -0.5t-4 1.5q-6 6 -8 9q-2 4 -4 10q-1 15 0 31q0 5 3 9l9 9q2 2 7.5 6.5t8.5 7.5q2 2 18 16l7 7q2 3 6.5 8.5t7.5 8.5q1 1 2.5 2t2.5 1q1 1 3 1t8 -2zM178 197q17 18 48 49q13 13 17 21q1 2 3.5 4.5l3.5 3.5l17 17q20 22 31 33q5 5 5 12q1 11 0 21 q-3 8 -4 9q-3 4 -9 10q-9 4 -27 10q-4 0 -9.5 6t-10.5 7q-4 2 -11.5 11.5t-12.5 11.5q-6 3 -11 8q-4 3 -10 9q-13 13 -17 22q-2 2 -5 5.5t-4 4.5q-1 2 -5 4l-27 9q-11 0 -17 -1q-5 0 -7 -6q-3 -9 -1 -21q0 -6 5 -13q2 -2 7 -8.5t7 -10.5q6 -9 13 -16l22 -22q1 -1 9 -11.5 t12 -12.5q2 -1 5.5 -8.5t5.5 -8.5q1 -1 2.5 -4t2.5 -4t-0.5 -3t-4.5 -4t-4 -3q-8 -13 -25 -28q-4 -4 -11.5 -14.5t-12.5 -15.5q-1 0 -3 -2l-17 -17q-18 -19 -35 -38q-6 -9 -1 -16q4 -7 12 -13q4 -2 12 -4.5t11 -3.5q5 -2 10 1l20 10t21 10z" glyph-name="guillemotright" unicode="»"/><glyph d="M107 -11q0 1 1.5 2.5t1.5 2.5q2 0 2 -1v-2q0 -1 -1 -1h-2q-1 -1 -2 -1q-1 -2 -3 -3t-3 -3q-1 -3 0 -6l9 -12q2 -5 7 -6h9q2 0 5.5 -1t5.5 -1q3 1 8.5 3t8.5 3q3 0 5 4q1 5 6 12l15 24q12 15 14 19q9 12 10 13q2 2 3.5 5t2.5 4q2 2 3 5.5t2 4.5t3 2.5t3 2.5q4 8 11 14 q2 3 5.5 8.5t5.5 8.5q6 10 10 17q11 12 25 33q2 4 4 6t5.5 8t5.5 8q2 4 4 6q1 1 3.5 4t3.5 5t3 4.5t3 3.5l6 9v2l-1 2q7 3 8 8q5 11 12 16q2 2 2 5q8 14 16 25q3 4 8 12.5t8 12.5q2 4 4 6q6 9 16 27q5 10 11 19l7 10.5t7 11.5q12 20 14 23t6 7.5t5 5.5q2 6 4 10q6 8 8 13 q1 1 4 7t5 9v1q2 6 4 8q1 1 2.5 3t3 4.5t2.5 3.5q8 15 21 31q1 1 3 5t3 5q15 27 27 40q1 1 2.5 3.5t2.5 3.5q11 16 20 28q9 10 17 26q2 2 4 5t4 6.5t3 5.5q0 1 2 3q4 5 9.5 15t7.5 13q4 5 2 13q-9 12 -10 13q-5 2 -11.5 9t-10.5 9h-9q-1 -1 -6 -3.5t-7 -4.5q-4 -4 -6 -14 l-9 -12q-10 -17 -19 -27q-9 -11 -10 -14q-2 -3 -6 -7.5t-5 -7.5q-1 -2 -4.5 -7t-5.5 -8q-2 -2 -5 -7t-5 -8t-5 -8t-4 -8q0 -1 -1 -3.5t-1 -4.5q-9 -9 -13 -17q-8 -14 -10 -16l-9 -15q-6 -12 -11 -17l-2.5 -5t-2.5 -4q-2 -4 -14 -26q-6 -8 -9 -16q-4 -8 -7 -11q-4 -4 -4 -7 q-2 -4 -4 -7t-6.5 -9.5t-6.5 -10.5l-3 -6q-2 -4 -5 -8q-1 -2 -6 -9.5t-7 -12.5l-6 -9t-5 -9q-6 -8 -14 -23t-12 -21q-18 -27 -23 -33l-3 -6l-12 -18q-8 -14 -14 -21q-2 -3 -6.5 -10t-7.5 -10q-9 -11 -14 -21q0 -1 -3 -4t-7 -9t-6 -8t-6.5 -8.5t-7.5 -9.5q-20 -31 -20 -32 q-11 -11 -14 -17q-1 -3 -4 -4q-2 -2 -4.5 -6.5t-5.5 -6.5q-10 -14 -16 -21q-1 0 -1 -1t-1 -2q-2 -3 -5 -8t-5 -7t-3 -5.5t-2 -4.5q-9 -5 -10 -14q2 -1 5 -1zM536 36q3 10 9 20q4 6 6 10q5 8 11.5 24.5t8.5 19.5q3 9 4 11q2 8 4 12q1 3 2 8t2 7q3 5 8 21q1 3 3 9.5t4 9.5 q1 2 5 11.5t7 14.5v3q1 3 3.5 10t4.5 10q10 29 11 32q2 8 1 15l-7 14q-2 2 -6 6.5t-6 6.5l-10 5h-15q-10 -8 -11 -8q-7 -17 -8 -22q0 -2 -2 -7.5t-3 -8.5q-2 -4 -6 -14q-1 -3 -3.5 -9t-3.5 -9q-4 -10 -10 -20q-3 -1 -8 -3.5l-7 -3.5q-1 -1 -2 -1q-2 -1 -3 -1q-5 0 -8 -1 q-2 -1 -6 -2q-2 -1 -3 -1q-2 0 -4.5 -1t-3.5 -1q-6 -1 -10 0q-1 0 -3 2v15q5 8 6 10q1 3 12 31l2 4q0 2 -0.5 6t-0.5 6l-2 4l-1 2q-3 3 -9 8t-9 8q-2 1 -6.5 3t-6.5 3q-3 -2 -9 -2t-9 -1l-5 -5q-2 -5 -6.5 -16t-6.5 -17l-12 -33q-1 -13 -1 -41q1 -2 3 -5.5t3 -5.5t5 -8 q5 -3 8 -8q8 -11 23 -16q4 2 5 1q3 -2 10 -2t10 -1q1 -1 3 -1q4 2 13 2q3 0 7 0.5t6 0.5q2 -2 1 -3q0 -1 -2 -9.5t-4 -12.5q-4 -7 -7 -19l-6 -15q-3 -6 -7 -16t-5 -13q-6 -14 -5 -22q0 -2 2 -6.5t2 -6.5q1 -4 5 -4q7 -2 20 0q6 2 16 6l3 1q2 2 5.5 5t4.5 4zM283 644 q-10 -24 -11 -36v-4q-1 -3 -4 -9q-2 -11 -6 -31q-5 -27 -5 -32q0 -1 -0.5 -2.5t-0.5 -2.5q-2 -4 -2 -7v-66q0 -4 2 -8q0 -1 0.5 -4t1.5 -4t2 -2.5t1.5 -3t1.5 -3t1 -3.5q5 -9 7 -11h8q1 0 3 0.5t4 0.5q5 0 8 1q1 1 3 3.5t3 3.5l3 4q3 3 4 6v22q0 6 1 8q2 5 2 21q0 2 0.5 5.5 t0.5 4.5q6 18 6 28q3 7 3 16q2 4 2 5q1 6 4.5 17.5t4.5 17.5q0 2 3 11l3 12q0 3 -0.5 8t-0.5 7q-1 3 -3 7q-3 7 -8 8q-4 2 -14 6q-2 2 -4.5 4t-3.5 3h-7q-1 0 -3.5 0.5t-3.5 0.5q-4 0 -6 -2z" glyph-name="onequarter" horiz-adv-x="730" unicode="¼"/><glyph d="M245 97q7 7 10 15t7 13q4 7 10 21q1 2 5.5 9t6.5 11q8 16 10 19q4 6 14 26q4 7 7 14l3.5 7t4.5 7t3.5 7t2.5 7q1 1 3 4q5 6 8 16q0 1 0.5 2.5t1.5 2.5q4 4 8 14q4 7 7 14q10 18 12 20q1 2 4 7t4 8q1 2 3 7.5t4 8.5q4 5 8 15q1 1 1 2q1 2 1 3q0 3 3 5l3 6q2 2 4 7t4 8 q4 10 7 15q2 2 4.5 8t3.5 7q0 2 2 4q3 3 9 16q2 5 7.5 15.5t8.5 15.5l5 10q2 2 3.5 4.5t3 5.5l2.5 5q6 14 11 20q2 2 3.5 5.5t2.5 4.5q1 4 4 8q4 5 10 15.5t8 13.5q1 1 4 7q1 3 5.5 9t6.5 10q1 3 5 9l6 9q0 1 3 4.5t4 5.5q1 1 2.5 4t2.5 4q3 8 0 15q-6 8 -10 11q-7 3 -19 9 q-1 1 -2 1t-2 1q-12 0 -14 -1q-13 -10 -23 -29q-5 -11 -7 -13q-11 -18 -13 -23q-2 -3 -7 -8q-2 -8 -4 -10q-15 -25 -17 -29q-3 -8 -11 -22q-3 -5 -16 -30q-4 -5 -7 -13q-6 -11 -7 -13q-5 -12 -8 -15q-2 -2 -4 -7t-2 -6q-5 -6 -6 -12q-1 -2 -3.5 -6.5t-3.5 -5.5q-3 -5 -9 -17 q-3 -9 -8 -20q-6 -13 -20 -39q-1 -2 -3 -6.5t-3.5 -8t-2.5 -6.5l-3 -6q-2 -4 -6 -10q-1 -5 -5 -13q-2 -3 -5.5 -10t-5.5 -10q-7 -10 -9 -18q-2 -7 -5 -10q-1 -3 -4 -8.5t-5 -7.5q-9 -20 -14 -25v-1l-1 -2q0 -3 -3 -8q-4 -4 -13 -23q-2 -4 -6.5 -11.5t-6.5 -11.5 q-3 -7 -7 -14q-6 -12 -8 -14t-3.5 -7t-2.5 -7q-1 0 -1 -2t-1 -2q-5 -5 -8 -13q-16 -30 -25 -45q0 -1 -1 -2l-1 -2q-10 -18 -11 -19q-1 -3 -3 -6t-5 -6.5t-4 -5.5q-2 -3 -5.5 -9t-4.5 -9q-10 -15 -12 -17q-1 0 -1 -1t-1 -2q-1 -2 -9 -16q-1 -1 -4 -7q-1 -3 1 -5q1 -2 4 -5 q2 -1 7 -1q3 -1 7.5 -4.5t6.5 -4.5h10.5h9.5l1 1q2 1 3 2q7 10 9 14q3 5 9 15.5t9 15.5q2 5 7 12.5t6 9.5q2 4 8 12q6 4 7 7q2 6 2 9q1 1 2.5 3.5t2.5 3.5q4 6 4 9q1 6 9 10v5q12 12 20 34zM391 48q18 -5 22 -4q3 0 7 -2q1 -1 5 -0.5t6 0.5q2 -2 5 0q4 2 13 2h8q1 0 4.5 1 t5.5 0q1 0 4 1t5 1t5 0.5t5 1.5l1 1h2q3 0 10 2t10 2q10 0 15 3q3 0 10 2t11 2q3 2 10 3.5t10 2.5q10 4 15 4q12 4 18 8q1 1 4.5 2t4.5 2q2 2 6.5 5t6.5 5q2 11 -1 20q-11 8 -14 10q-1 0 -4 0.5t-5 0.5q-8 2 -9 2q-8 -2 -11 -2q-11 0 -16 -1q-20 -6 -31 -7q-2 -2 -7 -2.5 t-7 -1.5q-3 -1 -8 -1.5t-7 -1.5l-15 -3q-1 0 -16 -3l-9 -3q-9 0 -18 -3q-1 -1 -5 -1t-5 -1l-1 1h-1l-3 3q0 1 0.5 2.5t1.5 2.5l7 7q12 12 17 18q1 1 7 8.5t10 11.5q0 1 0.5 3t0.5 3q14 9 23 23q1 2 4 5q6 6 12 16q2 3 6.5 9t6.5 9q6 8 8 10q5 5 6 8q9 12 12 20q7 14 9 16 q2 3 3.5 6.5t3 8t2.5 6.5l6 18q1 3 1.5 10t0.5 10q-1 3 -1.5 8t-0.5 8l-2.5 5t-2.5 4q-2 5 -5 10t-8 6q-4 0 -6 1q-6 4 -7 5q-2 1 -13 4h-26q-11 -3 -29 -9q-2 -2 -6.5 -5.5t-6.5 -5.5q-5 -1 -13.5 -7.5t-9.5 -7.5l-11 -11q-2 -2 -3 -4t-5 -6q-6 -6 -9 -15q1 -3 1 -10 q5 -6 7 -11q1 -2 5 -6q5 -1 7 -4q1 -1 6 -8h9q6 -2 8 -2l14 7q14 21 25 30q1 1 3 1q2 -2 1 -3q-1 -5 -8 -18q-2 -2 -4 -6q-1 -5 -6.5 -13.5t-6.5 -10.5q-3 -3 -19 -27l-6 -6q-2 -2 -7.5 -9t-7.5 -11q-12 -15 -13 -16q-4 -5 -14 -15l-5 -5l-14 -17q-8 -8 -12 -11 q-1 -1 -4.5 -6t-6.5 -7q-1 0 -1 -1l-1 -2l-9 -15v-18q3 -6 9 -16q3 -2 7 -7.5t6 -7.5q15 -8 18 -11zM214 329q2 -4 4 -7q10 -10 15 -16q2 -2 6 -4q10 -2 15 -4q10 7 15 15q0 4 1 7q4 10 8 30q1 4 2.5 11.5t2.5 11.5q1 3 1 7.5v6.5q2 7 6 19v10q0 9 2 13v3q2 19 4 23v7 q0 2 1 5t1 4q1 2 1 7q3 22 3 23q1 1 1 5v15q0 6 1 8q2 6 2 18q0 2 0.5 4.5t0.5 3.5q-2 13 2 22q-1 4 1 13q0 2 -0.5 5t-0.5 5v1q-2 9 -1 12q-1 4 -1.5 12t-0.5 11q-1 1 -2.5 3t-3 4.5t-2.5 3.5q-11 6 -13 6q-7 3 -15 7q-1 1 -3 1h-13l-4 -2v-8v-20.5v-23.5v-20q0 -5 -1 -6 q-2 -6 -2 -18q0 -18 -2 -27q-1 -2 -1 -7q0 -11 -1 -16q0 -5 -1 -7q-2 -4 -2 -13q0 -7 -1 -10q-2 -5 -2 -14q0 -4 -2 -12q-5 -26 -5 -29v-4q-3 -6 -3 -21q-1 -1 -1 -4t-1 -4q-4 -14 -5 -21q0 -10 -2 -15q-1 -2 -1.5 -7.5t-1.5 -8.5q-3 -5 -1 -14z" glyph-name="onehalf" horiz-adv-x="721" unicode="½"/><glyph d="M479 464q0 -1 -1 -1q0 -3 -3 -3q-1 0 -1 2q0 3 3 3q1 0 1 -0.5t1 -0.5zM586 630q-2 3 -6 5.5t-5 4.5q-2 2 -6.5 3.5t-6.5 3.5q-5 1 -14 8q-3 -1 -9 -2.5t-9 -2.5l-6 -6q-1 -2 -3.5 -7.5t-3.5 -8.5q0 -1 -0.5 -2.5t-1.5 -2.5q-14 -21 -17 -27q-1 -2 -4 -5q0 -1 -2 -2.5 t-2 -2.5q-3 -7 -10 -17.5t-10 -15.5q-10 -15 -12 -21q0 -2 -2 -4.5t-2 -3.5q-7 -8 -11 -17q-10 -18 -16 -27q-3 -2 -4 -7q-2 -4 -6.5 -11.5t-8 -13.5t-6.5 -11q-1 -2 -3 -4q-1 -2 -4.5 -8.5t-6.5 -9.5q-10 -18 -11 -19q-2 -7 -5 -9q-1 0 -3 -4l-3 -5q-2 -4 -4 -6 q-2 -4 -7 -12.5t-7 -13.5l-3 -2q-3 -4 -13 -21q-2 -4 -6 -10.5t-6 -9.5q-2 -2 -3 -4q-7 -15 -14 -24q-3 -4 -5.5 -8t-5 -8.5t-4.5 -7.5q-14 -21 -24 -40q0 -2 -2 -5t-2 -4q-2 -4 -6 -10v-6q-4 -2 -6 -2q-14 -21 -17 -25q-2 -4 -6 -10q-2 -4 -4 -10q-2 -3 -6 -7 q-19 -29 -21 -34l-3 -6q-16 -24 -23 -36q-10 -17 -11 -19t-1 -7q4 -6 6 -10q3 0 7.5 -4t7.5 -4t4 1q14 6 21 6q2 3 8 5t7 3q3 4 11 12q2 1 4 5q11 20 16 25q2 2 4 8q2 3 7.5 12t8.5 15q6 10 9 16q2 3 5 8t5 7l3 6q5 5 8 11q1 2 3.5 5t3.5 4q2 4 2 6q8 8 11 12q1 1 2.5 5 t2.5 6q2 3 5.5 8.5t5.5 8.5q11 21 26 44q9 12 15 24l3 6q2 2 4.5 6t3.5 5l3 3q2 7 13 23q3 2 5 7q0 2 1 3q5 5 8 13q2 4 8 12q1 2 4 6.5l5 7.5q1 5 8 10v4q3 0 4 2t1.5 5t1.5 4q4 3 10 13q20 28 27 44q3 6 4 7q7 11 20 31.5t18 28.5q10 18 16 26q8 11 16 25q9 11 10 15 q3 5 9 14t7 11v5.5t1 5.5q2 4 0 12zM554 167q1 -10 -6 -25q-8 -27 -8 -29v-2q-5 -13 -7 -30q-2 -3 -2.5 -9t-1.5 -8q-2 -6 -2 -18q-1 0 -1 -2t-1 -2q0 -2 -0.5 -4t-0.5 -3q-2 -13 0 -27v-1q1 -1 1 -2q6 -6 9 -10q12 -3 13 -3q2 0 6 1.5t6 2.5q3 2 9 5t8 6q3 6 3 7q1 9 6 20 q1 2 1.5 7.5t2.5 8.5q0 6 1 10v7q7 15 7 18q0 2 1.5 8.5t1.5 10.5q2 5 6 13q0 2 6 20q1 2 1.5 6.5t0.5 6.5q2 2 3.5 5t3 7t2.5 6q2 12 10 34l3 12q2 6 3 8q1 4 4 13.5t4 15.5l3 6q0 1 1 3t1 3l6 18q4 9 6 18q0 3 2 5q1 3 4 8.5t4 8.5q0 3 3 8.5t4 9.5q0 1 1 3q3 3 8 18 q-1 4 -4.5 8.5t-3.5 5.5q-5 3 -13 8.5t-10 7.5q-7 3 -15 0q-3 -3 -6 -5q-1 -1 -3.5 -3t-3.5 -3q-1 -2 -4 -6.5t-4 -6.5q-8 -13 -15 -31q-1 -5 -6 -16t-6 -17q0 -1 -2 -5q-1 -3 -2.5 -8t-2.5 -7q-3 -3 -7 -9q-2 -2 -3 -2q-2 -2 -7.5 -6t-8.5 -6q-3 -3 -10 -6.5l-9 -4.5 q0 -1 -1 -1q-2 -2 -5 -2q-8 -2 -13 -3q0 1 -1 2v2q0 3 2 7q0 1 1.5 5t2.5 6q0 5 3 11l2.5 5t2.5 5.5t1 4.5q1 8 5 21t5 16v18q-1 5 -7 9q-1 1 -13 10q-3 2 -9.5 4t-8.5 3q-8 1 -17 -4q-2 -1 -5 -3.5t-4 -3.5q-1 -3 -1 -8q0 -1 -3 -10v-3q-1 -5 -3 -13q-1 -2 -2 -7t-2 -7 t-2.5 -7.5t-2.5 -8.5q-2 -12 -6 -18q-2 -4 -2 -7q-1 -3 -8 -25q0 -23 1 -28q3 -9 4 -11l3 -3l3 -3l1 -2l6 -6q3 -1 7.5 -5t6.5 -5q4 -2 12 -4h25q4 1 13.5 3.5t14.5 4.5q4 3 8 3q3 -3 2 -7q-4 -10 -6 -16zM198 407q3 -2 6.5 -4.5t8 -5.5t6.5 -5q1 0 3 -2q6 -3 -1 -7 q-5 -3 -15 -7q-3 0 -12 -7q-10 -2 -15 -5q-2 -1 -7.5 -2t-8.5 -2t-9 -2t-9 -2q-2 -1 -7.5 -1t-8.5 -2q-3 -1 -9 -1t-10 -2q-2 0 -7 -3q-2 -2 -2 -4q1 -4 15 -20q4 0 9 -4.5t7 -5.5q1 0 3 -0.5l4 -1t3 -1.5q3 -1 8 -1h27q3 0 5 1q1 0 3 1t3 0q3 0 23 5q8 1 19 5q18 5 33 13 q5 5 9 7q2 1 13 12q6 10 9 14v1q1 2 1 3v8q-6 17 -7 19l-16 16q-6 6 -9 7q-8 5 -21 13.5t-18 11.5q-1 1 -2 3l-1 1q0 3 4 5q15 7 26 15l18 12q11 7 19 18q5 7 15 23q0 2 -0.5 6t-0.5 6q-1 2 -2.5 5.5t-1.5 4.5l-11 11q-3 2 -7 4q-3 2 -25 7q-5 2 -15 2q-22 0 -33 -1 q-5 0 -7 -1t-6.5 -1.5t-6.5 -0.5q-9 0 -13 -1t-10 -3t-9 -2l-21 -6q-15 -5 -19 -5q-5 0 -11 -4q-4 -1 -4 -7q-1 -3 1 -8q2 -6 2 -7q2 -2 5.5 -6t5.5 -6l22 -11q5 0 8 1q1 0 3 1t4 1q5 0 22 5q4 2 5 2t16 3q3 0 4 -2q0 -1 -1 -1q-7 -8 -14 -12q-1 -1 -8 -5t-11 -5l-21 -12 q-2 -2 -3 -2q0 -17 1 -19q5 -8 19 -20q3 -1 5.5 -3.5t5 -5.5t4.5 -4q12 -10 23 -14z" glyph-name="threequarters" horiz-adv-x="790" unicode="¾"/><glyph d="M396 91q-16 5 -30 -3l-24 -12q-5 -1 -41 -16q-6 -2 -8 -2q-6 -1 -21 -8l-21 -6q-12 -4 -17 -4q-33 -2 -44 -7q-1 -1 -4 -1q-32 -2 -48 1q-7 0 -10 8q-1 4 0 8q4 13 14 28q10 13 11 14q6 11 19 24q15 16 30 26q4 3 21 17q4 2 11.5 7t10.5 8q1 1 4.5 4t5.5 5q6 4 10 8 q19 11 55 37q7 3 19 12t14 10q5 3 37 24q22 16 33 23q6 3 18 12t19 12q5 4 21.5 15t24.5 19q1 1 3 2.5t4.5 3t3.5 2.5q10 7 15 21q5 11 -2 21q-1 2 -11 17t-18 24.5t-15 11.5q-2 2 -4 2q-2 2 -4 2q-15 9 -28 -4l-28 -28q-3 -3 -5 -15.5t-6 -15.5q-3 -2 -9 -11.5t-9 -11.5 q-11 -8 -33 -22q-3 -2 -14 -8t-17 -10q-6 -5 -33 -22q-34 -24 -51 -35q-30 -19 -55 -37q-8 -6 -24 -16t-24 -16q-8 -7 -22 -21.5t-22 -21.5q-3 -2 -7 -6t-11.5 -12t-9 -10.5t-6 -8t-7 -10.5t-6.5 -12.5t-9 -19.5q-2 -16 -4 -22q0 -2 -1.5 -6t-2.5 -7q-2 -9 1 -17 q6 -18 17 -36q1 -1 3 -3.5t3 -3.5q5 -3 16.5 -11t16.5 -11q16 -8 25 -9q14 -2 21 -5q9 -3 17 -3q11 -1 31 -1q35 0 48 6l18 3q8 0 17 3q12 4 25 6q3 1 17 5t22 5q2 0 4 1l4 2q4 1 15 6.5t18 7.5q6 2 16.5 6.5t15.5 6.5q13 4 17 5q13 4 19 18q3 3 1 4q-3 11 -8 25q-1 3 -5 7 q-11 8 -33 22zM424 687q-3 -1 -11 -5q-16 -6 -19 -23q-3 -10 -8 -16q-3 -4 -9 -13.5t-11 -16.5t-11 -12q-5 -5 -5 -12q0 -3 -0.5 -9t-0.5 -9q0 -9 7 -16q10 -12 33 -21q6 -2 8 -2q23 -1 44 16q19 38 29 56l9 21q5 19 -6 33q-9 10 -19 19q-14 4 -30 10z" glyph-name="questiondown" unicode="¿"/><glyph d="M426 569q-2 -25 -6 -37q-3 -6 -3 -14q-1 -18 -11 -48q-2 -8 -8 -24l-3 -24q-2 -10 -4 -14q-2 -6 -6 -21t-8 -22q-1 -4 -2.5 -12.5t-2.5 -12.5t-7.5 -9t-11.5 -6q-8 -1 -24 -1.5t-21 -0.5q-14 0 -29 -5q-10 -4 -24 -2q-7 0 -10.5 6t-0.5 12q17 40 34 60q5 10 18 29.5 t18 29.5q27 43 37 53l15 21q4 8 12 16q10 12 20 28q4 5 14 15q4 4 8 3q3 -1 5 -8q0 -9 1 -12zM440 709q-29 -12 -36.5 -17t-27.5 -23l-7 -7q-14 -10 -22 -11q-13 -1 -27 -10l-4 -4q-2 -3 -6.5 -10.5t-7.5 -11.5q-29 -42 -43 -72q-4 -9 -11 -17q-10 -15 -29 -52 q-7 -12 -36 -71q-3 -4 -7.5 -13t-7.5 -13q-5 -7 -29 -53q-3 -5 -9 -16.5t-9 -17.5q-5 -11 -15 -14q-24 -12 -38 -14q-17 -9 -21 -19q-6 -7 0 -15q3 -4 9.5 -11.5t9.5 -11.5t1 -9q-1 -2 -3 -6.5t-3 -6.5q-15 -27 -40 -77l-35 -70q-3 -7 3 -13q3 -2 9.5 -6t11 -8t7.5 -9 q9 -8 22 -12q9 -3 19 2q2 1 20 19q32 64 42 82q30 60 44 90q6 12 10 17q1 4 7 6q11 6 14 7q38 13 52 15q11 0 20 6q6 2 10 3q30 2 45 1q5 -1 9 -5.5t3 -8.5q0 -7 -1 -10q-3 -6 -10 -28q-8 -22 -9 -34l-3 -9q-4 -9 -14 -36t-19 -41q0 -1 -3 -11q0 -10 5 -13q22 -14 31 -24 q4 -5 12 -7q7 -2 16 1q14 9 22 18q4 2 8 8l22 44q2 6 2 10q2 16 5 23q3 6 6 15.5t5 13.5q5 12 6 23q0 1 1 7t2 9q2 4 4.5 13.5t4.5 13.5q2 5 5 14.5t5 14.5q4 11 12 15q1 1 4 2.5l5 2.5q13 6 23 19q6 8 3 19q-3 8 -7 13q-17 16 -8 36q6 9 6 19q2 14 5 19q4 12 12 38 q1 2 1.5 9t2.5 10q5 14 11 48q0 1 1.5 2.5t1.5 2.5q5 12 5 24q1 9 1 25q2 16 5 24q3 7 3 15q2 46 0 69q0 9 -5 19q-6 12 -22 28q-7 7 -18 7q-6 1 -20 1q-7 1 -19 5zM364 888q0 -8 5 -13q9 -11 31 -31q11 -11 22 -18q3 -1 8 -6q19 -17 30 -23q4 -3 10 -9q18 -16 22 -18 q2 -1 9 -10q4 -6 6 -8q12 -14 24 -19q4 -1 11 -1q11 3 21 11q3 2 5 5q2 2 4 7t4 8q2 7 -1 13q-1 4 -3 6q-28 28 -42 41q-5 5 -8 7q-9 5 -32 26l-9 6q-6 3 -11 8q-6 6 -20 17t-20 16t-20 13q-10 4 -20 1q-6 -2 -16 -8q-2 0 -2 -2q-3 -4 -7 -12q-1 -2 -1 -7z" glyph-name="Agrave" horiz-adv-x="511" unicode="À"/><glyph d="M426 569q-2 -25 -6 -37q-3 -6 -3 -14q-1 -18 -11 -48q-2 -8 -8 -24l-3 -24q-2 -10 -4 -14q-2 -6 -6 -21t-8 -22q-1 -4 -2.5 -12.5t-2.5 -12.5t-7.5 -9t-11.5 -6q-8 -1 -24 -1.5t-21 -0.5q-14 0 -29 -5q-10 -4 -24 -2q-7 0 -10.5 6t-0.5 12q17 40 34 60q5 10 18 29.5 t18 29.5q27 43 37 53l15 21q4 8 12 16q10 12 20 28q4 5 14 15q4 4 8 3q3 -1 5 -8q0 -9 1 -12zM440 709q-29 -12 -36.5 -17t-27.5 -23l-7 -7q-14 -10 -22 -11q-13 -1 -27 -10l-4 -4q-2 -3 -6.5 -10.5t-7.5 -11.5q-29 -42 -43 -72q-4 -9 -11 -17q-10 -15 -29 -52 q-7 -12 -36 -71q-3 -4 -7.5 -13t-7.5 -13q-5 -7 -29 -53q-3 -5 -9 -16.5t-9 -17.5q-5 -11 -15 -14q-24 -12 -38 -14q-17 -9 -21 -19q-6 -7 0 -15q3 -4 9.5 -11.5t9.5 -11.5t1 -9q-1 -2 -3 -6.5t-3 -6.5q-15 -27 -40 -77l-35 -70q-3 -7 3 -13q3 -2 9.5 -6t11 -8t7.5 -9 q9 -8 22 -12q9 -3 19 2q2 1 20 19q32 64 42 82q30 60 44 90q6 12 10 17q1 4 7 6q11 6 14 7q38 13 52 15q11 0 20 6q6 2 10 3q30 2 45 1q5 -1 9 -5.5t3 -8.5q0 -7 -1 -10q-3 -6 -10 -28q-8 -22 -9 -34l-3 -9q-4 -9 -14 -36t-19 -41q0 -1 -3 -11q0 -10 5 -13q22 -14 31 -24 q4 -5 12 -7q7 -2 16 1q14 9 22 18q4 2 8 8l22 44q2 6 2 10q2 16 5 23q3 6 6 15.5t5 13.5q5 12 6 23q0 1 1 7t2 9q2 4 4.5 13.5t4.5 13.5q2 5 5 14.5t5 14.5q4 11 12 15q1 1 4 2.5l5 2.5q13 6 23 19q6 8 3 19q-3 8 -7 13q-17 16 -8 36q6 9 6 19q2 14 5 19q4 12 12 38 q1 2 1.5 9t2.5 10q5 14 11 48q0 1 1.5 2.5t1.5 2.5q5 12 5 24q1 9 1 25q2 16 5 24q3 7 3 15q2 46 0 69q0 9 -5 19q-6 12 -22 28q-7 7 -18 7q-6 1 -20 1q-7 1 -19 5zM577 888q-1 1 -1 3.5t-1 3.5l-6 12q-2 2 -3 2q-10 6 -15 8q-11 3 -20 -1q-14 -8 -21 -13q-6 -6 -20 -17 t-20 -16q-5 -5 -11 -8q-1 -1 -4 -3t-4 -3q-31 -26 -32 -26q-6 -4 -8 -7q-14 -13 -42 -41q-2 -1 -4 -6q-3 -6 0 -13q2 -5 8 -15q1 -2 4 -5q12 -8 22 -11q7 0 10 1q13 5 25 19q2 2 6 8q4 7 9 10q4 2 7.5 5t7.5 7l6 6t5.5 5t5.5 4q8 4 29 23q1 1 3 2q4 3 6 4q8 5 21 18 q22 20 32 31q3 4 5 13z" glyph-name="Aacute" horiz-adv-x="511" unicode="Á"/><glyph d="M426 569q-2 -25 -6 -37q-3 -6 -3 -14q-1 -18 -11 -48q-2 -8 -8 -24l-3 -24q-2 -10 -4 -14q-2 -6 -6 -21t-8 -22q-1 -4 -2.5 -12.5t-2.5 -12.5t-7.5 -9t-11.5 -6q-8 -1 -24 -1.5t-21 -0.5q-14 0 -29 -5q-10 -4 -24 -2q-7 0 -10.5 6t-0.5 12q17 40 34 60q5 10 18 29.5 t18 29.5q27 43 37 53l15 21q4 8 12 16q10 12 20 28q4 5 14 15q4 4 8 3q3 -1 5 -8q0 -9 1 -12zM440 709q-29 -12 -36.5 -17t-27.5 -23l-7 -7q-14 -10 -22 -11q-13 -1 -27 -10l-4 -4q-2 -3 -6.5 -10.5t-7.5 -11.5q-29 -42 -43 -72q-4 -9 -11 -17q-10 -15 -29 -52 q-7 -12 -36 -71q-3 -4 -7.5 -13t-7.5 -13q-5 -7 -29 -53q-3 -5 -9 -16.5t-9 -17.5q-5 -11 -15 -14q-24 -12 -38 -14q-17 -9 -21 -19q-6 -7 0 -15q3 -4 9.5 -11.5t9.5 -11.5t1 -9q-1 -2 -3 -6.5t-3 -6.5q-15 -27 -40 -77l-35 -70q-3 -7 3 -13q3 -2 9.5 -6t11 -8t7.5 -9 q9 -8 22 -12q9 -3 19 2q2 1 20 19q32 64 42 82q30 60 44 90q6 12 10 17q1 4 7 6q11 6 14 7q38 13 52 15q11 0 20 6q6 2 10 3q30 2 45 1q5 -1 9 -5.5t3 -8.5q0 -7 -1 -10q-3 -6 -10 -28q-8 -22 -9 -34l-3 -9q-4 -9 -14 -36t-19 -41q0 -1 -3 -11q0 -10 5 -13q22 -14 31 -24 q4 -5 12 -7q7 -2 16 1q14 9 22 18q4 2 8 8l22 44q2 6 2 10q2 16 5 23q3 6 6 15.5t5 13.5q5 12 6 23q0 1 1 7t2 9q2 4 4.5 13.5t4.5 13.5q2 5 5 14.5t5 14.5q4 11 12 15q1 1 4 2.5l5 2.5q13 6 23 19q6 8 3 19q-3 8 -7 13q-17 16 -8 36q6 9 6 19q2 14 5 19q4 12 12 38 q1 2 1.5 9t2.5 10q5 14 11 48q0 1 1.5 2.5t1.5 2.5q5 12 5 24q1 9 1 25q2 16 5 24q3 7 3 15q2 46 0 69q0 9 -5 19q-6 12 -22 28q-7 7 -18 7q-6 1 -20 1q-7 1 -19 5zM472 851l1 2q13 13 18 21q1 5 7 11q0 3 2 1q3 2 6 -1q2 -2 3 -4q1 -4 2.5 -12.5t3.5 -12.5q2 -8 7.5 -24 t8.5 -24q1 -2 3 -5t3 -5q9 -14 10 -16t6 -7q3 -2 7 -6q14 -14 28 -16h3q9 -1 16 7q2 2 2 8q-1 1 -2.5 6.5t-3.5 9.5q-2 3 -7 12t-9 13l-6 12q-1 3 -10 29q0 8 -8 28q-1 3 -1 12q-5 17 -5 21q-1 2 -3.5 9.5t-4.5 11.5q0 4 -1 5q-2 9 -13 18q-1 1 -13 7q-2 0 -7 1t-8 1 q-6 2 -11 -3q-17 -14 -24 -23q-1 0 -7 -6q-2 -3 -4.5 -6t-4.5 -6l-4 -6t-4.5 -6.5t-6 -7l-5.5 -5.5q-1 0 -5 -7q-4 -5 -11 -14t-11 -13q-13 -16 -15 -19q-14 -19 -17 -24q-2 -2 -8 -12.5t-10 -15.5q-5 -4 -1 -8q7 -9 8 -10q4 -4 7 -4q11 -4 26 -4q3 0 9 3q3 2 9 10 q1 1 5.5 7t7.5 8q4 3 8.5 10t7.5 10q1 1 3 3.5t3 3.5q2 2 8 7t8 7q0 1 2 3t2 3v3v9z" glyph-name="Acircumflex" horiz-adv-x="511" unicode="Â"/><glyph d="M426 569q-2 -25 -6 -37q-3 -6 -3 -14q-1 -18 -11 -48q-2 -8 -8 -24l-3 -24q-2 -10 -4 -14q-2 -6 -6 -21t-8 -22q-1 -4 -2.5 -12.5t-2.5 -12.5t-7.5 -9t-11.5 -6q-8 -1 -24 -1.5t-21 -0.5q-14 0 -29 -5q-10 -4 -24 -2q-7 0 -10.5 6t-0.5 12q17 40 34 60q5 10 18 29.5 t18 29.5q27 43 37 53l15 21q4 8 12 16q10 12 20 28q4 5 14 15q4 4 8 3q3 -1 5 -8q0 -9 1 -12zM440 709q-29 -12 -36.5 -17t-27.5 -23l-7 -7q-14 -10 -22 -11q-13 -1 -27 -10l-4 -4q-2 -3 -6.5 -10.5t-7.5 -11.5q-29 -42 -43 -72q-4 -9 -11 -17q-10 -15 -29 -52 q-7 -12 -36 -71q-3 -4 -7.5 -13t-7.5 -13q-5 -7 -29 -53q-3 -5 -9 -16.5t-9 -17.5q-5 -11 -15 -14q-24 -12 -38 -14q-17 -9 -21 -19q-6 -7 0 -15q3 -4 9.5 -11.5t9.5 -11.5t1 -9q-1 -2 -3 -6.5t-3 -6.5q-15 -27 -40 -77l-35 -70q-3 -7 3 -13q3 -2 9.5 -6t11 -8t7.5 -9 q9 -8 22 -12q9 -3 19 2q2 1 20 19q32 64 42 82q30 60 44 90q6 12 10 17q1 4 7 6q11 6 14 7q38 13 52 15q11 0 20 6q6 2 10 3q30 2 45 1q5 -1 9 -5.5t3 -8.5q0 -7 -1 -10q-3 -6 -10 -28q-8 -22 -9 -34l-3 -9q-4 -9 -14 -36t-19 -41q0 -1 -3 -11q0 -10 5 -13q22 -14 31 -24 q4 -5 12 -7q7 -2 16 1q14 9 22 18q4 2 8 8l22 44q2 6 2 10q2 16 5 23q3 6 6 15.5t5 13.5q5 12 6 23q0 1 1 7t2 9q2 4 4.5 13.5t4.5 13.5q2 5 5 14.5t5 14.5q4 11 12 15q1 1 4 2.5l5 2.5q13 6 23 19q6 8 3 19q-3 8 -7 13q-17 16 -8 36q6 9 6 19q2 14 5 19q4 12 12 38 q1 2 1.5 9t2.5 10q5 14 11 48q0 1 1.5 2.5t1.5 2.5q5 12 5 24q1 9 1 25q2 16 5 24q3 7 3 15q2 46 0 69q0 9 -5 19q-6 12 -22 28q-7 7 -18 7q-6 1 -20 1q-7 1 -19 5zM293 815q10 -7 25 -12q4 -2 8 2q2 3 6.5 7t5.5 6q4 3 7.5 7t8 8.5l7.5 7.5q3 2 9 5l8 4q3 1 7 1q8 -1 15 -6 q23 -25 30 -41q0 -5 5 -8q4 -5 13.5 -14t13.5 -15q14 -11 29 -8q3 0 6.5 0.5t8 1.5t6.5 1q19 8 31 16q6 1 12 7l15 9q6 3 15 11t14 11t6 7q3 3 9 9.5t10 10.5q11 12 12 26v7q0 5 -6 17q-2 4 -4 5q-8 7 -21 11q-11 1 -17 -5q-10 -8 -16 -18q-9 -12 -17 -17q-26 -21 -33 -24 q-8 -5 -14 -11l-6 -3q-16 -4 -23 -3q-3 0 -6 3t-9 10q-1 3 -14 21q-9 6 -27 28q-34 18 -53 23q-1 0 -4.5 -0.5t-5.5 -0.5q-17 -2 -27 -12q-28 -20 -42 -38q-1 -3 -4 -9.5t-5 -10.5v-1l-1 -1q-2 -10 2 -15l4.5 -4.5z" glyph-name="Atilde" horiz-adv-x="511" unicode="Ã"/><glyph d="M426 569q-2 -25 -6 -37q-3 -6 -3 -14q-1 -18 -11 -48q-2 -8 -8 -24l-3 -24q-2 -10 -4 -14q-2 -6 -6 -21t-8 -22q-1 -4 -2.5 -12.5t-2.5 -12.5t-7.5 -9t-11.5 -6q-8 -1 -24 -1.5t-21 -0.5q-14 0 -29 -5q-10 -4 -24 -2q-7 0 -10.5 6t-0.5 12q17 40 34 60q5 10 18 29.5 t18 29.5q27 43 37 53l15 21q4 8 12 16q10 12 20 28q4 5 14 15q4 4 8 3q3 -1 5 -8q0 -9 1 -12zM440 709q-29 -12 -36.5 -17t-27.5 -23l-7 -7q-14 -10 -22 -11q-13 -1 -27 -10l-4 -4q-2 -3 -6.5 -10.5t-7.5 -11.5q-29 -42 -43 -72q-4 -9 -11 -17q-10 -15 -29 -52 q-7 -12 -36 -71q-3 -4 -7.5 -13t-7.5 -13q-5 -7 -29 -53q-3 -5 -9 -16.5t-9 -17.5q-5 -11 -15 -14q-24 -12 -38 -14q-17 -9 -21 -19q-6 -7 0 -15q3 -4 9.5 -11.5t9.5 -11.5t1 -9q-1 -2 -3 -6.5t-3 -6.5q-15 -27 -40 -77l-35 -70q-3 -7 3 -13q3 -2 9.5 -6t11 -8t7.5 -9 q9 -8 22 -12q9 -3 19 2q2 1 20 19q32 64 42 82q30 60 44 90q6 12 10 17q1 4 7 6q11 6 14 7q38 13 52 15q11 0 20 6q6 2 10 3q30 2 45 1q5 -1 9 -5.5t3 -8.5q0 -7 -1 -10q-3 -6 -10 -28q-8 -22 -9 -34l-3 -9q-4 -9 -14 -36t-19 -41q0 -1 -3 -11q0 -10 5 -13q22 -14 31 -24 q4 -5 12 -7q7 -2 16 1q14 9 22 18q4 2 8 8l22 44q2 6 2 10q2 16 5 23q3 6 6 15.5t5 13.5q5 12 6 23q0 1 1 7t2 9q2 4 4.5 13.5t4.5 13.5q2 5 5 14.5t5 14.5q4 11 12 15q1 1 4 2.5l5 2.5q13 6 23 19q6 8 3 19q-3 8 -7 13q-17 16 -8 36q6 9 6 19q2 14 5 19q4 12 12 38 q1 2 1.5 9t2.5 10q5 14 11 48q0 1 1.5 2.5t1.5 2.5q5 12 5 24q1 9 1 25q2 16 5 24q3 7 3 15q2 46 0 69q0 9 -5 19q-6 12 -22 28q-7 7 -18 7q-6 1 -20 1q-7 1 -19 5zM589 837q0 6 -1 10q-2 5 -6 8q-15 10 -29 11q-2 0 -10 2h-1l-2 1q-4 0 -6 -2q-13 -9 -14 -19 q-1 -4 -4.5 -17t-6.5 -19q-1 -1 -1 -4q-2 -8 4 -13q11 -11 20 -12q3 -1 8 -3t8 -3q8 -3 16 4q8 8 12 16l12 33q1 2 1 7zM358 838q-13 0 -18 -2q-5 -1 -9 -6t-4 -9q1 -6 1 -17q0 -4 4 -10q8 -8 12 -11l9 -6q4 0 20 -7q6 -2 9 3q4 3 7 7q5 6 6 13v6q1 14 -7 26l-5 5l-6 3 q-10 5 -17 5h-2z" glyph-name="Adieresis" horiz-adv-x="511" unicode="Ä"/><glyph d="M426 569q-2 -25 -6 -37q-3 -6 -3 -14q-1 -18 -11 -48q-2 -8 -8 -24l-3 -24q-2 -10 -4 -14q-2 -6 -6 -21t-8 -22q-1 -4 -2.5 -12.5t-2.5 -12.5t-7.5 -9t-11.5 -6q-8 -1 -24 -1.5t-21 -0.5q-14 0 -29 -5q-10 -4 -24 -2q-7 0 -10.5 6t-0.5 12q17 40 34 60q5 10 18 29.5 t18 29.5q27 43 37 53l15 21q4 8 12 16q10 12 20 28q4 5 14 15q4 4 8 3q3 -1 5 -8q0 -9 1 -12zM440 709q-29 -12 -36.5 -17t-27.5 -23l-7 -7q-14 -10 -22 -11q-13 -1 -27 -10l-4 -4q-2 -3 -6.5 -10.5t-7.5 -11.5q-29 -42 -43 -72q-4 -9 -11 -17q-10 -15 -29 -52 q-7 -12 -36 -71q-3 -4 -7.5 -13t-7.5 -13q-5 -7 -29 -53q-3 -5 -9 -16.5t-9 -17.5q-5 -11 -15 -14q-24 -12 -38 -14q-17 -9 -21 -19q-6 -7 0 -15q3 -4 9.5 -11.5t9.5 -11.5t1 -9q-1 -2 -3 -6.5t-3 -6.5q-15 -27 -40 -77l-35 -70q-3 -7 3 -13q3 -2 9.5 -6t11 -8t7.5 -9 q9 -8 22 -12q9 -3 19 2q2 1 20 19q32 64 42 82q30 60 44 90q6 12 10 17q1 4 7 6q11 6 14 7q38 13 52 15q11 0 20 6q6 2 10 3q30 2 45 1q5 -1 9 -5.5t3 -8.5q0 -7 -1 -10q-3 -6 -10 -28q-8 -22 -9 -34l-3 -9q-4 -9 -14 -36t-19 -41q0 -1 -3 -11q0 -10 5 -13q22 -14 31 -24 q4 -5 12 -7q7 -2 16 1q14 9 22 18q4 2 8 8l22 44q2 6 2 10q2 16 5 23q3 6 6 15.5t5 13.5q5 12 6 23q0 1 1 7t2 9q2 4 4.5 13.5t4.5 13.5q2 5 5 14.5t5 14.5q4 11 12 15q1 1 4 2.5l5 2.5q13 6 23 19q6 8 3 19q-3 8 -7 13q-17 16 -8 36q6 9 6 19q2 14 5 19q4 12 12 38 q1 2 1.5 9t2.5 10q5 14 11 48q0 1 1.5 2.5t1.5 2.5q5 12 5 24q1 9 1 25q2 16 5 24q3 7 3 15q2 46 0 69q0 9 -5 19q-6 12 -22 28q-7 7 -18 7q-6 1 -20 1q-7 1 -19 5zM505 910q3 3 7 3q1 0 10 -3q4 -1 10 -3q4 0 4 -4v-10q-5 -12 -9 -17q-1 -1 -3 -4t-3 -5q-9 -15 -24 -24 q-5 -3 -12 -10q-6 -4 -7 -5q-5 0 -7 4v5q1 3 3 10t4 10q3 7 11 19q3 2 8 7t8 7q4 6 3 13q-1 3 -3 7zM559 944q-3 1 -8 2.5t-6 1.5q-2 1 -6.5 -0.5t-6.5 -1.5q-5 0 -13 -2l-5 -2q-5 -2 -7 -4q-11 -5 -15 -14q0 -5 -4 -3q-1 0 -13 -2q-9 -1 -15 -9q-5 -5 -15 -16q-4 -2 -4 -6 q-11 -16 -13 -26q-2 -6 -4 -10q0 -8 -3 -13q-4 -9 -2 -21q0 -1 0.5 -3t0.5 -3q1 -2 3 -5.5t3 -5.5q4 -5 14 -13q3 -2 9 -4l9 -3q9 -3 20 0q19 6 25 10q5 2 15 7q2 2 9 8t10 10q5 5 11 8q2 0 8 7l6 9q10 13 12 17l2.5 2.5t2.5 3t1 3.5q7 17 8 22q1 9 0 19v3q0 1 -3 7t-4 10 l-1 1q-1 2 -2 3q-7 5 -19 13z" glyph-name="Aring" horiz-adv-x="511" unicode="Å"/><glyph d="M379 353q-8 -1 -27 -2.5t-28 -3.5q-2 -2 -5 1q-4 6 -2 10q20 42 36 60q14 17 20 32q2 6 12 20q14 17 20 32q2 5 14 19q3 4 8 1l4 -4q5 -10 3 -21q-6 -22 -8 -33q-2 -8 -1 -14q1 -10 -3 -30q-6 -21 -9 -42q0 -10 -11 -15q-4 -2 -11.5 -5t-11.5 -5zM762 624q12 17 17 21 q3 2 3 9q-2 14 -13 24q-4 3 -11.5 9t-10.5 9q-5 3 -10 5q-32 6 -49 10q-5 1 -15 -1q-18 -6 -30 -6q-31 -2 -44 -9q-1 0 -11 -1.5t-15 -1.5q-10 0 -15 4q-15 -2 -34 -6t-24.5 -5t-16.5 1q-6 2 -16 4q-23 3 -42 0q-8 -2 -14 -6l-10 -10q-22 -24 -42.5 -54t-33.5 -47 q-12 -15 -17 -28q-1 -1 -13 -20q-11 -15 -14 -19q-5 -13 -27 -45q-16 -20 -20 -32q-2 -6 -4 -9q-10 -10 -22 -36q-2 -5 -8.5 -13.5t-7.5 -10.5q-2 -8 -24 -40q-8 -10 -12 -21q-5 -9 -10 -16q-1 -2 -11 -16.5t-13 -24.5q-2 -3 -22 -31q-3 -4 -8.5 -16t-9.5 -17q-2 -2 -15 -25 q-20 -42 -26 -51q-6 -8 5 -19q11 -12 31 -25q3 -2 11 -4q27 -4 37 -7q3 -1 5 1q19 15 25 34q8 29 25 51q9 11 14 25q1 2 3.5 6t3.5 6q15 20 20 33q1 4 7 12q10 13 26 39q2 3 9 5q14 2 26 -4q21 -8 42 -2q13 6 29 6q14 0 21 1q1 0 3 -0.5t3 -0.5q10 -3 10 -12q-1 -4 -2 -16 t-3 -18q-1 -6 -2 -19.5t-3 -19.5t-1.5 -17.5t-0.5 -17.5q-4 -16 3 -46q3 -12 13 -24q23 -23 49 -39q6 -4 10 -5q18 -5 32 -10t31 0q5 1 14.5 4t13.5 5q6 2 16.5 8.5t13.5 7.5q7 4 38 21q2 1 6.5 3t6.5 4q7 7 22.5 16.5t17.5 10.5q4 3 8 11q4 11 5 14q3 13 -8 25q-8 8 -13 11 l-4 4q-2 0 -5.5 1.5t-5.5 2.5q-28 4 -45 -5q-6 -3 -45 -19q-9 -4 -23.5 -12t-19.5 -10q-1 0 -2.5 -0.5t-2.5 -1.5q-9 -2 -14 7q-5 16 -3 26q2 5 3 16.5t2 17.5q2 6 2 19v16q1 5 2.5 16.5t2.5 17.5q0 3 5 13q3 3 4 3q28 11 42 24q3 5 12 8q7 2 31 14q18 8 28 10q6 3 18.5 7 t18.5 7q24 11 46 18q8 3 17 8q13 7 19 21q4 11 -5 20l-18 15q-20 8 -31 13h-26q-9 0 -15 -3q-11 -5 -35 -7q-7 0 -15 -3q-6 -4 -21 -8t-21 -7q-4 -2 -15 -2q-9 0 -14 6q0 26 8 53q3 12 3 25q0 10 1 15l3 24q0 5 2 15t2 15q3 18 20 25q14 7 17 8q6 2 17 5.5t16 5.5 q9 0 23 4.5t16 5.5q32 8 34 9q4 2 15 2z" glyph-name="AE" horiz-adv-x="800" unicode="Æ"/><glyph d="M64 245q4 -4 3 -10l-3 -2q-6 2 -4 8zM125 437q6 0 6 -6q-1 1 -3 2l-1 1q-1 0 -2 5l-3 -3l-2 -1q-1 -2 -6.5 -10t-8.5 -12q-8 -9 -13 -25q-4 -14 -18 -40q-3 -7 -14 -30q-1 -7 -13 -37q-1 -4 -4 -10t-4 -9q-5 -40 -9 -50q-3 -5 -3 -16q-1 -9 -1 -28q0 -22 2 -33 q1 -3 4 -10t4 -11q3 -12 17 -41l15 -15q11 -12 26 -20q10 -6 13 -10q5 -5 15.5 -10t12.5 -7l49 -15q5 -2 15.5 -3.5t15.5 -2.5q4 -3 11 0q9 4 22 4q7 0 26 7q1 -1 3 -1t3 -1q17 -6 27 -1q14 6 45 10q4 2 20.5 10.5t26.5 13.5q4 4 12 11.5t12 11.5q10 8 6 19q-1 3 6 8 q8 7 5 15q-9 18 -24 20q-3 0 -21 8q-8 1 -16 0q-26 -9 -50 -25q-2 -1 -5 -5.5t-5 -6.5q-4 0 -6 2q-12 3 -21 -2q-18 -6 -21 -6q-30 -2 -43 -8q-3 -2 -12 -2q-5 0 -13 0.5t-12 0.5q-18 8 -36 28q-6 10 -8 14q-1 4 -2 10t-1 7q-14 27 -3 54q3 6 3 10q1 4 1 11q2 24 9 38 q2 8 8.5 25.5t8.5 27.5q4 7 13 25.5t14 28.5q1 2 4 10q5 10 16.5 27t15.5 25q3 5 10 13.5t10 13.5q5 4 9 13q10 17 32 37l67 67q7 8 18 13l7.5 5t6.5 5q9 8 29 15q6 1 18 7t18 7q7 1 15 -5q6 -6 18 -17t18 -17q13 -13 36 -9q8 2 15 7l8 8q7 7 5 14q-16 46 -26 60 q-5 5 -17 16.5t-17 16.5q-6 4 -15.5 7t-12.5 5q-9 5 -28 8t-26 6q-2 0 -5.5 -0.5t-5.5 -1.5q-6 -3 -17.5 -4t-15.5 -2q-6 -3 -9 -4q-46 -23 -65 -42q-4 -4 -14 -8q-10 -8 -13 -11q-12 -12 -26 -25.5t-30.5 -30.5t-25.5 -26q-7 -6 -13 -18q-2 -2 -5 -7t-5 -7q-21 -21 -27 -35 q-4 -4 -11 -12.5t-10 -12.5q-7 -7 -9 -26zM102 -201q2 -2 4.5 -6t3.5 -6q8 -8 11 -12q13 -4 15 -6q5 -2 13 -4q6 -3 13 -1q4 2 6 2q3 -1 7 -1q1 0 3.5 0.5t3.5 0.5q5 -1 14.5 1.5t13.5 2.5q6 3 18 6.5t16 4.5q3 1 8 2t7 2q15 5 30 12q2 1 6.5 2.5t6.5 2.5q19 13 22 15 q3 1 6.5 5t5.5 5q3 0 5 4q1 2 5 6.5t5 7.5q9 12 12 28q1 2 -1 8q-1 5 -6 10q-3 3 -8 8.5t-8 8.5l-8 4q-1 0 -4 0.5t-4 1.5q-8 6 -10 8q-6 2 -21 10q-11 2 -16 5t-10 3q-2 2 -2 5l2.5 5t2.5 4q6 9 16 29q0 1 0.5 2.5t1.5 2.5q0 1 -0.5 2.5t-0.5 3.5q-1 -2 -3 -4t-4 1 q4 8 5 12q1 2 3 7t3 7t1 7q-1 4 -6 4h-3q-5 6 -12 3h-1q-1 1 -1.5 3t0 3.5t-0.5 3.5q-1 1 -1 2q-1 2 -1 3h-13t-13 -1q-2 -1 -5 -4q0 -1 -0.5 -2.5t-0.5 -2.5q0 -2 -6 -19q-1 -2 -4 -6l-3 -4q-5 -11 -16 -26q0 -1 -2 -4t-2 -5q-1 -6 -7 -10q-1 -2 -7.5 -10t-8.5 -14 q0 -1 -1 -1q-4 -4 -7 -6l-2 -4q-2 -4 -2 -7q1 -2 2.5 -7t2.5 -7q4 -3 7 -7q3 -3 7 -9q1 -2 12 -5l6 -6q3 0 9 -1.5t10 -0.5q2 1 8 5q7 0 10 2q2 1 4.5 0t3.5 -1q6 2 10 2h12q6 -1 11 -4q2 -2 3 -4q-2 -3 -13 -14q-6 -2 -8 -3q-1 0 -5 -3.5t-6 -4.5q-21 -10 -26 -12 q-3 -1 -32 -12q-21 -8 -43 -8q-7 1 -16 -2q-1 0 -25 -6q-1 -3 -4 -7t-4 -6z" glyph-name="Ccedilla" horiz-adv-x="500" unicode="Ç"/><glyph d="M303 414q5 0 8 -5q2 -6 -1 -10q-1 -1 -2 -0.5t-1 1.5q-2 2 -2 4q-1 4 -1 10q-5 0 -7 -1q-10 -8 -23 -1q-12 5 -8 17q5 10 7 17q3 6 13 23t14 27q2 4 11 17t12 22q2 6 12 11q20 11 29 12q6 1 15.5 4.5t14.5 4.5q7 2 21.5 4t15.5 2q2 0 4 2q21 7 25 7q29 2 32 3q4 1 14.5 5 t17.5 5q4 1 14 6t15 7q14 4 31 17q3 3 5 11q-1 10 0 22q2 6 -4 10q-3 3 -16 11.5t-19 15.5q-1 1 -10 3q-30 2 -89 -2q-4 0 -10 -2q-14 -8 -41 -10q-21 -2 -31 -6q-5 -3 -17 -6.5t-18 -7.5q-11 0 -16 1q-2 1 -6.5 3t-7.5 2q-17 2 -25 -5q-1 -1 -2.5 -3t-2.5 -3 q-20 -16 -42 -22q-7 -1 -19.5 -7.5t-19.5 -8.5q-4 -3 -6 -9q-5 -22 1 -40q1 -3 3.5 -8.5t3.5 -8.5q5 -15 -1 -34q-3 -3 -6 -10.5t-4 -8.5q-15 -22 -29 -56q-8 -16 -11 -33q-2 -10 -8 -15q-2 -2 -5 -8l-4 -8q-8 -13 -15 -21q-5 -3 -7 -10q-1 -7 -3 -18q0 -2 -12 -43 q0 -9 -12 -19l-2 -6q-38 -90 -41 -98q0 -2 -1.5 -7t-1.5 -7q0 -18 -12 -30q-4 -6 -6 -12q-2 -24 4 -39q4 -10 10 -21q5 -8 7 -9q4 -3 14.5 -10.5t16.5 -12.5q1 -1 3.5 -2t4.5 -2.5t4 -3.5q24 -14 46 -6q20 10 31 10q3 0 8 1t8 1q8 3 21.5 10t16.5 8q5 1 91 35q9 1 15 6 q4 6 15.5 13t15.5 11q16 6 24 28q4 16 1 35l-4 4q-10 7 -28 13q-16 7 -35 0q-4 -1 -9 -5t-6 -4q-9 -2 -38.5 -11.5t-34.5 -12.5t-15 -7t-14 -6q-10 -3 -32 -3l-2 1h-3q-5 1 -8 6t-2 9q3 8 7 22q3 18 11 26q17 22 25 45q1 2 4 9q7 16 23 24q20 11 39 17q21 8 24 8q15 0 41 10 q5 0 35 14q8 6 29 14q4 1 12 5.5t12 6.5q19 11 27 33q5 14 6 17q1 1 1 3t0.5 4t0.5 4q-2 3 -7 16q-6 10 -11 12q-6 1 -17 6.5l-13 6.5h-16q-16 -11 -19 -12q-20 -5 -25 -9q-22 -8 -23 -9zM272 906q0 -8 5 -13q9 -11 31 -31q11 -11 22 -18q3 -1 8 -6q19 -17 30 -23 q4 -3 10 -9q18 -16 22 -18q2 -1 9 -10q4 -6 6 -8q12 -14 24 -19q4 -1 11 -1q11 3 21 11q3 2 5 5q2 2 4.5 7t3.5 8q2 7 -1 13q-1 4 -3 6q-28 28 -42 41q-5 5 -8 7q-9 5 -32 26l-9 6q-6 3 -11 8q-6 6 -20 17t-20 16t-20 13q-10 4 -20 1q-6 -2 -16 -8q-2 0 -2 -2q-3 -4 -7 -12 q-1 -2 -1 -7z" glyph-name="Egrave" horiz-adv-x="490" unicode="È"/><glyph d="M303 414q5 0 8 -5q2 -6 -1 -10q-1 -1 -2 -0.5t-1 1.5q-2 2 -2 4q-1 4 -1 10q-5 0 -7 -1q-10 -8 -23 -1q-12 5 -8 17q5 10 7 17q3 6 13 23t14 27q2 4 11 17t12 22q2 6 12 11q20 11 29 12q6 1 15.5 4.5t14.5 4.5q7 2 21.5 4t15.5 2q2 0 4 2q21 7 25 7q29 2 32 3q4 1 14.5 5 t17.5 5q4 1 14 6t15 7q14 4 31 17q3 3 5 11q-1 10 0 22q2 6 -4 10q-3 3 -16 11.5t-19 15.5q-1 1 -10 3q-30 2 -89 -2q-4 0 -10 -2q-14 -8 -41 -10q-21 -2 -31 -6q-5 -3 -17 -6.5t-18 -7.5q-11 0 -16 1q-2 1 -6.5 3t-7.5 2q-17 2 -25 -5q-1 -1 -2.5 -3t-2.5 -3 q-20 -16 -42 -22q-7 -1 -19.5 -7.5t-19.5 -8.5q-4 -3 -6 -9q-5 -22 1 -40q1 -3 3.5 -8.5t3.5 -8.5q5 -15 -1 -34q-3 -3 -6 -10.5t-4 -8.5q-15 -22 -29 -56q-8 -16 -11 -33q-2 -10 -8 -15q-2 -2 -5 -8l-4 -8q-8 -13 -15 -21q-5 -3 -7 -10q-1 -7 -3 -18q0 -2 -12 -43 q0 -9 -12 -19l-2 -6q-38 -90 -41 -98q0 -2 -1.5 -7t-1.5 -7q0 -18 -12 -30q-4 -6 -6 -12q-2 -24 4 -39q4 -10 10 -21q5 -8 7 -9q4 -3 14.5 -10.5t16.5 -12.5q1 -1 3.5 -2t4.5 -2.5t4 -3.5q24 -14 46 -6q20 10 31 10q3 0 8 1t8 1q8 3 21.5 10t16.5 8q5 1 91 35q9 1 15 6 q4 6 15.5 13t15.5 11q16 6 24 28q4 16 1 35l-4 4q-10 7 -28 13q-16 7 -35 0q-4 -1 -9 -5t-6 -4q-9 -2 -38.5 -11.5t-34.5 -12.5t-15 -7t-14 -6q-10 -3 -32 -3l-2 1h-3q-5 1 -8 6t-2 9q3 8 7 22q3 18 11 26q17 22 25 45q1 2 4 9q7 16 23 24q20 11 39 17q21 8 24 8q15 0 41 10 q5 0 35 14q8 6 29 14q4 1 12 5.5t12 6.5q19 11 27 33q5 14 6 17q1 1 1 3t0.5 4t0.5 4q-2 3 -7 16q-6 10 -11 12q-6 1 -17 6.5l-13 6.5h-16q-16 -11 -19 -12q-20 -5 -25 -9q-22 -8 -23 -9zM577 888q-1 1 -1 3.5t-1 3.5l-6 12q-2 2 -3 2q-10 6 -15 8q-11 3 -20 -1 q-14 -8 -21 -13q-6 -6 -20 -17t-20 -16q-5 -5 -11 -8q-1 -1 -4 -3t-4 -3q-31 -26 -32 -26q-6 -4 -8 -7q-14 -13 -42 -41q-2 -1 -4 -6q-3 -6 0 -13q2 -5 8 -15q1 -2 4 -5q12 -8 22 -11q7 0 10 1q13 5 25 19q2 2 6 8q4 7 9 10q4 2 7.5 5t7.5 7l6 6t5.5 5t5.5 4q8 4 29 23 q1 1 3 2q4 3 6 4q8 5 21 18q22 20 32 31q3 4 5 13z" glyph-name="Eacute" horiz-adv-x="490" unicode="É"/><glyph d="M303 414q5 0 8 -5q2 -6 -1 -10q-1 -1 -2 -0.5t-1 1.5q-2 2 -2 4q-1 4 -1 10q-5 0 -7 -1q-10 -8 -23 -1q-12 5 -8 17q5 10 7 17q3 6 13 23t14 27q2 4 11 17t12 22q2 6 12 11q20 11 29 12q6 1 15.5 4.5t14.5 4.5q7 2 21.5 4t15.5 2q2 0 4 2q21 7 25 7q29 2 32 3q4 1 14.5 5 t17.5 5q4 1 14 6t15 7q14 4 31 17q3 3 5 11q-1 10 0 22q2 6 -4 10q-3 3 -16 11.5t-19 15.5q-1 1 -10 3q-30 2 -89 -2q-4 0 -10 -2q-14 -8 -41 -10q-21 -2 -31 -6q-5 -3 -17 -6.5t-18 -7.5q-11 0 -16 1q-2 1 -6.5 3t-7.5 2q-17 2 -25 -5q-1 -1 -2.5 -3t-2.5 -3 q-20 -16 -42 -22q-7 -1 -19.5 -7.5t-19.5 -8.5q-4 -3 -6 -9q-5 -22 1 -40q1 -3 3.5 -8.5t3.5 -8.5q5 -15 -1 -34q-3 -3 -6 -10.5t-4 -8.5q-15 -22 -29 -56q-8 -16 -11 -33q-2 -10 -8 -15q-2 -2 -5 -8l-4 -8q-8 -13 -15 -21q-5 -3 -7 -10q-1 -7 -3 -18q0 -2 -12 -43 q0 -9 -12 -19l-2 -6q-38 -90 -41 -98q0 -2 -1.5 -7t-1.5 -7q0 -18 -12 -30q-4 -6 -6 -12q-2 -24 4 -39q4 -10 10 -21q5 -8 7 -9q4 -3 14.5 -10.5t16.5 -12.5q1 -1 3.5 -2t4.5 -2.5t4 -3.5q24 -14 46 -6q20 10 31 10q3 0 8 1t8 1q8 3 21.5 10t16.5 8q5 1 91 35q9 1 15 6 q4 6 15.5 13t15.5 11q16 6 24 28q4 16 1 35l-4 4q-10 7 -28 13q-16 7 -35 0q-4 -1 -9 -5t-6 -4q-9 -2 -38.5 -11.5t-34.5 -12.5t-15 -7t-14 -6q-10 -3 -32 -3l-2 1h-3q-5 1 -8 6t-2 9q3 8 7 22q3 18 11 26q17 22 25 45q1 2 4 9q7 16 23 24q20 11 39 17q21 8 24 8q15 0 41 10 q5 0 35 14q8 6 29 14q4 1 12 5.5t12 6.5q19 11 27 33q5 14 6 17q1 1 1 3t0.5 4t0.5 4q-2 3 -7 16q-6 10 -11 12q-6 1 -17 6.5l-13 6.5h-16q-16 -11 -19 -12q-20 -5 -25 -9q-22 -8 -23 -9zM472 851l1 2q13 13 18 21q1 5 7 11q0 3 2 1q3 2 6 -1q2 -2 3 -4q1 -4 2.5 -12.5 t3.5 -12.5q2 -8 7.5 -24t8.5 -24q1 -2 3 -5t3 -5q9 -14 10 -16t6 -7q3 -2 7 -6q14 -14 28 -16h3q9 -1 16 7q2 2 2 8q-1 1 -2.5 6.5t-3.5 9.5q-2 3 -7 12t-9 13l-6 12q-1 3 -10 29q0 8 -8 28q-1 3 -1 12q-5 17 -5 21q-1 2 -3.5 9.5t-4.5 11.5q0 4 -1 5q-2 9 -13 18 q-1 1 -13 7q-2 0 -7 1t-8 1q-6 2 -11 -3q-17 -14 -24 -23q-1 0 -7 -6q-2 -3 -4.5 -6t-4.5 -6l-4 -6t-4.5 -6.5t-6 -7l-5.5 -5.5q-1 0 -5 -7q-4 -5 -11 -14t-11 -13q-13 -16 -15 -19q-14 -19 -17 -24q-2 -2 -8 -12.5t-10 -15.5q-5 -4 -1 -8q7 -9 8 -10q4 -4 7 -4q11 -4 26 -4 q3 0 9 3q3 2 9 10q1 1 5.5 7t7.5 8q4 3 8.5 10t7.5 10q1 1 3 3.5t3 3.5q2 2 8 7t8 7q0 1 2 3t2 3v3v9z" glyph-name="Ecircumflex" horiz-adv-x="490" unicode="Ê"/><glyph d="M303 414q5 0 8 -5q2 -6 -1 -10q-1 -1 -2 -0.5t-1 1.5q-2 2 -2 4q-1 4 -1 10q-5 0 -7 -1q-10 -8 -23 -1q-12 5 -8 17q5 10 7 17q3 6 13 23t14 27q2 4 11 17t12 22q2 6 12 11q20 11 29 12q6 1 15.5 4.5t14.5 4.5q7 2 21.5 4t15.5 2q2 0 4 2q21 7 25 7q29 2 32 3q4 1 14.5 5 t17.5 5q4 1 14 6t15 7q14 4 31 17q3 3 5 11q-1 10 0 22q2 6 -4 10q-3 3 -16 11.5t-19 15.5q-1 1 -10 3q-30 2 -89 -2q-4 0 -10 -2q-14 -8 -41 -10q-21 -2 -31 -6q-5 -3 -17 -6.5t-18 -7.5q-11 0 -16 1q-2 1 -6.5 3t-7.5 2q-17 2 -25 -5q-1 -1 -2.5 -3t-2.5 -3 q-20 -16 -42 -22q-7 -1 -19.5 -7.5t-19.5 -8.5q-4 -3 -6 -9q-5 -22 1 -40q1 -3 3.5 -8.5t3.5 -8.5q5 -15 -1 -34q-3 -3 -6 -10.5t-4 -8.5q-15 -22 -29 -56q-8 -16 -11 -33q-2 -10 -8 -15q-2 -2 -5 -8l-4 -8q-8 -13 -15 -21q-5 -3 -7 -10q-1 -7 -3 -18q0 -2 -12 -43 q0 -9 -12 -19l-2 -6q-38 -90 -41 -98q0 -2 -1.5 -7t-1.5 -7q0 -18 -12 -30q-4 -6 -6 -12q-2 -24 4 -39q4 -10 10 -21q5 -8 7 -9q4 -3 14.5 -10.5t16.5 -12.5q1 -1 3.5 -2t4.5 -2.5t4 -3.5q24 -14 46 -6q20 10 31 10q3 0 8 1t8 1q8 3 21.5 10t16.5 8q5 1 91 35q9 1 15 6 q4 6 15.5 13t15.5 11q16 6 24 28q4 16 1 35l-4 4q-10 7 -28 13q-16 7 -35 0q-4 -1 -9 -5t-6 -4q-9 -2 -38.5 -11.5t-34.5 -12.5t-15 -7t-14 -6q-10 -3 -32 -3l-2 1h-3q-5 1 -8 6t-2 9q3 8 7 22q3 18 11 26q17 22 25 45q1 2 4 9q7 16 23 24q20 11 39 17q21 8 24 8q15 0 41 10 q5 0 35 14q8 6 29 14q4 1 12 5.5t12 6.5q19 11 27 33q5 14 6 17q1 1 1 3t0.5 4t0.5 4q-2 3 -7 16q-6 10 -11 12q-6 1 -17 6.5l-13 6.5h-16q-16 -11 -19 -12q-20 -5 -25 -9q-22 -8 -23 -9zM589 837q0 6 -1 10q-2 5 -6 8q-15 10 -29 11q-2 0 -10 2h-1l-2 1q-4 0 -6 -2 q-13 -9 -14 -19q-1 -4 -4.5 -17t-6.5 -19q-1 -1 -1 -4q-2 -8 4 -13q11 -11 20 -12q3 -1 8 -3t8 -3q8 -3 16 4q8 8 12 16l12 33q1 2 1 7zM358 838q-13 0 -18 -2q-5 -1 -9 -6t-4 -9q1 -6 1 -17q0 -4 4 -10q8 -8 12 -11l9 -6q4 0 20 -7q6 -2 9 3q4 3 7 7q5 6 6 13v6q1 14 -7 26 l-5 5l-6 3q-10 5 -17 5h-2z" glyph-name="Edieresis" horiz-adv-x="490" unicode="Ë"/><glyph d="M129 42q-1 -3 -3 -3q-4 2 -2 7l3 3q4 -2 2 -7zM257 684q-14 -5 -25 -6q-40 0 -60 -1l-8 1q-9 0 -9 -1q-22 -10 -28 -18q0 -1 -1 -3v-3q4 -12 5 -24q5 -12 6 -13q6 -8 8 -13q11 -12 23 -19q11 -8 24 -4q5 4 14 6q5 0 11.5 2.5t13.5 0.5q9 -2 9 -13q0 -5 -1 -6q0 -3 -8 -34 q-1 -7 -7 -18q-7 -22 -8 -28q0 -4 -5 -14q-2 -8 -6.5 -21t-5.5 -17q-1 -6 -5 -17t-5 -17q-2 -6 -5.5 -18.5t-6.5 -18.5q-9 -23 -10 -39q-1 -2 -2 -7t-1 -7q-7 -16 -8 -20q-2 -7 -11 -29t-12 -35q-6 -17 -42 -110q-3 -8 -10 -11q-1 -11 -17 -19q-11 -7 -26 -12q-1 -1 -4 -2 t-4 -2q-2 0 -7.5 -1t-8.5 -1t-7 -6q-6 -10 -3 -23q0 -3 1.5 -8t2.5 -7q3 -10 10 -14q5 -3 15 -10t14 -9q9 -2 13 -1h15q4 3 12 8t11 7q3 1 9.5 5.5t7.5 5.5q1 0 5.5 2t6.5 2q4 1 16 16q2 -2 8 -2q5 -2 12 1q5 5 10 5q16 0 28 8q3 2 7 2q8 1 21 1q18 0 28 8q1 0 5 1t7 1 q13 3 15 5l18 9q7 1 11 7q3 6 9 12q4 7 1.5 18.5t-11.5 16.5q-3 2 -10.5 4t-11.5 5q-5 4 -20 0l-4 -2q-5 -2 -7 -2q-25 -3 -44 -2q-10 2 -8 11q1 4 6 16.5t6 20.5l5 15q18 44 22 64q1 6 6 18.5t7 19.5q2 16 11 38q3 5 5.5 16.5t4.5 17.5q4 8 0 23q1 5 6 8q1 1 3 4q0 1 0.5 3 t1 3.5t1 3.5t1.5 3q0 2 1 3v2q1 2 5.5 16t8.5 21q3 7 6.5 20t5.5 20q11 28 14 46q12 34 16 41l6 6q5 1 12 1h73q8 0 13 1q6 3 8 10q1 2 3 3.5t3 0.5q10 -4 12 10q4 11 -3 22q-5 8 -12 13q-22 14 -33 20q-16 3 -20 4q-12 7 -32 7h-44h-46q-9 0 -15 -6q-7 -2 -15 0q-1 2 -3 2z M249 903q0 -8 5 -13q9 -11 31 -31q11 -11 22 -18q3 -1 8 -6q19 -17 30 -23q4 -3 10 -9q18 -16 22 -18q2 -1 9 -10q4 -6 6 -8q12 -14 24 -19q4 -1 11 -1q11 3 21 11q3 2 5 5q1 3 4 8t4 7q2 7 -1 13q-2 5 -3 6q-28 28 -42 41q-5 5 -8 7q-9 5 -32 26l-9 6q-6 3 -11 8 q-6 6 -20 17t-20 16t-20 13q-10 4 -20 1q-6 -2 -16 -8q-2 0 -2 -2q-3 -4 -7 -12q-1 -2 -1 -7z" glyph-name="Igrave" horiz-adv-x="421" unicode="Ì"/><glyph d="M129 42q-1 -3 -3 -3q-4 2 -2 7l3 3q4 -2 2 -7zM257 684q-14 -5 -25 -6q-40 0 -60 -1l-8 1q-9 0 -9 -1q-22 -10 -28 -18q0 -1 -1 -3v-3q4 -12 5 -24q5 -12 6 -13q6 -8 8 -13q11 -12 23 -19q11 -8 24 -4q5 4 14 6q5 0 11.5 2.5t13.5 0.5q9 -2 9 -13q0 -5 -1 -6q0 -3 -8 -34 q-1 -7 -7 -18q-7 -22 -8 -28q0 -4 -5 -14q-2 -8 -6.5 -21t-5.5 -17q-1 -6 -5 -17t-5 -17q-2 -6 -5.5 -18.5t-6.5 -18.5q-9 -23 -10 -39q-1 -2 -2 -7t-1 -7q-7 -16 -8 -20q-2 -7 -11 -29t-12 -35q-6 -17 -42 -110q-3 -8 -10 -11q-1 -11 -17 -19q-11 -7 -26 -12q-1 -1 -4 -2 t-4 -2q-2 0 -7.5 -1t-8.5 -1t-7 -6q-6 -10 -3 -23q0 -3 1.5 -8t2.5 -7q3 -10 10 -14q5 -3 15 -10t14 -9q9 -2 13 -1h15q4 3 12 8t11 7q3 1 9.5 5.5t7.5 5.5q1 0 5.5 2t6.5 2q4 1 16 16q2 -2 8 -2q5 -2 12 1q5 5 10 5q16 0 28 8q3 2 7 2q8 1 21 1q18 0 28 8q1 0 5 1t7 1 q13 3 15 5l18 9q7 1 11 7q3 6 9 12q4 7 1.5 18.5t-11.5 16.5q-3 2 -10.5 4t-11.5 5q-5 4 -20 0l-4 -2q-5 -2 -7 -2q-25 -3 -44 -2q-10 2 -8 11q1 4 6 16.5t6 20.5l5 15q18 44 22 64q1 6 6 18.5t7 19.5q2 16 11 38q3 5 5.5 16.5t4.5 17.5q4 8 0 23q1 5 6 8q1 1 3 4q0 1 0.5 3 t1 3.5t1 3.5t1.5 3q0 2 1 3v2q1 2 5.5 16t8.5 21q3 7 6.5 20t5.5 20q11 28 14 46q12 34 16 41l6 6q5 1 12 1h73q8 0 13 1q6 3 8 10q1 2 3 3.5t3 0.5q10 -4 12 10q4 11 -3 22q-5 8 -12 13q-22 14 -33 20q-16 3 -20 4q-12 7 -32 7h-44h-46q-9 0 -15 -6q-7 -2 -15 0q-1 2 -3 2z M463 888q-1 1 -1 3.5t-1 3.5l-6 12q-2 2 -3 2q-10 6 -15 8q-11 3 -20 -1q-14 -8 -21 -13q-6 -6 -20 -17t-20 -16q-5 -5 -11 -8q-1 -1 -4 -3t-4 -3q-31 -26 -32 -26q-6 -4 -8 -7q-14 -13 -42 -41q-2 -1 -4 -6q-3 -6 0 -13q2 -5 8 -15q1 -2 4 -5q12 -8 22 -11q7 0 10 1 q13 5 25 19q2 2 6 8q4 7 9 10q4 2 7.5 5t7.5 7l6 6t5.5 5t5.5 4q8 4 29 23q1 1 3 2q4 3 6 4q8 5 21 18q22 20 32 31q3 4 5 13z" glyph-name="Iacute" horiz-adv-x="421" unicode="Í"/><glyph d="M129 42q-1 -3 -3 -3q-4 2 -2 7l3 3q4 -2 2 -7zM257 684q-14 -5 -25 -6q-40 0 -60 -1l-8 1q-9 0 -9 -1q-22 -10 -28 -18q0 -1 -1 -3v-3q4 -12 5 -24q5 -12 6 -13q6 -8 8 -13q11 -12 23 -19q11 -8 24 -4q5 4 14 6q5 0 11.5 2.5t13.5 0.5q9 -2 9 -13q0 -5 -1 -6q0 -3 -8 -34 q-1 -7 -7 -18q-7 -22 -8 -28q0 -4 -5 -14q-2 -8 -6.5 -21t-5.5 -17q-1 -6 -5 -17t-5 -17q-2 -6 -5.5 -18.5t-6.5 -18.5q-9 -23 -10 -39q-1 -2 -2 -7t-1 -7q-7 -16 -8 -20q-2 -7 -11 -29t-12 -35q-6 -17 -42 -110q-3 -8 -10 -11q-1 -11 -17 -19q-11 -7 -26 -12q-1 -1 -4 -2 t-4 -2q-2 0 -7.5 -1t-8.5 -1t-7 -6q-6 -10 -3 -23q0 -3 1.5 -8t2.5 -7q3 -10 10 -14q5 -3 15 -10t14 -9q9 -2 13 -1h15q4 3 12 8t11 7q3 1 9.5 5.5t7.5 5.5q1 0 5.5 2t6.5 2q4 1 16 16q2 -2 8 -2q5 -2 12 1q5 5 10 5q16 0 28 8q3 2 7 2q8 1 21 1q18 0 28 8q1 0 5 1t7 1 q13 3 15 5l18 9q7 1 11 7q3 6 9 12q4 7 1.5 18.5t-11.5 16.5q-3 2 -10.5 4t-11.5 5q-5 4 -20 0l-4 -2q-5 -2 -7 -2q-25 -3 -44 -2q-10 2 -8 11q1 4 6 16.5t6 20.5l5 15q18 44 22 64q1 6 6 18.5t7 19.5q2 16 11 38q3 5 5.5 16.5t4.5 17.5q4 8 0 23q1 5 6 8q1 1 3 4q0 1 0.5 3 t1 3.5t1 3.5t1.5 3q0 2 1 3v2q1 2 5.5 16t8.5 21q3 7 6.5 20t5.5 20q11 28 14 46q12 34 16 41l6 6q5 1 12 1h73q8 0 13 1q6 3 8 10q1 2 3 3.5t3 0.5q10 -4 12 10q4 11 -3 22q-5 8 -12 13q-22 14 -33 20q-16 3 -20 4q-12 7 -32 7h-44h-46q-9 0 -15 -6q-7 -2 -15 0q-1 2 -3 2z M331 843l1 2q13 13 18 21q1 5 7 11q0 3 2 1q3 2 6 -1q2 -2 3 -4q1 -4 2.5 -12.5t3.5 -12.5q3 -8 8 -24t8 -24q1 -2 3 -5t3 -5q9 -14 10 -16q0 -1 6 -7q3 -2 7 -6q14 -14 28 -16h3q9 -1 16 7q2 2 2 8q0 1 -2 7t-4 9t-7 12t-9 13l-6 12q-1 3 -10 29q0 8 -8 28q-1 3 -1 12 q-5 17 -5 21q-1 2 -3.5 9.5t-4.5 11.5q0 4 -1 5q-2 9 -13 18q-1 1 -13 7q-2 0 -7 1t-8 1q-6 2 -11 -3q-17 -14 -24 -23q-1 0 -7 -6q-2 -3 -4.5 -6t-4.5 -6l-4 -6t-4.5 -6.5t-6 -7l-5.5 -5.5q-1 0 -5 -7q-4 -4 -11 -13t-11 -14q-13 -16 -15 -19q-14 -19 -17 -24 q-2 -2 -8 -12.5t-10 -15.5q-5 -4 -1 -8q7 -9 8 -10q4 -4 7 -4q11 -4 26 -4q3 0 9 3q3 2 9 10q1 1 5.5 7t7.5 8q4 3 8.5 10t7.5 10q1 1 3 3.5t3 3.5q3 2 8.5 7t7.5 7q1 1 2 3t2 3v3v9z" glyph-name="Icircumflex" horiz-adv-x="421" unicode="Î"/><glyph d="M129 42q-1 -3 -3 -3q-4 2 -2 7l3 3q4 -2 2 -7zM257 684q-14 -5 -25 -6q-40 0 -60 -1l-8 1q-9 0 -9 -1q-22 -10 -28 -18q0 -1 -1 -3v-3q4 -12 5 -24q5 -12 6 -13q6 -8 8 -13q11 -12 23 -19q11 -8 24 -4q5 4 14 6q5 0 11.5 2.5t13.5 0.5q9 -2 9 -13q0 -5 -1 -6q0 -3 -8 -34 q-1 -7 -7 -18q-7 -22 -8 -28q0 -4 -5 -14q-2 -8 -6.5 -21t-5.5 -17q-1 -6 -5 -17t-5 -17q-2 -6 -5.5 -18.5t-6.5 -18.5q-9 -23 -10 -39q-1 -2 -2 -7t-1 -7q-7 -16 -8 -20q-2 -7 -11 -29t-12 -35q-6 -17 -42 -110q-3 -8 -10 -11q-1 -11 -17 -19q-11 -7 -26 -12q-1 -1 -4 -2 t-4 -2q-2 0 -7.5 -1t-8.5 -1t-7 -6q-6 -10 -3 -23q0 -3 1.5 -8t2.5 -7q3 -10 10 -14q5 -3 15 -10t14 -9q9 -2 13 -1h15q4 3 12 8t11 7q3 1 9.5 5.5t7.5 5.5q1 0 5.5 2t6.5 2q4 1 16 16q2 -2 8 -2q5 -2 12 1q5 5 10 5q16 0 28 8q3 2 7 2q8 1 21 1q18 0 28 8q1 0 5 1t7 1 q13 3 15 5l18 9q7 1 11 7q3 6 9 12q4 7 1.5 18.5t-11.5 16.5q-3 2 -10.5 4t-11.5 5q-5 4 -20 0l-4 -2q-5 -2 -7 -2q-25 -3 -44 -2q-10 2 -8 11q1 4 6 16.5t6 20.5l5 15q18 44 22 64q1 6 6 18.5t7 19.5q2 16 11 38q3 5 5.5 16.5t4.5 17.5q4 8 0 23q1 5 6 8q1 1 3 4q0 1 0.5 3 t1 3.5t1 3.5t1.5 3q0 2 1 3v2q1 2 5.5 16t8.5 21q3 7 6.5 20t5.5 20q11 28 14 46q12 34 16 41l6 6q5 1 12 1h73q8 0 13 1q6 3 8 10q1 2 3 3.5t3 0.5q10 -4 12 10q4 11 -3 22q-5 8 -12 13q-22 14 -33 20q-16 3 -20 4q-12 7 -32 7h-44h-46q-9 0 -15 -6q-7 -2 -15 0q-1 2 -3 2z M441 818q0 6 -1 10q-2 5 -6 8q-15 10 -29 11q-2 0 -10 2q-1 0 -3 1q-4 0 -6 -2q-13 -9 -14 -19q-1 -4 -4.5 -17t-6.5 -19q-1 -1 -1 -4q-2 -8 4 -13q11 -11 20 -12q3 0 8 -3t8 -3q8 -3 16 4q8 8 12 16l12 33q1 2 1 7zM210 819q-13 0 -18 -2q-5 -1 -9 -6t-4 -9q1 -6 1 -17 q0 -4 4 -10q8 -8 12 -11l9 -6q4 0 20 -7q6 -2 9 3q4 3 7 7q5 6 6 13v6q1 14 -7 26l-5 5l-6 3q-10 5 -17 5h-2z" glyph-name="Idieresis" horiz-adv-x="421" unicode="Ï"/><glyph d="M241 555q7 -3 3 -9q-1 -2 -3 -3q-6 3 -3 8q0 1 3 4zM217 98q-26 -13 -51 -10q-8 2 -11 7q-2 3 -2 11q0 1 2 5l3 6q12 32 16 40q6 11 9 28q1 9 6 18q6 16 18 44.5t21.5 52t17.5 44.5q2 4 6 13.5t7 13.5q11 16 37 77q13 21 16 25q5 8 8 18q5 11 14.5 33t14.5 33q6 14 7 16 q2 5 10 7t13 0l5 -2.5t4 -2.5q12 -9 18 -17q18 -14 25 -32q10 -19 11 -23q2 -6 6 -17.5t5 -16.5q2 -2 4 -12q0 -17 4 -30q3 -8 2 -12q-4 -14 2 -30v-6q-2 -4 -7.5 -12.5t-6.5 -14.5q-2 -16 -6 -23q-9 -24 -18 -39q-26 -40 -54 -73q-27 -30 -28 -31q-10 -10 -19 -15 q-2 -3 -8 -6.5t-7 -4.5q-19 -22 -55 -44q-8 -6 -12 -15q-3 -7 -15 -5q-4 0 -12 2zM588 371q0 15 -2 39q0 26 -10 42q-2 3 -4 18q-3 16 -11 28l-12 27q-7 21 -25 50q-30 32 -37 46q-3 4 -10 9q-1 1 -6.5 3.5t-7.5 5.5q-10 12 -16 18q-2 4 -8 8q-66 32 -94 38q-9 5 -25.5 8.5 t-20.5 4.5q-7 2 -18 -1q-7 -4 -23 -6q-7 0 -17 -2q-21 -5 -25 -24q0 -13 -5 -31q-2 -6 -2 -12q0 -44 6 -65q4 -12 -1 -25q-19 -44 -27 -55q-3 -3 -8 -15q-23 -53 -37 -90q0 -2 1 -6t1 -6q-1 -4 -6 -8t-6 -5q-16 -25 -16 -46q2 -9 0 -18q0 -13 -12 -20q-14 -7 -18 -23 q-6 -35 -26 -62l-5 -10q-5 -13 -31 -74q-2 -9 1 -17q8 -16 10 -22q5 -10 11 -15q15 -6 33 -15q26 -20 28 -22q10 -6 15 -8q7 -2 18.5 -7.5t14.5 -6.5q11 -7 29 -7q7 0 21 1t21 1q11 1 28 8q15 6 17 7q18 1 38 14q45 24 81 50q3 3 18 17q23 26 37 32q1 1 5.5 5t6.5 6 q5 8 16.5 20t15.5 18q1 1 17 25q2 6 12 13q1 1 5.5 5t6.5 6q3 6 14.5 30.5t20.5 35.5l3 12q1 2 3 24q2 7 8 23.5t9 25.5zM53 301q4 -1 12 -2t12 -2q9 -3 21 -3h11q7 1 29 -1q9 -2 28.5 -5.5t29.5 -5.5q8 3 33 1q7 -2 19 -4.5t17 -3.5q4 0 12 -1.5t12 -2.5q19 0 38 10 q0 3 5 9.5t6 11.5q-2 16 -2 21q-18 26 -39 39h-7q-11 -2 -29 0q-12 2 -25 5q-7 3 -11 -1q-18 0 -34 3q-4 1 -15 2t-17 3h-12q-13 -3 -25 0q-31 4 -41 2q-1 0 -4 1t-4 1q-1 2 -4 3t-3 2q-5 -1 -14.5 -2t-10.5 -1q-11 -2 -14 -11q-5 -10 -5 -28q0 -5 3 -9q4 -11 12 -16 q5 -4 16 -15z" glyph-name="Eth" horiz-adv-x="588" unicode="Ð"/><glyph d="M80 25l66 156q12 27 34.5 81t33.5 81q8 22 11 34q1 5 8 7q6 3 9 -3q2 -3 9 -23q3 -9 0 -18q-5 -12 -5 -24v-87q0 -18 4 -31q1 -3 -1 -12q-5 -24 0 -55q5 -14 7 -43q0 -12 2 -18q1 -3 12 -41q5 -13 16 -15q5 -1 25 -8q12 -7 26 1q3 2 9 5.5t9 4.5q24 41 25 42q3 8 8 15 t11 16t9 13l3 6q5 10 16.5 30.5t16.5 32.5q4 12 8 16q6 9 22 43q22 49 25 54q5 8 12.5 24.5t11.5 23.5q20 35 25 48q4 12 7 16q6 9 32 65q12 26 16 32l9 15q4 8 11.5 25t10.5 25q11 28 29 58q-1 3 -1.5 8t-0.5 8q5 1 8.5 5t5 7.5t4.5 9.5t4 9q5 12 3 31q0 10 -6 17 q-7 12 -19 20q-16 10 -22 14q-23 6 -42 -8q-4 -2 -5 -3q0 -1 -3 -4t-4 -5q-2 -4 -5 -11t-5 -11q0 -7 -11 -41v-7q0 -1 1.5 -5t2.5 -6q0 -1 0.5 -3t0.5 -3q2 -6 -3 -14t-11 -8q-3 -1 -10 1q-9 -16 -22 -48t-20 -45q-1 -1 -3.5 -4.5t-3.5 -5.5q-28 -37 -31 -77q-1 -7 -10 -13 q-12 -8 -18 -22q-19 -42 -27 -53q-4 -8 -11.5 -24.5t-11.5 -24.5q-20 -27 -25 -32q-2 -1 -5 -1q-6 0 -6 7q-2 16 -2 25q0 26 0.5 78t0.5 78q0 70 -2 104q-4 13 -10 37q-5 17 -16 24q-13 8 -22 17q-6 7 -19 9q-21 4 -41 -7q-26 -15 -37 -42q-5 -9 -13 -20q-2 -3 -6.5 -9 t-6.5 -9q-30 -60 -33 -64q-2 -4 -10 -22q-10 -22 -14 -33q-3 -7 -10.5 -19t-9.5 -18q-1 -3 -4.5 -16t-6.5 -19q-1 -3 -4.5 -10.5t-6.5 -11.5q-6 -9 -16 -31q-7 -16 -20.5 -47.5t-19.5 -47.5q-3 -6 -8.5 -19t-8.5 -20q-1 -3 -3 -13.5t-5 -15.5q-3 -6 -5.5 -18t-4.5 -18 q-8 -22 -13 -34q0 -1 -0.5 -3t-0.5 -3v-6q10 -31 27 -61q2 -5 8 -7q18 -4 42 -2q9 1 19 11q6 8 11 13zM266 774q10 -7 25 -12q4 -2 8 2l6.5 6.5t5.5 6.5l23 23q3 2 9 5l8 4q3 1 7 1q8 -1 15 -6q23 -25 30 -41q0 -5 5 -8q4 -5 13.5 -14t13.5 -15q14 -11 29 -8q3 0 6.5 0.5 t8 1.5t6.5 1q19 8 31 16q6 1 12 7q2 1 5 3t5.5 3.5t4.5 2.5q6 3 15 11t14 11t6 7q3 3 9 9.5t10 10.5q11 12 12 26v7q0 5 -6 17q-2 4 -4 5q-8 7 -21 11q-11 2 -17 -5q-10 -8 -16 -18q-9 -12 -17 -17q-26 -21 -33 -24q-7 -4 -14 -11l-6 -3q-16 -4 -23 -3q-3 0 -6 3t-9 10 q-1 3 -14 21q-9 6 -27 28q-34 18 -53 23q-1 0 -4.5 -0.5t-5.5 -0.5q-17 -2 -27 -12q-28 -20 -42 -38q-1 -3 -4 -9.5t-5 -10.5q0 -1 -0.5 -1t-0.5 -1q-2 -10 2 -15l4.5 -4.5z" glyph-name="Ntilde" horiz-adv-x="560" unicode="Ñ"/><glyph d="M476 446q-3 -5 -8 -3q-3 3 -3 4q3 5 8 4q1 0 3 -5zM194 353q21 31 27 43q3 7 13 19q11 12 32 36.5t31 36.5q8 10 16 15q10 6 13 10q20 24 66 49q4 3 9.5 -1t6.5 -11q1 -16 -1 -49q-2 -4 -2 -5q-6 -12 -6 -24q-2 -13 -16 -65q-15 -52 -26 -73q-2 -5 -4.5 -10.5t-5 -12 t-3.5 -10.5l-4 -8q-11 -13 -35 -43q-26 -30 -40 -38q-5 -3 -16 -16q-14 -14 -27 -18q-10 -5 -54 -20q-10 -4 -19.5 3.5t-12.5 21.5q-2 21 1 36q1 4 5 16.5t6 18.5q2 9 4 12q9 13 21.5 42.5t20.5 44.5zM45 164q9 -23 20 -49q4 -10 9 -15q9 -12 19 -22q5 -5 8 -6q10 -3 30 -11 t30 -11q21 -7 46 1q6 4 19 6t17 3q59 32 92 54q3 3 8 9t8 9q3 4 9 7q43 32 61 73q6 8 14.5 25t11.5 22q10 16 12 27q1 6 5.5 19.5t5.5 21.5q2 8 7.5 21t7.5 18q7 16 2 36q-3 9 2 16l3 6t3 5q2 2 2 5q-3 9 0.5 23.5t3.5 18.5q0 9 0.5 27.5t-0.5 28.5q0 62 1 92q0 12 -1 18 q-1 13 -9 22q-4 6 -8 8q-7 5 -25 21q-5 5 -15 5q-24 2 -36 -4q-5 -3 -15 -6t-14 -5q-5 -3 -16 -10t-17 -10q-4 -2 -10.5 -6.5t-12 -8t-10.5 -6.5q-13 -13 -19 -20q-4 -4 -11.5 -8t-10.5 -7q-6 -7 -23.5 -21t-25.5 -25q-2 -1 -5 -3.5t-4 -3.5q-6 -4 -19 -21q-3 -4 -10.5 -10 t-9.5 -8q-22 -25 -25 -32q-5 -11 -17 -27t-14 -20q-16 -38 -21 -45q-11 -17 -24 -48q-5 -12 -7 -15q-13 -14 -14 -33q-1 -5 -5.5 -16t-4.5 -19q0 -11 -8 -35q-2 -7 0 -13q3 -6 10 -48zM364 888q0 -8 5 -13q9 -11 31 -31q11 -11 22 -18q3 -1 8 -6q19 -17 30 -23q4 -3 10 -9 q18 -16 22 -18q2 -1 9 -10q4 -6 6 -8q12 -14 24 -19q4 -1 11 -1q11 3 21 11q3 2 5 5q2 2 4 7t4 8q2 7 -1 13q-1 4 -3 6q-28 28 -42 41q-5 5 -8 7q-9 5 -32 26l-9 6q-6 3 -11 8q-6 6 -20 17t-20 16t-20 13q-10 4 -20 1q-6 -2 -16 -8q-2 0 -2 -2q-3 -4 -7 -12q-1 -2 -1 -7z " glyph-name="Ograve" horiz-adv-x="520" unicode="Ò"/><glyph d="M476 446q-3 -5 -8 -3q-3 3 -3 4q3 5 8 4q1 0 3 -5zM194 353q21 31 27 43q3 7 13 19q11 12 32 36.5t31 36.5q8 10 16 15q10 6 13 10q20 24 66 49q4 3 9.5 -1t6.5 -11q1 -16 -1 -49q-2 -4 -2 -5q-6 -12 -6 -24q-2 -13 -16 -65q-15 -52 -26 -73q-2 -5 -4.5 -10.5t-5 -12 t-3.5 -10.5l-4 -8q-11 -13 -35 -43q-26 -30 -40 -38q-5 -3 -16 -16q-14 -14 -27 -18q-10 -5 -54 -20q-10 -4 -19.5 3.5t-12.5 21.5q-2 21 1 36q1 4 5 16.5t6 18.5q2 9 4 12q9 13 21.5 42.5t20.5 44.5zM45 164q9 -23 20 -49q4 -10 9 -15q9 -12 19 -22q5 -5 8 -6q10 -3 30 -11 t30 -11q21 -7 46 1q6 4 19 6t17 3q59 32 92 54q3 3 8 9t8 9q3 4 9 7q43 32 61 73q6 8 14.5 25t11.5 22q10 16 12 27q1 6 5.5 19.5t5.5 21.5q2 8 7.5 21t7.5 18q7 16 2 36q-3 9 2 16l3 6t3 5q2 2 2 5q-3 9 0.5 23.5t3.5 18.5q0 9 0.5 27.5t-0.5 28.5q0 62 1 92q0 12 -1 18 q-1 13 -9 22q-4 6 -8 8q-7 5 -25 21q-5 5 -15 5q-24 2 -36 -4q-5 -3 -15 -6t-14 -5q-5 -3 -16 -10t-17 -10q-4 -2 -10.5 -6.5t-12 -8t-10.5 -6.5q-13 -13 -19 -20q-4 -4 -11.5 -8t-10.5 -7q-6 -7 -23.5 -21t-25.5 -25q-2 -1 -5 -3.5t-4 -3.5q-6 -4 -19 -21q-3 -4 -10.5 -10 t-9.5 -8q-22 -25 -25 -32q-5 -11 -17 -27t-14 -20q-16 -38 -21 -45q-11 -17 -24 -48q-5 -12 -7 -15q-13 -14 -14 -33q-1 -5 -5.5 -16t-4.5 -19q0 -11 -8 -35q-2 -7 0 -13q3 -6 10 -48zM577 888q-1 1 -1 3.5t-1 3.5l-6 12q-2 2 -3 2q-10 6 -15 8q-11 3 -20 -1q-14 -8 -21 -13 q-6 -6 -20 -17t-20 -16q-5 -5 -11 -8q-1 -1 -4 -3t-4 -3q-31 -26 -32 -26q-6 -4 -8 -7q-14 -13 -42 -41q-2 -1 -4 -6q-3 -6 0 -13q2 -5 8 -15q1 -2 4 -5q12 -8 22 -11q7 0 10 1q13 5 25 19q2 2 6 8q4 7 9 10q4 2 7.5 5t7.5 7l6 6t5.5 5t5.5 4q8 4 29 23q1 1 3 2q4 3 6 4 q8 5 21 18q22 20 32 31q3 4 5 13z" glyph-name="Oacute" horiz-adv-x="520" unicode="Ó"/><glyph d="M476 446q-3 -5 -8 -3q-3 3 -3 4q3 5 8 4q1 0 3 -5zM194 353q21 31 27 43q3 7 13 19q11 12 32 36.5t31 36.5q8 10 16 15q10 6 13 10q20 24 66 49q4 3 9.5 -1t6.5 -11q1 -16 -1 -49q-2 -4 -2 -5q-6 -12 -6 -24q-2 -13 -16 -65q-15 -52 -26 -73q-2 -5 -4.5 -10.5t-5 -12 t-3.5 -10.5l-4 -8q-11 -13 -35 -43q-26 -30 -40 -38q-5 -3 -16 -16q-14 -14 -27 -18q-10 -5 -54 -20q-10 -4 -19.5 3.5t-12.5 21.5q-2 21 1 36q1 4 5 16.5t6 18.5q2 9 4 12q9 13 21.5 42.5t20.5 44.5zM45 164q9 -23 20 -49q4 -10 9 -15q9 -12 19 -22q5 -5 8 -6q10 -3 30 -11 t30 -11q21 -7 46 1q6 4 19 6t17 3q59 32 92 54q3 3 8 9t8 9q3 4 9 7q43 32 61 73q6 8 14.5 25t11.5 22q10 16 12 27q1 6 5.5 19.5t5.5 21.5q2 8 7.5 21t7.5 18q7 16 2 36q-3 9 2 16l3 6t3 5q2 2 2 5q-3 9 0.5 23.5t3.5 18.5q0 9 0.5 27.5t-0.5 28.5q0 62 1 92q0 12 -1 18 q-1 13 -9 22q-4 6 -8 8q-7 5 -25 21q-5 5 -15 5q-24 2 -36 -4q-5 -3 -15 -6t-14 -5q-5 -3 -16 -10t-17 -10q-4 -2 -10.5 -6.5t-12 -8t-10.5 -6.5q-13 -13 -19 -20q-4 -4 -11.5 -8t-10.5 -7q-6 -7 -23.5 -21t-25.5 -25q-2 -1 -5 -3.5t-4 -3.5q-6 -4 -19 -21q-3 -4 -10.5 -10 t-9.5 -8q-22 -25 -25 -32q-5 -11 -17 -27t-14 -20q-16 -38 -21 -45q-11 -17 -24 -48q-5 -12 -7 -15q-13 -14 -14 -33q-1 -5 -5.5 -16t-4.5 -19q0 -11 -8 -35q-2 -7 0 -13q3 -6 10 -48zM460 834l1 2q13 13 19 20q1 5 7 11q0 3 2 1q3 2 6 -1q2 -2 3 -4q1 -4 1.5 -9.5t1.5 -9.5 t2 -7q0 -2 14 -48q1 -2 5 -11q8 -13 9 -16q1 -1 6 -7l7 -7q11 -13 27 -17h3q10 -1 16 6q0 1 3 8q-1 1 -2.5 7t-3.5 9q-1 1 -5.5 11.5t-9.5 14.5q0 2 -5 12q-2 6 -5 16.5t-4 13.5q1 6 -6 28q-1 3 -1 12q-4 14 -4 21q-1 3 -3 10.5t-4 11.5q0 4 -1 5q-1 9 -12 18q-3 3 -13 8 q-3 0 -8 1.5t-6 1.5q-6 2 -12 -3q-24 -21 -25 -22q-1 0 -7 -6q-13 -16 -14 -17q-2 -4 -8.5 -10t-7.5 -8q-2 -1 -6 -7q-4 -5 -11.5 -13t-11.5 -13l-7.5 -7.5t-8.5 -10.5q-3 -4 -9 -11.5t-9 -11.5q-17 -25 -19 -28q-5 -2 -1 -8q4 -8 7 -10q4 -4 7 -4q10 -5 26 -5q5 0 9 2 q3 2 9 10q1 1 4 4.5t5.5 6t4.5 3.5q4 3 9 10t8 9q1 1 3 3.5t3 3.5q14 11 17 13q0 1 1.5 3t2.5 3v3q0 6 1 9z" glyph-name="Ocircumflex" horiz-adv-x="520" unicode="Ô"/><glyph d="M476 446q-3 -5 -8 -3q-3 3 -3 4q3 5 8 4q1 0 3 -5zM194 353q21 31 27 43q3 7 13 19q11 12 32 36.5t31 36.5q8 10 16 15q10 6 13 10q20 24 66 49q4 3 9.5 -1t6.5 -11q1 -16 -1 -49q-2 -4 -2 -5q-6 -12 -6 -24q-2 -13 -16 -65q-15 -52 -26 -73q-2 -5 -4.5 -10.5t-5 -12 t-3.5 -10.5l-4 -8q-11 -13 -35 -43q-26 -30 -40 -38q-5 -3 -16 -16q-14 -14 -27 -18q-10 -5 -54 -20q-10 -4 -19.5 3.5t-12.5 21.5q-2 21 1 36q1 4 5 16.5t6 18.5q2 9 4 12q9 13 21.5 42.5t20.5 44.5zM45 164q9 -23 20 -49q4 -10 9 -15q9 -12 19 -22q5 -5 8 -6q10 -3 30 -11 t30 -11q21 -7 46 1q6 4 19 6t17 3q59 32 92 54q3 3 8 9t8 9q3 4 9 7q43 32 61 73q6 8 14.5 25t11.5 22q10 16 12 27q1 6 5.5 19.5t5.5 21.5q2 8 7.5 21t7.5 18q7 16 2 36q-3 9 2 16l3 6t3 5q2 2 2 5q-3 9 0.5 23.5t3.5 18.5q0 9 0.5 27.5t-0.5 28.5q0 62 1 92q0 12 -1 18 q-1 13 -9 22q-4 6 -8 8q-7 5 -25 21q-5 5 -15 5q-24 2 -36 -4q-5 -3 -15 -6t-14 -5q-5 -3 -16 -10t-17 -10q-4 -2 -10.5 -6.5t-12 -8t-10.5 -6.5q-13 -13 -19 -20q-4 -4 -11.5 -8t-10.5 -7q-6 -7 -23.5 -21t-25.5 -25q-2 -1 -5 -3.5t-4 -3.5q-6 -4 -19 -21q-3 -4 -10.5 -10 t-9.5 -8q-22 -25 -25 -32q-5 -11 -17 -27t-14 -20q-16 -38 -21 -45q-11 -17 -24 -48q-5 -12 -7 -15q-13 -14 -14 -33q-1 -5 -5.5 -16t-4.5 -19q0 -11 -8 -35q-2 -7 0 -13q3 -6 10 -48zM313 783q10 -7 25 -12q4 -2 8 2q2 2 6 6.5t6 6.5l23 23q3 2 9 5l8 4q3 1 7 1q8 -1 15 -6 q23 -25 30 -41q0 -5 5 -8q4 -5 13.5 -14t13.5 -15q14 -11 29 -8l21 3q19 8 31 16q6 1 12 7l15 9q6 3 15 11t14 11t6 7q3 3 9 9.5t10 10.5q11 12 12 26v7q0 5 -6 17q-2 4 -4 5q-8 7 -21 11q-11 1 -17 -5q-10 -8 -16 -18q-9 -12 -17 -17q-26 -21 -33 -24q-8 -4 -14 -11l-6 -3 q-16 -4 -23 -3q-3 0 -6 3t-9 10q-1 3 -14 21q-9 6 -27 28q-34 18 -53 23q-1 0 -4.5 -0.5t-5.5 -0.5q-17 -2 -27 -12q-28 -20 -42 -38q-1 -3 -4 -9.5t-5 -10.5v-1l-1 -1q-2 -10 2 -15l4.5 -4.5z" glyph-name="Otilde" horiz-adv-x="520" unicode="Õ"/><glyph d="M476 446q-3 -5 -8 -3q-3 3 -3 4q3 5 8 4q1 0 3 -5zM194 353q21 31 27 43q3 7 13 19q11 12 32 36.5t31 36.5q8 10 16 15q10 6 13 10q20 24 66 49q4 3 9.5 -1t6.5 -11q1 -16 -1 -49q-2 -4 -2 -5q-6 -12 -6 -24q-2 -13 -16 -65q-15 -52 -26 -73q-2 -5 -4.5 -10.5t-5 -12 t-3.5 -10.5l-4 -8q-11 -13 -35 -43q-26 -30 -40 -38q-5 -3 -16 -16q-14 -14 -27 -18q-10 -5 -54 -20q-10 -4 -19.5 3.5t-12.5 21.5q-2 21 1 36q1 4 5 16.5t6 18.5q2 9 4 12q9 13 21.5 42.5t20.5 44.5zM45 164q9 -23 20 -49q4 -10 9 -15q9 -12 19 -22q5 -5 8 -6q10 -3 30 -11 t30 -11q21 -7 46 1q6 4 19 6t17 3q59 32 92 54q3 3 8 9t8 9q3 4 9 7q43 32 61 73q6 8 14.5 25t11.5 22q10 16 12 27q1 6 5.5 19.5t5.5 21.5q2 8 7.5 21t7.5 18q7 16 2 36q-3 9 2 16l3 6t3 5q2 2 2 5q-3 9 0.5 23.5t3.5 18.5q0 9 0.5 27.5t-0.5 28.5q0 62 1 92q0 12 -1 18 q-1 13 -9 22q-4 6 -8 8q-7 5 -25 21q-5 5 -15 5q-24 2 -36 -4q-5 -3 -15 -6t-14 -5q-5 -3 -16 -10t-17 -10q-4 -2 -10.5 -6.5t-12 -8t-10.5 -6.5q-13 -13 -19 -20q-4 -4 -11.5 -8t-10.5 -7q-6 -7 -23.5 -21t-25.5 -25q-2 -1 -5 -3.5t-4 -3.5q-6 -4 -19 -21q-3 -4 -10.5 -10 t-9.5 -8q-22 -25 -25 -32q-5 -11 -17 -27t-14 -20q-16 -38 -21 -45q-11 -17 -24 -48q-5 -12 -7 -15q-13 -14 -14 -33q-1 -5 -5.5 -16t-4.5 -19q0 -11 -8 -35q-2 -7 0 -13q3 -6 10 -48zM589 837q0 6 -1 10q-2 5 -6 8q-15 10 -29 11q-2 0 -10 2h-1l-2 1q-4 0 -6 -2 q-13 -9 -14 -19q-1 -4 -4.5 -17t-6.5 -19q-1 -1 -1 -4q-2 -8 4 -13q11 -11 20 -12q3 -1 8 -3t8 -3q8 -3 16 4q8 8 12 16l12 33q1 2 1 7zM358 838q-13 0 -18 -2q-5 -1 -9 -6t-4 -9q1 -6 1 -17q0 -4 4 -10q8 -8 12 -11l9 -6q4 0 20 -7q6 -2 9 3q4 3 7 7q5 6 6 13v6q1 14 -7 26 l-5 5l-6 3q-10 5 -17 5h-2z" glyph-name="Odieresis" horiz-adv-x="520" unicode="Ö"/><glyph d="M141 142l12.5 -5t12.5 -4q3 -1 12 1q4 2 11 9t12 10q5 2 6 6q16 18 27 25q6 6 8 10q6 8 16 20q4 7 8 9q8 3 13 11q26 36 40 54q3 8 14 15q9 7 11 12q8 11 22 30.5t20 27.5q13 18 22 25l9 9q9 11 23.5 32t21.5 30q1 1 2 3.5t1 3.5q5 8 0 16q-1 3 -4 8t-4 7q-2 3 -11 12 q-12 8 -18 11q-12 2 -17 -3q0 -1 -2 -2.5t-3 -3.5q-13 -17 -32 -45l-8 -8q-11 -8 -21 -22q-4 -6 -16 -22t-18 -26q-10 -14 -20 -21q-1 -1 -2.5 -2t-2 -2t-2 -2.5l-2.5 -2.5l-39 -54q-3 -6 -8 -10q-15 -10 -21 -20q-11 -18 -24 -23q-4 -5 -11 -13t-8 -9l-10.5 -7t-11.5 -7 q-14 -9 -22 -24q-2 -4 -2 -8q0 -14 4 -25q3 -5 7 -14t5 -12zM441 271l-2 4q-8 18 -27 30q-2 1 -3.5 2l-3 2t-2.5 2q-2 4 -7.5 8.5t-7.5 6.5q-3 2 -6.5 4.5t-8 5.5t-6.5 5q-1 1 -2.5 2t-2.5 2.5t-2 2.5l-16 16q-12 7 -22 18q-7 8 -47 43q-10 8 -27 25l-7 8q-7 7 -11 10 q-3 3 -9 8.5t-9 8.5q-3 2 -11.5 9t-14.5 10q-3 3 -6 5q-7 8 -30 16h-7q-9 -1 -20 -12q-1 0 -5 -7q-2 -7 -15 -26q-3 -2 -3 -7q-3 -16 6 -22l6 -2q22 -6 37 -21l3 -3q29 -22 36 -30l4 -5q5 -6 8 -8t15 -14q2 -2 9 -8t11 -8q17 -18 22 -20q2 -2 6.5 -7t8.5 -9t8 -7 q12 -8 20 -18q12 -11 14 -13l5.5 -5.5t7 -6.5t6.5 -4q3 -2 22 -18q2 -4 7 -9q4 -3 11 -9.5t11 -9.5q3 -2 23 -22q5 -3 12.5 -11.5t10.5 -11.5q5 -4 13 -13t10 -11q6 -5 18 -9q5 0 8 -1q1 0 7 2q11 9 17 23q1 2 3 6.5t2 5.5q2 10 2 14q-1 2 -1 7q-2 11 -5 15q-22 28 -31 36 q-3 2 -8 7.5t-7 8.5q-2 2 -2 3q-4 6 -15 6z" glyph-name="multiply" horiz-adv-x="595" unicode="×"/><glyph d="M203 99q-2 4 -2 7q0 1 2 7t4 9q1 4 4.5 9.5t4.5 8.5q0 1 0.5 3.5t0.5 4.5q1 2 2.5 6.5t2.5 6.5q0 3 3 7.5t4 7.5q2 8 5 15l1 2q0 1 1 1q4 5 5 10q8 24 14 35q3 7 5 15q3 11 8 19q3 8 9.5 23.5t9.5 23.5q1 1 1 2q1 2 1 3q14 31 17 38t9.5 19.5t8.5 17.5q8 13 8 16 q1 3 2.5 5.5t3.5 5t3 4.5q3 5 10 17t10 19q2 3 5 9.5t4 8.5q4 6 10 18q2 2 4 3q0 -2 2 -6t2 -6t0.5 -6t0.5 -6q1 -2 1 -4.5v-3.5q1 -4 4 -33q0 -18 1 -21q1 -2 0 -5.5t-1 -4.5q1 -4 0.5 -13.5t-0.5 -13.5t-0.5 -13.5t-0.5 -14.5q0 -2 -2 -10q0 -1 -1 -4.5t0 -5.5 q0 -2 -5 -22q0 -2 -4 -17t-8 -23q-1 -2 -2.5 -6.5t-2.5 -6.5l-9.5 -19t-9.5 -20q-2 -3 -5.5 -9.5t-5.5 -8.5q-13 -16 -15 -19q-10 -14 -15 -19q-18 -23 -35 -36q-18 -17 -46 -25q-1 0 -2 -1t-2 -1q-9 0 -20 -3zM125 129q-2 1 -20 19l-5.5 11t-4.5 10q-3 4 -5 11q0 6 -8 22 v11v13.5v11.5q0 12 1 14l3 29q0 4 2 10l6 30q0 3 2 5q0 2 3.5 11.5t3.5 15.5q0 1 2 3q4 7 9 21.5t8 21.5q1 2 2.5 5.5t2.5 5.5q1 4 4 7q1 1 2 3.5t2 4.5q3 11 11 21l5 10l1 4q2 3 3 5q5 6 12 20t11 20v6q8 4 10 10q7 11 10 20q13 13 16 18q5 8 15 20q2 2 7.5 9t7.5 11 q1 2 4.5 4.5t4.5 3.5q5 8 15 15q1 0 2.5 1t2.5 2q8 8 16 12q3 1 8 4t7 4h8q14 -8 22 -9q5 -2 5 -7l-7 -21l-12 -33q-1 -5 -5 -13q-3 -6 -9 -21.5t-10 -23.5q-3 -5 -9.5 -20t-11.5 -22q-5 -9 -22 -42q-12 -22 -16 -34q0 -2 -1 -2q-2 -3 -13 -27l-12 -27q0 -3 1 -4 q-8 -18 -14 -26q-1 -7 -7 -23q-7 -12 -7 -21q-3 -6 -7 -10q0 -11 -5 -26q-2 -5 -4 -7q-1 -1 -4 -7q0 -5 -1 -6q-2 -2 -10 -23q-1 -1 -2.5 -5t-3.5 -6q-2 -3 -3.5 -8t-2.5 -8q2 -3 -3 -11q-4 -5 -8 -21q0 -2 -5 -2zM109 545l-3.5 -7t-4.5 -8.5t-4 -5.5q-7 -14 -13 -21 q-13 -21 -25 -48q-3 -6 -7.5 -17t-6.5 -15q-5 -12 -10 -26q-6 -16 -7 -17q-2 -6 -2 -8q-1 -4 -3.5 -11.5t-2.5 -8.5q0 -2 -1 -5.5t-2 -4.5q-1 -9 -6.5 -29.5t-6.5 -31.5q-3 -5 -3 -22v-38q0 -20 3 -27q1 -1 1 -5q0 -11 1 -18q8 -18 11 -28q2 -6 3 -7q2 -2 3.5 -4.5t3 -5.5 l2.5 -5q2 -4 4 -6q16 -19 29 -30q5 -3 14.5 -12t16.5 -12q5 -3 5 -11q-8 -36 -8 -40q-6 -10 -7 -11q-1 -2 -2 -6.5t-2 -6.5q0 -2 -0.5 -5t-0.5 -5q1 -10 -3 -24v-5q6 -14 13 -19q2 0 5 0.5t4 0.5l3 -4q2 -4 6 -5q1 1 11 6l3 -3l1 -1q4 -4 6 0q11 16 13 23q1 6 7 14 q2 4 12 29q3 6 4 15q1 3 5 12t6 14q0 1 1 1q3 3 10 3q5 0 17 -1t18 -1q1 0 16 3q30 8 35 11q8 1 24 11q5 2 15 10q2 2 6.5 3t6.5 3t12.5 10.5t15.5 13.5q30 30 37 41q0 3 3 3q2 2 15 20q4 5 10 15.5t10 15.5q3 11 12 18q4 6 18 40q1 3 6 19q1 3 2.5 10t2.5 10q2 6 1 10 q2 4 3 13.5t3 13.5q0 9 1 13q0 14 1 16q3 12 3 23v53q0 4 -0.5 12.5t-0.5 13.5q0 4 -1.5 10t-1.5 9q0 9 -3 18q-1 4 -1.5 10.5t-0.5 8.5q-1 4 -5 14q-2 6 -2 9q-1 9 -7 27q-2 4 -2 7t-2 8t-2 7t-1 4.5t-2.5 5.5l-2.5 5q-9 24 -5 39q1 2 2.5 4.5t4 5.5t3.5 5q0 4 7 23 q-1 3 -2 8.5t-2 9t-4 5.5q-9 7 -33 16q-4 2 -8 0q-4 -1 -8 0q-2 2 -4 0q-9 -3 -10 -3l-12 -3q-8 5 -43 19h-16q-12 0 -18 -2q-15 -7 -31 -9q-8 -1 -18 -6q-9 -2 -14 -7q-30 -30 -34 -36q-2 -4 -8 -10q-8 -8 -16 -19q-1 -1 -16 -19q-2 -2 -4 -6q-4 -5 -12 -17.5t-13 -18.5 q-1 -1 -6 -9.5t-6 -13.5q-2 -2 -5 -5.5t-4 -4.5z" glyph-name="Oslash" horiz-adv-x="520" unicode="Ø"/></font>
</defs>
</svg>
